# Created by Open3D 
# object name: mano_right_mesh
# number of vertices: 778
# number of triangles: 1538
v -0.0500347 -0.0193581 0.0165831
vn -0.22404 -0.782551 -0.580878
v -0.039408 -0.0228736 0.016177
vn -0.266579 -0.714697 -0.646641
v -0.0443207 -0.0292716 0.0245376
vn -0.307972 -0.695081 -0.649628
v -0.0551052 -0.0241388 0.0244254
vn -0.376829 -0.755098 -0.536495
v -0.020847 -0.0326468 0.0267952
vn 0.34032 -0.888946 -0.306524
v -0.0128851 -0.0286168 0.0348209
vn 0.63669 -0.736785 0.227537
v -0.0236612 -0.034686 0.0424382
vn 0.621681 -0.741307 0.252936
v -0.0287314 -0.0378825 0.0343059
vn 0.294832 -0.933911 -0.2022
v -0.0594552 -0.0259373 0.0319505
vn -0.648227 -0.747163 -0.146796
v -0.0488948 -0.0331173 0.0311455
vn -0.422878 -0.76679 -0.482916
v -0.0597852 -0.0227668 0.038527
vn -0.814407 -0.444124 0.373489
v -0.0684384 -0.011171 0.0369524
vn -0.490725 -0.0472396 0.870033
v -0.0678742 -0.016957 0.0323138
vn -0.640532 -0.712577 0.286273
v -0.0756307 -0.00574934 0.0345288
vn -0.151176 0.0957911 0.983855
v -0.0623323 -0.00145101 0.0378685
vn -0.285196 0.562512 0.776043
v -0.0746592 0.00334192 0.030849
vn -0.109431 0.581687 0.806018
v -0.0546343 0.0151237 0.0120081
vn -0.127568 0.972739 0.19366
v -0.0507744 0.0160533 -0.000956344
vn -0.124398 0.991564 -0.0364125
v -0.0666638 0.0146653 -0.00271239
vn -0.102603 0.992234 -0.0703166
v -0.0690412 0.0131703 0.0105558
vn -0.157396 0.975826 0.151627
v -0.0559384 0.0109656 -0.0198747
vn -0.0858074 0.916948 -0.389671
v -0.0628534 0.0132697 -0.0107691
vn -0.121212 0.965898 -0.228797
v -0.0468376 0.0157468 -0.00900089
vn -0.134362 0.966339 -0.219398
v -0.0415126 0.0134829 -0.0174519
vn -0.117082 0.921545 -0.370199
v -0.041303 -0.0145282 0.00275624
vn -0.118815 -0.980875 -0.154166
v -0.0310075 -0.0158969 0.00185487
vn -0.221165 -0.950359 -0.218868
v -0.0342895 -0.017118 0.00691847
vn -0.236871 -0.809146 -0.53775
v -0.0437369 -0.0155398 0.00787082
vn -0.171875 -0.87695 -0.448796
v -0.052384 -0.0242473 0.0514062
vn -0.733328 0.4384 0.519649
v -0.0496229 -0.0126446 0.0478534
vn -0.461551 0.401944 0.79083
v -0.0565769 -0.0157052 0.0439678
vn -0.636451 0.0720004 0.767949
v -0.0547503 -0.0280294 0.0475803
vn -0.976393 0.156408 0.148974
v -0.00385255 -0.022892 -0.00652662
vn 0.22863 -0.971037 0.0693858
v 0.00804053 -0.016959 -0.00416138
vn 0.410337 -0.911814 0.0148141
v 0.00725894 -0.0162999 0.00163604
vn 0.290831 -0.950541 0.109037
v -0.00367225 -0.0213529 -0.00195229
vn 0.170938 -0.945151 0.278333
v 9.91523e-05 -0.0190771 0.0221752
vn 0.688433 -0.71467 0.123724
v 0.00661902 -0.0132976 0.0194776
vn 0.477361 -0.841584 0.252711
v 0.01105 -0.00454311 0.0291816
vn 0.407246 -0.48823 0.771869
v 0.00299787 -0.00717385 0.03274
vn 0.648638 -0.371179 0.66445
v -0.00653631 -0.0244705 0.0282367
vn 0.635244 -0.770119 0.0581552
v -0.0035951 -0.0144812 0.0370834
vn 0.718691 -0.325774 0.614292
v -0.0112198 -0.019724 0.0424626
vn 0.660613 -0.285914 0.694149
v -0.0222659 -0.0283352 0.0491563
vn 0.681258 -0.349733 0.643097
v 0.00955527 -0.0151642 -0.0168146
vn 0.444948 -0.852059 -0.275712
v 0.00123122 -0.0197459 -0.0202953
vn 0.402811 -0.875846 -0.265775
v -0.125873 -0.00818509 0.0289459
vn -0.0392034 -0.846167 0.531474
v -0.126788 -0.0098235 0.0234893
vn -0.0156075 -0.998865 0.0449903
v -0.121617 -0.0100098 0.0234655
vn -0.155599 -0.983659 0.0905745
v -0.121545 -0.00817832 0.0288066
vn -0.0557359 -0.733394 0.677516
v 0.00289544 -0.000947802 -0.0294842
vn 0.233492 -0.0743772 -0.96951
v 0.00144226 0.00905633 -0.0286571
vn 0.00042515 0.367737 -0.92993
v 0.0086288 0.00791297 -0.028854
vn -0.00604692 0.158921 -0.987273
v 0.0101894 -0.00133214 -0.0277378
vn 0.283745 -0.280184 -0.917053
v -0.00681666 -0.0006299 -0.0315981
vn 0.270523 0.134326 -0.953296
v -0.00859295 0.00994044 -0.0278378
vn 0.0668956 0.537322 -0.84072
v -0.127034 0.00442812 0.0299155
vn -0.127913 0.749154 0.649928
v -0.126827 -4.06872e-05 0.0323626
vn -0.0910557 0.23022 0.968869
v -0.122196 0.00134004 0.0322938
vn -0.0246661 0.307024 0.951382
v -0.122255 0.00572574 0.0293914
vn -0.0685086 0.820877 0.566982
v -0.0645312 -0.0191115 0.0253989
vn -0.438041 -0.875984 -0.201921
v -0.0595939 -0.0181277 0.0169837
vn -0.207826 -0.894495 -0.395837
v -0.0842551 -0.0156114 0.0224285
vn -0.136776 -0.978317 0.155527
v -0.0734138 -0.0158953 0.019106
vn -0.0820104 -0.987924 -0.131458
v -0.0735002 -0.0154708 0.0264816
vn -0.244843 -0.945105 0.216401
v -0.0821412 -0.0135765 0.0284427
vn -0.186164 -0.836007 0.516174
v -0.0634755 -0.0137246 -0.00250389
vn 0.0419232 -0.998802 0.0252406
v -0.0517233 -0.0134567 -0.00120982
vn -0.0342102 -0.998518 0.0423205
v -0.0548252 -0.0136781 0.00465459
vn -0.0393116 -0.980164 -0.194252
v -0.0678695 -0.0146248 0.0049015
vn 0.056186 -0.995384 -0.0778095
v -0.0474435 -0.0162899 -0.0143976
vn -0.114221 -0.94705 0.300082
v -0.0594396 -0.0159756 -0.0146281
vn -0.0465904 -0.967961 0.246739
v -0.0558005 -0.0177965 -0.0220906
vn -0.0879668 -0.953959 0.286748
v -0.0477709 -0.0185438 -0.0205657
vn -0.156641 -0.926681 0.341653
v -0.0811737 -0.0140289 -0.0122601
vn -0.188535 -0.98062 -0.0532841
v -0.0897421 -0.0112233 -0.0125443
vn -0.36785 -0.892642 -0.260531
v -0.0888175 -0.0100093 -0.0156796
vn -0.47727 -0.855991 -0.198728
v -0.0798236 -0.013479 -0.0156613
vn -0.258131 -0.963853 -0.0659993
v 0.0156834 0.00791007 -0.0285905
vn 0.13769 -0.0484321 -0.989291
v 0.0169553 -0.00125666 -0.0251904
vn 0.354684 -0.418997 -0.835847
v -0.0461993 0.00317103 -0.0369303
vn 0.0441955 0.7279 -0.684258
v -0.0401969 -0.00468937 -0.0418427
vn 0.162491 0.37267 -0.913627
v -0.0510424 -0.00692589 -0.0455188
vn 0.233217 0.382841 -0.893892
v -0.0543284 0.0017753 -0.0393474
vn 0.00363963 0.822732 -0.568418
v -0.00172912 0.016754 -0.0223632
vn -0.142332 0.748266 -0.647951
v 0.00577815 0.0166683 -0.0246632
vn -0.272817 0.644846 -0.713964
v -0.127726 0.00701421 0.0244035
vn -0.145711 0.978397 0.146652
v -0.122989 0.00779587 0.0237431
vn -0.0985468 0.992063 0.0780949
v -0.0142956 -0.00751475 0.0443744
vn 0.440679 0.193265 0.876613
v -0.0255965 -0.0191509 0.052331
vn 0.465118 0.121241 0.876907
v -0.00474545 -0.000498758 0.0379974
vn 0.426708 0.244944 0.870588
v 0.0022626 0.00435261 0.0332282
vn 0.322776 0.206117 0.923759
v 0.00993191 0.00698681 0.0314733
vn 0.151246 0.22579 0.962364
v -0.0769411 -0.0160434 0.0128839
vn -0.024804 -0.996973 -0.0736901
v -0.0532321 -0.0156389 0.0102549
vn -0.0818604 -0.912199 -0.401488
v -0.0394166 -0.0146996 -0.00195672
vn -0.127662 -0.990118 0.0580437
v -0.0345755 -0.0228352 -0.0311287
vn -0.025667 -0.988714 -0.147599
v -0.0239869 -0.0231265 -0.0293853
vn 0.167312 -0.879372 -0.445771
v -0.0297062 -0.0231742 -0.0205104
vn -0.159325 -0.969246 0.187559
v -0.037829 -0.0222215 -0.0239484
vn -0.190042 -0.957149 0.218517
v -0.0397522 -0.0144062 -0.042851
vn 0.232314 -0.249799 -0.940016
v -0.0429109 -0.0202477 -0.0386201
vn 0.125126 -0.808091 -0.575614
v -0.0524361 -0.0203692 -0.0404111
vn 0.0697771 -0.873437 -0.481911
v -0.0499678 -0.0154866 -0.0450328
vn 0.235124 -0.38508 -0.892429
v -0.0473348 -0.0234984 0.0570842
vn -0.349383 0.502395 0.790905
v -0.0426541 -0.0106653 0.0507937
vn -0.173713 0.565588 0.806185
v 0.00365196 -0.0110989 -0.0266007
vn 0.401469 -0.472333 -0.784681
v 0.0103097 -0.0101898 -0.022774
vn 0.454842 -0.571754 -0.6828
v 0.0179439 -0.00744059 -0.0205586
vn 0.42005 -0.658867 -0.624061
v -0.017583 -0.0199477 -0.00126041
vn -0.163333 -0.965677 0.201965
v -0.00355259 -0.0203789 0.00122879
vn 0.213738 -0.968494 0.127811
v -0.00494467 -0.020541 0.00529271
vn 0.264867 -0.964284 -0.000890589
v -0.0190922 -0.0190326 0.00131205
vn -0.139144 -0.958778 -0.247759
v -0.0271928 -0.0266083 0.0151136
vn -0.0662109 -0.795533 -0.602282
v -0.0137954 -0.0265694 0.0169473
vn 0.295361 -0.894553 -0.335465
v -0.0328088 -0.0337286 0.0235925
vn -0.073686 -0.80099 -0.594125
v 0.00797109 -0.0150185 0.00961146
vn 0.280983 -0.944809 0.168476
v 0.0171176 -0.0142256 0.00365848
vn 0.205917 -0.974287 0.0914504
v 0.0166433 -0.0123959 0.0124025
vn 0.270622 -0.923337 0.272419
v 0.0180741 -0.0135619 -0.00610944
vn 0.313947 -0.947063 -0.0671473
v 0.0184088 -0.0114878 -0.0148159
vn 0.425801 -0.831752 -0.356205
v 0.0136319 0.019499 -0.0262585
vn -0.246412 0.479166 -0.842425
v 0.0151634 -0.00920111 0.0201487
vn 0.345345 -0.800532 0.48978
v -0.0357903 -0.0407214 0.0393646
vn 0.195741 -0.932983 -0.30204
v -0.0419223 -0.0435291 0.0443492
vn 0.247665 -0.82896 -0.501485
v -0.0484866 -0.0402023 0.041514
vn -0.306983 -0.57679 -0.757017
v -0.0434495 -0.0381434 0.0358569
vn -0.272529 -0.829732 -0.487106
v -0.0842859 -0.00122287 0.0328126
vn -0.0894053 0.266172 0.95977
v -0.0838102 -0.00888842 0.0324258
vn -0.212088 -0.372133 0.903624
v -0.0737893 -0.0122331 0.0332717
vn -0.33149 -0.634035 0.698651
v -0.0134297 -0.0240196 -0.0128786
vn 0.100961 -0.993967 -0.0428438
v -0.00866493 -0.0215619 -0.0242495
vn 0.32078 -0.811272 -0.488813
v -0.0881896 -0.014876 0.0166897
vn -0.222194 -0.973303 -0.0575512
v -0.117486 0.00635981 0.0287332
vn -0.0044175 0.867539 0.497349
v -0.117252 0.00182947 0.0320756
vn 0.0266796 0.389993 0.920431
v -0.0992501 0.00122037 0.0315979
vn 0.0469999 0.279848 0.958893
v -0.10042 0.00667013 0.0279362
vn 0.032472 0.748352 0.662507
v -0.0975529 -0.00813986 0.0126468
vn -0.626121 -0.630128 -0.459251
v -0.0945848 -0.01249 0.0169663
vn -0.430866 -0.886554 -0.168455
v -0.0981673 -0.0106609 0.0168817
vn -0.0711485 -0.948038 -0.310099
v -0.101834 -0.00774183 0.0125399
vn -0.0648477 -0.487304 -0.870821
v -0.0829605 -0.0117408 -0.0228241
vn -0.363258 -0.927789 -0.0851532
v -0.0756359 -0.0145975 -0.022983
vn -0.318568 -0.947768 0.0157907
v -0.0836657 0.00866954 0.00798361
vn -0.306504 0.942691 0.131866
v -0.0816247 0.0109076 0.0210029
vn -0.147625 0.973952 0.172117
v -0.0713603 0.0105859 0.0220937
vn -0.0354848 0.867104 0.496861
v -0.0603685 -0.0145477 -0.00924232
vn -0.00452271 -0.987642 0.156664
v -0.0710101 -0.0149405 -0.0113038
vn -0.0285303 -0.99841 0.0486208
v -0.0698745 -0.015199 -0.0152918
vn -0.144215 -0.978482 0.147562
v -0.0805261 -0.0152252 0.00940578
vn -0.161349 -0.971059 -0.176096
v -0.089677 -0.013554 0.0109137
vn -0.403012 -0.883143 -0.240082
v -0.0853879 -0.0134212 0.00606196
vn -0.272563 -0.95449 -0.121071
v -0.0772897 -0.0144807 0.00461028
vn -0.0701996 -0.990894 -0.1149
v -0.0280119 -0.00194269 -0.038898
vn 0.207925 0.371345 -0.904914
v -0.0271824 -0.0134002 -0.0403875
vn 0.279089 -0.286012 -0.916683
v -0.126153 -0.00462272 0.0320675
vn -0.0460111 -0.384071 0.922156
v -0.121666 -0.00395656 0.0320317
vn 0.0275166 -0.233069 0.972071
v -0.0489012 -0.0142412 -0.00782712
vn -0.0593107 -0.979884 0.190549
v -0.0578447 0.0108198 0.0227502
vn -0.134112 0.877806 0.459859
v -0.0375334 -0.0154925 -0.00705139
vn -0.180957 -0.952431 0.245215
v -0.0715524 0.00236848 -0.0312837
vn -0.0498935 0.668003 -0.742484
v -0.0727777 -0.0034009 -0.0344589
vn -0.638031 0.694097 -0.333385
v -0.079274 -0.00329698 -0.0334226
vn -0.108847 0.0132437 -0.99397
v -0.0794255 0.00240071 -0.032753
vn 0.207344 0.461434 -0.862605
v -0.117462 -0.00545172 0.0129388
vn -0.0993927 -0.299061 -0.949044
v -0.117554 -0.00974647 0.016685
vn -0.105033 -0.878657 -0.465757
v -0.122288 -0.00880989 0.0173277
vn -0.117265 -0.873408 -0.472659
v -0.122569 -0.00450823 0.0135751
vn -0.109571 -0.341595 -0.933438
v -0.0926024 -0.0130641 0.0225159
vn -0.29194 -0.938216 0.185803
v -0.0905654 -0.0113339 0.0284766
vn -0.234388 -0.773673 0.588637
v -0.097609 -0.0101013 0.0277281
vn -0.0582062 -0.855034 0.515295
v -0.0982251 -0.0111467 0.0219699
vn -0.0987545 -0.993509 0.0564534
v -0.09175 -0.00559388 0.0318588
vn -0.158453 -0.260794 0.952302
v -0.0979757 -0.00498528 0.0314902
vn 0.009416 -0.324997 0.945668
v -0.11741 0.00116823 0.0127378
vn -0.0584195 0.294919 -0.953735
v -0.117394 0.00760815 0.016939
vn -0.0555375 0.816597 -0.57453
v -0.102267 0.00680453 0.0149335
vn -0.0509475 0.743479 -0.666816
v -0.104302 -0.000502403 0.0121373
vn -0.0331408 0.112399 -0.99311
v -0.0272727 0.016709 -0.0149878
vn -0.149733 0.917967 -0.36731
v -0.0234773 0.0128103 -0.0246836
vn -0.11239 0.872979 -0.474632
v -0.0375159 0.00949246 -0.0273642
vn -0.0998563 0.885532 -0.453721
v -0.0507046 0.00692038 -0.0304012
vn -0.115461 0.891162 -0.438747
v -0.063239 0.00312398 -0.0321876
vn -0.136506 0.870322 -0.473186
v -0.0676377 0.00968549 -0.0230052
vn -0.0583755 0.920718 -0.385838
v -0.0335057 0.00623467 -0.0335359
vn 0.0183335 0.705486 -0.708487
v -0.0933857 0.000315641 0.0073084
vn -0.811199 0.483422 0.329028
v -0.0911135 0.00636533 0.013051
vn -0.338922 0.835685 -0.432161
v -0.0895545 0.00606166 0.00692061
vn -0.364178 0.742999 0.56154
v -0.0359419 -0.0182803 -0.0137593
vn -0.244402 -0.902601 0.354372
v -0.116709 -0.00360018 0.0322193
vn 0.00219214 -0.211684 0.977336
v -0.00147073 0.0209053 0.0200658
vn -0.158871 0.883628 0.440411
v -0.00125117 0.0247019 0.00744388
vn -0.224506 0.966023 0.128048
v -0.00970692 0.0227068 0.00910203
vn -0.161699 0.973678 0.160637
v -0.0101934 0.0178557 0.022982
vn -0.129848 0.885436 0.446255
v -0.116758 -0.0113763 0.0231779
vn -0.0426475 -0.997943 0.0478631
v -0.116589 -0.00922827 0.0292002
vn -0.0403886 -0.73192 0.680193
v -0.0752153 -0.0147451 -0.0297113
vn -0.399617 -0.91655 -0.0155767
v -0.0812572 -0.0116376 -0.0285392
vn -0.448155 -0.880442 -0.154849
v -0.0817439 -0.0096777 -0.0317485
vn -0.518658 -0.411562 -0.749407
v -0.0764086 -0.0134097 -0.0352942
vn -0.723401 -0.466966 -0.50856
v -0.0202179 0.0102218 -0.0288703
vn 0.0913076 0.641152 -0.761963
v -0.0574338 -0.0076456 -0.047869
vn 0.428353 0.299995 -0.852359
v -0.059915 0.00029588 -0.0426952
vn 0.121939 0.843458 -0.523173
v -0.0111354 0.0157135 -0.0218752
vn -0.0808402 0.82324 -0.561908
v -0.014341 0.0197328 -0.0135493
vn -0.160859 0.916233 -0.366935
v -0.00484249 0.021708 -0.0130675
vn -0.192564 0.896577 -0.398834
v -0.0790974 0.00990516 -0.0124333
vn -0.179026 0.944093 -0.276837
v -0.0319922 0.018357 -0.00788129
vn -0.15607 0.966416 -0.204164
v -0.0178194 0.0207463 -0.00677678
vn -0.173299 0.965333 -0.195191
v -0.00661198 0.0231552 -0.00586781
vn -0.203116 0.975016 -0.0899281
v 0.00143563 0.0253456 -0.00599774
vn -0.27739 0.956865 -0.0864004
v 0.00259075 0.0233487 -0.0138552
vn -0.304766 0.850143 -0.42939
v -0.117913 0.00832508 0.0226
vn -0.0339065 0.999399 0.00716895
v -0.123177 0.00727387 0.0172436
vn -0.171219 0.882109 -0.438826
v 0.0109112 0.0267266 -0.0153274
vn -0.395965 0.781325 -0.482434
v 0.00938281 0.0281866 -0.00626499
vn -0.358297 0.926307 -0.116525
v -0.0209997 0.0210887 0.00189859
vn -0.168613 0.985299 -0.0274786
v -0.0247259 0.0200683 0.0125245
vn -0.157489 0.948018 0.276511
v -0.0346 0.0185456 0.0004336
vn -0.167805 0.985568 -0.0223021
v -0.0393705 0.0174422 0.0108827
vn -0.161537 0.972267 0.169122
v -0.0779872 0.0139485 -0.00295848
vn -0.160753 0.986871 -0.0156437
v -0.138635 0.00172648 0.015608
vn -0.0872717 0.521366 -0.848858
v -0.128237 0.00159528 0.0140961
vn -0.106533 0.393953 -0.912936
v -0.127873 -0.00421724 0.0140015
vn -0.0700158 -0.273993 -0.95918
v -0.138852 -0.00231873 0.0144593
vn -0.0610877 -0.0805413 -0.994878
v -0.122746 0.00156826 0.0133074
vn -0.118703 0.350482 -0.929017
v -0.127786 0.00613798 0.0179007
vn -0.155321 0.873637 -0.461122
v -0.042626 0.0119567 0.0243963
vn -0.115194 0.885594 0.449948
v -0.0932979 -0.0098477 0.00653362
vn -0.563304 -0.82445 -0.0545091
v -0.0262452 0.0123411 0.0279663
vn -0.130222 0.840056 0.526638
v -0.0492532 0.00255882 0.0393248
vn -0.182677 0.726071 0.66291
v -0.0363571 0.0012782 0.041329
vn -0.0810974 0.750672 0.655679
v -0.00905372 0.0112842 0.033074
vn 0.0633871 0.689814 0.721206
v -0.0201814 0.00311557 0.0416571
vn 0.0692019 0.637386 0.767431
v 0.00735932 0.0161262 0.0274448
vn -0.0357607 0.680385 0.731982
v -0.00121833 0.0144181 0.0290693
vn 0.0414047 0.647612 0.760844
v -0.0290955 -0.00755966 0.0493983
vn 0.117888 0.496209 0.860162
v -0.137165 -0.00878823 0.0266098
vn -0.0598824 -0.911373 0.407202
v -0.137207 -0.00969088 0.0212063
vn -0.029274 -0.996441 -0.0790457
v 0.00657942 0.0232478 0.0191271
vn -0.202292 0.900027 0.386044
v -0.0388192 -0.0370258 0.0306859
vn -0.2242 -0.852571 -0.472078
v -0.025702 -0.0201282 -0.0104552
vn -0.27597 -0.902191 0.3315
v -0.0275193 -0.0178381 -0.00563181
vn -0.283626 -0.913057 0.293057
v -0.0178018 -0.0227404 -0.0276185
vn 0.226325 -0.872421 -0.433195
v -0.0225136 -0.0234552 -0.0170096
vn -0.102153 -0.988928 0.107643
v -0.137073 -0.00538965 0.0305222
vn -0.0894494 -0.588936 0.803214
v -0.0935305 -0.00594137 -0.013771
vn -0.423512 -0.288024 -0.858883
v -0.0905191 -0.00461772 -0.014701
vn -0.960237 0.146606 0.237594
v -0.0300687 -0.0394504 0.0460951
vn 0.594897 -0.794108 0.124458
v -0.0360445 -0.0427228 0.0493509
vn 0.606941 -0.794736 -0.00411359
v -0.0375604 -0.0341417 0.0593292
vn 0.476056 0.0207525 0.87917
v -0.0350431 -0.0395722 0.0554662
vn 0.697942 -0.481476 0.530149
v -0.0286436 -0.0343437 0.0526731
vn 0.66991 -0.400686 0.625037
v -0.0313129 -0.0277542 0.0561546
vn 0.454796 0.0439115 0.889513
v -0.0168105 -0.020955 -0.00354464
vn -0.184454 -0.934258 0.305186
v -0.0161152 -0.0220969 -0.00721829
vn -0.179808 -0.943054 0.279855
v -0.0166966 -0.00137257 -0.0353423
vn 0.250377 0.343032 -0.90534
v -0.0165201 -0.0128517 -0.0364648
vn 0.373473 -0.257355 -0.891227
v -0.0919717 0.000865258 0.0312746
vn -0.0447371 0.348832 0.936117
v -0.0843059 0.00631888 0.0283659
vn -0.0376434 0.729672 0.68276
v -0.0924098 0.00665855 0.0271453
vn 0.00909627 0.783946 0.620762
v -0.0999056 0.00906843 0.0215022
vn -0.0218355 0.992471 0.120514
v -0.0964864 -0.00463252 0.00689298
vn -0.98999 -0.129089 0.057064
v -0.0970513 -0.00182289 0.0115448
vn -0.378791 0.294856 -0.877256
v -0.00974993 -0.0233069 0.0103073
vn 0.31471 -0.914065 -0.255818
v -0.0228359 -0.0208328 0.0068247
vn -0.115291 -0.857677 -0.501097
v -0.0508466 -0.0337384 0.036852
vn -0.622296 -0.743639 -0.244434
v -0.0538596 -0.0344641 0.0426509
vn -0.820278 -0.281937 -0.497651
v -0.072818 -0.0143305 -0.00227726
vn -0.0300862 -0.999534 0.00521514
v -0.0890756 0.00855853 -0.0113877
vn -0.0713323 0.817787 -0.571083
v -0.0885704 0.0127341 -0.00350016
vn -0.128507 0.974848 0.182091
v -0.0825683 -0.0134687 -0.00250043
vn -0.148706 -0.988725 -0.0175812
v -0.137972 0.00283665 0.0294282
vn -0.116293 0.643574 0.756498
v -0.137577 -0.00175317 0.031316
vn -0.10239 0.0313989 0.994249
v -0.0917792 0.00932638 0.0208988
vn -0.0765827 0.997011 0.010193
v -0.066906 -0.0174841 -0.0228704
vn -0.186535 -0.967751 0.169298
v -0.0826683 0.00649909 -0.016254
vn -0.375927 0.920531 -0.10631
v -0.0918982 0.0019498 -0.0144246
vn -0.11614 0.1416 -0.983087
v -0.0561669 -0.0157909 -0.0464145
vn 0.177285 -0.553664 -0.81365
v 0.00744021 0.0267071 0.00700853
vn -0.256191 0.961155 0.102696
v -0.127897 -0.00870869 0.0172285
vn -0.0107209 -0.862503 -0.505938
v -0.137428 -0.00811867 0.0166338
vn -0.0417657 -0.666883 -0.743991
v -0.137882 0.00489741 0.0184305
vn -0.129412 0.854372 -0.50329
v -0.13724 0.00606063 0.0241607
vn -0.13102 0.976298 0.172268
v -0.00714766 -0.0127586 -0.0311474
vn 0.39138 -0.383625 -0.836453
v -0.0292199 -0.0165522 -0.00247705
vn -0.236594 -0.962822 0.130374
v -0.0353191 -0.017392 0.0553466
vn 0.115467 0.376868 0.919042
v -0.0420124 -0.0279165 0.0596529
vn 0.171637 0.299147 0.938644
v -0.0895466 -0.0118193 -0.00287086
vn -0.32331 -0.946289 -0.00265822
v -0.0661597 2.62135e-05 -0.0367401
vn -0.24894 0.949179 -0.192583
v -0.0759281 0.00863116 -0.0256501
vn -0.0543957 0.926433 -0.372508
v -0.0828074 0.00853094 -0.0277218
vn 0.130424 0.942918 -0.306423
v -0.0873717 0.00776479 -0.0218284
vn -0.0920087 0.928026 0.360974
v -0.0915458 0.00258763 -0.0177362
vn -0.342545 0.502924 0.793556
v -0.142616 0.00405984 0.0182646
vn -0.0958114 0.906317 -0.411593
v -0.141958 0.00535185 0.0239061
vn -0.116677 0.981925 0.149032
v -0.143059 0.00257653 0.029317
vn -0.0600804 0.740046 0.669868
v -0.142817 -0.00159348 0.0311261
vn -0.00885603 0.101629 0.994783
v -0.141277 -0.00565794 0.0299598
vn -0.0149824 -0.588491 0.808365
v -0.143858 0.00113105 0.0153522
vn -0.0553369 0.517589 -0.853838
v -0.144251 -0.00251999 0.0145972
vn 0.000308838 -0.133176 -0.991092
v -0.141544 -0.00785195 0.0165449
vn 0.00403183 -0.621516 -0.783391
v -0.148676 0.000125922 0.015267
vn -0.0773164 0.444399 -0.892486
v -0.150942 0.00347448 0.0185819
vn -0.126521 0.85749 -0.498702
v -0.156837 -0.000525659 0.0299406
vn -0.195596 0.370277 0.908095
v -0.151765 0.00207905 0.029085
vn -0.0765926 0.634848 0.768831
v -0.153982 0.00265968 0.0277277
vn -0.220884 0.891426 0.39569
v -0.15867 0.00121051 0.0278192
vn -0.221042 0.836125 0.502031
v -0.163656 0.000676615 0.0267674
vn -0.227065 0.83771 0.496673
v -0.162278 -0.00151359 0.0292843
vn -0.356241 0.184306 0.916037
v -0.151722 0.00403876 0.0240343
vn -0.233382 0.972128 0.022361
v -0.158074 0.00244338 0.0234863
vn -0.182389 0.980578 0.0721182
v -0.157788 0.00192687 0.019302
vn -0.165234 0.893015 -0.418596
v -0.163221 0.00145849 0.019113
vn -0.111288 0.905023 -0.410545
v -0.163709 0.00211536 0.0228678
vn -0.170615 0.982492 0.074831
v -0.153524 0.00331956 0.0200431
vn -0.237722 0.940005 -0.2447
v -0.149623 0.00460837 0.0239647
vn -0.0964422 0.985064 0.142643
v -0.166195 -0.00177163 0.0268383
vn -0.759761 -0.0133378 0.650065
v -0.166328 0.000517463 0.0256627
vn -0.591597 0.687393 0.421312
v -0.166554 0.00115961 0.0223786
vn -0.587684 0.809077 -0.00478295
v -0.168414 -0.00130535 0.0222874
vn -0.952996 0.296075 0.0643295
v -0.147787 -0.00211529 0.0312325
vn -0.0565677 0.010353 0.998345
v -0.156204 -0.00300249 0.0306457
vn -0.128369 -0.0452617 0.990693
v -0.161603 -0.00458904 0.0285343
vn -0.305558 -0.379175 0.873419
v -0.165572 -0.00450858 0.026138
vn -0.638822 -0.528033 0.559542
v -0.156341 -0.00661595 0.0286159
vn -0.0897695 -0.643613 0.760068
v -0.160886 -0.00683138 0.026727
vn -0.306902 -0.749307 0.586813
v -0.164171 -0.00693122 0.0242843
vn -0.532189 -0.755542 0.382008
v -0.156394 -0.0091455 0.0251674
vn -0.0474365 -0.945486 0.322188
v -0.160558 -0.00847423 0.0240195
vn -0.221971 -0.925432 0.307091
v -0.144274 -0.00863587 0.0266823
vn 0.0120782 -0.912037 0.40993
v -0.144638 -0.00597821 0.0300802
vn -0.0230575 -0.541034 0.840685
v -0.163122 -0.00843176 0.0231682
vn -0.399008 -0.907466 0.131524
v -0.168055 -0.00343131 0.0214757
vn -0.920573 -0.389599 0.0275271
v -0.155829 0.000562588 0.0164884
vn -0.166479 0.695612 -0.698862
v -0.162589 -0.000935485 0.016938
vn -0.175158 0.640224 -0.747952
v -0.155331 -0.00142778 0.0152825
vn -0.0732999 0.279576 -0.957321
v -0.162078 -0.00277325 0.0154046
vn -0.213246 0.20586 -0.955064
v -0.166915 -0.00094408 0.0176701
vn -0.647819 0.403091 -0.646412
v -0.165983 0.000731178 0.0194764
vn -0.511978 0.814303 -0.273475
v -0.139983 -0.00862547 0.0260767
vn -0.0364155 -0.943468 0.329458
v -0.140304 -0.00944084 0.0203956
vn -0.00326521 -0.99776 -0.0668207
v -0.1441 -0.0096493 0.0206356
vn 0.0327604 -0.999315 -0.0171866
v -0.156113 -0.00997086 0.0205081
vn -0.0482841 -0.980931 -0.188261
v -0.145426 -0.00819912 0.0166494
vn 0.0207449 -0.714096 -0.69974
v -0.14892 -0.0035074 0.0145968
vn 0.00204837 -0.171976 -0.985099
v -0.155902 -0.00427784 0.0148857
vn -0.0684686 -0.176788 -0.981865
v -0.155905 -0.00748179 0.0160835
vn -0.0603099 -0.662401 -0.746718
v -0.161121 -0.00522112 0.0155711
vn -0.18937 -0.412305 -0.891147
v -0.160503 -0.00724254 0.0170736
vn -0.150823 -0.683992 -0.713728
v -0.160603 -0.00905896 0.020427
vn -0.223194 -0.937928 -0.265473
v -0.164743 -0.00576625 0.0173629
vn -0.530538 -0.462347 -0.710468
v -0.166211 -0.00311657 0.0170846
vn -0.678164 -0.189545 -0.710047
v -0.166037 -0.00616029 0.0208622
vn -0.736553 -0.673683 -0.0603431
v -0.163286 -0.00712549 0.0178249
vn -0.3837 -0.804832 -0.45279
v -0.163696 -0.00756878 0.0207469
vn -0.532116 -0.839261 -0.111774
v -0.13053 -0.00645714 -0.00494999
vn -0.0226143 -0.901122 0.432975
v -0.129877 -0.00749014 -0.0111393
vn 0.0466518 -0.998708 0.0201613
v -0.124497 -0.00691268 -0.00931929
vn -0.194715 -0.977696 0.0787144
v -0.125674 -0.00590421 -0.00415114
vn -0.207988 -0.809536 0.548993
v -0.130653 0.00718542 -0.00269315
vn -0.204252 0.714156 0.669524
v -0.131085 0.00142666 -0.000713029
vn -0.207886 0.0814164 0.974759
v -0.126774 0.0026566 0.00030041
vn -0.162962 0.226223 0.960347
v -0.125951 0.0082945 -0.00306307
vn -0.169195 0.753627 0.635153
v -0.129599 0.00989811 -0.00857082
vn -0.109798 0.993799 0.0175563
v -0.124304 0.0102352 -0.00885431
vn -0.0892366 0.992635 -0.0819289
v -0.121162 0.00937328 -0.00220708
vn -0.121398 0.852296 0.508776
v -0.121345 0.00298194 0.00103552
vn -0.158023 0.268951 0.950102
v -0.100057 0.002119 0.0041322
vn -0.211703 0.146105 0.966351
v -0.100295 0.0090349 0.00138562
vn -0.132877 0.689996 0.711512
v -0.0971418 -0.00928236 -0.00964929
vn -0.120863 -0.964731 -0.233852
v -0.0983467 -0.00618745 -0.011832
vn 0.0842705 -0.470288 -0.87848
v -0.131033 -0.00349661 -0.00207893
vn -0.120064 -0.482615 0.867564
v -0.126539 -0.00242044 -0.000963118
vn -0.193477 -0.358481 0.913268
v -0.118572 -0.00534498 -0.0165989
vn 0.143068 -0.467924 -0.872111
v -0.119025 -0.00877702 -0.0123877
vn -0.0117152 -0.890414 -0.455
v -0.124351 -0.00679912 -0.0142172
vn -0.0443048 -0.89494 -0.443981
v -0.124113 -0.00279187 -0.0179166
vn 0.0675593 -0.426617 -0.901906
v -0.0979206 -0.00653802 0.00215963
vn -0.213511 -0.850653 0.480418
v -0.0965543 -0.00876022 -0.00370797
vn -0.189725 -0.965493 0.178402
v -0.0994607 -0.00301514 0.00373599
vn -0.232359 -0.325411 0.916579
v -0.118484 0.00100832 -0.0183919
vn 0.154387 0.0922637 -0.983693
v -0.118682 0.0076128 -0.016591
vn 0.0579051 0.72467 -0.686659
v -0.09943 0.00869479 -0.0129488
vn 0.0961697 0.66444 -0.741129
v -0.0996902 0.00207898 -0.0149491
vn 0.165702 -0.115752 -0.979359
v -0.121387 -0.00276066 0.000794732
vn -0.182924 -0.276607 0.943413
v -0.119872 -0.0091256 -0.0069531
vn -0.0607439 -0.983669 0.169428
v -0.1207 -0.00748583 -0.00224172
vn -0.177528 -0.739961 0.6488
v -0.119591 0.0107607 -0.00917362
vn -0.0298291 0.975885 -0.216238
v -0.124257 0.00795757 -0.016316
vn 0.00184123 0.77404 -0.633134
v -0.141738 0.00325163 -0.0193845
vn 0.0376893 0.309252 -0.950233
v -0.129423 0.00305435 -0.0191788
vn 0.0196468 0.377537 -0.925786
v -0.129767 -0.00206291 -0.0187542
vn 0.0717427 -0.199159 -0.977337
v -0.142822 -0.00154601 -0.0202324
vn 0.109079 -0.186203 -0.976438
v -0.124219 0.00278511 -0.0190589
vn 0.0708014 0.185466 -0.980097
v -0.129075 0.00787273 -0.0156612
vn -0.0527448 0.85439 -0.516949
v -0.145963 -0.00753315 -0.00876323
vn -0.0296342 -0.955512 0.29346
v -0.145503 -0.00818359 -0.0147798
vn 0.0281408 -0.984521 -0.172995
v -0.14612 -0.00476666 -0.0052545
vn -0.118903 -0.628824 0.768402
v -0.0996767 0.0119578 -0.00583131
vn -0.0313525 0.998777 -0.0382214
v -0.142921 0.0049535 -0.0045764
vn -0.219181 0.574084 0.788915
v -0.144942 -0.00111298 -0.00348472
vn -0.177077 -0.0600087 0.982366
v -0.129771 -0.00628889 -0.0161225
vn 0.0987688 -0.754854 -0.648413
v -0.144585 -0.00570946 -0.0187986
vn 0.0806234 -0.641222 -0.763108
v -0.141271 0.00678666 -0.0165205
vn -0.0520965 0.839421 -0.540978
v -0.140636 0.00854033 -0.00983163
vn -0.151248 0.984566 0.0880525
v -0.146624 0.00612369 -0.0166184
vn -0.03913 0.901558 -0.430884
v -0.146572 0.00750587 -0.0105449
vn -0.144826 0.978331 0.147969
v -0.148837 0.00405269 -0.0050682
vn -0.150181 0.621754 0.768679
v -0.15013 -0.00143997 -0.00436228
vn -0.137674 -0.162944 0.976983
v -0.150346 -0.00498134 -0.00613603
vn -0.107256 -0.700787 0.705261
v -0.147293 0.00315914 -0.019551
vn 0.0745272 0.47821 -0.875078
v -0.148385 -0.00129632 -0.0208377
vn 0.139865 -0.0827402 -0.986708
v -0.148095 -0.00584574 -0.0187549
vn 0.138117 -0.705509 -0.695112
v -0.154153 0.00212949 -0.0209378
vn 0.111299 0.449198 -0.886472
v -0.155136 0.0053017 -0.0181171
vn -0.00309848 0.860193 -0.509959
v -0.169677 0.000863216 -0.00902259
vn -0.419143 0.263565 0.868822
v -0.163984 0.00168918 -0.00765455
vn -0.272301 0.440358 0.855533
v -0.164176 0.00367498 -0.00938272
vn -0.24875 0.831099 0.49739
v -0.169439 0.00315025 -0.010703
vn -0.186719 0.862026 0.471219
v -0.158333 0.00427433 -0.00707794
vn -0.195329 0.569479 0.798461
v -0.159873 0.00499164 -0.00910015
vn -0.265829 0.900419 0.344356
v -0.157742 0.00622589 -0.0128998
vn -0.176599 0.984067 -0.020604
v -0.163405 0.00490972 -0.0139579
vn -0.115599 0.990442 0.0752377
v -0.161755 0.00436045 -0.0184834
vn -0.0209781 0.946058 -0.323317
v -0.167254 0.00458035 -0.0198135
vn 0.0485567 0.958211 -0.281912
v -0.169124 0.00536841 -0.0153424
vn -0.119183 0.985301 0.122385
v -0.15816 0.00570851 -0.0166735
vn -0.1442 0.955472 -0.257449
v -0.17252 0.00305373 -0.0125258
vn -0.519887 0.709391 0.475901
v -0.173972 0.00087004 -0.0126144
vn -0.864632 0.0478333 0.500123
v -0.155002 0.00679917 -0.0119824
vn -0.0988736 0.986801 0.128249
v -0.154892 -0.000605686 -0.00490025
vn -0.202842 0.0300515 0.97875
v -0.163974 -0.00134916 -0.00722735
vn -0.257775 -0.1727 0.950645
v -0.170068 -0.00230799 -0.00967295
vn -0.497575 -0.390617 0.774492
v -0.174136 -0.00169952 -0.0142932
vn -0.832626 -0.439996 0.336359
v -0.164081 -0.00494396 -0.00932103
vn -0.220885 -0.700809 0.67829
v -0.169855 -0.0047593 -0.0117428
vn -0.46889 -0.729344 0.498196
v -0.172884 -0.00374028 -0.0156875
vn -0.740821 -0.662705 0.109573
v -0.163684 -0.00777609 -0.0130217
vn -0.131526 -0.958486 0.252991
v -0.169194 -0.00682997 -0.0153448
vn -0.309779 -0.94573 0.0981359
v -0.152545 -0.00781352 -0.010158
vn -0.0576702 -0.927604 0.369087
v -0.153701 -0.00513333 -0.00638708
vn -0.162985 -0.596396 0.785969
v -0.171278 -0.00538607 -0.0164671
vn -0.602625 -0.797472 0.02969
v -0.17444 0.00297707 -0.017033
vn -0.903063 0.423232 -0.0731558
v -0.174662 -0.000236911 -0.0182273
vn -0.97719 0.00743634 -0.212234
v -0.173085 0.00412446 -0.016374
vn -0.431606 0.897848 0.0870918
v -0.161193 0.00347388 -0.0203087
vn 0.0176231 0.764627 -0.644232
v -0.167344 0.00295428 -0.0214461
vn 0.0221167 0.685408 -0.727824
v -0.160927 0.00140359 -0.0221194
vn 0.0981496 0.471906 -0.876169
v -0.167821 0.00100869 -0.0228397
vn -0.0493723 0.466586 -0.883097
v -0.17195 0.00293723 -0.0211435
vn -0.605628 0.495583 -0.622585
v -0.171761 0.00412632 -0.0198239
vn -0.250092 0.899148 -0.359147
v -0.149349 -0.00727472 -0.00971639
vn -0.0448756 -0.951611 0.304012
v -0.14842 -0.00773085 -0.0150997
vn 0.0579606 -0.983983 -0.168578
v -0.151266 -0.0082719 -0.015527
vn 0.0375831 -0.987971 -0.150001
v -0.162419 -0.00782808 -0.0179564
vn -0.0227616 -0.944763 -0.326962
v -0.150982 -0.00591884 -0.019587
vn 0.122624 -0.661187 -0.740132
v -0.153316 -0.00132537 -0.021676
vn 0.155741 -0.168033 -0.973401
v -0.160524 -0.0013242 -0.0227408
vn 0.140971 -0.0521466 -0.988639
v -0.161381 -0.00502555 -0.0216306
vn 0.0742739 -0.586535 -0.806511
v -0.167454 -0.000997176 -0.0237827
vn 0.00319793 -0.0123737 -0.999918
v -0.166281 -0.00387607 -0.022566
vn -0.00905283 -0.543396 -0.839428
v -0.167752 -0.00679534 -0.0190731
vn -0.212863 -0.855244 -0.47249
v -0.171918 -0.000958465 -0.0226809
vn -0.523818 -0.116228 -0.843864
v -0.172277 0.0013643 -0.0220026
vn -0.561266 0.269521 -0.782521
v -0.173639 -0.00222453 -0.0187817
vn -0.821066 -0.451269 -0.349582
v -0.170104 -0.0033804 -0.0222212
vn -0.391954 -0.613666 -0.685409
v -0.171471 -0.00467737 -0.0190968
vn -0.608984 -0.71792 -0.337238
v -0.117024 -0.0069893 -0.0272637
vn -0.248514 -0.577277 0.777812
v -0.114879 -0.00985272 -0.0317056
vn -0.0820388 -0.95054 0.299572
v -0.110439 -0.00991318 -0.0300657
vn -0.214404 -0.939397 0.267515
v -0.112823 -0.00687021 -0.0257589
vn -0.31583 -0.65178 0.689517
v -0.11642 0.00584896 -0.0297806
vn -0.256912 0.881428 0.396335
v -0.117966 0.00217551 -0.026773
vn -0.355146 0.422751 0.833758
v -0.114167 0.00253224 -0.0252177
vn -0.344297 0.49031 0.800659
v -0.111589 0.0065266 -0.0280555
vn -0.260632 0.898285 0.353772
v -0.115934 0.00653251 -0.0353292
vn -0.0487957 0.97225 -0.228797
v -0.109248 0.00730034 -0.0334258
vn -0.0519702 0.958178 -0.281414
v -0.10675 0.00774267 -0.0267507
vn -0.197189 0.851503 0.485859
v -0.110039 0.00311 -0.0239799
vn -0.292878 0.440537 0.848616
v -0.0955203 0.00277904 -0.0194326
vn -0.271225 0.420191 0.865954
v -0.0935649 0.00825118 -0.0232947
vn -0.128887 0.912811 0.38751
v -0.117849 -0.00258295 -0.0261778
vn -0.334736 -0.0599478 0.940403
v -0.11436 -0.00237974 -0.0246574
vn -0.372952 -0.0517626 0.926405
v -0.103747 -0.00892081 -0.0370962
vn 0.251429 -0.646284 -0.720486
v -0.10497 -0.0110307 -0.0329227
vn 0.0740697 -0.986297 -0.147417
v -0.108805 -0.00995554 -0.0352373
vn -0.0501281 -0.977684 -0.204014
v -0.10799 -0.00766493 -0.0388301
vn 0.18273 -0.599512 -0.779227
v -0.0920561 -0.00781344 -0.0186055
vn -0.278368 -0.775843 0.566197
v -0.0882067 -0.00950022 -0.0234006
vn -0.104743 -0.986543 0.125545
v -0.095344 -0.00333565 -0.0181301
vn -0.361639 -0.0717138 0.929556
v -0.103035 -0.003056 -0.0399144
vn 0.280573 -0.100262 -0.954582
v -0.102316 0.0040276 -0.0385974
vn 0.143246 0.637152 -0.75731
v -0.0884469 0.00333322 -0.0350571
vn 0.269448 0.397832 -0.876999
v -0.0874967 -0.00278917 -0.0346214
vn 0.274143 -0.303955 -0.912391
v -0.110836 -0.0020603 -0.0230658
vn -0.326602 0.025164 0.944827
v -0.10657 -0.0105423 -0.027987
vn -0.100368 -0.951164 0.291912
v -0.109516 -0.00736441 -0.0239962
vn -0.30335 -0.556109 0.773771
v -0.104054 0.00777365 -0.0323482
vn -0.0402738 0.979095 -0.199378
v -0.107921 0.00373574 -0.0393653
vn 0.138037 0.631894 -0.762664
v -0.12827 -0.00160164 -0.0459978
vn 0.225313 0.232426 -0.946156
v -0.112068 -0.00217289 -0.0424444
vn 0.230299 0.0181823 -0.97295
v -0.112766 -0.00760212 -0.04026
vn 0.217996 -0.614235 -0.758415
v -0.128726 -0.00593172 -0.0456726
vn 0.234939 -0.395981 -0.887695
v -0.107937 -0.00252886 -0.0414669
vn 0.256478 0.0426566 -0.965608
v -0.113195 0.00357441 -0.0406509
vn 0.103662 0.705281 -0.701308
v -0.132446 -0.00811682 -0.0330456
vn -0.195961 -0.766739 0.611318
v -0.130423 -0.0103456 -0.0375405
vn -0.0361889 -0.994651 0.0967486
v -0.131729 -0.00426482 -0.0311343
vn -0.31181 -0.213496 0.925848
v -0.0905642 0.00908325 -0.0297704
vn 0.0757387 0.934726 -0.347206
v -0.0866251 -0.00834809 -0.0305123
vn 0.155022 -0.70589 -0.691149
v -0.131306 0.00272818 -0.0334166
vn -0.311411 0.78152 0.540601
v -0.131753 -0.000918062 -0.0312449
vn -0.348261 0.267248 0.898495
v -0.11328 -0.00986731 -0.0367343
vn 0.076429 -0.96925 -0.233906
v -0.129301 -0.00943667 -0.0427745
vn 0.115825 -0.880715 -0.459266
v -0.128004 0.00252754 -0.0436833
vn 0.103569 0.664959 -0.739664
v -0.128929 0.0050528 -0.0383023
vn -0.116215 0.983892 -0.135834
v -0.132509 0.00151935 -0.0452049
vn 0.106937 0.792602 -0.600289
v -0.133357 0.00384499 -0.0397512
vn -0.124931 0.988019 -0.0906106
v -0.135952 0.00222464 -0.0348883
vn -0.220826 0.814803 0.536033
v -0.136453 -0.00142382 -0.032846
vn -0.289587 0.213736 0.932982
v -0.136403 -0.0048538 -0.0327609
vn -0.290171 -0.325304 0.899988
v -0.133126 -0.00230994 -0.0475469
vn 0.25759 0.218398 -0.941249
v -0.133725 -0.00608954 -0.0471234
vn 0.261355 -0.481367 -0.836648
v -0.132034 -0.00935921 -0.0432445
vn 0.142983 -0.86845 -0.474711
v -0.137461 -0.0030689 -0.0488347
vn 0.244918 0.149089 -0.958012
v -0.139413 0.00149774 -0.0469851
vn 0.142528 0.689533 -0.710092
v -0.154457 -0.00023598 -0.0400661
vn -0.380485 0.560188 0.735813
v -0.149016 0.000109246 -0.0383206
vn -0.287712 0.670043 0.684298
v -0.148872 0.000726726 -0.0394006
vn -0.208278 0.900614 0.381464
v -0.154294 0.000951226 -0.0413421
vn -0.141301 0.919261 0.367414
v -0.142694 0.00215813 -0.0375647
vn -0.244916 0.804026 0.541811
v -0.14415 0.00229736 -0.0390092
vn -0.237776 0.936586 0.257427
v -0.142211 0.00301882 -0.0422432
vn -0.074021 0.994688 -0.0715269
v -0.148216 0.00251081 -0.0443336
vn -0.0498365 0.989773 -0.133662
v -0.145799 -0.000422594 -0.0489331
vn 0.0480137 0.801626 -0.595895
v -0.150822 -0.000395877 -0.0498594
vn 0.0880033 0.808554 -0.581804
v -0.153404 0.00251037 -0.0458484
vn -0.108539 0.971919 -0.208787
v -0.141528 0.00163582 -0.0463497
vn -0.030117 0.882306 -0.469711
v -0.15683 0.000812037 -0.0432964
vn -0.328974 0.938496 0.104886
v -0.158154 0.000376092 -0.0419724
vn -0.890582 0.319467 0.323735
v -0.139884 0.00337631 -0.0417335
vn -0.0394462 0.994883 -0.0930177
v -0.141901 -0.00122048 -0.0342622
vn -0.309606 0.293208 0.904529
v -0.149191 -0.00224523 -0.0366235
vn -0.322612 0.241097 0.915311
v -0.15488 -0.00287438 -0.0382373
vn -0.4882 0.155661 0.858738
v -0.157934 -0.0032698 -0.0413546
vn -0.899142 -0.120129 0.420847
v -0.148631 -0.00601101 -0.0369485
vn -0.314698 -0.312664 0.896218
v -0.153863 -0.00586522 -0.0388793
vn -0.40141 -0.432606 0.807293
v -0.156679 -0.0061267 -0.0416329
vn -0.726431 -0.511382 0.459115
v -0.147703 -0.00870633 -0.038547
vn -0.188593 -0.782998 0.592746
v -0.152472 -0.00832667 -0.0405286
vn -0.318462 -0.78524 0.531018
v -0.137876 -0.00827881 -0.035296
vn -0.160056 -0.759337 0.630705
v -0.140105 -0.00496462 -0.0338074
vn -0.274406 -0.317916 0.907541
v -0.155128 -0.00768664 -0.0423065
vn -0.545715 -0.772248 0.325312
v -0.158006 0.000280536 -0.0467463
vn -0.830274 0.41648 -0.37039
v -0.158162 -0.00395647 -0.0468559
vn -0.945502 -0.148358 -0.289855
v -0.156474 0.000959799 -0.0463888
vn -0.372138 0.883098 -0.285747
v -0.144626 -0.00149963 -0.0499133
vn 0.165617 0.4288 -0.888089
v -0.150998 -0.00214011 -0.0515194
vn 0.0360306 0.391182 -0.919608
v -0.143879 -0.0041828 -0.0503374
vn 0.222698 -0.180324 -0.958065
v -0.150402 -0.00485486 -0.0518109
vn 0.0368437 -0.152861 -0.987561
v -0.155037 -0.00126438 -0.0507036
vn -0.54566 0.255607 -0.798073
v -0.154632 -0.000400479 -0.0499071
vn -0.173996 0.808915 -0.561589
v -0.134839 -0.00819497 -0.034487
vn -0.21853 -0.818437 0.531418
v -0.133038 -0.0101576 -0.038655
vn -0.0436437 -0.991528 0.122338
v -0.136146 -0.010299 -0.0392273
vn -0.0224931 -0.979229 0.201506
v -0.146699 -0.0105938 -0.0424842
vn -0.0442127 -0.996094 0.0764283
v -0.135082 -0.00970932 -0.0437738
vn 0.128427 -0.91206 -0.389427
v -0.13801 -0.00653706 -0.0481942
vn 0.212633 -0.577129 -0.788486
v -0.144215 -0.00712614 -0.0491365
vn 0.168868 -0.620859 -0.765518
v -0.145416 -0.00960991 -0.0466989
vn 0.083142 -0.881866 -0.464111
v -0.15012 -0.00730598 -0.0505186
vn 0.0429715 -0.622106 -0.781753
v -0.149639 -0.00877952 -0.0481229
vn -0.0137299 -0.873627 -0.486403
v -0.151455 -0.0101548 -0.0439132
vn -0.218877 -0.973782 -0.0619756
v -0.154005 -0.00659165 -0.0494778
vn -0.428089 -0.6018 -0.674223
v -0.154834 -0.00408012 -0.0508762
vn -0.529385 -0.285229 -0.798997
v -0.156822 -0.00674227 -0.0459952
vn -0.772763 -0.596034 -0.218129
v -0.153029 -0.00834403 -0.0479004
vn -0.322736 -0.841513 -0.43324
v -0.155024 -0.00843868 -0.0451789
vn -0.50917 -0.855902 -0.0904303
v -0.0864717 -0.00998102 -0.0273936
vn -0.0822342 -0.979716 -0.18274
v -0.0944795 -0.0114201 -0.0542699
vn -0.504683 -0.419511 0.754523
v -0.0930672 -0.0144488 -0.0565739
vn -0.347934 -0.803114 0.483683
v -0.0893592 -0.0147727 -0.0550591
vn -0.353747 -0.840559 0.410271
v -0.090547 -0.0123529 -0.0520017
vn -0.553766 -0.441771 0.70582
v -0.0906984 -0.00128986 -0.0574065
vn -0.178343 0.975723 0.127115
v -0.0935289 -0.00400469 -0.0548582
vn -0.451199 0.653284 0.60798
v -0.0898049 -0.00383586 -0.0522299
vn -0.478586 0.618012 0.623713
v -0.0870077 -0.00108581 -0.0547972
vn -0.175348 0.973215 0.14868
v -0.0877771 -0.00175046 -0.0615269
vn 0.219191 0.886458 -0.407611
v -0.0840491 -0.00190244 -0.059237
vn 0.109956 0.911175 -0.397076
v -0.084399 -0.000583248 -0.0529975
vn -0.258718 0.935878 0.23916
v -0.0867678 -0.00373534 -0.0500152
vn -0.512739 0.618455 0.595493
v -0.075105 -0.00359915 -0.0399759
vn -0.571666 0.607123 0.551905
v -0.0713936 -0.000224237 -0.042519
vn -0.197504 0.970685 0.13698
v -0.0615203 -0.0147768 -0.0478156
vn 0.215817 -0.677562 -0.703088
v -0.0638602 -0.0182036 -0.0434951
vn -0.059814 -0.914643 -0.399813
v -0.0702966 -0.0164871 -0.0475475
vn 0.0628274 -0.978216 -0.197855
v -0.0674768 -0.0145932 -0.0506547
vn 0.364717 -0.727194 -0.581524
v -0.0946074 -0.0076606 -0.0538526
vn -0.561553 0.130618 0.817066
v -0.0912545 -0.00837609 -0.0510658
vn -0.606048 0.136979 0.783545
v -0.0798463 -0.0150608 -0.0596209
vn 0.339421 -0.817081 -0.466017
v -0.0828753 -0.0167159 -0.0563996
vn 0.0172746 -0.998807 -0.0456839
v -0.0871376 -0.0163743 -0.0581052
vn -0.109885 -0.993843 0.0142232
v -0.08464 -0.015457 -0.0619456
vn 0.256233 -0.835804 -0.485569
v -0.0682375 -0.017678 -0.0399483
vn -0.281006 -0.958136 -0.05488
v -0.0711371 -0.0162047 -0.0367108
vn -0.414987 -0.909583 0.0210704
v -0.0747621 -0.0146171 -0.0394797
vn -0.515219 -0.791207 0.329456
v -0.0735594 -0.0161932 -0.0440662
vn -0.254464 -0.947816 0.192077
v -0.0775283 -0.0102999 -0.0378866
vn -0.768383 -0.0172986 0.639757
v -0.0784978 -0.0115795 -0.0615166
vn 0.545094 -0.324278 -0.773121
v -0.0783374 -0.00572174 -0.0613527
vn 0.512157 0.243628 -0.823614
v -0.0640355 -0.005935 -0.0523295
vn 0.498812 0.456258 -0.736896
v -0.0645385 -0.0107305 -0.0517445
vn 0.534603 -0.25447 -0.805881
v -0.0884112 -0.00814899 -0.0489422
vn -0.656226 0.18824 0.730708
v -0.0858043 -0.0156539 -0.0532232
vn -0.290311 -0.90332 0.315804
v -0.0876124 -0.0129941 -0.0502311
vn -0.524113 -0.669132 0.526847
v -0.0809862 -0.00104009 -0.0578127
vn 0.201176 0.890433 -0.408236
v -0.0822479 -0.00620608 -0.0633141
vn 0.373722 0.526301 -0.763766
v -0.0941633 -0.0116802 -0.0705815
vn 0.45683 -0.330412 -0.825914
v -0.086089 -0.0119237 -0.0659429
vn 0.478303 -0.25606 -0.840036
v -0.0884421 -0.0154996 -0.0636462
vn 0.195684 -0.880338 -0.432102
v -0.0955156 -0.0141128 -0.0692026
vn 0.278226 -0.81094 -0.514748
v -0.0825118 -0.011763 -0.063848
vn 0.48614 -0.205079 -0.849476
v -0.0860675 -0.00618367 -0.0655602
vn 0.43845 0.440559 -0.783371
v -0.102097 -0.0113041 -0.0594074
vn -0.427961 -0.583799 0.689948
v -0.099675 -0.0147037 -0.0624907
vn -0.264392 -0.90596 0.330656
v -0.102192 -0.00809721 -0.0588052
vn -0.539522 0.0521716 0.840354
v -0.0673576 4.47473e-05 -0.048077
vn 0.238521 0.897062 -0.372006
v -0.0992207 -0.00234563 -0.0624555
vn -0.235294 0.954234 0.184593
v -0.101814 -0.00484427 -0.0599203
vn -0.465842 0.586877 0.662244
v -0.091105 -0.0158865 -0.0598576
vn -0.133362 -0.98595 0.100579
v -0.0973892 -0.0153921 -0.0661912
vn -0.00193325 -0.997325 -0.0730724
v -0.0939368 -0.00726239 -0.0702903
vn 0.422411 0.361371 -0.831252
v -0.0955217 -0.00255554 -0.066782
vn 0.155662 0.88476 -0.439283
v -0.0980776 -0.00731371 -0.072338
vn 0.2972 0.469354 -0.831492
v -0.0995685 -0.00298814 -0.0683329
vn 0.0223723 0.891146 -0.453165
v -0.103741 -0.00330943 -0.0638096
vn -0.359096 0.915793 0.179925
v -0.104743 -0.00586585 -0.061265
vn -0.522446 0.446033 0.726708
v -0.104972 -0.00891721 -0.0602955
vn -0.479622 -0.0761441 0.874165
v -0.0979774 -0.0117759 -0.0725917
vn 0.451299 -0.303315 -0.839243
v -0.0987803 -0.0142916 -0.0709112
vn 0.369334 -0.804183 -0.465705
v -0.0997924 -0.015668 -0.0675057
vn 0.209563 -0.977645 -0.0171189
v -0.101946 -0.0120041 -0.0744964
vn 0.404806 -0.126874 -0.905558
v -0.104114 -0.00770052 -0.0744971
vn 0.291106 0.457722 -0.840088
v -0.116848 -0.00894986 -0.0700076
vn -0.52739 0.669109 0.523596
v -0.113576 -0.00783111 -0.0679097
vn -0.516965 0.750805 0.411144
v -0.113134 -0.00732803 -0.0689206
vn -0.34652 0.933732 0.0898216
v -0.11677 -0.00805049 -0.0706763
vn -0.287211 0.938485 0.191716
v -0.108984 -0.00535123 -0.0665927
vn -0.459271 0.869125 0.183553
v -0.109448 -0.00557114 -0.0682026
vn -0.341181 0.939509 -0.0303058
v -0.106701 -0.00528361 -0.0705069
vn -0.201893 0.934115 -0.294395
v -0.11124 -0.00649924 -0.0727404
vn -0.150256 0.950813 -0.270884
v -0.109179 -0.00956607 -0.0766319
vn 0.0790154 0.745681 -0.661601
v -0.113038 -0.0101259 -0.0779758
vn 0.154883 0.668444 -0.727457
v -0.114483 -0.00708849 -0.0745918
vn -0.010112 0.934022 -0.357073
v -0.106071 -0.00708885 -0.0742831
vn -0.0176448 0.78646 -0.61739
v -0.118556 -0.00808025 -0.0727424
vn -0.379646 0.92237 0.0714373
v -0.119729 -0.00880019 -0.0725714
vn -0.800191 0.548036 0.243619
v -0.10512 -0.00426905 -0.0699304
vn -0.0885007 0.900856 -0.425001
v -0.108897 -0.00755771 -0.0630918
vn -0.550995 0.508446 0.661731
v -0.114658 -0.00960923 -0.0665158
vn -0.59935 0.398764 0.694094
v -0.11852 -0.0105169 -0.0695778
vn -0.768457 0.292035 0.569376
v -0.1202 -0.011007 -0.0728902
vn -0.999624 0.0188172 -0.0199486
v -0.11365 -0.0118187 -0.0655387
vn -0.543825 -0.133363 0.828534
v -0.118399 -0.0128115 -0.0690842
vn -0.690909 -0.219875 0.688694
v -0.119868 -0.013314 -0.0723594
vn -0.916171 -0.346473 0.201462
v -0.112117 -0.0148058 -0.0657764
vn -0.388046 -0.6042 0.695961
v -0.116769 -0.0149406 -0.0693677
vn -0.533754 -0.606101 0.589702
v -0.106122 -0.0136716 -0.0623202
vn -0.248245 -0.640049 0.727125
v -0.107972 -0.0105547 -0.0620055
vn -0.482562 -0.0947999 0.870716
v -0.11847 -0.0144358 -0.0719981
vn -0.639794 -0.723738 0.258587
v -0.118762 -0.00902098 -0.0763557
vn -0.76498 0.399987 -0.504793
v -0.119357 -0.0119127 -0.0759748
vn -0.852403 -0.0764443 -0.517267
v -0.117569 -0.00801162 -0.0763182
vn -0.249053 0.893194 -0.374403
v -0.108413 -0.0106783 -0.0771132
vn 0.291193 0.224494 -0.929951
v -0.113115 -0.011588 -0.0787368
vn 0.0959913 0.0448363 -0.994372
v -0.107672 -0.0131582 -0.076967
vn 0.359897 -0.211267 -0.908758
v -0.113259 -0.0137528 -0.0783428
vn 0.0892742 -0.365485 -0.926526
v -0.116603 -0.010947 -0.0786178
vn -0.423159 0.118647 -0.898254
v -0.115744 -0.00945799 -0.0778997
vn 0.00526173 0.652459 -0.757806
v -0.104338 -0.0126813 -0.0611321
vn -0.199972 -0.626534 0.753304
v -0.101817 -0.0148783 -0.063631
vn -0.0334875 -0.893805 0.447203
v -0.103719 -0.0157998 -0.0650869
vn 0.0349777 -0.919729 0.390993
v -0.109908 -0.0170111 -0.0681878
vn -0.0577713 -0.949822 0.307409
v -0.101821 -0.0162711 -0.0690789
vn 0.207546 -0.975783 -0.0690811
v -0.101375 -0.0145384 -0.0725576
vn 0.365373 -0.741157 -0.563195
v -0.107668 -0.0153859 -0.0752975
vn 0.282715 -0.732161 -0.619688
v -0.108392 -0.0171153 -0.0724185
vn 0.141297 -0.969801 -0.198798
v -0.113718 -0.0154763 -0.0770021
vn 0.0364454 -0.753385 -0.656569
v -0.113907 -0.0169295 -0.07429
vn -0.0272657 -0.945366 -0.324868
v -0.115008 -0.0168863 -0.0712565
vn -0.284568 -0.938914 0.193548
v -0.11735 -0.0143919 -0.0765255
vn -0.377092 -0.672795 -0.636512
v -0.117373 -0.0130211 -0.0778655
vn -0.406814 -0.371188 -0.834698
v -0.118913 -0.0137563 -0.0750198
vn -0.808336 -0.497956 -0.314059
v -0.11698 -0.0155749 -0.0749624
vn -0.417118 -0.855732 -0.306163
v -0.117722 -0.0152748 -0.0735689
vn -0.617975 -0.78581 -0.0246704
v -0.0619088 -0.0113707 -0.0498198
vn 0.446773 -0.217781 -0.867736
v -0.0551686 -0.0357659 0.0614424
vn -0.478758 0.639435 0.601593
v -0.0588622 -0.0358578 0.0570388
vn -0.754257 0.626763 0.195613
v -0.0544007 -0.0493406 0.0488858
vn -0.11435 -0.548621 -0.828214
v -0.0594212 -0.0445437 0.049486
vn -0.57997 -0.165124 -0.797727
v -0.0491345 -0.0519644 0.0521219
vn 0.382901 -0.734174 -0.560692
v -0.0438216 -0.0476759 0.0606253
vn 0.745441 -0.490372 0.451501
v -0.0449235 -0.0504603 0.0559742
vn 0.643835 -0.756881 -0.112286
v -0.0610164 -0.0395186 0.0525044
vn -0.852573 0.354929 -0.383595
v -0.0501694 -0.0374821 0.0646195
vn 0.0789048 0.417768 0.905121
v -0.0450576 -0.0423237 0.0644593
vn 0.543634 -0.00259845 0.839319
v -0.0559017 -0.0416531 0.0680576
vn -0.0381524 0.48405 0.874208
v -0.0506478 -0.0469244 0.0679493
vn 0.47712 -0.0478404 0.877535
v -0.0491023 -0.052794 0.0647459
vn 0.679991 -0.441443 0.585441
v -0.0497319 -0.0555825 0.0588923
vn 0.712608 -0.699385 -0.05523
v -0.0523134 -0.0563583 0.0547161
vn 0.421251 -0.671444 -0.609681
v -0.060376 -0.0397565 0.0634712
vn -0.463312 0.773213 0.432995
v -0.0634867 -0.0400815 0.0587586
vn -0.695098 0.711409 -0.103612
v -0.0639513 -0.0435836 0.0531939
vn -0.663433 0.31753 -0.677518
v -0.0671672 -0.0444117 0.0647956
vn -0.46631 0.730816 0.49846
v -0.0692469 -0.0521611 0.0713324
vn -0.220589 0.542178 0.810792
v -0.0690738 -0.0712018 0.0727538
vn 0.531599 -0.803575 0.267711
v -0.064264 -0.0676291 0.069517
vn 0.688519 -0.627164 0.364152
v -0.0654315 -0.0660044 0.0717674
vn 0.685355 -0.209956 0.697286
v -0.0692583 -0.0694944 0.0749704
vn 0.684737 -0.211432 0.697447
v -0.0611084 -0.0631345 0.0694224
vn 0.631535 -0.4492 0.631968
v -0.0632084 -0.0626534 0.0707658
vn 0.505478 -0.182456 0.843328
v -0.0650875 -0.0578388 0.0719591
vn 0.278438 0.0602531 0.958562
v -0.0685438 -0.0610476 0.0747083
vn 0.464759 0.21308 0.859416
v -0.0693562 -0.0548531 0.0720612
vn 0.0521471 0.319184 0.946257
v -0.0727935 -0.0565908 0.0731724
vn 0.0896894 0.574736 0.813409
v -0.0721669 -0.0641169 0.0774915
vn 0.46822 0.221392 0.855427
v -0.0720642 -0.069993 0.0778772
vn 0.409947 -0.343501 0.844956
v -0.0754349 -0.0669565 0.0794558
vn 0.179466 0.0390121 0.98299
v -0.0736057 -0.0721293 0.0757332
vn -0.0571727 -0.907113 0.416987
v -0.0636636 -0.0567804 0.0730225
vn 0.301983 -0.0144844 0.953203
v -0.0567202 -0.0625247 0.0633833
vn 0.676856 -0.727906 0.109629
v -0.0634161 -0.0680086 0.0656266
vn 0.543123 -0.838519 -0.0436419
v -0.0698245 -0.0717117 0.0688896
vn 0.199235 -0.955914 -0.215715
v -0.0750632 -0.0724041 0.0726825
vn -0.346216 -0.927621 -0.140194
v -0.0649512 -0.0672878 0.0611766
vn 0.255401 -0.838639 -0.481098
v -0.0712388 -0.069823 0.0648489
vn -0.0630613 -0.85948 -0.507265
v -0.0762019 -0.0697775 0.0682033
vn -0.460219 -0.768774 -0.444055
v -0.0679327 -0.0645829 0.0580968
vn -0.149776 -0.569514 -0.808221
v -0.0732688 -0.0669437 0.0626994
vn -0.341246 -0.649406 -0.679576
v -0.0590904 -0.0563144 0.0524801
vn -0.0744072 -0.466503 -0.881384
v -0.056145 -0.0606952 0.0568553
vn 0.3875 -0.756784 -0.526424
v -0.0761502 -0.0676288 0.0660826
vn -0.567227 -0.578843 -0.585828
v -0.0779856 -0.0685319 0.0787291
vn -0.47637 -0.435115 0.764033
v -0.0796595 -0.0687655 0.0751875
vn -0.815554 -0.555836 0.16099
v -0.0744604 -0.0539286 0.0713999
vn -0.267837 0.669034 0.693294
v -0.0762859 -0.0592248 0.0763149
vn 0.0977143 0.581451 0.807692
v -0.0783782 -0.0579901 0.0740255
vn -0.449332 0.664034 0.597628
v -0.075322 -0.0518304 0.0678381
vn -0.583956 0.7223 0.37051
v -0.079758 -0.0574719 0.07134
vn -0.818655 0.546781 0.175596
v -0.0800076 -0.062674 0.0771407
vn -0.754093 0.204449 0.624135
v -0.0772514 -0.0626421 0.0785325
vn -0.0600925 0.327351 0.94299
v -0.056221 -0.0532656 0.0508938
vn 0.00686914 -0.466675 -0.884402
v -0.0603901 -0.0480483 0.0503999
vn -0.395545 -0.150139 -0.906092
v -0.0631813 -0.0507482 0.0518601
vn -0.385693 -0.128591 -0.913622
v -0.0716319 -0.0589237 0.0570218
vn -0.46873 -0.19968 -0.860477
v -0.0673608 -0.0466816 0.0544637
vn -0.667362 0.293053 -0.684651
v -0.068561 -0.0442897 0.06009
vn -0.716095 0.683637 -0.140882
v -0.0759766 -0.0519608 0.0639384
vn -0.808519 0.569393 -0.148622
v -0.0747754 -0.0542102 0.0596575
vn -0.777778 0.204501 -0.594341
v -0.0797486 -0.0583688 0.067625
vn -0.919613 0.337481 -0.201044
v -0.0785702 -0.0597668 0.0650424
vn -0.856456 0.0491708 -0.513873
v -0.0762339 -0.0635827 0.0628026
vn -0.667549 -0.296489 -0.682988
v -0.0807999 -0.0629855 0.070165
vn -0.965558 -0.0396485 -0.257149
v -0.0813573 -0.0625611 0.0739417
vn -0.990764 0.0473093 0.127075
v -0.0795981 -0.0672785 0.0704283
vn -0.826414 -0.49855 -0.261701
v -0.0794767 -0.062776 0.0675148
vn -0.860463 -0.165198 -0.481989
v -0.0783092 -0.0656396 0.0670806
vn -0.77298 -0.378209 -0.509373
v -0.0580518 -0.0199059 -0.0413415
vn -0.0702708 -0.91919 -0.387494
v -0.0617315 -0.020307 -0.0359947
vn -0.259097 -0.96573 -0.0153152
v -0.054517 -0.0213301 -0.0355208
vn -0.101466 -0.994833 -0.00334515
v -0.0447097 -0.0221563 -0.0334407
vn -0.0577494 -0.995205 -0.0789458
v -0.0343685 -0.0204789 -0.0365813
vn 0.190842 -0.734323 -0.651421
v -0.0466664 -0.0210808 -0.0270359
vn -0.15945 -0.954467 0.252128
v -0.0566012 -0.0202781 -0.0296504
vn -0.149119 -0.967519 0.204135
v -0.0667955 -0.0181285 -0.0307323
vn -0.310392 -0.948499 0.0633027
v -0.040251 -0.0192558 -0.0189196
vn -0.202403 -0.911535 0.357963
f 2//2 3//3 1//1
f 1//1 3//3 4//4
f 5//5 6//6 8//8
f 8//8 6//6 7//7
f 9//9 4//4 10//10
f 10//10 4//4 3//3
f 12//12 13//13 11//11
f 11//11 13//13 9//9
f 14//14 12//12 16//16
f 16//16 12//12 15//15
f 18//18 19//19 17//17
f 17//17 19//19 20//20
f 22//22 23//23 21//21
f 21//21 23//23 24//24
f 26//26 27//27 25//25
f 25//25 27//27 28//28
f 30//30 31//31 29//29
f 29//29 31//31 32//32
f 33//33 34//34 36//36
f 36//36 34//34 35//35
f 37//37 38//38 40//40
f 40//40 38//38 39//39
f 41//41 42//42 6//6
f 6//6 42//42 43//43
f 6//6 43//43 7//7
f 7//7 43//43 44//44
f 45//45 34//34 46//46
f 46//46 34//34 33//33
f 48//48 49//49 47//47
f 47//47 49//49 50//50
f 52//52 53//53 51//51
f 51//51 53//53 54//54
f 56//56 52//52 55//55
f 55//55 52//52 51//51
f 58//58 59//59 57//57
f 57//57 59//59 60//60
f 61//61 62//62 4//4
f 4//4 62//62 1//1
f 64//64 65//65 63//63
f 63//63 65//65 66//66
f 68//68 69//69 67//67
f 67//67 69//69 70//70
f 72//72 73//73 71//71
f 71//71 73//73 74//74
f 76//76 77//77 75//75
f 75//75 77//77 78//78
f 53//53 79//79 54//54
f 54//54 79//79 80//80
f 82//82 83//83 81//81
f 81//81 83//83 84//84
f 85//85 86//86 52//52
f 52//52 86//86 53//53
f 57//57 60//60 87//87
f 87//87 60//60 88//88
f 89//89 90//90 43//43
f 43//43 90//90 44//44
f 43//43 42//42 89//89
f 89//89 42//42 91//91
f 40//40 39//39 92//92
f 92//92 39//39 93//93
f 94//94 70//70 64//64
f 64//64 70//70 69//69
f 13//13 61//61 9//9
f 9//9 61//61 4//4
f 25//25 28//28 69//69
f 69//69 28//28 95//95
f 96//96 25//25 68//68
f 68//68 25//25 69//69
f 98//98 99//99 97//97
f 97//97 99//99 100//100
f 101//101 102//102 104//104
f 104//104 102//102 103//103
f 106//106 30//30 105//105
f 105//105 30//30 29//29
f 51//51 54//54 107//107
f 107//107 54//54 108//108
f 54//54 80//80 108//108
f 108//108 80//80 109//109
f 111//111 112//112 110//110
f 110//110 112//112 113//113
f 115//115 5//5 114//114
f 114//114 5//5 116//116
f 115//115 41//41 5//5
f 5//5 41//41 6//6
f 36//36 35//35 111//111
f 111//111 35//35 117//117
f 35//35 118//118 117//117
f 117//117 118//118 119//119
f 34//34 120//120 35//35
f 35//35 120//120 118//118
f 34//34 45//45 120//120
f 120//120 45//45 121//121
f 125//125 126//126 124//124
f 124//124 126//126 127//127
f 128//128 129//129 14//14
f 14//14 129//129 130//130
f 33//33 131//131 46//46
f 46//46 131//131 132//132
f 133//133 94//94 63//63
f 63//63 94//94 64//64
f 134//134 135//135 137//137
f 137//137 135//135 136//136
f 139//139 140//140 138//138
f 138//138 140//140 141//141
f 77//77 142//142 78//78
f 78//78 142//142 143//143
f 144//144 145//145 20//20
f 20//20 145//145 146//146
f 148//148 149//149 147//147
f 147//147 149//149 72//72
f 151//151 152//152 150//150
f 150//150 152//152 153//153
f 82//82 101//101 83//83
f 83//83 101//101 104//104
f 101//101 82//82 155//155
f 155//155 82//82 154//154
f 156//156 157//157 58//58
f 58//58 157//157 59//59
f 158//158 68//68 147//147
f 147//147 68//68 67//67
f 159//159 146//146 15//15
f 15//15 146//146 16//16
f 68//68 158//158 96//96
f 96//96 158//158 160//160
f 129//129 66//66 130//130
f 130//130 66//66 65//65
f 162//162 163//163 161//161
f 161//161 163//163 164//164
f 166//166 167//167 165//165
f 165//165 167//167 168//168
f 170//170 171//171 169//169
f 169//169 171//171 172//172
f 174//174 171//171 173//173
f 173//173 171//171 170//170
f 176//176 177//177 175//175
f 175//175 177//177 178//178
f 180//180 181//181 179//179
f 179//179 181//181 24//24
f 182//182 183//183 21//21
f 21//21 183//183 184//184
f 81//81 185//185 82//82
f 82//82 185//185 154//154
f 186//186 187//187 188//188
f 188//188 187//187 144//144
f 158//158 71//71 160//160
f 160//160 71//71 189//189
f 190//190 135//135 157//157
f 157//157 135//135 59//59
f 169//169 172//172 139//139
f 139//139 172//172 140//140
f 147//147 72//72 158//158
f 158//158 72//72 71//71
f 192//192 193//193 191//191
f 191//191 193//193 194//194
f 167//167 166//166 49//49
f 49//49 166//166 195//195
f 196//196 190//190 50//50
f 50//50 190//190 157//157
f 197//197 198//198 200//200
f 200//200 198//198 199//199
f 21//21 24//24 182//182
f 182//182 24//24 181//181
f 146//146 159//159 20//20
f 20//20 159//159 17//17
f 182//182 181//181 81//81
f 81//81 181//181 185//185
f 201//201 185//185 180//180
f 180//180 185//185 181//181
f 202//202 203//203 83//83
f 83//83 203//203 84//84
f 205//205 206//206 204//204
f 204//204 206//206 85//85
f 207//207 22//22 184//184
f 184//184 22//22 21//21
f 179//179 24//24 208//208
f 208//208 24//24 23//23
f 208//208 209//209 179//179
f 179//179 209//209 205//205
f 209//209 210//210 205//205
f 205//205 210//210 206//206
f 212//212 206//206 211//211
f 211//211 206//206 210//210
f 179//179 205//205 180//180
f 180//180 205//205 204//204
f 213//213 176//176 88//88
f 88//88 176//176 214//214
f 86//86 85//85 212//212
f 212//212 85//85 206//206
f 193//193 217//217 218//218
f 217//217 219//219 218//218
f 218//218 219//219 220//220
f 219//219 18//18 220//220
f 220//220 18//18 17//17
f 19//19 221//221 20//20
f 20//20 221//221 144//144
f 222//222 223//223 225//225
f 225//225 223//223 224//224
f 175//175 226//226 176//176
f 176//176 226//226 214//214
f 227//227 87//87 214//214
f 214//214 87//87 88//88
f 220//220 17//17 228//228
f 228//228 17//17 159//159
f 134//134 213//213 60//60
f 60//60 213//213 88//88
f 138//138 229//229 151//151
f 151//151 229//229 152//152
f 193//193 192//192 210//210
f 210//210 192//192 211//211
f 230//230 194//194 218//218
f 218//218 194//194 193//193
f 231//231 232//232 228//228
f 228//228 232//232 230//230
f 233//233 234//234 91//91
f 91//91 234//234 89//89
f 235//235 236//236 93//93
f 93//93 236//236 92//92
f 230//230 232//232 234//234
f 234//234 232//232 237//237
f 47//47 238//238 48//48
f 48//48 238//238 239//239
f 240//240 191//191 235//235
f 235//235 191//191 236//236
f 5//5 8//8 116//116
f 116//116 8//8 241//241
f 242//242 243//243 189//189
f 189//189 243//243 160//160
f 244//244 245//245 98//98
f 98//98 245//245 99//99
f 156//156 246//246 47//47
f 47//47 246//246 238//238
f 76//76 247//247 77//77
f 77//77 247//247 248//248
f 250//250 125//125 249//249
f 249//249 125//125 124//124
f 252//252 253//253 251//251
f 251//251 253//253 254//254
f 111//111 110//110 36//36
f 36//36 110//110 255//255
f 256//256 33//33 255//255
f 255//255 33//33 36//36
f 257//257 258//258 154//154
f 154//154 258//258 155//155
f 63//63 169//169 133//133
f 133//133 169//169 139//139
f 66//66 170//170 63//63
f 63//63 170//170 169//169
f 173//173 170//170 129//129
f 129//129 170//170 66//66
f 129//129 128//128 173//173
f 173//173 128//128 259//259
f 128//128 260//260 259//259
f 259//259 260//260 261//261
f 213//213 134//134 262//262
f 262//262 134//134 137//137
f 263//263 264//264 186//186
f 186//186 264//264 187//187
f 112//112 265//265 113//113
f 113//113 265//265 266//266
f 11//11 267//267 268//268
f 234//234 233//233 230//230
f 230//230 233//233 194//194
f 153//153 269//269 70//70
f 70//70 269//269 67//67
f 175//175 178//178 165//165
f 165//165 178//178 141//141
f 150//150 153//153 94//94
f 94//94 153//153 70//70
f 271//271 221//221 270//270
f 270//270 221//221 207//207
f 269//269 153//153 272//272
f 272//272 153//153 152//152
f 121//121 45//45 109//109
f 109//109 45//45 108//108
f 47//47 50//50 156//156
f 156//156 50//50 157//157
f 57//57 273//273 58//58
f 58//58 273//273 274//274
f 145//145 275//275 260//260
f 260//260 275//275 261//261
f 276//276 149//149 143//143
f 143//143 149//149 78//78
f 148//148 269//269 75//75
f 75//75 269//269 272//272
f 207//207 277//277 270//270
f 270//270 277//277 278//278
f 195//195 196//196 49//49
f 49//49 196//196 50//50
f 59//59 135//135 60//60
f 60//60 135//135 134//134
f 83//83 104//104 202//202
f 202//202 104//104 279//279
f 149//149 148//148 78//78
f 78//78 148//148 75//75
f 247//247 278//278 248//248
f 248//248 278//278 277//277
f 183//183 182//182 84//84
f 84//84 182//182 81//81
f 48//48 239//239 281//281
f 281//281 239//239 282//282
f 227//227 223//223 283//283
f 283//283 223//223 222//222
f 223//223 226//226 224//224
f 224//224 226//226 168//168
f 281//281 282//282 224//224
f 224//224 282//282 225//225
f 165//165 168//168 175//175
f 175//175 168//168 226//226
f 264//264 263//263 138//138
f 138//138 263//263 229//229
f 14//14 16//16 128//128
f 128//128 16//16 260//260
f 220//220 228//228 218//218
f 218//218 228//228 230//230
f 87//87 227//227 284//284
f 284//284 227//227 283//283
f 260//260 16//16 145//145
f 145//145 16//16 146//146
f 244//244 98//98 258//258
f 258//258 98//98 155//155
f 58//58 274//274 156//156
f 156//156 274//274 246//246
f 107//107 285//285 51//51
f 51//51 285//285 55//55
f 243//243 286//286 160//160
f 160//160 286//286 96//96
f 234//234 237//237 89//89
f 89//89 237//237 90//90
f 46//46 132//132 107//107
f 107//107 132//132 285//285
f 253//253 252//252 249//249
f 249//249 252//252 250//250
f 286//286 26//26 96//96
f 96//96 26//26 25//25
f 106//106 105//105 287//287
f 287//287 105//105 288//288
f 272//272 152//152 289//289
f 289//289 152//152 229//229
f 138//138 151//151 139//139
f 139//139 151//151 133//133
f 183//183 290//290 161//161
f 161//161 290//290 162//162
f 291//291 292//292 277//277
f 277//277 292//292 293//293
f 151//151 150//150 133//133
f 133//133 150//150 94//94
f 262//262 275//275 177//177
f 177//177 275//275 187//187
f 144//144 187//187 145//145
f 145//145 187//187 275//275
f 273//273 57//57 284//284
f 284//284 57//57 87//87
f 174//174 136//136 190//190
f 190//190 136//136 135//135
f 111//111 117//117 112//112
f 112//112 117//117 38//38
f 117//117 119//119 38//38
f 38//38 119//119 123//123
f 112//112 38//38 265//265
f 265//265 38//38 37//37
f 287//287 288//288 254//254
f 254//254 288//288 251//251
f 228//228 159//159 231//231
f 231//231 159//159 15//15
f 223//223 227//227 226//226
f 226//226 227//227 214//214
f 147//147 67//67 148//148
f 148//148 67//67 269//269
f 224//224 168//168 281//281
f 281//281 168//168 167//167
f 199//199 163//163 200//200
f 200//200 163//163 162//162
f 45//45 46//46 108//108
f 108//108 46//46 107//107
f 281//281 167//167 48//48
f 48//48 167//167 49//49
f 161//161 164//164 291//291
f 291//291 164//164 292//292
f 38//38 123//123 39//39
f 293//293 294//294 277//277
f 277//277 294//294 248//248
f 284//284 283//283 296//296
f 296//296 283//283 295//295
f 284//284 296//296 273//273
f 273//273 296//296 297//297
f 274//274 273//273 298//298
f 298//298 273//273 297//297
f 246//246 274//274 299//299
f 299//299 274//274 298//298
f 283//283 222//222 295//295
f 295//295 222//222 300//300
f 222//222 225//225 300//300
f 300//300 225//225 301//301
f 301//301 225//225 302//302
f 302//302 225//225 282//282
f 303//303 304//304 300//300
f 300//300 304//304 295//295
f 306//306 307//307 305//305
f 305//305 307//307 308//308
f 309//309 310//310 308//308
f 308//308 310//310 305//305
f 308//308 307//307 312//312
f 312//312 307//307 311//311
f 313//313 314//314 312//312
f 312//312 314//314 315//315
f 311//311 316//316 312//312
f 312//312 316//316 313//313
f 317//317 304//304 311//311
f 311//311 304//304 316//316
f 315//315 309//309 312//312
f 312//312 309//309 308//308
f 318//318 319//319 321//321
f 321//321 319//319 320//320
f 319//319 318//318 309//309
f 309//309 318//318 310//310
f 311//311 307//307 317//317
f 317//317 307//307 306//306
f 306//306 297//297 317//317
f 317//317 297//297 296//296
f 306//306 322//322 297//297
f 297//297 322//322 298//298
f 305//305 323//323 306//306
f 306//306 323//323 322//322
f 323//323 305//305 324//324
f 324//324 305//305 310//310
f 304//304 317//317 295//295
f 295//295 317//317 296//296
f 318//318 325//325 310//310
f 310//310 325//325 324//324
f 323//323 324//324 326//326
f 326//326 324//324 327//327
f 324//324 325//325 327//327
f 327//327 325//325 328//328
f 326//326 327//327 329//329
f 329//329 327//327 330//330
f 329//329 331//331 326//326
f 326//326 331//331 332//332
f 333//333 330//330 328//328
f 328//328 330//330 327//327
f 323//323 326//326 322//322
f 322//322 326//326 332//332
f 322//322 332//332 298//298
f 298//298 332//332 299//299
f 325//325 318//318 334//334
f 334//334 318//318 321//321
f 313//313 316//316 335//335
f 335//335 316//316 304//304
f 335//335 336//336 313//313
f 313//313 336//336 314//314
f 304//304 303//303 335//335
f 335//335 303//303 337//337
f 336//336 335//335 338//338
f 338//338 335//335 337//337
f 336//336 339//339 314//314
f 314//314 339//339 340//340
f 246//246 299//299 238//238
f 238//238 299//299 341//341
f 239//239 342//342 282//282
f 282//282 342//342 302//302
f 342//342 239//239 341//341
f 341//341 239//239 238//238
f 341//341 331//331 342//342
f 342//342 331//331 343//343
f 331//331 329//329 343//343
f 343//343 329//329 344//344
f 342//342 343//343 302//302
f 302//302 343//343 345//345
f 341//341 299//299 331//331
f 331//331 299//299 332//332
f 346//346 301//301 345//345
f 345//345 301//301 302//302
f 346//346 303//303 301//301
f 301//301 303//303 300//300
f 347//347 337//337 346//346
f 346//346 337//337 303//303
f 347//347 346//346 348//348
f 348//348 346//346 345//345
f 349//349 347//347 350//350
f 350//350 347//347 348//348
f 343//343 344//344 345//345
f 345//345 344//344 348//348
f 344//344 351//351 348//348
f 348//348 351//351 350//350
f 337//337 347//347 338//338
f 338//338 347//347 349//349
f 353//353 338//338 352//352
f 352//352 338//338 349//349
f 352//352 355//355 354//354
f 354//354 355//355 356//356
f 352//352 349//349 355//355
f 355//355 349//349 350//350
f 352//352 354//354 353//353
f 353//353 354//354 334//334
f 353//353 334//334 339//339
f 339//339 334//334 321//321
f 339//339 336//336 353//353
f 353//353 336//336 338//338
f 329//329 330//330 344//344
f 344//344 330//330 351//351
f 356//356 351//351 333//333
f 333//333 351//351 330//330
f 356//356 355//355 351//351
f 351//351 355//355 350//350
f 354//354 356//356 328//328
f 328//328 356//356 333//333
f 328//328 325//325 354//354
f 354//354 325//325 334//334
f 309//309 315//315 319//319
f 319//319 315//315 320//320
f 320//320 340//340 321//321
f 321//321 340//340 339//339
f 320//320 315//315 340//340
f 340//340 315//315 314//314
f 137//137 136//136 261//261
f 261//261 136//136 259//259
f 140//140 166//166 141//141
f 141//141 166//166 165//165
f 172//172 171//171 195//195
f 195//195 171//171 196//196
f 171//171 174//174 196//196
f 196//196 174//174 190//190
f 178//178 177//177 264//264
f 264//264 177//177 187//187
f 172//172 195//195 140//140
f 140//140 195//195 166//166
f 137//137 261//261 262//262
f 262//262 261//261 275//275
f 178//178 264//264 141//141
f 141//141 264//264 138//138
f 262//262 177//177 213//213
f 213//213 177//177 176//176
f 136//136 174//174 259//259
f 259//259 174//174 173//173
f 358//358 359//359 357//357
f 357//357 359//359 360//360
f 362//362 363//363 361//361
f 361//361 363//363 364//364
f 361//361 364//364 365//365
f 365//365 364//364 366//366
f 367//367 368//368 370//370
f 370//370 368//368 369//369
f 76//76 371//371 247//247
f 247//247 371//371 372//372
f 373//373 374//374 362//362
f 362//362 374//374 363//363
f 376//376 377//377 375//375
f 375//375 377//377 378//378
f 289//289 229//229 380//380
f 380//380 229//229 379//379
f 381//381 379//379 263//263
f 263//263 379//379 229//229
f 383//383 384//384 382//382
f 382//382 384//384 385//385
f 386//386 368//368 374//374
f 374//374 368//368 363//363
f 76//76 289//289 371//371
f 371//371 289//289 380//380
f 377//377 376//376 359//359
f 359//359 376//376 387//387
f 388//388 386//386 360//360
f 360//360 386//386 374//374
f 389//389 383//383 366//366
f 366//366 383//383 390//390
f 392//392 393//393 391//391
f 391//391 393//393 394//394
f 383//383 382//382 390//390
f 390//390 382//382 395//395
f 396//396 365//365 390//390
f 390//390 365//365 366//366
f 389//389 366//366 367//367
f 367//367 366//366 364//364
f 357//357 397//397 358//358
f 358//358 397//397 398//398
f 373//373 399//399 357//357
f 357//357 399//399 397//397
f 389//389 367//367 400//400
f 400//400 367//367 370//370
f 382//382 385//385 375//375
f 375//375 385//385 372//372
f 357//357 360//360 373//373
f 373//373 360//360 374//374
f 361//361 401//401 362//362
f 362//362 401//401 402//402
f 387//387 388//388 359//359
f 359//359 388//388 360//360
f 363//363 368//368 364//364
f 364//364 368//368 367//367
f 358//358 398//398 403//403
f 403//403 398//398 404//404
f 396//396 392//392 405//405
f 405//405 392//392 391//391
f 392//392 395//395 393//393
f 393//393 395//395 378//378
f 393//393 403//403 394//394
f 394//394 403//403 404//404
f 375//375 378//378 382//382
f 382//382 378//378 395//395
f 365//365 396//396 406//406
f 406//406 396//396 405//405
f 362//362 402//402 373//373
f 373//373 402//402 399//399
f 271//271 270//270 400//400
f 400//400 270//270 384//384
f 401//401 361//361 406//406
f 406//406 361//361 365//365
f 381//381 369//369 386//386
f 386//386 369//369 368//368
f 392//392 396//396 395//395
f 395//395 396//396 390//390
f 393//393 378//378 403//403
f 403//403 378//378 377//377
f 403//403 377//377 358//358
f 358//358 377//377 359//359
f 406//406 405//405 408//408
f 408//408 405//405 407//407
f 406//406 408//408 401//401
f 401//401 408//408 409//409
f 401//401 409//409 402//402
f 402//402 409//409 410//410
f 402//402 410//410 399//399
f 399//399 410//410 411//411
f 405//405 391//391 407//407
f 407//407 391//391 412//412
f 391//391 394//394 412//412
f 412//412 394//394 413//413
f 394//394 404//404 413//413
f 413//413 404//404 414//414
f 415//415 416//416 412//412
f 412//412 416//416 407//407
f 418//418 419//419 417//417
f 417//417 419//419 420//420
f 421//421 422//422 418//418
f 418//418 422//422 419//419
f 419//419 422//422 424//424
f 424//424 422//422 423//423
f 425//425 426//426 424//424
f 424//424 426//426 427//427
f 423//423 428//428 424//424
f 424//424 428//428 425//425
f 427//427 420//420 424//424
f 424//424 420//420 419//419
f 420//420 429//429 417//417
f 417//417 429//429 430//430
f 423//423 422//422 431//431
f 431//431 422//422 421//421
f 421//421 409//409 431//431
f 431//431 409//409 408//408
f 421//421 432//432 409//409
f 409//409 432//432 410//410
f 418//418 433//433 421//421
f 421//421 433//433 432//432
f 434//434 433//433 417//417
f 417//417 433//433 418//418
f 431//431 416//416 423//423
f 423//423 416//416 428//428
f 416//416 431//431 407//407
f 407//407 431//431 408//408
f 435//435 434//434 430//430
f 430//430 434//434 417//417
f 433//433 434//434 436//436
f 436//436 434//434 437//437
f 434//434 435//435 437//437
f 437//437 435//435 438//438
f 436//436 437//437 439//439
f 439//439 437//437 440//440
f 439//439 441//441 436//436
f 436//436 441//441 442//442
f 438//438 443//443 437//437
f 437//437 443//443 440//440
f 436//436 442//442 433//433
f 433//433 442//442 432//432
f 432//432 442//442 410//410
f 410//410 442//442 411//411
f 435//435 430//430 445//445
f 445//445 430//430 444//444
f 430//430 429//429 444//444
f 444//444 429//429 446//446
f 425//425 428//428 447//447
f 447//447 428//428 416//416
f 426//426 425//425 448//448
f 448//448 425//425 447//447
f 416//416 415//415 447//447
f 447//447 415//415 449//449
f 447//447 449//449 448//448
f 448//448 449//449 450//450
f 451//451 452//452 448//448
f 448//448 452//452 426//426
f 446//446 452//452 444//444
f 444//444 452//452 451//451
f 399//399 411//411 397//397
f 397//397 411//411 453//453
f 398//398 454//454 404//404
f 404//404 454//454 414//414
f 454//454 398//398 453//453
f 453//453 398//398 397//397
f 453//453 441//441 454//454
f 454//454 441//441 455//455
f 441//441 439//439 455//455
f 455//455 439//439 456//456
f 454//454 455//455 414//414
f 414//414 455//455 457//457
f 441//441 453//453 442//442
f 442//442 453//453 411//411
f 458//458 413//413 457//457
f 457//457 413//413 414//414
f 458//458 415//415 413//413
f 413//413 415//415 412//412
f 458//458 459//459 415//415
f 415//415 459//459 449//449
f 459//459 458//458 460//460
f 460//460 458//458 457//457
f 461//461 459//459 462//462
f 462//462 459//459 460//460
f 455//455 456//456 457//457
f 457//457 456//456 460//460
f 456//456 463//463 460//460
f 460//460 463//463 462//462
f 459//459 461//461 449//449
f 449//449 461//461 450//450
f 465//465 450//450 464//464
f 464//464 450//450 461//461
f 464//464 467//467 466//466
f 466//466 467//467 468//468
f 464//464 461//461 467//467
f 467//467 461//461 462//462
f 464//464 466//466 465//465
f 465//465 466//466 445//445
f 465//465 445//445 451//451
f 451//451 445//445 444//444
f 451//451 448//448 465//465
f 465//465 448//448 450//450
f 439//439 440//440 456//456
f 456//456 440//440 463//463
f 468//468 463//463 443//443
f 443//443 463//463 440//440
f 468//468 467//467 463//463
f 463//463 467//467 462//462
f 466//466 468//468 438//438
f 438//438 468//468 443//443
f 438//438 435//435 466//466
f 466//466 435//435 445//445
f 420//420 427//427 429//429
f 429//429 427//427 446//446
f 446//446 427//427 452//452
f 452//452 427//427 426//426
f 370//370 369//369 188//188
f 188//188 369//369 186//186
f 371//371 376//376 372//372
f 372//372 376//376 375//375
f 380//380 379//379 387//387
f 387//387 379//379 388//388
f 379//379 381//381 388//388
f 388//388 381//381 386//386
f 385//385 384//384 278//278
f 278//278 384//384 270//270
f 380//380 387//387 371//371
f 371//371 387//387 376//376
f 400//400 370//370 271//271
f 271//271 370//370 188//188
f 385//385 278//278 372//372
f 372//372 278//278 247//247
f 400//400 384//384 389//389
f 389//389 384//384 383//383
f 369//369 381//381 186//186
f 186//186 381//381 263//263
f 221//221 271//271 144//144
f 144//144 271//271 188//188
f 221//221 19//19 207//207
f 207//207 19//19 22//22
f 19//19 18//18 22//22
f 22//22 18//18 23//23
f 18//18 219//219 23//23
f 23//23 219//219 208//208
f 469//469 470//470 472//472
f 472//472 470//470 471//471
f 474//474 475//475 473//473
f 473//473 475//475 476//476
f 473//473 476//476 477//477
f 477//477 476//476 478//478
f 480//480 481//481 479//479
f 479//479 481//481 482//482
f 483//483 484//484 474//474
f 474//474 484//484 475//475
f 486//486 487//487 485//485
f 485//485 487//487 488//488
f 489//489 490//490 77//77
f 77//77 490//490 142//142
f 491//491 489//489 248//248
f 248//248 489//489 77//77
f 493//493 494//494 492//492
f 492//492 494//494 495//495
f 496//496 480//480 484//484
f 484//484 480//480 475//475
f 486//486 497//497 487//487
f 487//487 497//497 471//471
f 498//498 496//496 472//472
f 472//472 496//496 484//484
f 499//499 493//493 478//478
f 478//478 493//493 500//500
f 501//501 502//502 504//504
f 504//504 502//502 503//503
f 493//493 492//492 500//500
f 500//500 492//492 505//505
f 506//506 477//477 500//500
f 500//500 477//477 478//478
f 499//499 478//478 479//479
f 479//479 478//478 476//476
f 469//469 507//507 470//470
f 470//470 507//507 508//508
f 483//483 509//509 469//469
f 469//469 509//509 507//507
f 479//479 482//482 499//499
f 499//499 482//482 510//510
f 492//492 495//495 485//485
f 485//485 495//495 511//511
f 483//483 469//469 484//484
f 484//484 469//469 472//472
f 473//473 512//512 474//474
f 474//474 512//512 513//513
f 497//497 498//498 471//471
f 471//471 498//498 472//472
f 475//475 480//480 476//476
f 476//476 480//480 479//479
f 470//470 508//508 514//514
f 514//514 508//508 515//515
f 506//506 502//502 516//516
f 516//516 502//502 501//501
f 503//503 502//502 488//488
f 488//488 502//502 505//505
f 514//514 515//515 503//503
f 503//503 515//515 504//504
f 485//485 488//488 492//492
f 492//492 488//488 505//505
f 477//477 506//506 517//517
f 517//517 506//506 516//516
f 474//474 513//513 483//483
f 483//483 513//513 509//509
f 510//510 292//292 494//494
f 494//494 292//292 164//164
f 512//512 473//473 517//517
f 517//517 473//473 477//477
f 491//491 481//481 496//496
f 496//496 481//481 480//480
f 502//502 506//506 505//505
f 505//505 506//506 500//500
f 503//503 488//488 514//514
f 514//514 488//488 487//487
f 514//514 487//487 470//470
f 470//470 487//487 471//471
f 517//517 516//516 519//519
f 519//519 516//516 518//518
f 517//517 519//519 512//512
f 512//512 519//519 520//520
f 512//512 520//520 513//513
f 513//513 520//520 521//521
f 513//513 521//521 509//509
f 509//509 521//521 522//522
f 516//516 501//501 518//518
f 518//518 501//501 523//523
f 501//501 504//504 523//523
f 523//523 504//504 524//524
f 524//524 504//504 525//525
f 525//525 504//504 515//515
f 526//526 527//527 523//523
f 523//523 527//527 518//518
f 529//529 530//530 528//528
f 528//528 530//530 531//531
f 532//532 533//533 529//529
f 529//529 533//533 530//530
f 530//530 533//533 535//535
f 535//535 533//533 534//534
f 536//536 537//537 535//535
f 535//535 537//537 538//538
f 534//534 539//539 535//535
f 535//535 539//539 536//536
f 538//538 531//531 535//535
f 535//535 531//531 530//530
f 540//540 541//541 531//531
f 531//531 541//541 528//528
f 533//533 532//532 534//534
f 534//534 532//532 542//542
f 532//532 520//520 542//542
f 542//542 520//520 519//519
f 532//532 543//543 520//520
f 520//520 543//543 521//521
f 529//529 544//544 532//532
f 532//532 544//544 543//543
f 544//544 529//529 545//545
f 545//545 529//529 528//528
f 534//534 542//542 539//539
f 539//539 542//542 527//527
f 527//527 542//542 518//518
f 518//518 542//542 519//519
f 541//541 546//546 528//528
f 528//528 546//546 545//545
f 547//547 544//544 548//548
f 548//548 544//544 545//545
f 546//546 549//549 545//545
f 545//545 549//549 548//548
f 550//550 547//547 551//551
f 551//551 547//547 548//548
f 547//547 550//550 553//553
f 553//553 550//550 552//552
f 549//549 554//554 548//548
f 548//548 554//554 551//551
f 544//544 547//547 543//543
f 543//543 547//547 553//553
f 543//543 553//553 521//521
f 521//521 553//553 522//522
f 546//546 541//541 556//556
f 556//556 541//541 555//555
f 541//541 540//540 555//555
f 555//555 540//540 557//557
f 536//536 539//539 558//558
f 558//558 539//539 527//527
f 537//537 536//536 559//559
f 559//559 536//536 558//558
f 527//527 526//526 558//558
f 558//558 526//526 560//560
f 559//559 558//558 561//561
f 561//561 558//558 560//560
f 559//559 562//562 537//537
f 537//537 562//562 563//563
f 557//557 563//563 555//555
f 555//555 563//563 562//562
f 509//509 522//522 507//507
f 507//507 522//522 564//564
f 508//508 565//565 515//515
f 515//515 565//565 525//525
f 565//565 508//508 564//564
f 564//564 508//508 507//507
f 564//564 552//552 565//565
f 565//565 552//552 566//566
f 552//552 550//550 566//566
f 566//566 550//550 567//567
f 565//565 566//566 525//525
f 525//525 566//566 568//568
f 564//564 522//522 552//552
f 552//552 522//522 553//553
f 569//569 524//524 568//568
f 568//568 524//524 525//525
f 569//569 526//526 524//524
f 524//524 526//526 523//523
f 570//570 560//560 569//569
f 569//569 560//560 526//526
f 570//570 569//569 571//571
f 571//571 569//569 568//568
f 572//572 570//570 573//573
f 573//573 570//570 571//571
f 566//566 567//567 568//568
f 568//568 567//567 571//571
f 567//567 574//574 571//571
f 571//571 574//574 573//573
f 570//570 572//572 560//560
f 560//560 572//572 561//561
f 576//576 561//561 575//575
f 575//575 561//561 572//572
f 575//575 578//578 577//577
f 577//577 578//578 579//579
f 575//575 572//572 578//578
f 578//578 572//572 573//573
f 575//575 577//577 576//576
f 576//576 577//577 556//556
f 576//576 556//556 562//562
f 562//562 556//556 555//555
f 562//562 559//559 576//576
f 576//576 559//559 561//561
f 550//550 551//551 567//567
f 567//567 551//551 574//574
f 579//579 574//574 554//554
f 554//554 574//574 551//551
f 579//579 578//578 574//574
f 574//574 578//578 573//573
f 579//579 554//554 577//577
f 577//577 554//554 549//549
f 549//549 546//546 577//577
f 577//577 546//546 556//556
f 531//531 538//538 540//540
f 540//540 538//538 557//557
f 557//557 538//538 563//563
f 563//563 538//538 537//537
f 481//481 294//294 482//482
f 482//482 294//294 293//293
f 580//580 486//486 511//511
f 511//511 486//486 485//485
f 490//490 489//489 497//497
f 497//497 489//489 498//498
f 489//489 491//491 498//498
f 498//498 491//491 496//496
f 163//163 495//495 164//164
f 164//164 495//495 494//494
f 580//580 490//490 486//486
f 486//486 490//490 497//497
f 482//482 293//293 510//510
f 510//510 293//293 292//292
f 495//495 163//163 511//511
f 511//511 163//163 199//199
f 494//494 493//493 510//510
f 510//510 493//493 499//499
f 481//481 491//491 294//294
f 294//294 491//491 248//248
f 582//582 583//583 581//581
f 581//581 583//583 584//584
f 586//586 587//587 585//585
f 585//585 587//587 588//588
f 585//585 588//588 589//589
f 589//589 588//588 590//590
f 592//592 593//593 591//591
f 591//591 593//593 594//594
f 595//595 596//596 598//598
f 598//598 596//596 597//597
f 599//599 600//600 586//586
f 586//586 600//600 587//587
f 601//601 602//602 604//604
f 604//604 602//602 603//603
f 605//605 606//606 608//608
f 608//608 606//606 607//607
f 609//609 607//607 200//200
f 200//200 607//607 606//606
f 610//610 611//611 613//613
f 613//613 611//611 612//612
f 600//600 614//614 587//587
f 587//587 614//614 592//592
f 596//596 605//605 597//597
f 597//597 605//605 608//608
f 602//602 615//615 603//603
f 603//603 615//615 583//583
f 616//616 614//614 584//584
f 584//584 614//614 600//600
f 611//611 618//618 617//617
f 617//617 618//618 590//590
f 620//620 621//621 619//619
f 619//619 621//621 622//622
f 610//610 623//623 611//611
f 611//611 623//623 618//618
f 624//624 589//589 618//618
f 618//618 589//589 590//590
f 617//617 590//590 591//591
f 591//591 590//590 588//588
f 581//581 625//625 582//582
f 582//582 625//625 626//626
f 599//599 627//627 581//581
f 581//581 627//627 625//625
f 591//591 594//594 617//617
f 617//617 594//594 628//628
f 601//601 610//610 598//598
f 598//598 610//610 613//613
f 581//581 584//584 599//599
f 599//599 584//584 600//600
f 585//585 629//629 586//586
f 586//586 629//629 630//630
f 615//615 616//616 583//583
f 583//583 616//616 584//584
f 587//587 592//592 588//588
f 588//588 592//592 591//591
f 582//582 626//626 631//631
f 631//631 626//626 632//632
f 624//624 620//620 633//633
f 633//633 620//620 619//619
f 621//621 620//620 604//604
f 604//604 620//620 623//623
f 631//631 632//632 621//621
f 621//621 632//632 622//622
f 610//610 601//601 623//623
f 623//623 601//601 604//604
f 589//589 624//624 634//634
f 634//634 624//624 633//633
f 586//586 630//630 599//599
f 599//599 630//630 627//627
f 203//203 202//202 628//628
f 628//628 202//202 612//612
f 629//629 585//585 634//634
f 634//634 585//585 589//589
f 609//609 593//593 614//614
f 614//614 593//593 592//592
f 620//620 624//624 623//623
f 623//623 624//624 618//618
f 631//631 621//621 603//603
f 603//603 621//621 604//604
f 582//582 631//631 583//583
f 583//583 631//631 603//603
f 634//634 633//633 636//636
f 636//636 633//633 635//635
f 634//634 636//636 629//629
f 629//629 636//636 637//637
f 629//629 637//637 630//630
f 630//630 637//637 638//638
f 630//630 638//638 627//627
f 627//627 638//638 639//639
f 633//633 619//619 635//635
f 635//635 619//619 640//640
f 619//619 622//622 640//640
f 640//640 622//622 641//641
f 641//641 622//622 642//642
f 642//642 622//622 632//632
f 644//644 635//635 643//643
f 643//643 635//635 640//640
f 645//645 646//646 648//648
f 648//648 646//646 647//647
f 649//649 650//650 646//646
f 646//646 650//650 647//647
f 647//647 650//650 652//652
f 652//652 650//650 651//651
f 652//652 653//653 655//655
f 655//655 653//653 654//654
f 651//651 656//656 652//652
f 652//652 656//656 653//653
f 655//655 648//648 652//652
f 652//652 648//648 647//647
f 648//648 657//657 645//645
f 645//645 657//657 658//658
f 650//650 649//649 651//651
f 651//651 649//649 659//659
f 649//649 637//637 659//659
f 659//659 637//637 636//636
f 649//649 660//660 637//637
f 637//637 660//660 638//638
f 661//661 660//660 646//646
f 646//646 660//660 649//649
f 662//662 661//661 645//645
f 645//645 661//661 646//646
f 651//651 659//659 656//656
f 656//656 659//659 644//644
f 644//644 659//659 635//635
f 635//635 659//659 636//636
f 663//663 662//662 658//658
f 658//658 662//662 645//645
f 664//664 661//661 665//665
f 665//665 661//661 662//662
f 663//663 666//666 662//662
f 662//662 666//666 665//665
f 667//667 664//664 668//668
f 668//668 664//664 665//665
f 664//664 667//667 670//670
f 670//670 667//667 669//669
f 666//666 671//671 665//665
f 665//665 671//671 668//668
f 661//661 664//664 660//660
f 660//660 664//664 670//670
f 660//660 670//670 638//638
f 638//638 670//670 639//639
f 658//658 672//672 663//663
f 663//663 672//672 673//673
f 658//658 657//657 672//672
f 672//672 657//657 674//674
f 653//653 656//656 675//675
f 675//675 656//656 644//644
f 653//653 675//675 654//654
f 654//654 675//675 676//676
f 675//675 644//644 677//677
f 677//677 644//644 643//643
f 676//676 675//675 678//678
f 678//678 675//675 677//677
f 679//679 680//680 676//676
f 676//676 680//680 654//654
f 674//674 680//680 672//672
f 672//672 680//680 679//679
f 627//627 639//639 625//625
f 625//625 639//639 681//681
f 626//626 682//682 632//632
f 632//632 682//682 642//642
f 681//681 682//682 625//625
f 625//625 682//682 626//626
f 669//669 683//683 681//681
f 681//681 683//683 682//682
f 667//667 684//684 669//669
f 669//669 684//684 683//683
f 682//682 683//683 642//642
f 642//642 683//683 685//685
f 681//681 639//639 669//669
f 669//669 639//639 670//670
f 686//686 641//641 685//685
f 685//685 641//641 642//642
f 641//641 686//686 640//640
f 640//640 686//686 643//643
f 686//686 687//687 643//643
f 643//643 687//687 677//677
f 687//687 686//686 688//688
f 688//688 686//686 685//685
f 689//689 687//687 690//690
f 690//690 687//687 688//688
f 683//683 684//684 685//685
f 685//685 684//684 688//688
f 684//684 691//691 688//688
f 688//688 691//691 690//690
f 687//687 689//689 677//677
f 677//677 689//689 678//678
f 693//693 678//678 692//692
f 692//692 678//678 689//689
f 692//692 695//695 694//694
f 694//694 695//695 696//696
f 692//692 689//689 695//695
f 695//695 689//689 690//690
f 692//692 694//694 693//693
f 693//693 694//694 673//673
f 693//693 673//673 679//679
f 679//679 673//673 672//672
f 679//679 676//676 693//693
f 693//693 676//676 678//678
f 684//684 667//667 691//691
f 691//691 667//667 668//668
f 696//696 691//691 671//671
f 671//671 691//691 668//668
f 696//696 695//695 691//691
f 691//691 695//695 690//690
f 694//694 696//696 666//666
f 666//666 696//696 671//671
f 666//666 663//663 694//694
f 694//694 663//663 673//673
f 648//648 655//655 657//657
f 657//657 655//655 674//674
f 674//674 655//655 680//680
f 680//680 655//655 654//654
f 593//593 162//162 594//594
f 594//594 162//162 290//290
f 598//598 597//597 601//601
f 601//601 597//597 602//602
f 615//615 608//608 616//616
f 616//616 608//608 607//607
f 607//607 609//609 616//616
f 616//616 609//609 614//614
f 697//697 595//595 613//613
f 613//613 595//595 598//598
f 597//597 608//608 602//602
f 602//602 608//608 615//615
f 594//594 290//290 628//628
f 628//628 290//290 203//203
f 628//628 612//612 617//617
f 617//617 612//612 611//611
f 593//593 609//609 162//162
f 162//162 609//609 200//200
f 105//105 29//29 698//698
f 698//698 29//29 699//699
f 268//268 126//126 701//701
f 701//701 126//126 700//700
f 126//126 125//125 700//700
f 700//700 125//125 702//702
f 252//252 703//703 250//250
f 250//250 703//703 704//704
f 32//32 268//268 705//705
f 705//705 268//268 701//701
f 288//288 105//105 706//706
f 706//706 105//105 698//698
f 29//29 32//32 699//699
f 699//699 32//32 705//705
f 707//707 251//251 706//706
f 706//706 251//251 288//288
f 250//250 704//704 125//125
f 125//125 704//704 702//702
f 703//703 252//252 707//707
f 707//707 252//252 251//251
f 706//706 708//708 707//707
f 707//707 708//708 709//709
f 707//707 709//709 703//703
f 703//703 709//709 710//710
f 703//703 710//710 704//704
f 704//704 710//710 711//711
f 704//704 711//711 702//702
f 702//702 711//711 712//712
f 706//706 698//698 708//708
f 708//708 698//698 713//713
f 698//698 699//699 713//713
f 713//713 699//699 714//714
f 699//699 705//705 714//714
f 714//714 705//705 715//715
f 717//717 708//708 716//716
f 716//716 708//708 713//713
f 719//719 720//720 718//718
f 718//718 720//720 721//721
f 722//722 723//723 719//719
f 719//719 723//723 720//720
f 724//724 725//725 723//723
f 723//723 725//725 720//720
f 724//724 726//726 725//725
f 725//725 726//726 727//727
f 728//728 721//721 725//725
f 725//725 721//721 720//720
f 721//721 728//728 729//729
f 729//729 728//728 730//730
f 729//729 731//731 721//721
f 721//721 731//731 718//718
f 724//724 723//723 732//732
f 732//732 723//723 722//722
f 722//722 710//710 732//732
f 732//732 710//710 709//709
f 722//722 733//733 710//710
f 710//710 733//733 711//711
f 719//719 734//734 722//722
f 722//722 734//734 733//733
f 734//734 719//719 735//735
f 735//735 719//719 718//718
f 724//724 732//732 726//726
f 726//726 732//732 717//717
f 717//717 732//732 708//708
f 708//708 732//732 709//709
f 731//731 736//736 718//718
f 718//718 736//736 735//735
f 737//737 734//734 738//738
f 738//738 734//734 735//735
f 736//736 739//739 735//735
f 735//735 739//739 738//738
f 740//740 737//737 741//741
f 741//741 737//737 738//738
f 737//737 740//740 743//743
f 743//743 740//740 742//742
f 739//739 744//744 738//738
f 738//738 744//744 741//741
f 734//734 737//737 733//733
f 733//733 737//737 743//743
f 733//733 743//743 711//711
f 711//711 743//743 712//712
f 736//736 731//731 746//746
f 746//746 731//731 745//745
f 731//731 729//729 745//745
f 745//745 729//729 730//730
f 727//727 726//726 747//747
f 747//747 726//726 717//717
f 748//748 727//727 749//749
f 749//749 727//727 747//747
f 747//747 717//717 750//750
f 750//750 717//717 716//716
f 749//749 747//747 751//751
f 751//751 747//747 750//750
f 749//749 752//752 748//748
f 748//748 752//752 753//753
f 730//730 753//753 745//745
f 745//745 753//753 752//752
f 728//728 725//725 748//748
f 748//748 725//725 727//727
f 730//730 728//728 753//753
f 753//753 728//728 748//748
f 700//700 702//702 754//754
f 754//754 702//702 712//712
f 705//705 701//701 715//715
f 715//715 701//701 755//755
f 754//754 755//755 700//700
f 700//700 755//755 701//701
f 742//742 756//756 754//754
f 754//754 756//756 755//755
f 740//740 757//757 742//742
f 742//742 757//757 756//756
f 755//755 756//756 715//715
f 715//715 756//756 758//758
f 754//754 712//712 742//742
f 742//742 712//712 743//743
f 759//759 714//714 758//758
f 758//758 714//714 715//715
f 714//714 759//759 713//713
f 713//713 759//759 716//716
f 759//759 760//760 716//716
f 716//716 760//760 750//750
f 760//760 759//759 761//761
f 761//761 759//759 758//758
f 762//762 760//760 763//763
f 763//763 760//760 761//761
f 756//756 757//757 758//758
f 758//758 757//757 761//761
f 757//757 764//764 761//761
f 761//761 764//764 763//763
f 760//760 762//762 750//750
f 750//750 762//762 751//751
f 766//766 751//751 765//765
f 765//765 751//751 762//762
f 767//767 765//765 769//769
f 769//769 765//765 768//768
f 765//765 762//762 768//768
f 768//768 762//762 763//763
f 765//765 767//767 766//766
f 766//766 767//767 746//746
f 766//766 746//746 752//752
f 752//752 746//746 745//745
f 752//752 749//749 766//766
f 766//766 749//749 751//751
f 757//757 740//740 764//764
f 764//764 740//740 741//741
f 769//769 764//764 744//744
f 744//744 764//764 741//741
f 769//769 768//768 764//764
f 764//764 768//768 763//763
f 767//767 769//769 739//739
f 739//739 769//769 744//744
f 739//739 736//736 767//767
f 767//767 736//736 746//746
f 219//219 217//217 208//208
f 208//208 217//217 209//209
f 209//209 217//217 210//210
f 210//210 217//217 193//193
f 198//198 580//580 199//199
f 199//199 580//580 511//511
f 76//76 75//75 289//289
f 289//289 75//75 272//272
f 277//277 207//207 291//291
f 291//291 207//207 184//184
f 290//290 183//183 203//203
f 203//203 183//183 84//84
f 490//490 580//580 142//142
f 142//142 580//580 198//198
f 142//142 198//198 143//143
f 143//143 198//198 197//197
f 149//149 276//276 72//72
f 72//72 276//276 73//73
f 104//104 103//103 279//279
f 279//279 103//103 770//770
f 770//770 596//596 279//279
f 279//279 596//596 595//595
f 605//605 596//596 771//771
f 771//771 596//596 770//770
f 771//771 770//770 772//772
f 772//772 770//770 103//103
f 772//772 103//103 773//773
f 773//773 103//103 102//102
f 155//155 774//774 101//101
f 101//101 774//774 102//102
f 773//773 102//102 97//97
f 97//97 102//102 774//774
f 775//775 773//773 100//100
f 100//100 773//773 97//97
f 773//773 775//775 772//772
f 772//772 775//775 776//776
f 772//772 776//776 771//771
f 771//771 776//776 777//777
f 200//200 606//606 197//197
f 197//197 606//606 777//777
f 189//189 71//71 778//778
f 778//778 71//71 74//74
f 97//97 774//774 98//98
f 98//98 774//774 155//155
f 183//183 161//161 184//184
f 184//184 161//161 291//291
f 777//777 276//276 197//197
f 197//197 276//276 143//143
f 777//777 606//606 771//771
f 771//771 606//606 605//605
f 613//613 612//612 697//697
f 697//697 612//612 202//202
f 595//595 697//697 279//279
f 279//279 697//697 202//202
f 73//73 276//276 776//776
f 776//776 276//276 777//777
f 776//776 775//775 73//73
f 73//73 775//775 74//74
f 100//100 778//778 775//775
f 775//775 778//778 74//74
f 778//778 100//100 189//189
f 189//189 100//100 99//99
f 245//245 242//242 99//99
f 99//99 242//242 189//189
f 131//131 33//33 256//256
f 28//28 1//1 95//95
f 95//95 1//1 62//62
f 27//27 2//2 28//28
f 28//28 2//2 1//1
f 265//265 115//115 266//266
f 266//266 115//115 114//114
f 95//95 62//62 69//69
f 69//69 62//62 64//64
f 62//62 61//61 64//64
f 64//64 61//61 65//65
f 61//61 13//13 65//65
f 65//65 13//13 130//130
f 13//13 12//12 130//130
f 130//130 12//12 14//14
f 31//31 11//11 32//32
f 32//32 11//11 268//268
f 15//15 12//12 31//31
f 31//31 12//12 11//11
f 31//31 30//30 15//15
f 15//15 30//30 231//231
f 30//30 106//106 231//231
f 231//231 106//106 232//232
f 287//287 237//237 106//106
f 106//106 237//237 232//232
f 254//254 90//90 287//287
f 287//287 90//90 237//237
f 253//253 44//44 254//254
f 254//254 44//44 90//90
f 253//253 249//249 44//44
f 44//44 249//249 7//7
f 267//267 127//127 268//268
f 268//268 127//127 126//126
f 10//10 3//3 241//241
f 241//241 3//3 116//116
f 3//3 2//2 116//116
f 116//116 2//2 114//114
f 2//2 27//27 114//114
f 114//114 27//27 266//266
f 27//27 26//26 266//266
f 266//266 26//26 113//113
f 26//26 286//286 113//113
f 113//113 286//286 110//110
f 286//286 243//243 110//110
f 110//110 243//243 255//255
f 243//243 242//242 255//255
f 255//255 242//242 256//256
f 242//242 245//245 256//256
f 256//256 245//245 131//131
f 245//245 244//244 131//131
f 131//131 244//244 132//132
f 265//265 37//37 115//115
f 115//115 37//37 41//41
f 41//41 37//37 42//42
f 42//42 37//37 40//40
f 92//92 91//91 40//40
f 40//40 91//91 42//42
f 236//236 233//233 92//92
f 92//92 233//233 91//91
f 191//191 194//194 236//236
f 236//236 194//194 233//233
f 258//258 285//285 244//244
f 244//244 285//285 132//132
f 257//257 55//55 258//258
f 258//258 55//55 285//285
f 257//257 154//154 201//201
f 201//201 154//154 185//185
f 56//56 201//201 204//204
f 204//204 201//201 180//180
f 55//55 257//257 56//56
f 56//56 257//257 201//201
f 204//204 85//85 56//56
f 56//56 85//85 52//52
f 86//86 122//122 53//53
f 53//53 122//122 79//79
f 212//212 215//215 86//86
f 86//86 215//215 122//122
f 211//211 216//216 212//212
f 212//212 216//216 215//215
f 192//192 280//280 211//211
f 211//211 280//280 216//216
f 191//191 240//240 192//192
f 192//192 240//240 280//280
f 249//249 124//124 7//7
f 7//7 124//124 8//8
f 124//124 127//127 8//8
f 8//8 127//127 241//241
f 127//127 267//267 241//241
f 241//241 267//267 10//10
f 10//10 267//267 9//9
f 9//9 267//267 11//11
