solid AssimpScene
 facet normal 0 0 0
  outer loop
  vertex 0.0179439001 -0.0074405903 -0.0205585994
  vertex 0.0156833995 0.00791007094 -0.0285905004
  vertex 0.0136318998 0.0194990002 -0.0262585003
  endloop
 endfacet

 facet normal 0 0 0
  outer loop
  vertex 0.0179439001 -0.0074405903 -0.0205585994
  vertex 0.0136318998 0.0194990002 -0.0262585003
  vertex 0.0109112002 0.0267265998 -0.0153274005
  endloop
 endfacet

 facet normal 0 0 0
  outer loop
  vertex 0.0179439001 -0.0074405903 -0.0205585994
  vertex 0.0109112002 0.0267265998 -0.0153274005
  vertex 0.0151634011 -0.00920111127 0.020148702
  endloop
 endfacet

 facet normal 0 0 0
  outer loop
  vertex 0.0179439001 -0.0074405903 -0.0205585994
  vertex 0.0151634011 -0.00920111127 0.020148702
  vertex 0.0166433025 -0.0123958997 0.012402501
  endloop
 endfacet

 facet normal 0 0 0
  outer loop
  vertex 0.0179439001 -0.0074405903 -0.0205585994
  vertex 0.0166433025 -0.0123958997 0.012402501
  vertex 0.0180741008 -0.0135619007 -0.00610943977
  endloop
 endfacet

 facet normal 0 0 0
  outer loop
  vertex 0.0179439001 -0.0074405903 -0.0205585994
  vertex 0.0180741008 -0.0135619007 -0.00610943977
  vertex 0.0184088014 -0.0114877997 -0.0148159005
  endloop
 endfacet

 facet normal 0 0 0
  outer loop
  vertex -0.0673575997 4.47472994e-05 -0.0480769984
  vertex 0.0136318998 0.0194990002 -0.0262585003
  vertex 0.0156833995 0.00791007094 -0.0285905004
  endloop
 endfacet

 facet normal 0 0 0
  outer loop
  vertex -0.0673575997 4.47472994e-05 -0.0480769984
  vertex 0.0156833995 0.00791007094 -0.0285905004
  vertex -0.0619088039 -0.0113707008 -0.049819801
  endloop
 endfacet

 facet normal 0 0 0
  outer loop
  vertex 0.0109112002 0.0267265998 -0.0153274005
  vertex 0.0136318998 0.0194990002 -0.0262585003
  vertex -0.0673575997 4.47472994e-05 -0.0480769984
  endloop
 endfacet

 facet normal 0 0 0
  outer loop
  vertex -0.0917792022 0.00932638068 0.0208988003
  vertex -0.097552903 -0.00813986082 0.0126468008
  vertex -0.0919717029 0.000865257985 0.0312746055
  endloop
 endfacet

 facet normal 0 0 0
  outer loop
  vertex -0.0917792022 0.00932638068 0.0208988003
  vertex 0.00744021032 0.0267070998 0.00700853067
  vertex 0.00938281044 0.0281866025 -0.00626499066
  endloop
 endfacet

 facet normal 0 0 0
  outer loop
  vertex -0.0917792022 0.00932638068 0.0208988003
  vertex 0.00938281044 0.0281866025 -0.00626499066
  vertex -0.0885704011 0.0127341002 -0.0035001603
  endloop
 endfacet

 facet normal 0 0 0
  outer loop
  vertex -0.00359510025 -0.0144812008 0.0370834023
  vertex -0.0290955026 -0.00755965989 0.0493982993
  vertex -0.0426541045 -0.0106653012 0.0507936999
  endloop
 endfacet

 facet normal 0 0 0
  outer loop
  vertex -0.00359510025 -0.0144812008 0.0370834023
  vertex -0.0426541045 -0.0106653012 0.0507936999
  vertex -0.0508466028 -0.0337384008 0.0368519984
  endloop
 endfacet

 facet normal 0 0 0
  outer loop
  vertex -0.00359510025 -0.0144812008 0.0370834023
  vertex -0.0508466028 -0.0337384008 0.0368519984
  vertex -0.00653631007 -0.0244705025 0.0282367021
  endloop
 endfacet

 facet normal 0 0 0
  outer loop
  vertex -0.0918982029 0.00194979995 -0.0144245997
  vertex -0.0935305059 -0.0059413705 -0.0137710012
  vertex -0.097552903 -0.00813986082 0.0126468008
  endloop
 endfacet

 facet normal 0 0 0
  outer loop
  vertex -0.097552903 -0.00813986082 0.0126468008
  vertex -0.0917792022 0.00932638068 0.0208988003
  vertex -0.0885704011 0.0127341002 -0.0035001603
  endloop
 endfacet

 facet normal 0 0 0
  outer loop
  vertex -0.097552903 -0.00813986082 0.0126468008
  vertex -0.0885704011 0.0127341002 -0.0035001603
  vertex -0.0918982029 0.00194979995 -0.0144245997
  endloop
 endfacet

 facet normal 0 0 0
  outer loop
  vertex -0.049253203 0.00255882018 0.0393248051
  vertex -0.0919717029 0.000865257985 0.0312746055
  vertex -0.0426541045 -0.0106653012 0.0507936999
  endloop
 endfacet

 facet normal 0 0 0
  outer loop
  vertex 0.00123122009 -0.0197458994 -0.0202952996
  vertex -0.0178018007 -0.0227404013 -0.0276185013
  vertex -0.0165200997 -0.0128517011 -0.0364648029
  endloop
 endfacet

 facet normal 0 0 0
  outer loop
  vertex 0.00657942053 0.0232478008 0.0191271007
  vertex 0.00744021032 0.0267070998 0.00700853067
  vertex -0.0917792022 0.00932638068 0.0208988003
  endloop
 endfacet

 facet normal 0 0 0
  outer loop
  vertex 0.00657942053 0.0232478008 0.0191271007
  vertex 0.00735931983 0.0161262024 0.0274448004
  vertex 0.00993190985 0.00698680989 0.0314733051
  endloop
 endfacet

 facet normal 0 0 0
  outer loop
  vertex -0.0702966005 -0.0164871011 -0.0475475043
  vertex -0.0735594034 -0.0161932018 -0.0440661982
  vertex -0.0673575997 4.47472994e-05 -0.0480769984
  endloop
 endfacet

 facet normal 0 0 0
  outer loop
  vertex -0.0702966005 -0.0164871011 -0.0475475043
  vertex -0.0673575997 4.47472994e-05 -0.0480769984
  vertex -0.0619088039 -0.0113707008 -0.049819801
  endloop
 endfacet

 facet normal 0 0 0
  outer loop
  vertex -0.0702966005 -0.0164871011 -0.0475475043
  vertex -0.0524361022 -0.0203692 -0.0404110998
  vertex -0.0508466028 -0.0337384008 0.0368519984
  endloop
 endfacet

 facet normal 0 0 0
  outer loop
  vertex -0.0702966005 -0.0164871011 -0.0475475043
  vertex -0.0508466028 -0.0337384008 0.0368519984
  vertex -0.0735594034 -0.0161932018 -0.0440661982
  endloop
 endfacet

 facet normal 0 0 0
  outer loop
  vertex 0.0169552993 -0.00125666009 -0.0251904018
  vertex -0.0165200997 -0.0128517011 -0.0364648029
  vertex 0.0156833995 0.00791007094 -0.0285905004
  endloop
 endfacet

 facet normal 0 0 0
  outer loop
  vertex -0.0917500108 -0.00559388055 0.0318588018
  vertex -0.0919717029 0.000865257985 0.0312746055
  vertex -0.097552903 -0.00813986082 0.0126468008
  endloop
 endfacet

 facet normal 0 0 0
  outer loop
  vertex -0.0917500108 -0.00559388055 0.0318588018
  vertex -0.097552903 -0.00813986082 0.0126468008
  vertex -0.0905653983 -0.0113339005 0.0284766015
  endloop
 endfacet

 facet normal 0 0 0
  outer loop
  vertex -0.0917500108 -0.00559388055 0.0318588018
  vertex -0.0905653983 -0.0113339005 0.0284766015
  vertex -0.0508466028 -0.0337384008 0.0368519984
  endloop
 endfacet

 facet normal 0 0 0
  outer loop
  vertex -0.0917500108 -0.00559388055 0.0318588018
  vertex -0.0426541045 -0.0106653012 0.0507936999
  vertex -0.0919717029 0.000865257985 0.0312746055
  endloop
 endfacet

 facet normal 0 0 0
  outer loop
  vertex 0.0171176028 -0.0142256012 0.00365848001
  vertex 0.0166433025 -0.0123958997 0.012402501
  vertex -0.00653631007 -0.0244705025 0.0282367021
  endloop
 endfacet

 facet normal 0 0 0
  outer loop
  vertex -0.0142956004 -0.00751475058 0.0443744026
  vertex -0.00359510025 -0.0144812008 0.0370834023
  vertex 0.0110499999 -0.0045431098 0.0291816015
  endloop
 endfacet

 facet normal 0 0 0
  outer loop
  vertex -0.0142956004 -0.00751475058 0.0443744026
  vertex 0.0110499999 -0.0045431098 0.0291816015
  vertex 0.00993190985 0.00698680989 0.0314733051
  endloop
 endfacet

 facet normal 0 0 0
  outer loop
  vertex -0.0142956004 -0.00751475058 0.0443744026
  vertex 0.00993190985 0.00698680989 0.0314733051
  vertex -0.0290955026 -0.00755965989 0.0493982993
  endloop
 endfacet

 facet normal 0 0 0
  outer loop
  vertex -0.0142956004 -0.00751475058 0.0443744026
  vertex -0.0290955026 -0.00755965989 0.0493982993
  vertex -0.00359510025 -0.0144812008 0.0370834023
  endloop
 endfacet

 facet normal 0 0 0
  outer loop
  vertex -0.0759280995 0.00863115955 -0.0256501008
  vertex -0.0885704011 0.0127341002 -0.0035001603
  vertex 0.0109112002 0.0267265998 -0.0153274005
  endloop
 endfacet

 facet normal 0 0 0
  outer loop
  vertex -0.0759280995 0.00863115955 -0.0256501008
  vertex 0.0109112002 0.0267265998 -0.0153274005
  vertex -0.0673575997 4.47472994e-05 -0.0480769984
  endloop
 endfacet

 facet normal 0 0 0
  outer loop
  vertex -0.0201814007 0.00311557017 0.0416571051
  vertex 0.00735931983 0.0161262024 0.0274448004
  vertex 0.00657942053 0.0232478008 0.0191271007
  endloop
 endfacet

 facet normal 0 0 0
  outer loop
  vertex -0.0201814007 0.00311557017 0.0416571051
  vertex 0.00657942053 0.0232478008 0.0191271007
  vertex -0.049253203 0.00255882018 0.0393248051
  endloop
 endfacet

 facet normal 0 0 0
  outer loop
  vertex -0.049253203 0.00255882018 0.0393248051
  vertex -0.0426541045 -0.0106653012 0.0507936999
  vertex -0.0290955026 -0.00755965989 0.0493982993
  endloop
 endfacet

 facet normal 0 0 0
  outer loop
  vertex -0.049253203 0.00255882018 0.0393248051
  vertex -0.0290955026 -0.00755965989 0.0493982993
  vertex -0.0201814007 0.00311557017 0.0416571051
  endloop
 endfacet

 facet normal 0 0 0
  outer loop
  vertex -0.0201814007 0.00311557017 0.0416571051
  vertex -0.0290955026 -0.00755965989 0.0493982993
  vertex 0.00993190985 0.00698680989 0.0314733051
  endloop
 endfacet

 facet normal 0 0 0
  outer loop
  vertex -0.0201814007 0.00311557017 0.0416571051
  vertex 0.00993190985 0.00698680989 0.0314733051
  vertex 0.00735931983 0.0161262024 0.0274448004
  endloop
 endfacet

 facet normal 0 0 0
  outer loop
  vertex -0.0794254988 0.00240071001 -0.0327529982
  vertex -0.0673575997 4.47472994e-05 -0.0480769984
  vertex -0.0735594034 -0.0161932018 -0.0440661982
  endloop
 endfacet

 facet normal 0 0 0
  outer loop
  vertex -0.0735594034 -0.0161932018 -0.0440661982
  vertex -0.0935305059 -0.0059413705 -0.0137710012
  vertex -0.0918982029 0.00194979995 -0.0144245997
  endloop
 endfacet

 facet normal 0 0 0
  outer loop
  vertex -0.0735594034 -0.0161932018 -0.0440661982
  vertex -0.0918982029 0.00194979995 -0.0144245997
  vertex -0.0794254988 0.00240071001 -0.0327529982
  endloop
 endfacet

 facet normal 0 0 0
  outer loop
  vertex -0.0881896019 -0.0148759997 0.016689701
  vertex -0.0897421092 -0.0112233004 -0.0125443013
  vertex -0.0735594034 -0.0161932018 -0.0440661982
  endloop
 endfacet

 facet normal 0 0 0
  outer loop
  vertex -0.0881896019 -0.0148759997 0.016689701
  vertex -0.0735594034 -0.0161932018 -0.0440661982
  vertex -0.0508466028 -0.0337384008 0.0368519984
  endloop
 endfacet

 facet normal 0 0 0
  outer loop
  vertex -0.0881896019 -0.0148759997 0.016689701
  vertex -0.0508466028 -0.0337384008 0.0368519984
  vertex -0.0905653983 -0.0113339005 0.0284766015
  endloop
 endfacet

 facet normal 0 0 0
  outer loop
  vertex -0.0881896019 -0.0148759997 0.016689701
  vertex -0.0905653983 -0.0113339005 0.0284766015
  vertex -0.097552903 -0.00813986082 0.0126468008
  endloop
 endfacet

 facet normal 0 0 0
  outer loop
  vertex 0.00938281044 0.0281866025 -0.00626499066
  vertex 0.00744021032 0.0267070998 0.00700853067
  vertex 0.00657942053 0.0232478008 0.0191271007
  endloop
 endfacet

 facet normal 0 0 0
  outer loop
  vertex 0.00938281044 0.0281866025 -0.00626499066
  vertex 0.00657942053 0.0232478008 0.0191271007
  vertex 0.00993190985 0.00698680989 0.0314733051
  endloop
 endfacet

 facet normal 0 0 0
  outer loop
  vertex 0.00938281044 0.0281866025 -0.00626499066
  vertex 0.0109112002 0.0267265998 -0.0153274005
  vertex -0.0885704011 0.0127341002 -0.0035001603
  endloop
 endfacet

 facet normal 0 0 0
  outer loop
  vertex -0.0897421092 -0.0112233004 -0.0125443013
  vertex -0.097552903 -0.00813986082 0.0126468008
  vertex -0.0935305059 -0.0059413705 -0.0137710012
  endloop
 endfacet

 facet normal 0 0 0
  outer loop
  vertex -0.0897421092 -0.0112233004 -0.0125443013
  vertex -0.0935305059 -0.0059413705 -0.0137710012
  vertex -0.0735594034 -0.0161932018 -0.0440661982
  endloop
 endfacet

 facet normal 0 0 0
  outer loop
  vertex -0.0897421092 -0.0112233004 -0.0125443013
  vertex -0.0881896019 -0.0148759997 0.016689701
  vertex -0.097552903 -0.00813986082 0.0126468008
  endloop
 endfacet

 facet normal 0 0 0
  outer loop
  vertex -0.0137954 -0.0265694018 0.0169472992
  vertex -0.00653631007 -0.0244705025 0.0282367021
  vertex -0.0508466028 -0.0337384008 0.0368519984
  endloop
 endfacet

 facet normal 0 0 0
  outer loop
  vertex -0.0565769002 -0.0157052018 0.0439677984
  vertex -0.0426541045 -0.0106653012 0.0507936999
  vertex -0.0917500108 -0.00559388055 0.0318588018
  endloop
 endfacet

 facet normal 0 0 0
  outer loop
  vertex -0.0565769002 -0.0157052018 0.0439677984
  vertex -0.0917500108 -0.00559388055 0.0318588018
  vertex -0.0508466028 -0.0337384008 0.0368519984
  endloop
 endfacet

 facet normal 0 0 0
  outer loop
  vertex -0.0565769002 -0.0157052018 0.0439677984
  vertex -0.0508466028 -0.0337384008 0.0368519984
  vertex -0.0426541045 -0.0106653012 0.0507936999
  endloop
 endfacet

 facet normal 0 0 0
  outer loop
  vertex -0.0843058974 0.00631888025 0.0283659026
  vertex -0.0919717029 0.000865257985 0.0312746055
  vertex -0.049253203 0.00255882018 0.0393248051
  endloop
 endfacet

 facet normal 0 0 0
  outer loop
  vertex -0.0843058974 0.00631888025 0.0283659026
  vertex -0.049253203 0.00255882018 0.0393248051
  vertex 0.00657942053 0.0232478008 0.0191271007
  endloop
 endfacet

 facet normal 0 0 0
  outer loop
  vertex -0.0843058974 0.00631888025 0.0283659026
  vertex 0.00657942053 0.0232478008 0.0191271007
  vertex -0.0917792022 0.00932638068 0.0208988003
  endloop
 endfacet

 facet normal 0 0 0
  outer loop
  vertex -0.0843058974 0.00631888025 0.0283659026
  vertex -0.0917792022 0.00932638068 0.0208988003
  vertex -0.0919717029 0.000865257985 0.0312746055
  endloop
 endfacet

 facet normal 0 0 0
  outer loop
  vertex 0.0179439001 -0.0074405903 -0.0205585994
  vertex 0.00123122009 -0.0197458994 -0.0202952996
  vertex -0.0165200997 -0.0128517011 -0.0364648029
  endloop
 endfacet

 facet normal 0 0 0
  outer loop
  vertex 0.0179439001 -0.0074405903 -0.0205585994
  vertex -0.0165200997 -0.0128517011 -0.0364648029
  vertex 0.0169552993 -0.00125666009 -0.0251904018
  endloop
 endfacet

 facet normal 0 0 0
  outer loop
  vertex 0.0179439001 -0.0074405903 -0.0205585994
  vertex 0.0169552993 -0.00125666009 -0.0251904018
  vertex 0.0156833995 0.00791007094 -0.0285905004
  endloop
 endfacet

 facet normal 0 0 0
  outer loop
  vertex 0.0179439001 -0.0074405903 -0.0205585994
  vertex 0.0184088014 -0.0114877997 -0.0148159005
  vertex 0.00123122009 -0.0197458994 -0.0202952996
  endloop
 endfacet

 facet normal 0 0 0
  outer loop
  vertex -0.0271824002 -0.0134001998 -0.0403875038
  vertex -0.0165200997 -0.0128517011 -0.0364648029
  vertex -0.0178018007 -0.0227404013 -0.0276185013
  endloop
 endfacet

 facet normal 0 0 0
  outer loop
  vertex -0.0271824002 -0.0134001998 -0.0403875038
  vertex -0.0178018007 -0.0227404013 -0.0276185013
  vertex -0.0343685038 -0.0204789005 -0.0365813039
  endloop
 endfacet

 facet normal 0 0 0
  outer loop
  vertex -0.0271824002 -0.0134001998 -0.0403875038
  vertex -0.0619088039 -0.0113707008 -0.049819801
  vertex 0.0156833995 0.00791007094 -0.0285905004
  endloop
 endfacet

 facet normal 0 0 0
  outer loop
  vertex -0.0271824002 -0.0134001998 -0.0403875038
  vertex 0.0156833995 0.00791007094 -0.0285905004
  vertex -0.0165200997 -0.0128517011 -0.0364648029
  endloop
 endfacet

 facet normal 0 0 0
  outer loop
  vertex -0.0561668985 -0.0157909002 -0.0464144982
  vertex -0.0619088039 -0.0113707008 -0.049819801
  vertex -0.0271824002 -0.0134001998 -0.0403875038
  endloop
 endfacet

 facet normal 0 0 0
  outer loop
  vertex -0.0561668985 -0.0157909002 -0.0464144982
  vertex -0.0271824002 -0.0134001998 -0.0403875038
  vertex -0.0343685038 -0.0204789005 -0.0365813039
  endloop
 endfacet

 facet normal 0 0 0
  outer loop
  vertex -0.0343685038 -0.0204789005 -0.0365813039
  vertex -0.0524361022 -0.0203692 -0.0404110998
  vertex -0.0702966005 -0.0164871011 -0.0475475043
  endloop
 endfacet

 facet normal 0 0 0
  outer loop
  vertex -0.0343685038 -0.0204789005 -0.0365813039
  vertex -0.0702966005 -0.0164871011 -0.0475475043
  vertex -0.0561668985 -0.0157909002 -0.0464144982
  endloop
 endfacet

 facet normal 0 0 0
  outer loop
  vertex -0.0561668985 -0.0157909002 -0.0464144982
  vertex -0.0702966005 -0.0164871011 -0.0475475043
  vertex -0.0619088039 -0.0113707008 -0.049819801
  endloop
 endfacet

 facet normal 0 0 0
  outer loop
  vertex -0.0890756026 0.00855853036 -0.0113877011
  vertex -0.0885704011 0.0127341002 -0.0035001603
  vertex -0.0759280995 0.00863115955 -0.0256501008
  endloop
 endfacet

 facet normal 0 0 0
  outer loop
  vertex -0.0890756026 0.00855853036 -0.0113877011
  vertex -0.0759280995 0.00863115955 -0.0256501008
  vertex -0.0673575997 4.47472994e-05 -0.0480769984
  endloop
 endfacet

 facet normal 0 0 0
  outer loop
  vertex -0.0890756026 0.00855853036 -0.0113877011
  vertex -0.0673575997 4.47472994e-05 -0.0480769984
  vertex -0.0794254988 0.00240071001 -0.0327529982
  endloop
 endfacet

 facet normal 0 0 0
  outer loop
  vertex -0.0890756026 0.00855853036 -0.0113877011
  vertex -0.0794254988 0.00240071001 -0.0327529982
  vertex -0.0918982029 0.00194979995 -0.0144245997
  endloop
 endfacet

 facet normal 0 0 0
  outer loop
  vertex -0.0890756026 0.00855853036 -0.0113877011
  vertex -0.0918982029 0.00194979995 -0.0144245997
  vertex -0.0885704011 0.0127341002 -0.0035001603
  endloop
 endfacet

 facet normal 0 0 0
  outer loop
  vertex 0.0151634011 -0.00920111127 0.020148702
  vertex 0.0109112002 0.0267265998 -0.0153274005
  vertex 0.00938281044 0.0281866025 -0.00626499066
  endloop
 endfacet

 facet normal 0 0 0
  outer loop
  vertex 0.0151634011 -0.00920111127 0.020148702
  vertex 0.00938281044 0.0281866025 -0.00626499066
  vertex 0.00993190985 0.00698680989 0.0314733051
  endloop
 endfacet

 facet normal 0 0 0
  outer loop
  vertex 0.0151634011 -0.00920111127 0.020148702
  vertex 0.00993190985 0.00698680989 0.0314733051
  vertex 0.0110499999 -0.0045431098 0.0291816015
  endloop
 endfacet

 facet normal 0 0 0
  outer loop
  vertex 0.0151634011 -0.00920111127 0.020148702
  vertex 0.0110499999 -0.0045431098 0.0291816015
  vertex -0.00359510025 -0.0144812008 0.0370834023
  endloop
 endfacet

 facet normal 0 0 0
  outer loop
  vertex 0.0151634011 -0.00920111127 0.020148702
  vertex -0.00359510025 -0.0144812008 0.0370834023
  vertex -0.00653631007 -0.0244705025 0.0282367021
  endloop
 endfacet

 facet normal 0 0 0
  outer loop
  vertex 0.0151634011 -0.00920111127 0.020148702
  vertex -0.00653631007 -0.0244705025 0.0282367021
  vertex 0.0166433025 -0.0123958997 0.012402501
  endloop
 endfacet

 facet normal 0 0 0
  outer loop
  vertex 0.0180741008 -0.0135619007 -0.00610943977
  vertex 0.0166433025 -0.0123958997 0.012402501
  vertex 0.0171176028 -0.0142256012 0.00365848001
  endloop
 endfacet

 facet normal 0 0 0
  outer loop
  vertex 0.0180741008 -0.0135619007 -0.00610943977
  vertex 0.00123122009 -0.0197458994 -0.0202952996
  vertex 0.0184088014 -0.0114877997 -0.0148159005
  endloop
 endfacet

 facet normal 0 0 0
  outer loop
  vertex -0.0524361022 -0.0203692 -0.0404110998
  vertex -0.0343685038 -0.0204789005 -0.0365813039
  vertex -0.0178018007 -0.0227404013 -0.0276185013
  endloop
 endfacet

 facet normal 0 0 0
  outer loop
  vertex -0.0524361022 -0.0203692 -0.0404110998
  vertex -0.0178018007 -0.0227404013 -0.0276185013
  vertex -0.0345755033 -0.0228352007 -0.0311287027
  endloop
 endfacet

 facet normal 0 0 0
  outer loop
  vertex -0.0345755033 -0.0228352007 -0.0311287027
  vertex -0.0178018007 -0.0227404013 -0.0276185013
  vertex -0.0508466028 -0.0337384008 0.0368519984
  endloop
 endfacet

 facet normal 0 0 0
  outer loop
  vertex -0.0345755033 -0.0228352007 -0.0311287027
  vertex -0.0508466028 -0.0337384008 0.0368519984
  vertex -0.0524361022 -0.0203692 -0.0404110998
  endloop
 endfacet

 facet normal 0 0 0
  outer loop
  vertex -0.00385255017 -0.022892002 -0.00652662059
  vertex -0.00653631007 -0.0244705025 0.0282367021
  vertex -0.0137954 -0.0265694018 0.0169472992
  endloop
 endfacet

 facet normal 0 0 0
  outer loop
  vertex -0.00385255017 -0.022892002 -0.00652662059
  vertex -0.0137954 -0.0265694018 0.0169472992
  vertex -0.0508466028 -0.0337384008 0.0368519984
  endloop
 endfacet

 facet normal 0 0 0
  outer loop
  vertex -0.00385255017 -0.022892002 -0.00652662059
  vertex -0.0508466028 -0.0337384008 0.0368519984
  vertex -0.0178018007 -0.0227404013 -0.0276185013
  endloop
 endfacet

 facet normal 0 0 0
  outer loop
  vertex -0.00385255017 -0.022892002 -0.00652662059
  vertex -0.0178018007 -0.0227404013 -0.0276185013
  vertex 0.00123122009 -0.0197458994 -0.0202952996
  endloop
 endfacet

 facet normal 0 0 0
  outer loop
  vertex -0.00385255017 -0.022892002 -0.00652662059
  vertex 0.00123122009 -0.0197458994 -0.0202952996
  vertex 0.0180741008 -0.0135619007 -0.00610943977
  endloop
 endfacet

 facet normal 0 0 0
  outer loop
  vertex -0.00385255017 -0.022892002 -0.00652662059
  vertex 0.0180741008 -0.0135619007 -0.00610943977
  vertex 0.0171176028 -0.0142256012 0.00365848001
  endloop
 endfacet

 facet normal 0 0 0
  outer loop
  vertex -0.00385255017 -0.022892002 -0.00652662059
  vertex 0.0171176028 -0.0142256012 0.00365848001
  vertex -0.00653631007 -0.0244705025 0.0282367021
  endloop
 endfacet

endsolid AssimpScene
