# Created by Open3D 
# object name: base_link
# number of vertices: 230
# number of triangles: 384
v -0.0500347 -0.0193581 0.0165831
vn -0.22404 -0.782551 -0.580878
v -0.039408 -0.0228736 0.016177
vn -0.254911 -0.748909 -0.611683
v -0.0443207 -0.0292716 0.0245376
vn -0.289758 -0.69501 -0.658028
v -0.0551052 -0.0241388 0.0244254
vn -0.38654 -0.765024 -0.515097
v -0.0594552 -0.0259373 0.0319505
vn -0.662905 -0.738404 -0.123755
v -0.0488948 -0.0331173 0.0311455
vn -0.520252 -0.712385 -0.471004
v -0.0597852 -0.0227668 0.038527
vn -0.691494 -0.518992 0.502477
v -0.0684384 -0.011171 0.0369524
vn -0.490725 -0.0472396 0.870033
v -0.0678742 -0.016957 0.0323138
vn -0.640532 -0.712577 0.286273
v -0.0756307 -0.00574934 0.0345288
vn -0.151176 0.0957911 0.983855
v -0.0623323 -0.00145101 0.0378685
vn -0.285196 0.562512 0.776043
v -0.0746592 0.00334192 0.030849
vn -0.109431 0.581687 0.806018
v -0.0546343 0.0151237 0.0120081
vn -0.127568 0.972739 0.19366
v -0.0507744 0.0160533 -0.000956344
vn -0.124398 0.991564 -0.0364125
v -0.0666638 0.0146653 -0.00271239
vn -0.102603 0.992234 -0.0703166
v -0.0690412 0.0131703 0.0105558
vn -0.157396 0.975826 0.151627
v -0.0559384 0.0109656 -0.0198747
vn -0.0858074 0.916948 -0.389671
v -0.0628534 0.0132697 -0.0107691
vn -0.121212 0.965898 -0.228797
v -0.0468376 0.0157468 -0.00900089
vn -0.134362 0.966339 -0.219398
v -0.0415126 0.0134829 -0.0174519
vn -0.117082 0.921545 -0.370199
v -0.041303 -0.0145282 0.00275624
vn -0.118815 -0.980875 -0.154166
v -0.0310075 -0.0158969 0.00185487
vn -0.221165 -0.950359 -0.218868
v -0.0342895 -0.017118 0.00691847
vn -0.236871 -0.809146 -0.53775
v -0.0437369 -0.0155398 0.00787082
vn -0.171875 -0.87695 -0.448796
v -0.0496229 -0.0126446 0.0478534
vn -0.384105 0.385464 0.838976
v -0.0565769 -0.0157052 0.0439678
vn -0.524435 0.0237537 0.851119
v -0.00385255 -0.022892 -0.00652662
vn 0.22863 -0.971037 0.0693858
v 0.00804053 -0.016959 -0.00416138
vn 0.410337 -0.911814 0.0148141
v 0.00725894 -0.0162999 0.00163604
vn 0.290831 -0.950541 0.109037
v -0.00367225 -0.0213529 -0.00195229
vn 0.170938 -0.945151 0.278333
v 9.91523e-05 -0.0190771 0.0221752
vn 0.688433 -0.71467 0.123724
v 0.00661902 -0.0132976 0.0194776
vn 0.477361 -0.841584 0.252711
v 0.01105 -0.00454311 0.0291816
vn 0.407246 -0.48823 0.771869
v 0.00299787 -0.00717385 0.03274
vn 0.648638 -0.371179 0.66445
v -0.00653631 -0.0244705 0.0282367
vn 0.678229 -0.728819 0.0939602
v -0.0035951 -0.0144812 0.0370834
vn 0.720388 -0.290198 0.629941
v 0.00955527 -0.0151642 -0.0168146
vn 0.444948 -0.852059 -0.275712
v 0.00123122 -0.0197459 -0.0202953
vn 0.402811 -0.875846 -0.265775
v 0.00289544 -0.000947802 -0.0294842
vn 0.233492 -0.0743772 -0.96951
v 0.00144226 0.00905633 -0.0286571
vn 0.00042515 0.367737 -0.92993
v 0.0086288 0.00791297 -0.028854
vn -0.00604692 0.158921 -0.987273
v 0.0101894 -0.00133214 -0.0277378
vn 0.283745 -0.280184 -0.917053
v -0.00681666 -0.0006299 -0.0315981
vn 0.270523 0.134326 -0.953296
v -0.00859295 0.00994044 -0.0278378
vn 0.0668956 0.537322 -0.84072
v -0.0645312 -0.0191115 0.0253989
vn -0.438041 -0.875984 -0.201921
v -0.0595939 -0.0181277 0.0169837
vn -0.207826 -0.894495 -0.395837
v -0.0842551 -0.0156114 0.0224285
vn -0.0922459 -0.986644 0.134254
v -0.0734138 -0.0158953 0.019106
vn -0.0820104 -0.987924 -0.131458
v -0.0735002 -0.0154708 0.0264816
vn -0.244843 -0.945105 0.216401
v -0.0821412 -0.0135765 0.0284427
vn -0.186164 -0.836007 0.516174
v -0.0634755 -0.0137246 -0.00250389
vn 0.0419232 -0.998802 0.0252406
v -0.0517233 -0.0134567 -0.00120982
vn -0.0342102 -0.998518 0.0423205
v -0.0548252 -0.0136781 0.00465459
vn -0.0393116 -0.980164 -0.194252
v -0.0678695 -0.0146248 0.0049015
vn 0.056186 -0.995384 -0.0778095
v -0.0474435 -0.0162899 -0.0143976
vn -0.114221 -0.94705 0.300082
v -0.0594396 -0.0159756 -0.0146281
vn -0.0465904 -0.967961 0.246739
v -0.0558005 -0.0177965 -0.0220906
vn -0.0879668 -0.953959 0.286748
v -0.0477709 -0.0185438 -0.0205657
vn -0.156641 -0.926681 0.341653
v -0.0811737 -0.0140289 -0.0122601
vn -0.188535 -0.98062 -0.0532841
v -0.0897421 -0.0112233 -0.0125443
vn -0.37222 -0.906494 -0.199299
v -0.0888175 -0.0100093 -0.0156796
vn -0.394532 -0.886494 -0.241811
v -0.0798236 -0.013479 -0.0156613
vn -0.258131 -0.963853 -0.0659993
v 0.0156834 0.00791007 -0.0285905
vn 0.13769 -0.0484321 -0.989291
v 0.0169553 -0.00125666 -0.0251904
vn 0.354684 -0.418997 -0.835847
v -0.0461993 0.00317103 -0.0369303
vn 0.0441955 0.7279 -0.684258
v -0.0401969 -0.00468937 -0.0418427
vn 0.162491 0.37267 -0.913627
v -0.0510424 -0.00692589 -0.0455188
vn 0.233217 0.382841 -0.893892
v -0.0543284 0.0017753 -0.0393474
vn 0.00363963 0.822732 -0.568418
v -0.00172912 0.016754 -0.0223632
vn -0.142332 0.748266 -0.647951
v 0.00577815 0.0166683 -0.0246632
vn -0.272817 0.644846 -0.713964
v -0.0142956 -0.00751475 0.0443744
vn 0.444118 0.191096 0.875352
v -0.00474545 -0.000498758 0.0379974
vn 0.426708 0.244944 0.870588
v 0.0022626 0.00435261 0.0332282
vn 0.322776 0.206117 0.923759
v 0.00993191 0.00698681 0.0314733
vn 0.151246 0.22579 0.962364
v -0.0769411 -0.0160434 0.0128839
vn -0.024804 -0.996973 -0.0736901
v -0.0532321 -0.0156389 0.0102549
vn -0.0818604 -0.912199 -0.401488
v -0.0394166 -0.0146996 -0.00195672
vn -0.127662 -0.990118 0.0580437
v -0.0345755 -0.0228352 -0.0311287
vn -0.025667 -0.988714 -0.147599
v -0.0239869 -0.0231265 -0.0293853
vn 0.167312 -0.879372 -0.445771
v -0.0297062 -0.0231742 -0.0205104
vn -0.159325 -0.969246 0.187559
v -0.037829 -0.0222215 -0.0239484
vn -0.190042 -0.957149 0.218517
v -0.0397522 -0.0144062 -0.042851
vn 0.232314 -0.249799 -0.940016
v -0.0429109 -0.0202477 -0.0386201
vn 0.125126 -0.808091 -0.575614
v -0.0524361 -0.0203692 -0.0404111
vn 0.0697771 -0.873437 -0.481911
v -0.0499678 -0.0154866 -0.0450328
vn 0.235124 -0.38508 -0.892429
v -0.0426541 -0.0106653 0.0507937
vn -0.216497 0.575752 0.788441
v 0.00365196 -0.0110989 -0.0266007
vn 0.401469 -0.472333 -0.784681
v 0.0103097 -0.0101898 -0.022774
vn 0.454842 -0.571754 -0.6828
v 0.0179439 -0.00744059 -0.0205586
vn 0.42005 -0.658867 -0.624061
v -0.017583 -0.0199477 -0.00126041
vn -0.163333 -0.965677 0.201965
v -0.00355259 -0.0203789 0.00122879
vn 0.213738 -0.968494 0.127811
v -0.00494467 -0.020541 0.00529271
vn 0.264867 -0.964284 -0.000890589
v -0.0190922 -0.0190326 0.00131205
vn -0.139144 -0.958778 -0.247759
v -0.0271928 -0.0266083 0.0151136
vn -0.262036 -0.735487 -0.624817
v -0.0137954 -0.0265694 0.0169473
vn 0.364288 -0.897057 -0.250165
v 0.00797109 -0.0150185 0.00961146
vn 0.280983 -0.944809 0.168476
v 0.0171176 -0.0142256 0.00365848
vn 0.205917 -0.974287 0.0914504
v 0.0166433 -0.0123959 0.0124025
vn 0.270622 -0.923337 0.272419
v 0.0180741 -0.0135619 -0.00610944
vn 0.313947 -0.947063 -0.0671473
v 0.0184088 -0.0114878 -0.0148159
vn 0.425801 -0.831752 -0.356205
v 0.0136319 0.019499 -0.0262585
vn -0.246412 0.479166 -0.842425
v 0.0151634 -0.00920111 0.0201487
vn 0.345345 -0.800532 0.48978
v -0.0842859 -0.00122287 0.0328126
vn -0.0771366 0.291277 0.953524
v -0.0838102 -0.00888842 0.0324258
vn -0.199235 -0.341567 0.918497
v -0.0737893 -0.0122331 0.0332717
vn -0.33149 -0.634035 0.698651
v -0.0134297 -0.0240196 -0.0128786
vn 0.100961 -0.993967 -0.0428438
v -0.00866493 -0.0215619 -0.0242495
vn 0.32078 -0.811272 -0.488813
v -0.0881896 -0.014876 0.0166897
vn -0.148728 -0.984191 -0.096162
v -0.0975529 -0.00813986 0.0126468
vn -0.690263 -0.660246 -0.295995
v -0.0829605 -0.0117408 -0.0228241
vn -0.36171 -0.928621 -0.0826343
v -0.0756359 -0.0145975 -0.022983
vn -0.318568 -0.947768 0.0157907
v -0.0836657 0.00866954 0.00798361
vn -0.306504 0.942691 0.131866
v -0.0816247 0.0109076 0.0210029
vn -0.147625 0.973952 0.172117
v -0.0713603 0.0105859 0.0220937
vn -0.0354848 0.867104 0.496861
v -0.0603685 -0.0145477 -0.00924232
vn -0.00452271 -0.987642 0.156664
v -0.0710101 -0.0149405 -0.0113038
vn -0.0285303 -0.99841 0.0486208
v -0.0698745 -0.015199 -0.0152918
vn -0.144215 -0.978482 0.147562
v -0.0805261 -0.0152252 0.00940578
vn -0.161349 -0.971059 -0.176096
v -0.089677 -0.013554 0.0109137
vn -0.35851 -0.903849 -0.23351
v -0.0853879 -0.0134212 0.00606196
vn -0.272563 -0.95449 -0.121071
v -0.0772897 -0.0144807 0.00461028
vn -0.0701996 -0.990894 -0.1149
v -0.0280119 -0.00194269 -0.038898
vn 0.207925 0.371345 -0.904914
v -0.0271824 -0.0134002 -0.0403875
vn 0.279089 -0.286012 -0.916683
v -0.0489012 -0.0142412 -0.00782712
vn -0.0593107 -0.979884 0.190549
v -0.0578447 0.0108198 0.0227502
vn -0.134112 0.877806 0.459859
v -0.0375334 -0.0154925 -0.00705139
vn -0.180957 -0.952431 0.245215
v -0.0715524 0.00236848 -0.0312837
vn -0.0771216 0.71683 -0.692969
v -0.0727777 -0.0034009 -0.0344589
vn -0.509507 0.650827 -0.562874
v -0.079274 -0.00329698 -0.0334226
vn -0.146499 0.285802 -0.947025
v -0.0794255 0.00240071 -0.032753
vn 0.131595 0.712208 -0.689523
v -0.0905654 -0.0113339 0.0284766
vn -0.21247 -0.806466 0.551788
v -0.09175 -0.00559388 0.0318588
vn -0.0942225 -0.0560004 0.993975
v -0.0272727 0.016709 -0.0149878
vn -0.149733 0.917967 -0.36731
v -0.0234773 0.0128103 -0.0246836
vn -0.11239 0.872979 -0.474632
v -0.0375159 0.00949246 -0.0273642
vn -0.0998563 0.885532 -0.453721
v -0.0507046 0.00692038 -0.0304012
vn -0.115461 0.891162 -0.438747
v -0.063239 0.00312398 -0.0321876
vn -0.136506 0.870322 -0.473186
v -0.0676377 0.00968549 -0.0230052
vn -0.0583755 0.920718 -0.385838
v -0.0335057 0.00623467 -0.0335359
vn 0.0183335 0.705486 -0.708487
v -0.0933857 0.000315641 0.0073084
vn -0.816178 0.528414 -0.233734
v -0.0911135 0.00636533 0.013051
vn -0.379484 0.89997 -0.214583
v -0.0895545 0.00606166 0.00692061
vn -0.564205 0.814139 0.137293
v -0.0359419 -0.0182803 -0.0137593
vn -0.244402 -0.902601 0.354372
v -0.00147073 0.0209053 0.0200658
vn -0.158871 0.883628 0.440411
v -0.00125117 0.0247019 0.00744388
vn -0.224506 0.966023 0.128048
v -0.00970692 0.0227068 0.00910203
vn -0.161699 0.973678 0.160637
v -0.0101934 0.0178557 0.022982
vn -0.129848 0.885436 0.446255
v -0.0752153 -0.0147451 -0.0297113
vn -0.399617 -0.91655 -0.0155767
v -0.0812572 -0.0116376 -0.0285392
vn -0.430656 -0.898966 -0.079969
v -0.0764086 -0.0134097 -0.0352942
vn -0.734421 -0.559792 -0.383743
v -0.0202179 0.0102218 -0.0288703
vn 0.0913076 0.641152 -0.761963
v -0.0574338 -0.0076456 -0.047869
vn 0.32094 0.12673 -0.938583
v -0.059915 0.00029588 -0.0426952
vn 0.0199098 0.886635 -0.462041
v -0.0111354 0.0157135 -0.0218752
vn -0.0808402 0.82324 -0.561908
v -0.014341 0.0197328 -0.0135493
vn -0.160859 0.916233 -0.366935
v -0.00484249 0.021708 -0.0130675
vn -0.192564 0.896577 -0.398834
v -0.0790974 0.00990516 -0.0124333
vn -0.179026 0.944093 -0.276837
v -0.0319922 0.018357 -0.00788129
vn -0.15607 0.966416 -0.204164
v -0.0178194 0.0207463 -0.00677678
vn -0.173299 0.965333 -0.195191
v -0.00661198 0.0231552 -0.00586781
vn -0.203116 0.975016 -0.0899281
v 0.00143563 0.0253456 -0.00599774
vn -0.27739 0.956865 -0.0864004
v 0.00259075 0.0233487 -0.0138552
vn -0.304766 0.850143 -0.42939
v 0.0109112 0.0267266 -0.0153274
vn -0.395965 0.781325 -0.482434
v 0.00938281 0.0281866 -0.00626499
vn -0.358297 0.926307 -0.116525
v -0.0209997 0.0210887 0.00189859
vn -0.168613 0.985299 -0.0274786
v -0.0247259 0.0200683 0.0125245
vn -0.157489 0.948018 0.276511
v -0.0346 0.0185456 0.0004336
vn -0.167805 0.985568 -0.0223021
v -0.0393705 0.0174422 0.0108827
vn -0.161537 0.972267 0.169122
v -0.0779872 0.0139485 -0.00295848
vn -0.160753 0.986871 -0.0156437
v -0.042626 0.0119567 0.0243963
vn -0.115194 0.885594 0.449948
v -0.0932979 -0.0098477 0.00653362
vn -0.542708 -0.81643 -0.197256
v -0.0262452 0.0123411 0.0279663
vn -0.130222 0.840056 0.526638
v -0.0492532 0.00255882 0.0393248
vn -0.182677 0.726071 0.66291
v -0.0363571 0.0012782 0.041329
vn -0.0828646 0.76563 0.637921
v -0.00905372 0.0112842 0.033074
vn 0.0633871 0.689814 0.721206
v -0.0201814 0.00311557 0.0416571
vn 0.0295484 0.672376 0.73962
v 0.00735932 0.0161262 0.0274448
vn -0.0357607 0.680385 0.731982
v -0.00121833 0.0144181 0.0290693
vn 0.0414047 0.647612 0.760844
v -0.0290955 -0.00755966 0.0493983
vn -0.0873658 0.63159 0.770364
v 0.00657942 0.0232478 0.0191271
vn -0.202292 0.900027 0.386044
v -0.025702 -0.0201282 -0.0104552
vn -0.27597 -0.902191 0.3315
v -0.0275193 -0.0178381 -0.00563181
vn -0.283626 -0.913057 0.293057
v -0.0178018 -0.0227404 -0.0276185
vn 0.226325 -0.872421 -0.433195
v -0.0225136 -0.0234552 -0.0170096
vn -0.102153 -0.988928 0.107643
v -0.0935305 -0.00594137 -0.013771
vn -0.683386 -0.590015 -0.429961
v -0.0168105 -0.020955 -0.00354464
vn -0.184454 -0.934258 0.305186
v -0.0161152 -0.0220969 -0.00721829
vn -0.179808 -0.943054 0.279855
v -0.0166966 -0.00137257 -0.0353423
vn 0.250377 0.343032 -0.90534
v -0.0165201 -0.0128517 -0.0364648
vn 0.373473 -0.257355 -0.891227
v -0.0919717 0.000865258 0.0312746
vn -0.0343905 0.507527 0.860949
v -0.0843059 0.00631888 0.0283659
vn -0.0292003 0.713769 0.699773
v -0.0964864 -0.00463252 0.00689298
vn -0.786441 -0.451802 -0.421172
v -0.00974993 -0.0233069 0.0103073
vn 0.31471 -0.914065 -0.255818
v -0.0228359 -0.0208328 0.0068247
vn -0.172673 -0.857493 -0.484655
v -0.0508466 -0.0337384 0.036852
vn -0.726304 -0.632726 0.268588
v -0.072818 -0.0143305 -0.00227726
vn -0.0300862 -0.999534 0.00521514
v -0.0890756 0.00855853 -0.0113877
vn -0.192684 0.830575 -0.522512
v -0.0885704 0.0127341 -0.00350016
vn -0.210722 0.965381 0.15374
v -0.0825683 -0.0134687 -0.00250043
vn -0.148706 -0.988725 -0.0175812
v -0.0917792 0.00932638 0.0208988
vn -0.154186 0.98545 0.0715253
v -0.066906 -0.0174841 -0.0228704
vn -0.186535 -0.967751 0.169298
v -0.0826683 0.00649909 -0.016254
vn -0.416433 0.748386 -0.516238
v -0.0918982 0.0019498 -0.0144246
vn -0.40497 0.518899 -0.752823
v -0.0561669 -0.0157909 -0.0464145
vn 0.177285 -0.553664 -0.81365
v 0.00744021 0.0267071 0.00700853
vn -0.256191 0.961155 0.102696
v -0.00714766 -0.0127586 -0.0311474
vn 0.39138 -0.383625 -0.836453
v -0.0292199 -0.0165522 -0.00247705
vn -0.236594 -0.962822 0.130374
v -0.0895466 -0.0118193 -0.00287086
vn -0.301498 -0.953315 -0.0169953
v -0.0661597 2.62135e-05 -0.0367401
vn -0.286006 0.929792 -0.231704
v -0.0759281 0.00863116 -0.0256501
vn -0.0965599 0.900339 -0.424341
v -0.0713936 -0.000224237 -0.042519
vn -0.360279 0.887323 0.287848
v -0.0615203 -0.0147768 -0.0478156
vn 0.0593246 -0.687168 -0.724072
v -0.0638602 -0.0182036 -0.0434951
vn -0.139962 -0.925081 -0.353039
v -0.0702966 -0.0164871 -0.0475475
vn -0.197566 -0.975248 -0.0992951
v -0.0682375 -0.017678 -0.0399483
vn -0.29952 -0.953033 -0.0449031
v -0.0711371 -0.0162047 -0.0367108
vn -0.414987 -0.909583 0.0210704
v -0.0747621 -0.0146171 -0.0394797
vn -0.613139 -0.789435 0.0291931
v -0.0735594 -0.0161932 -0.0440662
vn -0.412909 -0.900775 0.134577
v -0.0775283 -0.0102999 -0.0378866
vn -0.922235 -0.00984513 0.386504
v -0.0673576 4.47473e-05 -0.048077
vn -0.0377862 0.99927 0.00562627
v -0.0619088 -0.0113707 -0.0498198
vn 0.368323 -0.217846 -0.903815
v -0.0580518 -0.0199059 -0.0413415
vn -0.0702708 -0.91919 -0.387494
v -0.0617315 -0.020307 -0.0359947
vn -0.259097 -0.96573 -0.0153152
v -0.054517 -0.0213301 -0.0355208
vn -0.101466 -0.994833 -0.00334515
v -0.0447097 -0.0221563 -0.0334407
vn -0.0577494 -0.995205 -0.0789458
v -0.0343685 -0.0204789 -0.0365813
vn 0.190842 -0.734323 -0.651421
v -0.0466664 -0.0210808 -0.0270359
vn -0.15945 -0.954467 0.252128
v -0.0566012 -0.0202781 -0.0296504
vn -0.149119 -0.967519 0.204135
v -0.0667955 -0.0181285 -0.0307323
vn -0.310392 -0.948499 0.0633027
v -0.040251 -0.0192558 -0.0189196
vn -0.202403 -0.911535 0.357963
f 2//2 3//3 1//1
f 1//1 3//3 4//4
f 5//5 4//4 6//6
f 8//8 9//9 7//7
f 7//7 9//9 5//5
f 10//10 8//8 12//12
f 12//12 8//8 11//11
f 14//14 15//15 13//13
f 13//13 15//15 16//16
f 18//18 19//19 17//17
f 17//17 19//19 20//20
f 22//22 23//23 21//21
f 21//21 23//23 24//24
f 27//27 28//28 30//30
f 30//30 28//28 29//29
f 31//31 32//32 34//34
f 34//34 32//32 33//33
f 37//37 28//28 38//38
f 38//38 28//28 27//27
f 40//40 41//41 39//39
f 39//39 41//41 42//42
f 44//44 40//40 43//43
f 43//43 40//40 39//39
f 45//45 46//46 4//4
f 4//4 46//46 1//1
f 48//48 49//49 47//47
f 47//47 49//49 50//50
f 52//52 53//53 51//51
f 51//51 53//53 54//54
f 56//56 57//57 55//55
f 55//55 57//57 58//58
f 60//60 61//61 59//59
f 59//59 61//61 62//62
f 41//41 63//63 42//42
f 42//42 63//63 64//64
f 66//66 67//67 65//65
f 65//65 67//67 68//68
f 69//69 70//70 40//40
f 40//40 70//70 41//41
f 71//71 36//36 72//72
f 34//34 33//33 73//73
f 73//73 33//33 74//74
f 75//75 54//54 48//48
f 48//48 54//54 53//53
f 9//9 45//45 5//5
f 5//5 45//45 4//4
f 21//21 24//24 53//53
f 53//53 24//24 76//76
f 77//77 21//21 52//52
f 52//52 21//21 53//53
f 79//79 80//80 78//78
f 78//78 80//80 81//81
f 82//82 83//83 85//85
f 85//85 83//83 84//84
f 39//39 42//42 87//87
f 87//87 42//42 88//88
f 42//42 64//64 88//88
f 88//88 64//64 89//89
f 91//91 92//92 90//90
f 90//90 92//92 93//93
f 30//30 29//29 91//91
f 91//91 29//29 96//96
f 29//29 97//97 96//96
f 96//96 97//97 98//98
f 28//28 99//99 29//29
f 29//29 99//99 97//97
f 28//28 37//37 99//99
f 99//99 37//37 100//100
f 103//103 104//104 10//10
f 10//10 104//104 105//105
f 27//27 106//106 38//38
f 38//38 106//106 107//107
f 108//108 75//75 47//47
f 47//47 75//75 48//48
f 61//61 110//110 62//62
f 62//62 110//110 111//111
f 112//112 113//113 16//16
f 16//16 113//113 114//114
f 116//116 117//117 115//115
f 115//115 117//117 56//56
f 119//119 120//120 118//118
f 118//118 120//120 121//121
f 66//66 82//82 67//67
f 67//67 82//82 85//85
f 82//82 66//66 123//123
f 123//123 66//66 122//122
f 124//124 52//52 115//115
f 115//115 52//52 51//51
f 125//125 114//114 11//11
f 11//11 114//114 12//12
f 52//52 124//124 77//77
f 77//77 124//124 126//126
f 104//104 50//50 105//105
f 105//105 50//50 49//49
f 128//128 129//129 127//127
f 134//134 135//135 133//133
f 133//133 135//135 20//20
f 136//136 137//137 17//17
f 17//17 137//137 138//138
f 65//65 139//139 66//66
f 66//66 139//139 122//122
f 140//140 141//141 142//142
f 142//142 141//141 112//112
f 124//124 55//55 126//126
f 126//126 55//55 143//143
f 115//115 56//56 124//124
f 124//124 56//56 55//55
f 145//145 146//146 144//144
f 144//144 146//146 147//147
f 148//148 149//149 150//150
f 17//17 20//20 136//136
f 136//136 20//20 135//135
f 114//114 125//125 16//16
f 16//16 125//125 13//13
f 136//136 135//135 65//65
f 65//65 135//135 139//139
f 151//151 139//139 134//134
f 134//134 139//139 135//135
f 152//152 153//153 67//67
f 67//67 153//153 68//68
f 155//155 156//156 154//154
f 154//154 156//156 69//69
f 157//157 18//18 138//138
f 138//138 18//18 17//17
f 133//133 20//20 158//158
f 158//158 20//20 19//19
f 158//158 159//159 133//133
f 133//133 159//159 155//155
f 159//159 160//160 155//155
f 155//155 160//160 156//156
f 162//162 156//156 161//161
f 161//161 156//156 160//160
f 133//133 155//155 134//134
f 134//134 155//155 154//154
f 70//70 69//69 162//162
f 162//162 69//69 156//156
f 146//146 165//165 166//166
f 165//165 167//167 166//166
f 166//166 167//167 168//168
f 167//167 14//14 168//168
f 168//168 14//14 13//13
f 15//15 169//169 16//16
f 16//16 169//169 112//112
f 168//168 13//13 170//170
f 170//170 13//13 125//125
f 109//109 171//171 119//119
f 119//119 171//171 120//120
f 146//146 145//145 160//160
f 160//160 145//145 161//161
f 172//172 147//147 166//166
f 166//166 147//147 146//146
f 173//173 174//174 170//170
f 170//170 174//174 172//172
f 175//175 176//176 72//72
f 72//72 176//176 71//71
f 177//177 178//178 74//74
f 74//74 178//178 73//73
f 172//172 174//174 176//176
f 176//176 174//174 179//179
f 180//180 144//144 177//177
f 177//177 144//144 178//178
f 181//181 182//182 143//143
f 143//143 182//182 126//126
f 183//183 184//184 79//79
f 79//79 184//184 80//80
f 60//60 185//185 61//61
f 91//91 90//90 30//30
f 30//30 90//90 186//186
f 187//187 27//27 186//186
f 186//186 27//27 30//30
f 188//188 189//189 122//122
f 122//122 189//189 123//123
f 50//50 131//131 47//47
f 104//104 131//131 50//50
f 104//104 103//103 132//132
f 103//103 191//191 190//190
f 92//92 193//193 93//93
f 93//93 193//193 194//194
f 176//176 175//175 172//172
f 172//172 175//175 147//147
f 121//121 196//196 54//54
f 54//54 196//196 51//51
f 118//118 121//121 75//75
f 75//75 121//121 54//54
f 198//198 169//169 197//197
f 197//197 169//169 157//157
f 196//196 121//121 199//199
f 199//199 121//121 120//120
f 100//100 37//37 89//89
f 89//89 37//37 88//88
f 113//113 200//200 191//191
f 201//201 117//117 111//111
f 111//111 117//117 62//62
f 116//116 196//196 59//59
f 59//59 196//196 199//199
f 157//157 202//202 197//197
f 197//197 202//202 203//203
f 67//67 85//85 152//152
f 152//152 85//85 204//204
f 117//117 116//116 62//62
f 62//62 116//116 59//59
f 137//137 136//136 68//68
f 68//68 136//136 65//65
f 109//109 192//192 171//171
f 10//10 12//12 103//103
f 103//103 12//12 191//191
f 168//168 170//170 166//166
f 166//166 170//170 172//172
f 191//191 12//12 113//113
f 113//113 12//12 114//114
f 183//183 79//79 189//189
f 189//189 79//79 123//123
f 87//87 206//206 39//39
f 39//39 206//206 43//43
f 182//182 207//207 126//126
f 126//126 207//207 77//77
f 38//38 107//107 87//87
f 87//87 107//107 206//206
f 207//207 22//22 77//77
f 77//77 22//22 21//21
f 199//199 120//120 208//208
f 208//208 120//120 171//171
f 137//137 209//209 127//127
f 127//127 209//209 128//128
f 119//119 118//118 108//108
f 108//108 118//118 75//75
f 112//112 141//141 113//113
f 113//113 141//141 200//200
f 91//91 96//96 92//92
f 92//92 96//96 32//32
f 96//96 98//98 32//32
f 32//32 98//98 102//102
f 92//92 32//32 193//193
f 193//193 32//32 31//31
f 170//170 125//125 173//173
f 173//173 125//125 11//11
f 115//115 51//51 116//116
f 116//116 51//51 196//196
f 150//150 129//129 128//128
f 37//37 38//38 88//88
f 88//88 38//38 87//87
f 127//127 130//130 210//210
f 32//32 102//102 33//33
f 169//169 198//198 112//112
f 112//112 198//198 142//142
f 169//169 15//15 157//157
f 157//157 15//15 18//18
f 15//15 14//14 18//18
f 18//18 14//14 19//19
f 14//14 167//167 19//19
f 19//19 167//167 158//158
f 215//215 216//216 218//218
f 218//218 216//216 217//217
f 219//219 217//217 150//150
f 150//150 217//217 216//216
f 213//213 215//215 214//214
f 211//211 128//128 209//209
f 220//220 209//209 153//153
f 128//128 219//219 150//150
f 167//167 165//165 158//158
f 158//158 165//165 159//159
f 159//159 165//165 160//160
f 160//160 165//165 146//146
f 60//60 59//59 208//208
f 208//208 59//59 199//199
f 202//202 157//157 210//210
f 210//210 157//157 138//138
f 209//209 137//137 153//153
f 153//153 137//137 68//68
f 110//110 149//149 111//111
f 111//111 149//149 148//148
f 117//117 201//201 56//56
f 56//56 201//201 57//57
f 85//85 84//84 204//204
f 204//204 84//84 222//222
f 222//222 213//213 204//204
f 204//204 213//213 212//212
f 215//215 213//213 223//223
f 223//223 213//213 222//222
f 223//223 222//222 224//224
f 224//224 222//222 84//84
f 224//224 84//84 225//225
f 225//225 84//84 83//83
f 123//123 226//226 82//82
f 82//82 226//226 83//83
f 225//225 83//83 78//78
f 78//78 83//83 226//226
f 227//227 225//225 81//81
f 81//81 225//225 78//78
f 225//225 227//227 224//224
f 224//224 227//227 228//228
f 224//224 228//228 223//223
f 223//223 228//228 229//229
f 150//150 216//216 148//148
f 148//148 216//216 229//229
f 143//143 55//55 230//230
f 230//230 55//55 58//58
f 78//78 226//226 79//79
f 79//79 226//226 123//123
f 137//137 127//127 138//138
f 138//138 127//127 210//210
f 229//229 201//201 148//148
f 148//148 201//201 111//111
f 229//229 216//216 223//223
f 223//223 216//216 215//215
f 212//212 221//221 204//204
f 204//204 221//221 152//152
f 57//57 201//201 228//228
f 228//228 201//201 229//229
f 228//228 227//227 57//57
f 57//57 227//227 58//58
f 81//81 230//230 227//227
f 227//227 230//230 58//58
f 230//230 81//81 143//143
f 143//143 81//81 80//80
f 184//184 181//181 80//80
f 80//80 181//181 143//143
f 106//106 27//27 187//187
f 24//24 1//1 76//76
f 76//76 1//1 46//46
f 23//23 2//2 24//24
f 24//24 2//2 1//1
f 193//193 95//95 194//194
f 76//76 46//46 53//53
f 53//53 46//46 48//48
f 46//46 45//45 48//48
f 48//48 45//45 49//49
f 45//45 9//9 49//49
f 49//49 9//9 105//105
f 9//9 8//8 105//105
f 105//105 8//8 10//10
f 11//11 8//8 26//26
f 26//26 8//8 7//7
f 26//26 25//25 11//11
f 11//11 25//25 173//173
f 25//25 86//86 173//173
f 173//173 86//86 174//174
f 2//2 23//23 94//94
f 94//94 23//23 194//194
f 23//23 22//22 194//194
f 194//194 22//22 93//93
f 22//22 207//207 93//93
f 93//93 207//207 90//90
f 207//207 182//182 90//90
f 90//90 182//182 186//186
f 182//182 181//181 186//186
f 186//186 181//181 187//187
f 181//181 184//184 187//187
f 187//187 184//184 106//106
f 184//184 183//183 106//106
f 106//106 183//183 107//107
f 193//193 31//31 95//95
f 95//95 31//31 35//35
f 35//35 31//31 36//36
f 36//36 31//31 34//34
f 73//73 72//72 34//34
f 34//34 72//72 36//36
f 178//178 175//175 73//73
f 73//73 175//175 72//72
f 144//144 147//147 178//178
f 178//178 147//147 175//175
f 189//189 206//206 183//183
f 183//183 206//206 107//107
f 188//188 43//43 189//189
f 189//189 43//43 206//206
f 188//188 122//122 151//151
f 151//151 122//122 139//139
f 44//44 151//151 154//154
f 154//154 151//151 134//134
f 43//43 188//188 44//44
f 44//44 188//188 151//151
f 154//154 69//69 44//44
f 44//44 69//69 40//40
f 70//70 101//101 41//41
f 41//41 101//101 63//63
f 162//162 163//163 70//70
f 70//70 163//163 101//101
f 161//161 164//164 162//162
f 162//162 164//164 163//163
f 145//145 205//205 161//161
f 161//161 205//205 164//164
f 144//144 180//180 145//145
f 145//145 180//180 205//205
f 5//5 195//195 7//7
