# Created by Open3D 
# object name: index_dip
# number of vertices: 61
# number of triangles: 109
v 0.000316277 0.00654927 -0.00452439
vn -0.0860289 0.934728 -0.344794
v 0.000973888 0.00784128 0.00111716
vn -0.0947672 0.987147 0.128682
v -0.000126973 0.00506595 0.00652805
vn -0.0627738 0.745712 0.663304
v 0.000115268 0.000895942 0.00833712
vn 0.0122312 0.0866106 0.996167
v 0.00165477 -0.00316852 0.00717081
vn 0.0964329 -0.778968 0.619604
v -0.000926185 0.00362047 -0.00743675
vn -0.0824668 0.597641 -0.797511
v -0.00131911 -3.05679e-05 -0.00819179
vn 0.0127307 -0.13101 -0.991299
v 0.0013883 -0.00536253 -0.00624402
vn 0.0345486 -0.747833 -0.662987
v -0.00574423 0.00261535 -0.007522
vn -0.0773164 0.444399 -0.892486
v -0.00801023 0.00596391 -0.00420703
vn -0.126521 0.85749 -0.498702
v -0.0139045 0.00196377 0.00715169
vn -0.195596 0.370277 0.908095
v -0.00883345 0.00456848 0.00629609
vn -0.0765926 0.634848 0.768831
v -0.0110498 0.0051491 0.00493871
vn -0.220884 0.891426 0.39569
v -0.0157382 0.00369994 0.00503025
vn -0.221042 0.836125 0.502031
v -0.0207241 0.00316604 0.00397849
vn -0.227065 0.83771 0.496673
v -0.0193457 0.00097584 0.00649538
vn -0.356241 0.184306 0.916037
v -0.00878974 0.00652818 0.00124534
vn -0.233382 0.972128 0.022361
v -0.0151423 0.00493281 0.000697392
vn -0.182389 0.980578 0.0721182
v -0.0148559 0.0044163 -0.00348698
vn -0.165234 0.893015 -0.418596
v -0.0202889 0.00394792 -0.00367596
vn -0.111288 0.905023 -0.410545
v -0.0207774 0.00460479 7.88132e-05
vn -0.170615 0.982492 0.074831
v -0.0105924 0.00580898 -0.00274586
vn -0.237722 0.940005 -0.2447
v -0.00669109 0.00709779 0.00117576
vn -0.0964422 0.985064 0.142643
v -0.0232628 0.000717797 0.00404933
vn -0.759761 -0.0133378 0.650065
v -0.0233955 0.00300689 0.00287377
vn -0.591597 0.687393 0.421312
v -0.023622 0.00364903 -0.000410327
vn -0.587684 0.809077 -0.00478295
v -0.025482 0.00118407 -0.000501507
vn -0.952996 0.296075 0.0643295
v -0.00485499 0.000374134 0.00844351
vn -0.0565677 0.010353 0.998345
v -0.0132721 -0.000513063 0.00785677
vn -0.128369 -0.0452617 0.990693
v -0.0186713 -0.00209961 0.00574531
vn -0.305558 -0.379175 0.873419
v -0.0226404 -0.00201915 0.00334904
vn -0.638822 -0.528033 0.559542
v -0.0134091 -0.00412652 0.00582698
vn -0.0897695 -0.643613 0.760068
v -0.0179538 -0.00434196 0.0039381
vn -0.306902 -0.749307 0.586813
v -0.0212386 -0.00444179 0.00149532
vn -0.532189 -0.755542 0.382008
v -0.0134616 -0.00665608 0.00237848
vn -0.0474365 -0.945486 0.322188
v -0.017626 -0.0059848 0.00123056
vn -0.221971 -0.925432 0.307091
v -0.00134169 -0.00614644 0.00389331
vn 0.00315647 -0.908598 0.41766
v -0.00170584 -0.00348878 0.00729121
vn -0.0320068 -0.569367 0.82146
v -0.02019 -0.00594234 0.000379291
vn -0.399008 -0.907466 0.131524
v -0.0251232 -0.000941881 -0.00131328
vn -0.920573 -0.389599 0.0275271
v -0.0128974 0.00305201 -0.00630058
vn -0.166479 0.695612 -0.698862
v -0.0196565 0.00155394 -0.0058509
vn -0.175158 0.640224 -0.747952
v -0.0123994 0.00106164 -0.00750648
vn -0.0732999 0.279576 -0.957321
v -0.0191455 -0.000283823 -0.00738432
vn -0.213246 0.20586 -0.955064
v -0.0239826 0.00154535 -0.00511882
vn -0.647819 0.403091 -0.646412
v -0.0230509 0.0032206 -0.00331252
vn -0.511978 0.814303 -0.273475
v 0.00262828 -0.00695142 -0.00239338
vn 0.0507231 -0.996697 -0.0634141
v -0.00116781 -0.00715988 -0.00215331
vn 0.0327604 -0.999315 -0.0171866
v -0.0131812 -0.00748143 -0.00228087
vn -0.0482841 -0.980931 -0.188261
v -0.0024938 -0.00570969 -0.00613954
vn 0.0207449 -0.714096 -0.69974
v -0.0059879 -0.00101797 -0.00819211
vn 0.00204837 -0.171976 -0.985099
v -0.0129697 -0.00178841 -0.00790321
vn -0.0684686 -0.176788 -0.981865
v -0.0129728 -0.00499236 -0.00670544
vn -0.0603099 -0.662401 -0.746718
v -0.0181885 -0.0027317 -0.00721784
vn -0.18937 -0.412305 -0.891147
v -0.0175705 -0.00475311 -0.00571539
vn -0.150823 -0.683992 -0.713728
v -0.0176709 -0.00656953 -0.0023619
vn -0.223194 -0.937928 -0.265473
v -0.0218108 -0.00327683 -0.00542607
vn -0.530538 -0.462347 -0.710468
v -0.0232786 -0.000627145 -0.00570436
vn -0.678164 -0.189545 -0.710047
v -0.0231054 -0.00367086 -0.00192678
vn -0.736553 -0.673683 -0.0603431
v -0.0203535 -0.00463607 -0.00496401
vn -0.3837 -0.804832 -0.45279
v -0.020764 -0.00507935 -0.00204207
vn -0.532116 -0.839261 -0.111774
f 9//9 10//10 6//6
f 6//6 10//10 1//1
f 12//12 13//13 11//11
f 11//11 13//13 14//14
f 15//15 16//16 14//14
f 14//14 16//16 11//11
f 14//14 13//13 18//18
f 18//18 13//13 17//17
f 19//19 20//20 18//18
f 18//18 20//20 21//21
f 17//17 22//22 18//18
f 18//18 22//22 19//19
f 23//23 10//10 17//17
f 17//17 10//10 22//22
f 21//21 15//15 18//18
f 18//18 15//15 14//14
f 24//24 25//25 27//27
f 27//27 25//25 26//26
f 25//25 24//24 15//15
f 15//15 24//24 16//16
f 17//17 13//13 23//23
f 23//23 13//13 12//12
f 12//12 3//3 23//23
f 23//23 3//3 2//2
f 12//12 28//28 3//3
f 3//3 28//28 4//4
f 11//11 29//29 12//12
f 12//12 29//29 28//28
f 29//29 11//11 30//30
f 30//30 11//11 16//16
f 10//10 23//23 1//1
f 1//1 23//23 2//2
f 24//24 31//31 16//16
f 16//16 31//31 30//30
f 29//29 30//30 32//32
f 32//32 30//30 33//33
f 30//30 31//31 33//33
f 33//33 31//31 34//34
f 32//32 33//33 35//35
f 35//35 33//33 36//36
f 35//35 37//37 32//32
f 32//32 37//37 38//38
f 39//39 36//36 34//34
f 34//34 36//36 33//33
f 29//29 32//32 28//28
f 28//28 32//32 38//38
f 28//28 38//38 4//4
f 31//31 24//24 40//40
f 40//40 24//24 27//27
f 19//19 22//22 41//41
f 41//41 22//22 10//10
f 41//41 42//42 19//19
f 19//19 42//42 20//20
f 10//10 9//9 41//41
f 41//41 9//9 43//43
f 42//42 41//41 44//44
f 44//44 41//41 43//43
f 42//42 45//45 20//20
f 20//20 45//45 46//46
f 47//47 37//37 48//48
f 37//37 35//35 48//48
f 48//48 35//35 49//49
f 47//47 48//48 8//8
f 8//8 48//48 50//50
f 37//37 5//5 38//38
f 51//51 7//7 50//50
f 50//50 7//7 8//8
f 51//51 9//9 7//7
f 7//7 9//9 6//6
f 52//52 43//43 51//51
f 51//51 43//43 9//9
f 52//52 51//51 53//53
f 53//53 51//51 50//50
f 54//54 52//52 55//55
f 55//55 52//52 53//53
f 48//48 49//49 50//50
f 50//50 49//49 53//53
f 49//49 56//56 53//53
f 53//53 56//56 55//55
f 43//43 52//52 44//44
f 44//44 52//52 54//54
f 58//58 44//44 57//57
f 57//57 44//44 54//54
f 57//57 60//60 59//59
f 59//59 60//60 61//61
f 57//57 54//54 60//60
f 60//60 54//54 55//55
f 57//57 59//59 58//58
f 58//58 59//59 40//40
f 58//58 40//40 45//45
f 45//45 40//40 27//27
f 45//45 42//42 58//58
f 58//58 42//42 44//44
f 35//35 36//36 49//49
f 49//49 36//36 56//56
f 61//61 56//56 39//39
f 39//39 56//56 36//36
f 61//61 60//60 56//56
f 56//56 60//60 55//55
f 59//59 61//61 34//34
f 34//34 61//61 39//39
f 34//34 31//31 59//59
f 59//59 31//31 40//40
f 15//15 21//21 25//25
f 25//25 21//21 26//26
f 26//26 46//46 27//27
f 27//27 46//46 45//45
f 26//26 21//21 46//46
f 46//46 21//21 20//20
