solid AssimpScene
 facet normal 0 0 0
  outer loop
  vertex -0.0348916017 0.0129961995 0.00305710011
  vertex -0.0350797996 0.0124741998 -0.00344238989
  vertex -0.0344713964 0.000692125992 -0.00711093051
  endloop
 endfacet

 facet normal 0 0 0
  outer loop
  vertex -0.0348916017 0.0129961995 0.00305710011
  vertex -0.0344713964 0.000692125992 -0.00711093051
  vertex -0.0341910012 -0.00360953971 -0.00335826003
  endloop
 endfacet

 facet normal 0 0 0
  outer loop
  vertex -0.0348916017 0.0129961995 0.00305710011
  vertex -0.0341910012 -0.00360953971 -0.00335826003
  vertex -0.0334481001 -0.00297797006 0.00812058989
  endloop
 endfacet

 facet normal 0 0 0
  outer loop
  vertex -0.0348916017 0.0129961995 0.00305710011
  vertex -0.0334481001 -0.00297797006 0.00812058989
  vertex -0.0335686989 0.00124380004 0.0113457013
  endloop
 endfacet

 facet normal 0 0 0
  outer loop
  vertex -0.0348916017 0.0129961995 0.00305710011
  vertex -0.0335686989 0.00124380004 0.0113457013
  vertex -0.0340985954 0.0065403902 0.0116077997
  endloop
 endfacet

 facet normal 0 0 0
  outer loop
  vertex -0.00838921033 0.000567838026 -0.013793001
  vertex -0.00157977 -0.00835368969 -0.00977232959
  vertex -0.0344713964 0.000692125992 -0.00711093051
  endloop
 endfacet

 facet normal 0 0 0
  outer loop
  vertex 0.00384212006 -0.0104111005 0.00174245995
  vertex -0.00157977 -0.00835368969 -0.00977232959
  vertex -0.0030162998 0.0115657002 -0.00763500016
  endloop
 endfacet

 facet normal 0 0 0
  outer loop
  vertex 0.00384212006 -0.0104111005 0.00174245995
  vertex -0.0030162998 0.0115657002 -0.00763500016
  vertex 0.0037913397 0.0115192002 0.00767994067
  endloop
 endfacet

 facet normal 0 0 0
  outer loop
  vertex 0.00384212006 -0.0104111005 0.00174245995
  vertex 0.0037913397 0.0115192002 0.00767994067
  vertex 0.00428703986 -0.00368805998 0.0117397998
  endloop
 endfacet

 facet normal 0 0 0
  outer loop
  vertex -0.0341910012 -0.00360953971 -0.00335826003
  vertex -0.0344713964 0.000692125992 -0.00711093051
  vertex -0.00157977 -0.00835368969 -0.00977232959
  endloop
 endfacet

 facet normal 0 0 0
  outer loop
  vertex -0.0340985954 0.0065403902 0.0116077997
  vertex 0.0037913397 0.0115192002 0.00767994067
  vertex -0.0341583006 0.0109261004 0.00870543066
  endloop
 endfacet

 facet normal 0 0 0
  outer loop
  vertex -0.00368193979 0.0145266997 0.000212822997
  vertex -0.0348916017 0.0129961995 0.00305710011
  vertex -0.0341583006 0.0109261004 0.00870543066
  endloop
 endfacet

 facet normal 0 0 0
  outer loop
  vertex -0.00368193979 0.0145266997 0.000212822997
  vertex -0.0341583006 0.0109261004 0.00870543066
  vertex 0.0037913397 0.0115192002 0.00767994067
  endloop
 endfacet

 facet normal 0 0 0
  outer loop
  vertex -0.00368193979 0.0145266997 0.000212822997
  vertex 0.0037913397 0.0115192002 0.00767994067
  vertex -0.0030162998 0.0115657002 -0.00763500016
  endloop
 endfacet

 facet normal 0 0 0
  outer loop
  vertex -0.00368193979 0.0145266997 0.000212822997
  vertex -0.0030162998 0.0115657002 -0.00763500016
  vertex -0.0350797996 0.0124741998 -0.00344238989
  endloop
 endfacet

 facet normal 0 0 0
  outer loop
  vertex 0.00381133007 0.00397749012 0.0121266004
  vertex 0.0037913397 0.0115192002 0.00767994067
  vertex -0.0340985954 0.0065403902 0.0116077997
  endloop
 endfacet

 facet normal 0 0 0
  outer loop
  vertex 0.00381133007 0.00397749012 0.0121266004
  vertex 0.00428703986 -0.00368805998 0.0117397998
  vertex 0.0037913397 0.0115192002 0.00767994067
  endloop
 endfacet

 facet normal 0 0 0
  outer loop
  vertex -0.00528847007 0.00551600009 -0.0133776003
  vertex -0.00157977 -0.00835368969 -0.00977232959
  vertex -0.00838921033 0.000567838026 -0.013793001
  endloop
 endfacet

 facet normal 0 0 0
  outer loop
  vertex -0.00528847007 0.00551600009 -0.0133776003
  vertex -0.0350797996 0.0124741998 -0.00344238989
  vertex -0.0030162998 0.0115657002 -0.00763500016
  endloop
 endfacet

 facet normal 0 0 0
  outer loop
  vertex -0.00528847007 0.00551600009 -0.0133776003
  vertex -0.0030162998 0.0115657002 -0.00763500016
  vertex -0.00157977 -0.00835368969 -0.00977232959
  endloop
 endfacet

 facet normal 0 0 0
  outer loop
  vertex -0.0346489996 0.00676862011 -0.00737858005
  vertex -0.0350797996 0.0124741998 -0.00344238989
  vertex -0.00528847007 0.00551600009 -0.0133776003
  endloop
 endfacet

 facet normal 0 0 0
  outer loop
  vertex -0.0346489996 0.00676862011 -0.00737858005
  vertex -0.00528847007 0.00551600009 -0.0133776003
  vertex -0.00838921033 0.000567838026 -0.013793001
  endloop
 endfacet

 facet normal 0 0 0
  outer loop
  vertex -0.0346489996 0.00676862011 -0.00737858005
  vertex -0.00838921033 0.000567838026 -0.013793001
  vertex -0.0344713964 0.000692125992 -0.00711093051
  endloop
 endfacet

 facet normal 0 0 0
  outer loop
  vertex -0.0346489996 0.00676862011 -0.00737858005
  vertex -0.0344713964 0.000692125992 -0.00711093051
  vertex -0.0350797996 0.0124741998 -0.00344238989
  endloop
 endfacet

 facet normal 0 0 0
  outer loop
  vertex -0.0286606997 -0.00617595017 0.00249193003
  vertex -0.0341910012 -0.00360953971 -0.00335826003
  vertex -0.00157977 -0.00835368969 -0.00977232959
  endloop
 endfacet

 facet normal 0 0 0
  outer loop
  vertex -0.0286606997 -0.00617595017 0.00249193003
  vertex -0.00157977 -0.00835368969 -0.00977232959
  vertex 0.00384212006 -0.0104111005 0.00174245995
  endloop
 endfacet

 facet normal 0 0 0
  outer loop
  vertex 0.00428703986 -0.00368805998 0.0117397998
  vertex 0.00381133007 0.00397749012 0.0121266004
  vertex -0.0340985954 0.0065403902 0.0116077997
  endloop
 endfacet

 facet normal 0 0 0
  outer loop
  vertex 0.00428703986 -0.00368805998 0.0117397998
  vertex -0.0340985954 0.0065403902 0.0116077997
  vertex -0.0335686989 0.00124380004 0.0113457013
  endloop
 endfacet

 facet normal 0 0 0
  outer loop
  vertex -0.0348916017 0.0129961995 0.00305710011
  vertex -0.00368193979 0.0145266997 0.000212822997
  vertex -0.0350797996 0.0124741998 -0.00344238989
  endloop
 endfacet

 facet normal 0 0 0
  outer loop
  vertex -0.0348916017 0.0129961995 0.00305710011
  vertex -0.0340985954 0.0065403902 0.0116077997
  vertex -0.0341583006 0.0109261004 0.00870543066
  endloop
 endfacet

 facet normal 0 0 0
  outer loop
  vertex -0.0335201994 -0.00480944011 0.00277946005
  vertex -0.0341910012 -0.00360953971 -0.00335826003
  vertex -0.0286606997 -0.00617595017 0.00249193003
  endloop
 endfacet

 facet normal 0 0 0
  outer loop
  vertex -0.0335201994 -0.00480944011 0.00277946005
  vertex -0.0334481001 -0.00297797006 0.00812058989
  vertex -0.0341910012 -0.00360953971 -0.00335826003
  endloop
 endfacet

 facet normal 0 0 0
  outer loop
  vertex -0.0284912977 -0.00402791984 0.00851420965
  vertex -0.0334481001 -0.00297797006 0.00812058989
  vertex -0.0335201994 -0.00480944011 0.00277946005
  endloop
 endfacet

 facet normal 0 0 0
  outer loop
  vertex -0.0284912977 -0.00402791984 0.00851420965
  vertex -0.0335201994 -0.00480944011 0.00277946005
  vertex -0.0286606997 -0.00617595017 0.00249193003
  endloop
 endfacet

 facet normal 0 0 0
  outer loop
  vertex -0.0284912977 -0.00402791984 0.00851420965
  vertex -0.0286606997 -0.00617595017 0.00249193003
  vertex 0.00384212006 -0.0104111005 0.00174245995
  endloop
 endfacet

 facet normal 0 0 0
  outer loop
  vertex -0.0284912977 -0.00402791984 0.00851420965
  vertex 0.00384212006 -0.0104111005 0.00174245995
  vertex 0.00428703986 -0.00368805998 0.0117397998
  endloop
 endfacet

 facet normal 0 0 0
  outer loop
  vertex -0.0284912977 -0.00402791984 0.00851420965
  vertex 0.00428703986 -0.00368805998 0.0117397998
  vertex -0.0335686989 0.00124380004 0.0113457013
  endloop
 endfacet

 facet normal 0 0 0
  outer loop
  vertex -0.0284912977 -0.00402791984 0.00851420965
  vertex -0.0335686989 0.00124380004 0.0113457013
  vertex -0.0334481001 -0.00297797006 0.00812058989
  endloop
 endfacet

endsolid AssimpScene
