solid AssimpScene
 facet normal 0 0 0
  outer loop
  vertex -0.00147935003 0.00691675022 0.00648836931
  vertex -0.000889829942 -0.00276556029 0.00912864972
  vertex -0.000769213017 -0.00698731979 0.00590352993
  endloop
 endfacet

 facet normal 0 0 0
  outer loop
  vertex -0.00147935003 0.00691675022 0.00648836931
  vertex -0.000769213017 -0.00698731979 0.00590352993
  vertex -0.000841283938 -0.00881879032 0.000562398985
  endloop
 endfacet

 facet normal 0 0 0
  outer loop
  vertex -0.00147935003 0.00691675022 0.00648836931
  vertex -0.000841283938 -0.00881879032 0.000562398985
  vertex -0.00179244997 -0.00331723015 -0.00932799
  endloop
 endfacet

 facet normal 0 0 0
  outer loop
  vertex -0.00147935003 0.00691675022 0.00648836931
  vertex -0.00179244997 -0.00331723015 -0.00932799
  vertex -0.00197004993 0.00275926013 -0.00959564
  endloop
 endfacet

 facet normal 0 0 0
  outer loop
  vertex -0.00151207985 -0.00761889014 -0.00557533
  vertex -0.0207675993 -0.00666095037 -0.00635812944
  vertex -0.00179244997 -0.00331723015 -0.00932799
  endloop
 endfacet

 facet normal 0 0 0
  outer loop
  vertex -0.00141968986 0.00253103999 0.00939069968
  vertex -0.00147935003 0.00691675022 0.00648836931
  vertex -0.0222829003 0.0037675302 0.00641392963
  endloop
 endfacet

 facet normal 0 0 0
  outer loop
  vertex -0.0234749988 -0.0013289901 -0.0083058998
  vertex -0.00179244997 -0.00331723015 -0.00932799
  vertex -0.0207675993 -0.00666095037 -0.00635812944
  endloop
 endfacet

 facet normal 0 0 0
  outer loop
  vertex -0.0234976001 -0.00744486041 0.00377919967
  vertex -0.0238617994 -0.00478720013 0.00717709959
  vertex -0.0234749988 -0.0013289901 -0.0083058998
  endloop
 endfacet

 facet normal 0 0 0
  outer loop
  vertex -0.0234976001 -0.00744486041 0.00377919967
  vertex -0.0234749988 -0.0013289901 -0.0083058998
  vertex -0.0207675993 -0.00666095037 -0.00635812944
  endloop
 endfacet

 facet normal 0 0 0
  outer loop
  vertex -0.0234976001 -0.00744486041 0.00377919967
  vertex -0.000769213017 -0.00698731979 0.00590352993
  vertex -0.0238617994 -0.00478720013 0.00717709959
  endloop
 endfacet

 facet normal 0 0 0
  outer loop
  vertex -0.00197004993 0.00275926013 -0.00959564
  vertex -0.00179244997 -0.00331723015 -0.00932799
  vertex -0.0234749988 -0.0013289901 -0.0083058998
  endloop
 endfacet

 facet normal 0 0 0
  outer loop
  vertex -0.00197004993 0.00275926013 -0.00959564
  vertex -0.00240088999 0.00846487004 -0.00565946009
  vertex -0.00147935003 0.00691675022 0.00648836931
  endloop
 endfacet

 facet normal 0 0 0
  outer loop
  vertex -0.0211820006 0.00654284982 0.00100305001
  vertex -0.0222829003 0.0037675302 0.00641392963
  vertex -0.00147935003 0.00691675022 0.00648836931
  endloop
 endfacet

 facet normal 0 0 0
  outer loop
  vertex -0.0211820006 0.00654284982 0.00100305001
  vertex -0.00240088999 0.00846487004 -0.00565946009
  vertex -0.0218395982 0.00525085069 -0.00463850936
  endloop
 endfacet

 facet normal 0 0 0
  outer loop
  vertex -0.00537674967 -0.00343171996 0.0091644004
  vertex -0.0238617994 -0.00478720013 0.00717709959
  vertex -0.000769213017 -0.00698731979 0.00590352993
  endloop
 endfacet

 facet normal 0 0 0
  outer loop
  vertex -0.000841283938 -0.00881879032 0.000562398985
  vertex -0.000769213017 -0.00698731979 0.00590352993
  vertex -0.0234976001 -0.00744486041 0.00377919967
  endloop
 endfacet

 facet normal 0 0 0
  outer loop
  vertex -0.000841283938 -0.00881879032 0.000562398985
  vertex -0.00151207985 -0.00761889014 -0.00557533
  vertex -0.00179244997 -0.00331723015 -0.00932799
  endloop
 endfacet

 facet normal 0 0 0
  outer loop
  vertex -0.000889829942 -0.00276556029 0.00912864972
  vertex -0.00141968986 0.00253103999 0.00939069968
  vertex -0.00537674967 -0.00343171996 0.0091644004
  endloop
 endfacet

 facet normal 0 0 0
  outer loop
  vertex -0.000889829942 -0.00276556029 0.00912864972
  vertex -0.00537674967 -0.00343171996 0.0091644004
  vertex -0.000769213017 -0.00698731979 0.00590352993
  endloop
 endfacet

 facet normal 0 0 0
  outer loop
  vertex -0.000889829942 -0.00276556029 0.00912864972
  vertex -0.00147935003 0.00691675022 0.00648836931
  vertex -0.00141968986 0.00253103999 0.00939069968
  endloop
 endfacet

 facet normal 0 0 0
  outer loop
  vertex -0.00221273 0.00898688007 0.000840037013
  vertex -0.00240088999 0.00846487004 -0.00565946009
  vertex -0.0211820006 0.00654284982 0.00100305001
  endloop
 endfacet

 facet normal 0 0 0
  outer loop
  vertex -0.00221273 0.00898688007 0.000840037013
  vertex -0.0211820006 0.00654284982 0.00100305001
  vertex -0.00147935003 0.00691675022 0.00648836931
  endloop
 endfacet

 facet normal 0 0 0
  outer loop
  vertex -0.00221273 0.00898688007 0.000840037013
  vertex -0.00147935003 0.00691675022 0.00648836931
  vertex -0.00240088999 0.00846487004 -0.00565946009
  endloop
 endfacet

 facet normal 0 0 0
  outer loop
  vertex -0.0220406 -0.000402479985 0.00822301023
  vertex -0.0238617994 -0.00478720013 0.00717709959
  vertex -0.00537674967 -0.00343171996 0.0091644004
  endloop
 endfacet

 facet normal 0 0 0
  outer loop
  vertex -0.0220406 -0.000402479985 0.00822301023
  vertex -0.00537674967 -0.00343171996 0.0091644004
  vertex -0.00141968986 0.00253103999 0.00939069968
  endloop
 endfacet

 facet normal 0 0 0
  outer loop
  vertex -0.0220406 -0.000402479985 0.00822301023
  vertex -0.00141968986 0.00253103999 0.00939069968
  vertex -0.0222829003 0.0037675302 0.00641392963
  endloop
 endfacet

 facet normal 0 0 0
  outer loop
  vertex -0.0220406 -0.000402479985 0.00822301023
  vertex -0.0222829003 0.0037675302 0.00641392963
  vertex -0.0238617994 -0.00478720013 0.00717709959
  endloop
 endfacet

 facet normal 0 0 0
  outer loop
  vertex -0.0230820999 0.00232205004 -0.00755085982
  vertex -0.0218395982 0.00525085069 -0.00463850936
  vertex -0.00240088999 0.00846487004 -0.00565946009
  endloop
 endfacet

 facet normal 0 0 0
  outer loop
  vertex -0.0230820999 0.00232205004 -0.00755085982
  vertex -0.00240088999 0.00846487004 -0.00565946009
  vertex -0.00197004993 0.00275926013 -0.00959564
  endloop
 endfacet

 facet normal 0 0 0
  outer loop
  vertex -0.0230820999 0.00232205004 -0.00755085982
  vertex -0.00197004993 0.00275926013 -0.00959564
  vertex -0.0234749988 -0.0013289901 -0.0083058998
  endloop
 endfacet

 facet normal 0 0 0
  outer loop
  vertex -0.0230820999 0.00232205004 -0.00755085982
  vertex -0.0234749988 -0.0013289901 -0.0083058998
  vertex -0.0238617994 -0.00478720013 0.00717709959
  endloop
 endfacet

 facet normal 0 0 0
  outer loop
  vertex -0.0230820999 0.00232205004 -0.00755085982
  vertex -0.0238617994 -0.00478720013 0.00717709959
  vertex -0.0222829003 0.0037675302 0.00641392963
  endloop
 endfacet

 facet normal 0 0 0
  outer loop
  vertex -0.0230820999 0.00232205004 -0.00755085982
  vertex -0.0222829003 0.0037675302 0.00641392963
  vertex -0.0211820006 0.00654284982 0.00100305001
  endloop
 endfacet

 facet normal 0 0 0
  outer loop
  vertex -0.0230820999 0.00232205004 -0.00755085982
  vertex -0.0211820006 0.00654284982 0.00100305001
  vertex -0.0218395982 0.00525085069 -0.00463850936
  endloop
 endfacet

 facet normal 0 0 0
  outer loop
  vertex -0.0195275992 -0.00824983977 -0.00250749988
  vertex -0.0207675993 -0.00666095037 -0.00635812944
  vertex -0.00151207985 -0.00761889014 -0.00557533
  endloop
 endfacet

 facet normal 0 0 0
  outer loop
  vertex -0.0195275992 -0.00824983977 -0.00250749988
  vertex -0.00151207985 -0.00761889014 -0.00557533
  vertex -0.000841283938 -0.00881879032 0.000562398985
  endloop
 endfacet

 facet normal 0 0 0
  outer loop
  vertex -0.0195275992 -0.00824983977 -0.00250749988
  vertex -0.000841283938 -0.00881879032 0.000562398985
  vertex -0.0234976001 -0.00744486041 0.00377919967
  endloop
 endfacet

 facet normal 0 0 0
  outer loop
  vertex -0.0195275992 -0.00824983977 -0.00250749988
  vertex -0.0234976001 -0.00744486041 0.00377919967
  vertex -0.0207675993 -0.00666095037 -0.00635812944
  endloop
 endfacet

endsolid AssimpScene
