# Created by Open3D 
# object name: index_pip
# number of vertices: 42
# number of triangles: 63
v -0.00509731 -0.00699409 0.00604286
vn -0.0392034 -0.846167 0.531474
v -0.00601213 -0.0086325 0.000586289
vn -0.0156075 -0.998865 0.0449903
v -0.000841284 -0.00881879 0.000562399
vn -0.0221742 -0.991887 0.125173
v -0.000769213 -0.00698732 0.00590353
vn 0.0467916 -0.768744 0.637842
v -0.00625816 0.00561912 0.00701246
vn -0.127913 0.749154 0.649928
v -0.00605116 0.00115032 0.00945951
vn -0.0910557 0.23022 0.968869
v -0.00141969 0.00253104 0.0093907
vn -0.0532781 0.336384 0.940217
v -0.00147935 0.00691675 0.00648837
vn -0.125941 0.828562 0.54555
v -0.0069501 0.00820521 0.00150048
vn -0.145711 0.978397 0.146652
v -0.00221273 0.00898688 0.000840037
vn -0.142835 0.980389 0.135777
v -0.00537675 -0.00343172 0.0091644
vn -0.0460111 -0.384071 0.922156
v -0.00088983 -0.00276556 0.00912865
vn 0.0501321 -0.250865 0.966723
v -0.00151208 -0.00761889 -0.00557533
vn -0.0173467 -0.923892 -0.38226
v -0.00179245 -0.00331723 -0.00932799
vn -0.061157 -0.442508 -0.894677
v -0.00240089 0.00846487 -0.00565946
vn -0.245149 0.893874 -0.375354
v -0.0178591 0.00291748 -0.00729503
vn -0.0872717 0.521366 -0.848858
v -0.00746112 0.00278628 -0.008807
vn -0.106533 0.393953 -0.912936
v -0.00709682 -0.00302624 -0.0089016
vn -0.0700158 -0.273993 -0.95918
v -0.0180761 -0.00112773 -0.0084438
vn -0.0610877 -0.0805413 -0.994878
v -0.00197005 0.00275926 -0.00959564
vn -0.153665 0.306866 -0.939266
v -0.00701 0.00732899 -0.0050024
vn -0.155321 0.873637 -0.461122
v -0.0163887 -0.00759723 0.00370679
vn -0.0598824 -0.911373 0.407202
v -0.0164305 -0.00849987 -0.00169676
vn -0.029274 -0.996441 -0.0790457
v -0.016297 -0.00419865 0.00761911
vn -0.0894494 -0.588936 0.803214
v -0.0171958 0.00402766 0.00652511
vn -0.116293 0.643574 0.756498
v -0.0168013 -0.00056217 0.00841289
vn -0.10239 0.0313989 0.994249
v -0.0071207 -0.00751769 -0.00567454
vn -0.0107209 -0.862503 -0.505938
v -0.0166514 -0.00692766 -0.0062693
vn -0.0417657 -0.666883 -0.743991
v -0.0171059 0.00608841 -0.00447255
vn -0.129412 0.854372 -0.50329
v -0.0164643 0.00725163 0.00125763
vn -0.13102 0.976298 0.172268
v -0.0218396 0.00525085 -0.00463851
vn -0.112632 0.840536 -0.529919
v -0.021182 0.00654285 0.00100305
vn -0.133904 0.97716 0.165007
v -0.0222829 0.00376753 0.00641393
vn -0.0520204 0.722788 0.689109
v -0.0220406 -0.00040248 0.00822301
vn -0.0197551 0.109366 0.993805
v -0.0205011 -0.00446694 0.0070567
vn -0.0306135 -0.557607 0.829541
v -0.0230821 0.00232205 -0.00755086
vn -0.0212805 0.412104 -0.910888
v -0.023475 -0.00132899 -0.0083059
vn -0.0201996 -0.136707 -0.990406
v -0.0207676 -0.00666095 -0.00635813
vn -0.0187854 -0.514749 -0.857135
v -0.0234976 -0.00744486 0.0037792
vn 0.0547629 -0.92659 0.372065
v -0.0238618 -0.0047872 0.0071771
vn 0.0588517 -0.254684 0.965232
v -0.0192073 -0.00743447 0.00317362
vn -0.0364155 -0.943468 0.329458
v -0.0195276 -0.00824984 -0.0025075
vn -0.0317862 -0.997142 -0.0685416
f 2//2 3//3 1//1
f 1//1 3//3 4//4
f 6//6 7//7 5//5
f 5//5 7//7 8//8
f 5//5 8//8 9//9
f 9//9 8//8 10//10
f 11//11 12//12 6//6
f 6//6 12//12 7//7
f 16//16 17//17 19//19
f 19//19 17//17 18//18
f 21//21 9//9 15//15
f 15//15 9//9 10//10
f 1//1 22//22 2//2
f 2//2 22//22 23//23
f 11//11 24//24 1//1
f 1//1 24//24 22//22
f 1//1 4//4 11//11
f 11//11 4//4 12//12
f 5//5 25//25 6//6
f 6//6 25//25 26//26
f 2//2 23//23 27//27
f 27//27 23//23 28//28
f 21//21 17//17 29//29
f 29//29 17//17 16//16
f 17//17 20//20 18//18
f 18//18 20//20 14//14
f 27//27 28//28 18//18
f 18//18 28//28 19//19
f 9//9 21//21 30//30
f 30//30 21//21 29//29
f 6//6 26//26 11//11
f 11//11 26//26 24//24
f 25//25 5//5 30//30
f 30//30 5//5 9//9
f 17//17 21//21 20//20
f 20//20 21//21 15//15
f 18//18 14//14 27//27
f 27//27 14//14 13//13
f 27//27 13//13 2//2
f 2//2 13//13 3//3
f 30//30 29//29 32//32
f 32//32 29//29 31//31
f 30//30 32//32 25//25
f 25//25 32//32 33//33
f 26//26 25//25 34//34
f 34//34 25//25 33//33
f 24//24 26//26 35//35
f 35//35 26//26 34//34
f 29//29 16//16 31//31
f 31//31 16//16 36//36
f 16//16 19//19 36//36
f 36//36 19//19 37//37
f 37//37 19//19 38//38
f 38//38 19//19 28//28
f 34//34 40//40 35//35
f 24//24 35//35 22//22
f 22//22 35//35 41//41
f 23//23 42//42 28//28
f 28//28 42//42 38//38
f 42//42 23//23 41//41
f 41//41 23//23 22//22
f 41//41 39//39 42//42
f 41//41 35//35 39//39
