# Created by Open3D 
# object name: index_mcp
# number of vertices: 48
# number of triangles: 71
v -0.0335202 -0.00480944 0.00277946
vn -0.246245 -0.966984 0.0656077
v -0.0334481 -0.00297797 0.00812059
vn -0.137886 -0.697761 0.702935
v -0.0340986 0.00654039 0.0116078
vn 0.0164172 0.26398 0.964388
v -0.0341583 0.0109261 0.00870543
vn -0.0256126 0.813127 0.581522
v 0.00384212 -0.0104111 0.00174246
vn -0.282355 -0.932925 0.223442
v -0.0348916 0.0129962 0.0030571
vn -0.0708021 0.996602 0.0420963
v 0.00381133 0.00397749 0.0121266
vn -0.173869 0.0827752 0.981284
v 0.00428704 -0.00368806 0.0117398
vn -0.277003 -0.529581 0.801756
v -9.241e-05 -0.00967563 -0.00399631
vn -0.327974 -0.944687 0.000284617
v -0.0293884 0.0115602 0.00804718
vn -0.0044175 0.867539 0.497349
v -0.0291551 0.00702982 0.0113896
vn 0.0266796 0.389993 0.920431
v -0.0111529 0.00642073 0.0109119
vn 0.0469999 0.279848 0.958893
v -0.0123224 0.0118705 0.00725016
vn 0.032472 0.748352 0.662507
v -0.00945568 -0.00293951 -0.0080392
vn -0.569251 -0.597074 -0.565205
v -0.00648762 -0.00728967 -0.00371973
vn -0.430866 -0.886554 -0.168455
v -0.0100701 -0.0054605 -0.00380426
vn -0.0711485 -0.948038 -0.310099
v -0.0137371 -0.00254147 -0.00814607
vn -0.0648477 -0.487304 -0.870821
v -0.00157977 -0.00835369 -0.00977233
vn -0.491217 -0.833873 -0.251719
v -0.0335687 0.0012438 0.0113457
vn 0.0074888 -0.217159 0.976108
v -0.0293643 -0.000251359 -0.00774716
vn -0.0993927 -0.299061 -0.949044
v -0.0294571 -0.00454612 -0.00400097
vn -0.105033 -0.878657 -0.465757
v -0.034191 -0.00360954 -0.00335826
vn -0.227692 -0.794213 -0.563367
v -0.0344714 0.000692126 -0.00711093
vn -0.155357 -0.238443 -0.95865
v -0.00450521 -0.00786377 0.00182989
vn -0.29194 -0.938216 0.185803
v -0.00246815 -0.00613356 0.00779059
vn -0.246207 -0.754585 0.608263
v -0.00951179 -0.00490092 0.00704215
vn -0.0582062 -0.855034 0.515295
v -0.0101279 -0.00594632 0.00128387
vn -0.0987545 -0.993509 0.0564534
v -0.00365274 -0.000393526 0.0111728
vn -0.174856 -0.31515 0.932795
v -0.00987845 0.000215082 0.0108042
vn 0.009416 -0.324997 0.945668
v -0.0293129 0.00636859 -0.00794821
vn -0.0584195 0.294919 -0.953735
v -0.0292963 0.0128085 -0.00374704
vn -0.0555375 0.816597 -0.57453
v -0.0141697 0.0120049 -0.0057525
vn -0.0509475 0.743479 -0.666816
v -0.0162051 0.00469795 -0.00854871
vn -0.0331408 0.112399 -0.99311
v -0.00528847 0.005516 -0.0133776
vn -0.732557 0.592778 -0.334626
v -0.0030163 0.0115657 -0.007635
vn -0.259035 0.685203 -0.680733
v -0.028612 0.00160018 0.0115333
vn 0.00219214 -0.211684 0.977336
v -0.0286607 -0.00617595 0.00249193
vn -0.0426475 -0.997943 0.0478631
v -0.0284913 -0.00402792 0.00851421
vn -0.0403886 -0.73192 0.680193
v -0.0298161 0.0135254 0.00191402
vn -0.0339065 0.999399 0.00716895
v -0.0350798 0.0124742 -0.00344239
vn -0.0764263 0.855423 -0.512261
v -0.034649 0.00676862 -0.00737858
vn -0.0787892 0.398342 -0.913847
v -0.00387448 0.00606561 0.0105886
vn -0.047457 0.301195 0.952381
v 0.00379134 0.0115192 0.00767994
vn -0.0624539 0.774042 0.630046
v -0.00431253 0.0118589 0.00645934
vn 0.00909627 0.783946 0.620762
v -0.0118084 0.0142688 0.00081621
vn -0.0218355 0.992471 0.120514
v -0.00838921 0.000567838 -0.013793
vn -0.987124 0.0519908 -0.151272
v -0.00895409 0.00337747 -0.00914121
vn -0.329656 0.265182 -0.906093
v -0.00368194 0.0145267 0.000212823
vn -0.0260195 0.999226 -0.0295035
f 10//10 11//11 13//13
f 13//13 11//11 12//12
f 15//15 16//16 14//14
f 14//14 16//16 17//17
f 21//21 22//22 20//20
f 20//20 22//22 23//23
f 25//25 26//26 24//24
f 24//24 26//26 27//27
f 29//29 26//26 28//28
f 28//28 26//26 25//25
f 31//31 32//32 30//30
f 30//30 32//32 33//33
f 36//36 11//11 19//19
f 19//19 11//11 3//3
f 24//24 27//27 15//15
f 15//15 27//27 16//16
f 22//22 21//21 1//1
f 1//1 21//21 37//37
f 38//38 36//36 2//2
f 2//2 36//36 19//19
f 39//39 31//31 6//6
f 6//6 31//31 40//40
f 30//30 41//41 31//31
f 31//31 41//41 40//40
f 10//10 39//39 4//4
f 4//4 39//39 6//6
f 5//5 24//24 9//9
f 9//9 24//24 15//15
f 5//5 25//25 24//24
f 28//28 25//25 8//8
f 28//28 7//7 42//42
f 42//42 43//43 44//44
f 39//39 10//10 45//45
f 45//45 10//10 13//13
f 34//34 47//47 35//35
f 30//30 33//33 20//20
f 20//20 33//33 17//17
f 43//43 48//48 44//44
f 37//37 38//38 1//1
f 1//1 38//38 2//2
f 3//3 11//11 4//4
f 4//4 11//11 10//10
f 20//20 23//23 30//30
f 30//30 23//23 41//41
f 47//47 46//46 14//14
f 14//14 18//18 15//15
f 15//15 18//18 9//9
f 45//45 48//48 32//32
f 32//32 48//48 35//35
f 29//29 12//12 36//36
f 36//36 12//12 11//11
f 13//13 12//12 44//44
f 44//44 12//12 42//42
f 16//16 21//21 17//17
f 17//17 21//21 20//20
f 27//27 26//26 37//37
f 37//37 26//26 38//38
f 26//26 29//29 38//38
f 38//38 29//29 36//36
f 33//33 32//32 47//47
f 47//47 32//32 35//35
f 27//27 37//37 16//16
f 16//16 37//37 21//21
f 13//13 44//44 45//45
f 45//45 44//44 48//48
f 33//33 47//47 17//17
f 17//17 47//47 14//14
f 45//45 32//32 39//39
f 39//39 32//32 31//31
f 12//12 29//29 42//42
f 42//42 29//29 28//28
