solid AssimpScene
 facet normal 0 0 0
  outer loop
  vertex -0.00092618505 0.00362046994 -0.00743674999
  vertex -0.0191454999 -0.000283822999 -0.00738432026
  vertex -0.0239825994 0.00154534995 -0.00511881988
  endloop
 endfacet

 facet normal 0 0 0
  outer loop
  vertex -0.00092618505 0.00362046994 -0.00743674999
  vertex -0.0239825994 0.00154534995 -0.00511881988
  vertex -0.0202888995 0.00394792017 -0.00367596
  endloop
 endfacet

 facet normal 0 0 0
  outer loop
  vertex -0.00092618505 0.00362046994 -0.00743674999
  vertex -0.0202888995 0.00394792017 -0.00367596
  vertex -0.00801023003 0.00596390991 -0.00420702994
  endloop
 endfacet

 facet normal 0 0 0
  outer loop
  vertex 0.00165476999 -0.00316852005 0.0071708099
  vertex 0.00262828008 -0.0069514201 -0.00239338004
  vertex 0.000973887974 0.00784128066 0.00111715996
  endloop
 endfacet

 facet normal 0 0 0
  outer loop
  vertex -0.000126972984 0.0050659501 0.00652805017
  vertex 0.00165476999 -0.00316852005 0.0071708099
  vertex 0.000973887974 0.00784128066 0.00111715996
  endloop
 endfacet

 facet normal 0 0 0
  outer loop
  vertex -0.0131812003 -0.00748143066 -0.00228086999
  vertex -0.0201900005 -0.00594234001 0.000379291014
  vertex -0.021810798 -0.00327683031 -0.00542607019
  endloop
 endfacet

 facet normal 0 0 0
  outer loop
  vertex -0.0131812003 -0.00748143066 -0.00228086999
  vertex 0.00138829998 -0.00536252977 -0.00624402007
  vertex 0.00262828008 -0.0069514201 -0.00239338004
  endloop
 endfacet

 facet normal 0 0 0
  outer loop
  vertex -0.00801023003 0.00596390991 -0.00420702994
  vertex -0.0207774006 0.00460478989 7.8813202e-05
  vertex 0.000973887974 0.00784128066 0.00111715996
  endloop
 endfacet

 facet normal 0 0 0
  outer loop
  vertex -0.0193457007 0.000975840085 0.00649537984
  vertex -0.00485499017 0.00037413399 0.00844351109
  vertex -0.000126972984 0.0050659501 0.00652805017
  endloop
 endfacet

 facet normal 0 0 0
  outer loop
  vertex -0.0193457007 0.000975840085 0.00649537984
  vertex -0.0232628006 0.000717797084 0.00404933002
  vertex -0.0226403996 -0.00201914995 0.00334904017
  endloop
 endfacet

 facet normal 0 0 0
  outer loop
  vertex -0.0193457007 0.000975840085 0.00649537984
  vertex -0.0226403996 -0.00201914995 0.00334904017
  vertex -0.0186712984 -0.00209960993 0.00574530987
  endloop
 endfacet

 facet normal 0 0 0
  outer loop
  vertex -0.00134168996 -0.00614643982 0.00389330997
  vertex -0.0134616001 -0.00665608048 0.00237848028
  vertex -0.0131812003 -0.00748143066 -0.00228086999
  endloop
 endfacet

 facet normal 0 0 0
  outer loop
  vertex -0.00134168996 -0.00614643982 0.00389330997
  vertex -0.0131812003 -0.00748143066 -0.00228086999
  vertex 0.00262828008 -0.0069514201 -0.00239338004
  endloop
 endfacet

 facet normal 0 0 0
  outer loop
  vertex -0.00134168996 -0.00614643982 0.00389330997
  vertex 0.00262828008 -0.0069514201 -0.00239338004
  vertex 0.00165476999 -0.00316852005 0.0071708099
  endloop
 endfacet

 facet normal 0 0 0
  outer loop
  vertex 0.000316277001 0.00654927036 -0.00452439021
  vertex -0.00092618505 0.00362046994 -0.00743674999
  vertex -0.00801023003 0.00596390991 -0.00420702994
  endloop
 endfacet

 facet normal 0 0 0
  outer loop
  vertex 0.000316277001 0.00654927036 -0.00452439021
  vertex -0.00801023003 0.00596390991 -0.00420702994
  vertex 0.000973887974 0.00784128066 0.00111715996
  endloop
 endfacet

 facet normal 0 0 0
  outer loop
  vertex 0.000316277001 0.00654927036 -0.00452439021
  vertex 0.000973887974 0.00784128066 0.00111715996
  vertex 0.00262828008 -0.0069514201 -0.00239338004
  endloop
 endfacet

 facet normal 0 0 0
  outer loop
  vertex 0.000316277001 0.00654927036 -0.00452439021
  vertex 0.00262828008 -0.0069514201 -0.00239338004
  vertex 0.00138829998 -0.00536252977 -0.00624402007
  endloop
 endfacet

 facet normal 0 0 0
  outer loop
  vertex 0.000316277001 0.00654927036 -0.00452439021
  vertex 0.00138829998 -0.00536252977 -0.00624402007
  vertex -0.00092618505 0.00362046994 -0.00743674999
  endloop
 endfacet

 facet normal 0 0 0
  outer loop
  vertex 0.000115267991 0.000895941979 0.00833711959
  vertex 0.00165476999 -0.00316852005 0.0071708099
  vertex -0.000126972984 0.0050659501 0.00652805017
  endloop
 endfacet

 facet normal 0 0 0
  outer loop
  vertex 0.000115267991 0.000895941979 0.00833711959
  vertex -0.000126972984 0.0050659501 0.00652805017
  vertex -0.00485499017 0.00037413399 0.00844351109
  endloop
 endfacet

 facet normal 0 0 0
  outer loop
  vertex 0.000115267991 0.000895941979 0.00833711959
  vertex -0.00485499017 0.00037413399 0.00844351109
  vertex 0.00165476999 -0.00316852005 0.0071708099
  endloop
 endfacet

 facet normal 0 0 0
  outer loop
  vertex -0.00131911004 -3.05678986e-05 -0.00819179043
  vertex -0.00092618505 0.00362046994 -0.00743674999
  vertex 0.00138829998 -0.00536252977 -0.00624402007
  endloop
 endfacet

 facet normal 0 0 0
  outer loop
  vertex -0.0233954974 0.00300688995 0.00287376996
  vertex -0.0254820008 0.00118407002 -0.00050150702
  vertex -0.0232628006 0.000717797084 0.00404933002
  endloop
 endfacet

 facet normal 0 0 0
  outer loop
  vertex -0.0233954974 0.00300688995 0.00287376996
  vertex -0.0232628006 0.000717797084 0.00404933002
  vertex -0.0193457007 0.000975840085 0.00649537984
  endloop
 endfacet

 facet normal 0 0 0
  outer loop
  vertex -0.0233954974 0.00300688995 0.00287376996
  vertex -0.0193457007 0.000975840085 0.00649537984
  vertex -0.0207240991 0.00316603994 0.0039784899
  endloop
 endfacet

 facet normal 0 0 0
  outer loop
  vertex -0.0231053997 -0.00367086031 -0.00192677998
  vertex -0.0254820008 0.00118407002 -0.00050150702
  vertex -0.0239825994 0.00154534995 -0.00511881988
  endloop
 endfacet

 facet normal 0 0 0
  outer loop
  vertex -0.0231053997 -0.00367086031 -0.00192677998
  vertex -0.0239825994 0.00154534995 -0.00511881988
  vertex -0.021810798 -0.00327683031 -0.00542607019
  endloop
 endfacet

 facet normal 0 0 0
  outer loop
  vertex -0.0231053997 -0.00367086031 -0.00192677998
  vertex -0.021810798 -0.00327683031 -0.00542607019
  vertex -0.0201900005 -0.00594234001 0.000379291014
  endloop
 endfacet

 facet normal 0 0 0
  outer loop
  vertex -0.0134090995 -0.0041265199 0.00582698034
  vertex -0.00134168996 -0.00614643982 0.00389330997
  vertex 0.00165476999 -0.00316852005 0.0071708099
  endloop
 endfacet

 facet normal 0 0 0
  outer loop
  vertex -0.0134090995 -0.0041265199 0.00582698034
  vertex -0.0186712984 -0.00209960993 0.00574530987
  vertex -0.0201900005 -0.00594234001 0.000379291014
  endloop
 endfacet

 facet normal 0 0 0
  outer loop
  vertex -0.0129727991 -0.00499235978 -0.00670544012
  vertex 0.00138829998 -0.00536252977 -0.00624402007
  vertex -0.0131812003 -0.00748143066 -0.00228086999
  endloop
 endfacet

 facet normal 0 0 0
  outer loop
  vertex -0.0129727991 -0.00499235978 -0.00670544012
  vertex -0.0131812003 -0.00748143066 -0.00228086999
  vertex -0.021810798 -0.00327683031 -0.00542607019
  endloop
 endfacet

 facet normal 0 0 0
  outer loop
  vertex -0.0129727991 -0.00499235978 -0.00670544012
  vertex -0.021810798 -0.00327683031 -0.00542607019
  vertex -0.0181884989 -0.00273170019 -0.00721784029
  endloop
 endfacet

 facet normal 0 0 0
  outer loop
  vertex -0.0129727991 -0.00499235978 -0.00670544012
  vertex -0.0181884989 -0.00273170019 -0.00721784029
  vertex -0.00131911004 -3.05678986e-05 -0.00819179043
  endloop
 endfacet

 facet normal 0 0 0
  outer loop
  vertex -0.0129727991 -0.00499235978 -0.00670544012
  vertex -0.00131911004 -3.05678986e-05 -0.00819179043
  vertex 0.00138829998 -0.00536252977 -0.00624402007
  endloop
 endfacet

 facet normal 0 0 0
  outer loop
  vertex -0.0191454999 -0.000283822999 -0.00738432026
  vertex -0.0181884989 -0.00273170019 -0.00721784029
  vertex -0.021810798 -0.00327683031 -0.00542607019
  endloop
 endfacet

 facet normal 0 0 0
  outer loop
  vertex -0.0191454999 -0.000283822999 -0.00738432026
  vertex -0.021810798 -0.00327683031 -0.00542607019
  vertex -0.0239825994 0.00154534995 -0.00511881988
  endloop
 endfacet

 facet normal 0 0 0
  outer loop
  vertex -0.0191454999 -0.000283822999 -0.00738432026
  vertex -0.00092618505 0.00362046994 -0.00743674999
  vertex -0.00131911004 -3.05678986e-05 -0.00819179043
  endloop
 endfacet

 facet normal 0 0 0
  outer loop
  vertex -0.0191454999 -0.000283822999 -0.00738432026
  vertex -0.00131911004 -3.05678986e-05 -0.00819179043
  vertex -0.0181884989 -0.00273170019 -0.00721784029
  endloop
 endfacet

 facet normal 0 0 0
  outer loop
  vertex -0.0236220006 0.00364903011 -0.000410326989
  vertex -0.0254820008 0.00118407002 -0.00050150702
  vertex -0.0233954974 0.00300688995 0.00287376996
  endloop
 endfacet

 facet normal 0 0 0
  outer loop
  vertex -0.0236220006 0.00364903011 -0.000410326989
  vertex -0.0233954974 0.00300688995 0.00287376996
  vertex -0.0207774006 0.00460478989 7.8813202e-05
  endloop
 endfacet

 facet normal 0 0 0
  outer loop
  vertex -0.0236220006 0.00364903011 -0.000410326989
  vertex -0.0239825994 0.00154534995 -0.00511881988
  vertex -0.0254820008 0.00118407002 -0.00050150702
  endloop
 endfacet

 facet normal 0 0 0
  outer loop
  vertex -0.0134616001 -0.00665608048 0.00237848028
  vertex -0.00134168996 -0.00614643982 0.00389330997
  vertex -0.0134090995 -0.0041265199 0.00582698034
  endloop
 endfacet

 facet normal 0 0 0
  outer loop
  vertex -0.0134616001 -0.00665608048 0.00237848028
  vertex -0.0134090995 -0.0041265199 0.00582698034
  vertex -0.0201900005 -0.00594234001 0.000379291014
  endloop
 endfacet

 facet normal 0 0 0
  outer loop
  vertex -0.0134616001 -0.00665608048 0.00237848028
  vertex -0.0201900005 -0.00594234001 0.000379291014
  vertex -0.0131812003 -0.00748143066 -0.00228086999
  endloop
 endfacet

 facet normal 0 0 0
  outer loop
  vertex -0.0110497996 0.00514910044 0.00493871002
  vertex -0.0207240991 0.00316603994 0.0039784899
  vertex -0.0193457007 0.000975840085 0.00649537984
  endloop
 endfacet

 facet normal 0 0 0
  outer loop
  vertex -0.0110497996 0.00514910044 0.00493871002
  vertex -0.0193457007 0.000975840085 0.00649537984
  vertex -0.000126972984 0.0050659501 0.00652805017
  endloop
 endfacet

 facet normal 0 0 0
  outer loop
  vertex -0.0110497996 0.00514910044 0.00493871002
  vertex -0.000126972984 0.0050659501 0.00652805017
  vertex 0.000973887974 0.00784128066 0.00111715996
  endloop
 endfacet

 facet normal 0 0 0
  outer loop
  vertex -0.0110497996 0.00514910044 0.00493871002
  vertex 0.000973887974 0.00784128066 0.00111715996
  vertex -0.0207774006 0.00460478989 7.8813202e-05
  endloop
 endfacet

 facet normal 0 0 0
  outer loop
  vertex -0.0110497996 0.00514910044 0.00493871002
  vertex -0.0207774006 0.00460478989 7.8813202e-05
  vertex -0.0233954974 0.00300688995 0.00287376996
  endloop
 endfacet

 facet normal 0 0 0
  outer loop
  vertex -0.0110497996 0.00514910044 0.00493871002
  vertex -0.0233954974 0.00300688995 0.00287376996
  vertex -0.0207240991 0.00316603994 0.0039784899
  endloop
 endfacet

 facet normal 0 0 0
  outer loop
  vertex -0.0132721001 -0.000513062987 0.00785677042
  vertex -0.00485499017 0.00037413399 0.00844351109
  vertex -0.0193457007 0.000975840085 0.00649537984
  endloop
 endfacet

 facet normal 0 0 0
  outer loop
  vertex -0.0132721001 -0.000513062987 0.00785677042
  vertex -0.0193457007 0.000975840085 0.00649537984
  vertex -0.0186712984 -0.00209960993 0.00574530987
  endloop
 endfacet

 facet normal 0 0 0
  outer loop
  vertex -0.0132721001 -0.000513062987 0.00785677042
  vertex -0.0186712984 -0.00209960993 0.00574530987
  vertex -0.0134090995 -0.0041265199 0.00582698034
  endloop
 endfacet

 facet normal 0 0 0
  outer loop
  vertex -0.0132721001 -0.000513062987 0.00785677042
  vertex -0.0134090995 -0.0041265199 0.00582698034
  vertex 0.00165476999 -0.00316852005 0.0071708099
  endloop
 endfacet

 facet normal 0 0 0
  outer loop
  vertex -0.0132721001 -0.000513062987 0.00785677042
  vertex 0.00165476999 -0.00316852005 0.0071708099
  vertex -0.00485499017 0.00037413399 0.00844351109
  endloop
 endfacet

 facet normal 0 0 0
  outer loop
  vertex -0.0226403996 -0.00201914995 0.00334904017
  vertex -0.0232628006 0.000717797084 0.00404933002
  vertex -0.0254820008 0.00118407002 -0.00050150702
  endloop
 endfacet

 facet normal 0 0 0
  outer loop
  vertex -0.0226403996 -0.00201914995 0.00334904017
  vertex -0.0254820008 0.00118407002 -0.00050150702
  vertex -0.0231053997 -0.00367086031 -0.00192677998
  endloop
 endfacet

 facet normal 0 0 0
  outer loop
  vertex -0.0226403996 -0.00201914995 0.00334904017
  vertex -0.0231053997 -0.00367086031 -0.00192677998
  vertex -0.0201900005 -0.00594234001 0.000379291014
  endloop
 endfacet

 facet normal 0 0 0
  outer loop
  vertex -0.0226403996 -0.00201914995 0.00334904017
  vertex -0.0201900005 -0.00594234001 0.000379291014
  vertex -0.0186712984 -0.00209960993 0.00574530987
  endloop
 endfacet

 facet normal 0 0 0
  outer loop
  vertex -0.0202888995 0.00394792017 -0.00367596
  vertex -0.0207774006 0.00460478989 7.8813202e-05
  vertex -0.00801023003 0.00596390991 -0.00420702994
  endloop
 endfacet

 facet normal 0 0 0
  outer loop
  vertex -0.0202888995 0.00394792017 -0.00367596
  vertex -0.0239825994 0.00154534995 -0.00511881988
  vertex -0.0236220006 0.00364903011 -0.000410326989
  endloop
 endfacet

 facet normal 0 0 0
  outer loop
  vertex -0.0202888995 0.00394792017 -0.00367596
  vertex -0.0236220006 0.00364903011 -0.000410326989
  vertex -0.0207774006 0.00460478989 7.8813202e-05
  endloop
 endfacet

endsolid AssimpScene
