solid AssimpScene
 facet normal 0 0 0
  outer loop
  vertex -0.0364247002 0.00290563004 0.00264451024
  vertex -0.0359925963 0.00866439007 0.000664384977
  vertex -0.0344141982 0.0093516903 -0.0123036001
  endloop
 endfacet

 facet normal 0 0 0
  outer loop
  vertex -0.0364247002 0.00290563004 0.00264451024
  vertex -0.0344141982 0.0093516903 -0.0123036001
  vertex -0.0352164991 -0.00601118011 -0.0077817901
  endloop
 endfacet

 facet normal 0 0 0
  outer loop
  vertex -0.0364247002 0.00290563004 0.00264451024
  vertex -0.0352164991 -0.00601118011 -0.0077817901
  vertex -0.0363723002 -0.00201765005 0.00127859996
  endloop
 endfacet

 facet normal 0 0 0
  outer loop
  vertex 0.0051058894 0.00754061947 0.0102781001
  vertex -0.00239089993 -0.000343927008 0.0149023002
  vertex 0.00136250991 -0.00836873986 0.00989115983
  endloop
 endfacet

 facet normal 0 0 0
  outer loop
  vertex -0.0344141982 0.0093516903 -0.0123036001
  vertex -0.0349385999 0.0113770999 -0.00521328067
  vertex 0.00609005941 0.0142131001 -0.000142624005
  endloop
 endfacet

 facet normal 0 0 0
  outer loop
  vertex -0.0359925963 0.00866439007 0.000664384977
  vertex -0.0364247002 0.00290563004 0.00264451024
  vertex -0.00239089993 -0.000343927008 0.0149023002
  endloop
 endfacet

 facet normal 0 0 0
  outer loop
  vertex -0.0359925963 0.00866439007 0.000664384977
  vertex -0.0349385999 0.0113770999 -0.00521328067
  vertex -0.0344141982 0.0093516903 -0.0123036001
  endloop
 endfacet

 facet normal 0 0 0
  outer loop
  vertex -0.0352164991 -0.00601118011 -0.0077817901
  vertex -0.0344141982 0.0093516903 -0.0123036001
  vertex -0.0295580998 0.00426407019 -0.0157014001
  endloop
 endfacet

 facet normal 0 0 0
  outer loop
  vertex -0.0352164991 -0.00601118011 -0.0077817901
  vertex -0.0295580998 0.00426407019 -0.0157014001
  vertex -0.0294521973 -0.00131289999 -0.0145590007
  endloop
 endfacet

 facet normal 0 0 0
  outer loop
  vertex 0.00414136006 -0.00313874986 -0.0113434009
  vertex 0.00558477966 0.0100375004 -0.00803019013
  vertex 0.00491836015 -0.00974430982 -0.00918675028
  endloop
 endfacet

 facet normal 0 0 0
  outer loop
  vertex 0.00414136006 -0.00313874986 -0.0113434009
  vertex 0.00491836015 -0.00974430982 -0.00918675028
  vertex -0.0294521973 -0.00131289999 -0.0145590007
  endloop
 endfacet

 facet normal 0 0 0
  outer loop
  vertex 0.00414136006 -0.00313874986 -0.0113434009
  vertex -0.0294521973 -0.00131289999 -0.0145590007
  vertex -0.0295580998 0.00426407019 -0.0157014001
  endloop
 endfacet

 facet normal 0 0 0
  outer loop
  vertex 0.00511382986 -0.0103403004 0.000486683042
  vertex 0.00491836015 -0.00974430982 -0.00918675028
  vertex 0.00558477966 0.0100375004 -0.00803019013
  endloop
 endfacet

 facet normal 0 0 0
  outer loop
  vertex 0.00511382986 -0.0103403004 0.000486683042
  vertex 0.00558477966 0.0100375004 -0.00803019013
  vertex 0.00609005941 0.0142131001 -0.000142624005
  endloop
 endfacet

 facet normal 0 0 0
  outer loop
  vertex 0.00511382986 -0.0103403004 0.000486683042
  vertex 0.00609005941 0.0142131001 -0.000142624005
  vertex 0.0051058894 0.00754061947 0.0102781001
  endloop
 endfacet

 facet normal 0 0 0
  outer loop
  vertex 0.00511382986 -0.0103403004 0.000486683042
  vertex 0.0051058894 0.00754061947 0.0102781001
  vertex 0.00136250991 -0.00836873986 0.00989115983
  endloop
 endfacet

 facet normal 0 0 0
  outer loop
  vertex -0.0240220986 0.00909177028 -0.0132334996
  vertex -0.0295580998 0.00426407019 -0.0157014001
  vertex -0.0344141982 0.0093516903 -0.0123036001
  endloop
 endfacet

 facet normal 0 0 0
  outer loop
  vertex -0.0240220986 0.00909177028 -0.0132334996
  vertex -0.0344141982 0.0093516903 -0.0123036001
  vertex 0.00609005941 0.0142131001 -0.000142624005
  endloop
 endfacet

 facet normal 0 0 0
  outer loop
  vertex -0.0240220986 0.00909177028 -0.0132334996
  vertex 0.00609005941 0.0142131001 -0.000142624005
  vertex 0.00558477966 0.0100375004 -0.00803019013
  endloop
 endfacet

 facet normal 0 0 0
  outer loop
  vertex -0.0363723002 -0.00201765005 0.00127859996
  vertex -0.0352164991 -0.00601118011 -0.0077817901
  vertex -0.0358697996 -0.00497817993 -0.00159244996
  endloop
 endfacet

 facet normal 0 0 0
  outer loop
  vertex -0.0363723002 -0.00201765005 0.00127859996
  vertex -0.0358697996 -0.00497817993 -0.00159244996
  vertex 0.00136250991 -0.00836873986 0.00989115983
  endloop
 endfacet

 facet normal 0 0 0
  outer loop
  vertex -0.0363723002 -0.00201765005 0.00127859996
  vertex 0.00136250991 -0.00836873986 0.00989115983
  vertex -0.00239089993 -0.000343927008 0.0149023002
  endloop
 endfacet

 facet normal 0 0 0
  outer loop
  vertex -0.0363723002 -0.00201765005 0.00127859996
  vertex -0.00239089993 -0.000343927008 0.0149023002
  vertex -0.0364247002 0.00290563004 0.00264451024
  endloop
 endfacet

 facet normal 0 0 0
  outer loop
  vertex -0.0265018977 0.0108522 0.00115044997
  vertex 0.00609005941 0.0142131001 -0.000142624005
  vertex -0.0349385999 0.0113770999 -0.00521328067
  endloop
 endfacet

 facet normal 0 0 0
  outer loop
  vertex -0.0265018977 0.0108522 0.00115044997
  vertex -0.0349385999 0.0113770999 -0.00521328067
  vertex -0.0359925963 0.00866439007 0.000664384977
  endloop
 endfacet

 facet normal 0 0 0
  outer loop
  vertex -0.0265018977 0.0108522 0.00115044997
  vertex -0.0359925963 0.00866439007 0.000664384977
  vertex -0.00239089993 -0.000343927008 0.0149023002
  endloop
 endfacet

 facet normal 0 0 0
  outer loop
  vertex -0.0265018977 0.0108522 0.00115044997
  vertex -0.00239089993 -0.000343927008 0.0149023002
  vertex 0.0051058894 0.00754061947 0.0102781001
  endloop
 endfacet

 facet normal 0 0 0
  outer loop
  vertex -0.0265018977 0.0108522 0.00115044997
  vertex 0.0051058894 0.00754061947 0.0102781001
  vertex 0.00609005941 0.0142131001 -0.000142624005
  endloop
 endfacet

 facet normal 0 0 0
  outer loop
  vertex 0.00276225968 0.00342877 -0.0110670999
  vertex 0.00558477966 0.0100375004 -0.00803019013
  vertex 0.00414136006 -0.00313874986 -0.0113434009
  endloop
 endfacet

 facet normal 0 0 0
  outer loop
  vertex 0.00276225968 0.00342877 -0.0110670999
  vertex 0.00414136006 -0.00313874986 -0.0113434009
  vertex -0.0295580998 0.00426407019 -0.0157014001
  endloop
 endfacet

 facet normal 0 0 0
  outer loop
  vertex 0.00276225968 0.00342877 -0.0110670999
  vertex -0.0295580998 0.00426407019 -0.0157014001
  vertex -0.0240220986 0.00909177028 -0.0132334996
  endloop
 endfacet

 facet normal 0 0 0
  outer loop
  vertex 0.00276225968 0.00342877 -0.0110670999
  vertex -0.0240220986 0.00909177028 -0.0132334996
  vertex 0.00558477966 0.0100375004 -0.00803019013
  endloop
 endfacet

 facet normal 0 0 0
  outer loop
  vertex -0.0252110977 -0.00764663005 -0.00359556032
  vertex -0.0352164991 -0.00601118011 -0.0077817901
  vertex 0.00491836015 -0.00974430982 -0.00918675028
  endloop
 endfacet

 facet normal 0 0 0
  outer loop
  vertex -0.0252110977 -0.00764663005 -0.00359556032
  vertex 0.00491836015 -0.00974430982 -0.00918675028
  vertex 0.00511382986 -0.0103403004 0.000486683042
  endloop
 endfacet

 facet normal 0 0 0
  outer loop
  vertex -0.0252110977 -0.00764663005 -0.00359556032
  vertex 0.00511382986 -0.0103403004 0.000486683042
  vertex 0.00136250991 -0.00836873986 0.00989115983
  endloop
 endfacet

 facet normal 0 0 0
  outer loop
  vertex -0.0252110977 -0.00764663005 -0.00359556032
  vertex 0.00136250991 -0.00836873986 0.00989115983
  vertex -0.0358697996 -0.00497817993 -0.00159244996
  endloop
 endfacet

 facet normal 0 0 0
  outer loop
  vertex -0.0252110977 -0.00764663005 -0.00359556032
  vertex -0.0358697996 -0.00497817993 -0.00159244996
  vertex -0.0352164991 -0.00601118011 -0.0077817901
  endloop
 endfacet

 facet normal 0 0 0
  outer loop
  vertex -0.0296906978 -0.00532016018 -0.0108596003
  vertex -0.0352164991 -0.00601118011 -0.0077817901
  vertex -0.0294521973 -0.00131289999 -0.0145590007
  endloop
 endfacet

 facet normal 0 0 0
  outer loop
  vertex -0.0296906978 -0.00532016018 -0.0108596003
  vertex -0.0294521973 -0.00131289999 -0.0145590007
  vertex 0.00491836015 -0.00974430982 -0.00918675028
  endloop
 endfacet

 facet normal 0 0 0
  outer loop
  vertex -0.0296906978 -0.00532016018 -0.0108596003
  vertex 0.00491836015 -0.00974430982 -0.00918675028
  vertex -0.0352164991 -0.00601118011 -0.0077817901
  endloop
 endfacet

endsolid AssimpScene
