# Created by Open3D 
# object name: middle_mcp
# number of vertices: 49
# number of triangles: 71
v 0.00491836 -0.00974431 -0.00918675
vn -0.360131 -0.869756 -0.337389
v 0.00127472 0.00179461 0.0106659
vn -0.616497 0.283424 0.734577
v 0.00510589 0.00754062 0.0102781
vn -0.208719 0.6241 0.752951
v 0.00136251 -0.00836874 0.00989116
vn -0.57232 -0.806516 0.148262
v 0.00112995 -0.00446241 -0.0104135
vn -0.373185 -0.277925 -0.88515
v 0.00414136 -0.00313875 -0.0113434
vn -0.286975 -0.0199594 -0.95773
v -0.00182601 -0.00315356 0.0102505
vn -0.930558 -0.0238889 0.365363
v -0.0023909 -0.000343927 0.0149023
vn -0.760863 0.510429 -0.400687
v 0.00558478 0.0100375 -0.00803019
vn 0.0849774 0.781056 -0.618652
v 0.00609006 0.0142131 -0.000142624
vn -0.0505062 0.976949 0.207414
v 0.00276226 0.00342877 -0.0110671
vn -0.0131736 0.0755311 -0.997056
v 0.00511383 -0.0103403 0.000486683
vn -0.356246 -0.934193 0.0192956
v -0.0358698 -0.00497818 -0.00159245
vn 0.0768464 -0.975152 0.207782
v -0.0352165 -0.00601118 -0.00778179
vn 0.113273 -0.993369 -0.0196611
v -0.0298365 -0.00543372 -0.00596175
vn -0.245215 -0.967699 0.0585481
v -0.0310133 -0.00442525 -0.000793605
vn -0.234339 -0.822304 0.518557
v -0.0359926 0.00866439 0.000664385
vn -0.125355 0.748632 0.651027
v -0.0364247 0.00290563 0.00264451
vn -0.154964 -0.245315 0.956978
v -0.0321132 0.00413557 0.00365795
vn -0.126775 0.199032 0.971758
v -0.0312901 0.00977347 0.000294472
vn -0.169195 0.753627 0.635153
v -0.0349386 0.0113771 -0.00521328
vn -0.10293 0.990209 0.0942985
v -0.0296433 0.0117141 -0.00549677
vn -0.0892366 0.992635 -0.0819289
v -0.0265019 0.0108522 0.00115045
vn -0.121398 0.852296 0.508776
v -0.026685 0.00446091 0.00439306
vn -0.158023 0.268951 0.950102
v -0.00539665 0.00359796 0.00748974
vn -0.211703 0.146105 0.966351
v -0.00563462 0.0105139 0.00474316
vn -0.132877 0.689996 0.711512
v -0.00248135 -0.00780339 -0.00629175
vn -0.120863 -0.964731 -0.233852
v -0.00368625 -0.00470848 -0.00847449
vn 0.0842705 -0.470288 -0.87848
v -0.0363723 -0.00201765 0.0012786
vn -0.0202273 -0.677692 0.735068
v -0.031879 -0.000941474 0.00239442
vn -0.197232 -0.37547 0.905606
v -0.0239119 -0.00386602 -0.0132413
vn 0.143068 -0.467924 -0.872111
v -0.0243649 -0.00729805 -0.00903012
vn -0.0117152 -0.890414 -0.455
v -0.0296907 -0.00532016 -0.0108596
vn -0.118258 -0.906433 -0.405456
v -0.0294522 -0.0013129 -0.014559
vn 0.0135305 -0.383082 -0.923615
v -0.00326017 -0.00505906 0.00551717
vn -0.213511 -0.850653 0.480418
v -0.0018939 -0.00728125 -0.000350427
vn -0.189725 -0.965493 0.178402
v -0.00480028 -0.00153618 0.00709353
vn -0.232359 -0.325411 0.916579
v -0.0238234 0.00248729 -0.0150344
vn 0.154387 0.0922637 -0.983693
v -0.0240221 0.00909177 -0.0132335
vn 0.0579051 0.72467 -0.686659
v -0.00476953 0.0101738 -0.00959125
vn 0.0961697 0.66444 -0.741129
v -0.00502977 0.00355794 -0.0115916
vn 0.165702 -0.115752 -0.979359
v -0.0267262 -0.00128169 0.00415227
vn -0.182924 -0.276607 0.943413
v -0.0252111 -0.00764663 -0.00359556
vn -0.0607439 -0.983669 0.169428
v -0.0260392 -0.00600686 0.00111582
vn -0.177528 -0.739961 0.6488
v -0.024931 0.0122397 -0.00581608
vn -0.0298291 0.975885 -0.216238
v -0.0295968 0.00943654 -0.0129585
vn 0.0137403 0.718891 -0.694987
v -0.0295581 0.00426407 -0.0157014
vn 0.0715008 0.251228 -0.965283
v -0.0344142 0.00935169 -0.0123036
vn -0.127342 0.463929 -0.876672
v -0.00501629 0.0134367 -0.00247377
vn -0.0313525 0.998777 -0.0382214
f 7//7 8//8 2//2
f 5//5 11//11 6//6
f 13//13 15//15 16//16
f 17//17 19//19 20//20
f 17//17 20//20 21//21
f 21//21 20//20 22//22
f 23//23 24//24 26//26
f 26//26 24//24 25//25
f 1//1 27//27 5//5
f 5//5 27//27 28//28
f 18//18 30//30 19//19
f 32//32 33//33 31//31
f 31//31 33//33 34//34
f 12//12 4//4 36//36
f 36//36 4//4 35//35
f 37//37 35//35 7//7
f 7//7 35//35 4//4
f 39//39 40//40 38//38
f 38//38 40//40 41//41
f 42//42 24//24 30//30
f 30//30 24//24 19//19
f 1//1 12//12 27//27
f 27//27 12//12 36//36
f 33//33 32//32 15//15
f 15//15 32//32 43//43
f 44//44 42//42 16//16
f 16//16 42//42 30//30
f 45//45 39//39 22//22
f 22//22 39//39 46//46
f 39//39 38//38 46//46
f 46//46 38//38 47//47
f 46//46 21//21 22//22
f 45//45 22//22 23//23
f 23//23 22//22 20//20
f 45//45 23//23 49//49
f 49//49 23//23 26//26
f 38//38 41//41 31//31
f 31//31 41//41 28//28
f 29//29 16//16 30//30
f 43//43 44//44 15//15
f 15//15 44//44 16//16
f 19//19 24//24 20//20
f 20//20 24//24 23//23
f 31//31 34//34 38//38
f 38//38 34//34 47//47
f 10//10 9//9 49//49
f 49//49 9//9 40//40
f 37//37 25//25 42//42
f 42//42 25//25 24//24
f 47//47 48//48 46//46
f 14//14 33//33 15//15
f 26//26 25//25 3//3
f 3//3 25//25 2//2
f 27//27 32//32 28//28
f 28//28 32//32 31//31
f 36//36 35//35 43//43
f 43//43 35//35 44//44
f 35//35 37//37 44//44
f 44//44 37//37 42//42
f 41//41 40//40 11//11
f 11//11 40//40 9//9
f 36//36 43//43 27//27
f 27//27 43//43 32//32
f 49//49 26//26 10//10
f 10//10 26//26 3//3
f 41//41 11//11 28//28
f 28//28 11//11 5//5
f 49//49 40//40 45//45
f 45//45 40//40 39//39
f 25//25 37//37 2//2
f 2//2 37//37 7//7
