solid AssimpScene
 facet normal 0 0 0
  outer loop
  vertex 0.00217572972 0.00837561022 0.00235169008
  vertex -8.88220893e-05 0.00492243003 0.00782836974
  vertex -0.00138239993 -0.000570235017 0.00853427965
  endloop
 endfacet

 facet normal 0 0 0
  outer loop
  vertex 0.00217572972 0.00837561022 0.00235169008
  vertex -0.00138239993 -0.000570235017 0.00853427965
  vertex -0.000601741951 -0.00640498009 0.00318016973
  endloop
 endfacet

 facet normal 0 0 0
  outer loop
  vertex -0.0230133999 0.00499605993 -0.00692733983
  vertex 0.00145481003 0.00402888004 -0.00665443996
  vertex -0.0187063981 -0.000127437001 -0.0108861001
  endloop
 endfacet

 facet normal 0 0 0
  outer loop
  vertex -8.88220893e-05 0.00492243003 0.00782836974
  vertex -0.00614458974 0.00026405399 0.00799631979
  vertex -0.00138239993 -0.000570235017 0.00853427965
  endloop
 endfacet

 facet normal 0 0 0
  outer loop
  vertex -0.0231705997 -8.87256974e-05 -0.00978429895
  vertex -0.0230133999 0.00499605993 -0.00692733983
  vertex -0.0187063981 -0.000127437001 -0.0108861001
  endloop
 endfacet

 facet normal 0 0 0
  outer loop
  vertex -0.000601741951 -0.00640498009 0.00318016973
  vertex -0.00379701005 -0.00694378 0.00273855007
  vertex 0.000327996997 -0.00686111022 -0.0022030999
  endloop
 endfacet

 facet normal 0 0 0
  outer loop
  vertex -0.000601741951 -0.00640498009 0.00318016973
  vertex 0.000327996997 -0.00686111022 -0.0022030999
  vertex 0.00217572972 0.00837561022 0.00235169008
  endloop
 endfacet

 facet normal 0 0 0
  outer loop
  vertex -0.0256918985 0.00384680997 -0.0041364301
  vertex -0.0259145983 0.000632828975 -0.00533070974
  vertex -0.0253887009 -0.000829776924 -0.00139668002
  endloop
 endfacet

 facet normal 0 0 0
  outer loop
  vertex -0.0256918985 0.00384680997 -0.0041364301
  vertex -0.0253887009 -0.000829776924 -0.00139668002
  vertex -0.0252244975 0.00173977995 0.000282113004
  endloop
 endfacet

 facet normal 0 0 0
  outer loop
  vertex -0.0256918985 0.00384680997 -0.0041364301
  vertex -0.0252244975 0.00173977995 0.000282113004
  vertex -0.0237719975 0.00392347015 0.000370761962
  endloop
 endfacet

 facet normal 0 0 0
  outer loop
  vertex -0.0256918985 0.00384680997 -0.0041364301
  vertex -0.0230133999 0.00499605993 -0.00692733983
  vertex -0.0231705997 -8.87256974e-05 -0.00978429895
  endloop
 endfacet

 facet normal 0 0 0
  outer loop
  vertex -0.0256918985 0.00384680997 -0.0041364301
  vertex -0.0231705997 -8.87256974e-05 -0.00978429895
  vertex -0.0259145983 0.000632828975 -0.00533070974
  endloop
 endfacet

 facet normal 0 0 0
  outer loop
  vertex -0.0209291 0.00173295999 0.00387396989
  vertex -0.0237719975 0.00392347015 0.000370761962
  vertex -0.0252244975 0.00173977995 0.000282113004
  endloop
 endfacet

 facet normal 0 0 0
  outer loop
  vertex -0.0209291 0.00173295999 0.00387396989
  vertex -0.0252244975 0.00173977995 0.000282113004
  vertex -0.0213201009 -0.00143824995 0.00322361011
  endloop
 endfacet

 facet normal 0 0 0
  outer loop
  vertex -0.0209291 0.00173295999 0.00387396989
  vertex -0.0213201009 -0.00143824995 0.00322361011
  vertex -0.00614458974 0.00026405399 0.00799631979
  endloop
 endfacet

 facet normal 0 0 0
  outer loop
  vertex 0.000362283958 -0.000426582003 -0.00794116035
  vertex 0.00145481003 0.00402888004 -0.00665443996
  vertex 0.00065241399 -0.00497599971 -0.00585832959
  endloop
 endfacet

 facet normal 0 0 0
  outer loop
  vertex 0.000362283958 -0.000426582003 -0.00794116035
  vertex -0.0187063981 -0.000127437001 -0.0108861001
  vertex 0.00145481003 0.00402888004 -0.00665443996
  endloop
 endfacet

 facet normal 0 0 0
  outer loop
  vertex 0.00212421967 0.0069934302 -0.00372178992
  vertex 0.00145481003 0.00402888004 -0.00665443996
  vertex -0.0230133999 0.00499605993 -0.00692733983
  endloop
 endfacet

 facet normal 0 0 0
  outer loop
  vertex 0.00212421967 0.0069934302 -0.00372178992
  vertex 0.00217572972 0.00837561022 0.00235169008
  vertex 0.000327996997 -0.00686111022 -0.0022030999
  endloop
 endfacet

 facet normal 0 0 0
  outer loop
  vertex 0.00212421967 0.0069934302 -0.00372178992
  vertex 0.000327996997 -0.00686111022 -0.0022030999
  vertex 0.00065241399 -0.00497599971 -0.00585832959
  endloop
 endfacet

 facet normal 0 0 0
  outer loop
  vertex 0.00212421967 0.0069934302 -0.00372178992
  vertex 0.00065241399 -0.00497599971 -0.00585832959
  vertex 0.00145481003 0.00402888004 -0.00665443996
  endloop
 endfacet

 facet normal 0 0 0
  outer loop
  vertex -0.00495292991 -0.00426359009 0.00650948007
  vertex -0.0213201009 -0.00143824995 0.00322361011
  vertex -0.0149363987 -0.00690635014 -0.000125132006
  endloop
 endfacet

 facet normal 0 0 0
  outer loop
  vertex -0.00495292991 -0.00426359009 0.00650948007
  vertex -0.0149363987 -0.00690635014 -0.000125132006
  vertex -0.00379701005 -0.00694378 0.00273855007
  endloop
 endfacet

 facet normal 0 0 0
  outer loop
  vertex -0.00495292991 -0.00426359009 0.00650948007
  vertex -0.00379701005 -0.00694378 0.00273855007
  vertex -0.000601741951 -0.00640498009 0.00318016973
  endloop
 endfacet

 facet normal 0 0 0
  outer loop
  vertex -0.00495292991 -0.00426359009 0.00650948007
  vertex -0.000601741951 -0.00640498009 0.00318016973
  vertex -0.00138239993 -0.000570235017 0.00853427965
  endloop
 endfacet

 facet normal 0 0 0
  outer loop
  vertex -0.00495292991 -0.00426359009 0.00650948007
  vertex -0.00138239993 -0.000570235017 0.00853427965
  vertex -0.00614458974 0.00026405399 0.00799631979
  endloop
 endfacet

 facet normal 0 0 0
  outer loop
  vertex -0.00495292991 -0.00426359009 0.00650948007
  vertex -0.00614458974 0.00026405399 0.00799631979
  vertex -0.0213201009 -0.00143824995 0.00322361011
  endloop
 endfacet

 facet normal 0 0 0
  outer loop
  vertex 0.00217572972 0.00837561022 0.00235169008
  vertex 0.00212421967 0.0069934302 -0.00372178992
  vertex -0.0230133999 0.00499605993 -0.00692733983
  endloop
 endfacet

 facet normal 0 0 0
  outer loop
  vertex 0.00217572972 0.00837561022 0.00235169008
  vertex -0.0230133999 0.00499605993 -0.00692733983
  vertex -0.0203760974 0.00623814994 -0.00244578999
  endloop
 endfacet

 facet normal 0 0 0
  outer loop
  vertex -0.0203760974 0.00623814994 -0.00244578999
  vertex -0.0230133999 0.00499605993 -0.00692733983
  vertex -0.0256918985 0.00384680997 -0.0041364301
  endloop
 endfacet

 facet normal 0 0 0
  outer loop
  vertex -0.0203760974 0.00623814994 -0.00244578999
  vertex -0.0256918985 0.00384680997 -0.0041364301
  vertex -0.0237719975 0.00392347015 0.000370761962
  endloop
 endfacet

 facet normal 0 0 0
  outer loop
  vertex -0.0204459988 -0.00596022978 -0.00244822004
  vertex -0.0149363987 -0.00690635014 -0.000125132006
  vertex -0.0213201009 -0.00143824995 0.00322361011
  endloop
 endfacet

 facet normal 0 0 0
  outer loop
  vertex -0.0126333991 -0.00415580999 -0.00873403996
  vertex -0.0187063981 -0.000127437001 -0.0108861001
  vertex 0.000362283958 -0.000426582003 -0.00794116035
  endloop
 endfacet

 facet normal 0 0 0
  outer loop
  vertex -0.0126333991 -0.00415580999 -0.00873403996
  vertex 0.000362283958 -0.000426582003 -0.00794116035
  vertex 0.00065241399 -0.00497599971 -0.00585832959
  endloop
 endfacet

 facet normal 0 0 0
  outer loop
  vertex -0.0095849596 0.0051440699 0.0058186301
  vertex -0.0237719975 0.00392347015 0.000370761962
  vertex -0.0209291 0.00173295999 0.00387396989
  endloop
 endfacet

 facet normal 0 0 0
  outer loop
  vertex -0.0095849596 0.0051440699 0.0058186301
  vertex -0.0209291 0.00173295999 0.00387396989
  vertex -0.00614458974 0.00026405399 0.00799631979
  endloop
 endfacet

 facet normal 0 0 0
  outer loop
  vertex -0.0095849596 0.0051440699 0.0058186301
  vertex -0.00614458974 0.00026405399 0.00799631979
  vertex -8.88220893e-05 0.00492243003 0.00782836974
  endloop
 endfacet

 facet normal 0 0 0
  outer loop
  vertex -0.0095849596 0.0051440699 0.0058186301
  vertex -8.88220893e-05 0.00492243003 0.00782836974
  vertex 0.00217572972 0.00837561022 0.00235169008
  endloop
 endfacet

 facet normal 0 0 0
  outer loop
  vertex -0.0095849596 0.0051440699 0.0058186301
  vertex 0.00217572972 0.00837561022 0.00235169008
  vertex -0.0203760974 0.00623814994 -0.00244578999
  endloop
 endfacet

 facet normal 0 0 0
  outer loop
  vertex -0.0095849596 0.0051440699 0.0058186301
  vertex -0.0203760974 0.00623814994 -0.00244578999
  vertex -0.0237719975 0.00392347015 0.000370761962
  endloop
 endfacet

 facet normal 0 0 0
  outer loop
  vertex -0.0227229986 -0.00380762969 -0.00620023021
  vertex -0.0241357982 -0.0028705399 -0.00279097003
  vertex -0.0259145983 0.000632828975 -0.00533070974
  endloop
 endfacet

 facet normal 0 0 0
  outer loop
  vertex -0.0227229986 -0.00380762969 -0.00620023021
  vertex -0.0259145983 0.000632828975 -0.00533070974
  vertex -0.0231705997 -8.87256974e-05 -0.00978429895
  endloop
 endfacet

 facet normal 0 0 0
  outer loop
  vertex -0.0227229986 -0.00380762969 -0.00620023021
  vertex -0.0190044977 -0.00592559995 -0.00617654994
  vertex -0.0204459988 -0.00596022978 -0.00244822004
  endloop
 endfacet

 facet normal 0 0 0
  outer loop
  vertex -0.0227229986 -0.00380762969 -0.00620023021
  vertex -0.0204459988 -0.00596022978 -0.00244822004
  vertex -0.0241357982 -0.0028705399 -0.00279097003
  endloop
 endfacet

 facet normal 0 0 0
  outer loop
  vertex -0.0213562008 -0.0025106601 -0.00932461955
  vertex -0.0190044977 -0.00592559995 -0.00617654994
  vertex -0.0227229986 -0.00380762969 -0.00620023021
  endloop
 endfacet

 facet normal 0 0 0
  outer loop
  vertex -0.0213562008 -0.0025106601 -0.00932461955
  vertex -0.0227229986 -0.00380762969 -0.00620023021
  vertex -0.0231705997 -8.87256974e-05 -0.00978429895
  endloop
 endfacet

 facet normal 0 0 0
  outer loop
  vertex -0.0213562008 -0.0025106601 -0.00932461955
  vertex -0.0231705997 -8.87256974e-05 -0.00978429895
  vertex -0.0187063981 -0.000127437001 -0.0108861001
  endloop
 endfacet

 facet normal 0 0 0
  outer loop
  vertex -0.0213562008 -0.0025106601 -0.00932461955
  vertex -0.0187063981 -0.000127437001 -0.0108861001
  vertex -0.0126333991 -0.00415580999 -0.00873403996
  endloop
 endfacet

 facet normal 0 0 0
  outer loop
  vertex -0.0213562008 -0.0025106601 -0.00932461955
  vertex -0.0126333991 -0.00415580999 -0.00873403996
  vertex -0.0190044977 -0.00592559995 -0.00617654994
  endloop
 endfacet

 facet normal 0 0 0
  outer loop
  vertex -0.0149363987 -0.00690635014 -0.000125132006
  vertex -0.0204459988 -0.00596022978 -0.00244822004
  vertex -0.0190044977 -0.00592559995 -0.00617654994
  endloop
 endfacet

 facet normal 0 0 0
  outer loop
  vertex -0.0149363987 -0.00690635014 -0.000125132006
  vertex -0.0190044977 -0.00592559995 -0.00617654994
  vertex -0.0136715993 -0.00695833983 -0.00505986018
  endloop
 endfacet

 facet normal 0 0 0
  outer loop
  vertex -0.0136715993 -0.00695833983 -0.00505986018
  vertex -0.0190044977 -0.00592559995 -0.00617654994
  vertex -0.0126333991 -0.00415580999 -0.00873403996
  endloop
 endfacet

 facet normal 0 0 0
  outer loop
  vertex -0.0136715993 -0.00695833983 -0.00505986018
  vertex -0.0126333991 -0.00415580999 -0.00873403996
  vertex 0.00065241399 -0.00497599971 -0.00585832959
  endloop
 endfacet

 facet normal 0 0 0
  outer loop
  vertex -0.0136715993 -0.00695833983 -0.00505986018
  vertex 0.00065241399 -0.00497599971 -0.00585832959
  vertex 0.000327996997 -0.00686111022 -0.0022030999
  endloop
 endfacet

 facet normal 0 0 0
  outer loop
  vertex 0.000327996997 -0.00686111022 -0.0022030999
  vertex -0.00379701005 -0.00694378 0.00273855007
  vertex -0.0149363987 -0.00690635014 -0.000125132006
  endloop
 endfacet

 facet normal 0 0 0
  outer loop
  vertex 0.000327996997 -0.00686111022 -0.0022030999
  vertex -0.0149363987 -0.00690635014 -0.000125132006
  vertex -0.0136715993 -0.00695833983 -0.00505986018
  endloop
 endfacet

 facet normal 0 0 0
  outer loop
  vertex -0.0253887009 -0.000829776924 -0.00139668002
  vertex -0.0241357982 -0.0028705399 -0.00279097003
  vertex -0.0204459988 -0.00596022978 -0.00244822004
  endloop
 endfacet

 facet normal 0 0 0
  outer loop
  vertex -0.0253887009 -0.000829776924 -0.00139668002
  vertex -0.0204459988 -0.00596022978 -0.00244822004
  vertex -0.0213201009 -0.00143824995 0.00322361011
  endloop
 endfacet

 facet normal 0 0 0
  outer loop
  vertex -0.0253887009 -0.000829776924 -0.00139668002
  vertex -0.0213201009 -0.00143824995 0.00322361011
  vertex -0.0252244975 0.00173977995 0.000282113004
  endloop
 endfacet

 facet normal 0 0 0
  outer loop
  vertex -0.0253887009 -0.000829776924 -0.00139668002
  vertex -0.0259145983 0.000632828975 -0.00533070974
  vertex -0.0241357982 -0.0028705399 -0.00279097003
  endloop
 endfacet

endsolid AssimpScene
