solid AssimpScene
 facet normal 0 0 0
  outer loop
  vertex 0.000169371997 -0.00628658012 0.00480089989
  vertex 0.00149199006 -0.00718148053 -0.00526513997
  vertex 0.00158586004 0.00757521065 -0.00736398995
  endloop
 endfacet

 facet normal 0 0 0
  outer loop
  vertex 0.000169371997 -0.00628658012 0.00480089989
  vertex 0.00158586004 0.00757521065 -0.00736398995
  vertex -0.000930548063 0.0022742399 0.00925245974
  endloop
 endfacet

 facet normal 0 0 0
  outer loop
  vertex -0.00375596969 0.00951575022 0.000381233025
  vertex 0.00158586004 0.00757521065 -0.00736398995
  vertex -0.0207803994 0.00574132986 -0.00766630005
  endloop
 endfacet

 facet normal 0 0 0
  outer loop
  vertex -0.00375596969 0.00951575022 0.000381233025
  vertex -0.000930548063 0.0022742399 0.00925245974
  vertex 0.00158586004 0.00757521065 -0.00736398995
  endloop
 endfacet

 facet normal 0 0 0
  outer loop
  vertex 0.00149199006 -0.00718148053 -0.00526513997
  vertex 0.00173051003 -0.00317422999 -0.0089645097
  vertex 0.00158586004 0.00757521065 -0.00736398995
  endloop
 endfacet

 facet normal 0 0 0
  outer loop
  vertex 0.00149199006 -0.00718148053 -0.00526513997
  vertex -0.0222522002 -0.00622810004 -0.00980283972
  vertex 0.00173051003 -0.00317422999 -0.0089645097
  endloop
 endfacet

 facet normal 0 0 0
  outer loop
  vertex -0.0225424003 -0.00167869008 -0.0118856989
  vertex 0.00173051003 -0.00317422999 -0.0089645097
  vertex -0.0222522002 -0.00622810004 -0.00980283972
  endloop
 endfacet

 facet normal 0 0 0
  outer loop
  vertex -0.0254230015 -0.00865426101 -0.00657493016
  vertex -0.0222522002 -0.00622810004 -0.00980283972
  vertex 0.00149199006 -0.00718148053 -0.00526513997
  endloop
 endfacet

 facet normal 0 0 0
  outer loop
  vertex -0.0254230015 -0.00865426101 -0.00657493016
  vertex -0.0278575998 -0.00551570067 0.00256496994
  vertex -0.0225424003 -0.00167869008 -0.0118856989
  endloop
 endfacet

 facet normal 0 0 0
  outer loop
  vertex -0.0254230015 -0.00865426101 -0.00657493016
  vertex -0.0225424003 -0.00167869008 -0.0118856989
  vertex -0.0222522002 -0.00622810004 -0.00980283972
  endloop
 endfacet

 facet normal 0 0 0
  outer loop
  vertex -0.0207288992 0.00712350057 -0.00159283017
  vertex -0.00375596969 0.00951575022 0.000381233025
  vertex -0.0207803994 0.00574132986 -0.00766630005
  endloop
 endfacet

 facet normal 0 0 0
  outer loop
  vertex -0.0207803994 0.00574132986 -0.00766630005
  vertex -0.0278575998 -0.00551570067 0.00256496994
  vertex -0.0229934994 0.00367031991 0.00388384983
  endloop
 endfacet

 facet normal 0 0 0
  outer loop
  vertex -0.0207803994 0.00574132986 -0.00766630005
  vertex -0.0229934994 0.00367031991 0.00388384983
  vertex -0.0207288992 0.00712350057 -0.00159283017
  endloop
 endfacet

 facet normal 0 0 0
  outer loop
  vertex 0.00162453996 0.00240274007 -0.0101068001
  vertex 0.00173051003 -0.00317422999 -0.0089645097
  vertex -0.0225424003 -0.00167869008 -0.0118856989
  endloop
 endfacet

 facet normal 0 0 0
  outer loop
  vertex 0.00162453996 0.00240274007 -0.0101068001
  vertex 0.00158586004 0.00757521065 -0.00736398995
  vertex 0.00173051003 -0.00317422999 -0.0089645097
  endloop
 endfacet

 facet normal 0 0 0
  outer loop
  vertex -0.00480988016 0.00680305995 0.00625888957
  vertex -0.000930548063 0.0022742399 0.00925245974
  vertex -0.00375596969 0.00951575022 0.000381233025
  endloop
 endfacet

 facet normal 0 0 0
  outer loop
  vertex -0.00480988016 0.00680305995 0.00625888957
  vertex -0.00375596969 0.00951575022 0.000381233025
  vertex -0.0207288992 0.00712350057 -0.00159283017
  endloop
 endfacet

 facet normal 0 0 0
  outer loop
  vertex -0.00480988016 0.00680305995 0.00625888957
  vertex -0.0207288992 0.00712350057 -0.00159283017
  vertex -0.0229934994 0.00367031991 0.00388384983
  endloop
 endfacet

 facet normal 0 0 0
  outer loop
  vertex -0.00480988016 0.00680305995 0.00625888957
  vertex -0.0229934994 0.00367031991 0.00388384983
  vertex -0.000930548063 0.0022742399 0.00925245974
  endloop
 endfacet

 facet normal 0 0 0
  outer loop
  vertex -0.0267016999 -0.00819587987 -0.00120596995
  vertex -0.0278575998 -0.00551570067 0.00256496994
  vertex -0.0254230015 -0.00865426101 -0.00657493016
  endloop
 endfacet

 facet normal 0 0 0
  outer loop
  vertex -0.0267016999 -0.00819587987 -0.00120596995
  vertex 0.000169371997 -0.00628658012 0.00480089989
  vertex -0.0278575998 -0.00551570067 0.00256496994
  endloop
 endfacet

 facet normal 0 0 0
  outer loop
  vertex -0.000696275034 -0.00280280015 0.00798892975
  vertex -0.0278575998 -0.00551570067 0.00256496994
  vertex 0.000169371997 -0.00628658012 0.00480089989
  endloop
 endfacet

 facet normal 0 0 0
  outer loop
  vertex -0.000696275034 -0.00280280015 0.00798892975
  vertex 0.000169371997 -0.00628658012 0.00480089989
  vertex -0.000930548063 0.0022742399 0.00925245974
  endloop
 endfacet

 facet normal 0 0 0
  outer loop
  vertex -0.0214498006 0.00277678017 -0.0105990004
  vertex 0.00158586004 0.00757521065 -0.00736398995
  vertex 0.00162453996 0.00240274007 -0.0101068001
  endloop
 endfacet

 facet normal 0 0 0
  outer loop
  vertex -0.0214498006 0.00277678017 -0.0105990004
  vertex 0.00162453996 0.00240274007 -0.0101068001
  vertex -0.0225424003 -0.00167869008 -0.0118856989
  endloop
 endfacet

 facet normal 0 0 0
  outer loop
  vertex -0.0214498006 0.00277678017 -0.0105990004
  vertex -0.0225424003 -0.00167869008 -0.0118856989
  vertex -0.0278575998 -0.00551570067 0.00256496994
  endloop
 endfacet

 facet normal 0 0 0
  outer loop
  vertex -0.0214498006 0.00277678017 -0.0105990004
  vertex -0.0278575998 -0.00551570067 0.00256496994
  vertex -0.0207803994 0.00574132986 -0.00766630005
  endloop
 endfacet

 facet normal 0 0 0
  outer loop
  vertex -0.0214498006 0.00277678017 -0.0105990004
  vertex -0.0207803994 0.00574132986 -0.00766630005
  vertex 0.00158586004 0.00757521065 -0.00736398995
  endloop
 endfacet

 facet normal 0 0 0
  outer loop
  vertex -0.0242871009 -0.00182234007 0.00458976021
  vertex -0.000930548063 0.0022742399 0.00925245974
  vertex -0.0229934994 0.00367031991 0.00388384983
  endloop
 endfacet

 facet normal 0 0 0
  outer loop
  vertex -0.0242871009 -0.00182234007 0.00458976021
  vertex -0.0229934994 0.00367031991 0.00388384983
  vertex -0.0278575998 -0.00551570067 0.00256496994
  endloop
 endfacet

 facet normal 0 0 0
  outer loop
  vertex -0.0242871009 -0.00182234007 0.00458976021
  vertex -0.0278575998 -0.00551570067 0.00256496994
  vertex -0.000696275034 -0.00280280015 0.00798892975
  endloop
 endfacet

 facet normal 0 0 0
  outer loop
  vertex -0.0242871009 -0.00182234007 0.00458976021
  vertex -0.000696275034 -0.00280280015 0.00798892975
  vertex -0.000930548063 0.0022742399 0.00925245974
  endloop
 endfacet

 facet normal 0 0 0
  outer loop
  vertex -0.00403385982 -0.00787250977 -0.00218727998
  vertex 0.000169371997 -0.00628658012 0.00480089989
  vertex -0.0267016999 -0.00819587987 -0.00120596995
  endloop
 endfacet

 facet normal 0 0 0
  outer loop
  vertex -0.00403385982 -0.00787250977 -0.00218727998
  vertex -0.0267016999 -0.00819587987 -0.00120596995
  vertex -0.0254230015 -0.00865426101 -0.00657493016
  endloop
 endfacet

 facet normal 0 0 0
  outer loop
  vertex -0.00403385982 -0.00787250977 -0.00218727998
  vertex -0.0254230015 -0.00865426101 -0.00657493016
  vertex 0.00149199006 -0.00718148053 -0.00526513997
  endloop
 endfacet

 facet normal 0 0 0
  outer loop
  vertex -0.00403385982 -0.00787250977 -0.00218727998
  vertex 0.00149199006 -0.00718148053 -0.00526513997
  vertex 0.000169371997 -0.00628658012 0.00480089989
  endloop
 endfacet

endsolid AssimpScene
