# Created by Open3D 
# object name: middle_dip
# number of vertices: 61
# number of triangles: 108
v 0.00212422 0.00699343 -0.00372179
vn -0.022543 0.932983 -0.359214
v 0.00217573 0.00837561 0.00235169
vn -0.108783 0.981873 0.155212
v -8.88221e-05 0.00492243 0.00782837
vn -0.139766 0.687146 0.712949
v -0.0013824 -0.000570235 0.00853428
vn -0.125035 -0.0758244 0.989251
v 0.00145481 0.00402888 -0.00665444
vn 0.0899212 0.557791 -0.825096
v 0.000362284 -0.000426582 -0.00794116
vn 0.185743 -0.0293293 -0.98216
v 0.000652414 -0.004976 -0.00585833
vn 0.226214 -0.647471 -0.727742
v -0.00540553 0.00299923 -0.00804121
vn 0.111299 0.449198 -0.886472
v -0.00638854 0.00617144 -0.0052205
vn -0.00309848 0.860193 -0.509959
v -0.0209291 0.00173296 0.00387397
vn -0.419143 0.263565 0.868822
v -0.0152368 0.00255892 0.00524201
vn -0.272301 0.440358 0.855533
v -0.0154283 0.00454472 0.00351385
vn -0.24875 0.831099 0.49739
v -0.0206915 0.00401998 0.00219352
vn -0.186719 0.862026 0.471219
v -0.00958496 0.00514407 0.00581863
vn -0.195329 0.569479 0.798461
v -0.0111255 0.00586138 0.00379641
vn -0.265829 0.900419 0.344356
v -0.00899391 0.00709563 -3.26848e-06
vn -0.176599 0.984067 -0.020604
v -0.0146568 0.00577946 -0.00106132
vn -0.115599 0.990442 0.0752377
v -0.0130068 0.00523019 -0.00558682
vn -0.0209781 0.946058 -0.323317
v -0.0185061 0.00545008 -0.00691697
vn 0.0485567 0.958211 -0.281912
v -0.0203761 0.00623815 -0.00244579
vn -0.119183 0.985301 0.122385
v -0.00941269 0.00657825 -0.00377692
vn -0.1442 0.955472 -0.257449
v -0.023772 0.00392347 0.000370762
vn -0.519887 0.709391 0.475901
v -0.0252245 0.00173978 0.000282113
vn -0.864632 0.0478333 0.500123
v -0.006254 0.0076689 0.000914162
vn -0.0988736 0.986801 0.128249
v -0.00614459 0.000264054 0.00799632
vn -0.202842 0.0300515 0.97875
v -0.0152262 -0.000479421 0.00566922
vn -0.257775 -0.1727 0.950645
v -0.0213201 -0.00143825 0.00322361
vn -0.497575 -0.390617 0.774492
v -0.0253887 -0.000829777 -0.00139668
vn -0.832626 -0.439996 0.336359
v -0.0153337 -0.00407422 0.00357553
vn -0.220885 -0.700809 0.67829
v -0.0211076 -0.00388956 0.0011538
vn -0.46889 -0.729344 0.498196
v -0.0241358 -0.00287054 -0.00279097
vn -0.740821 -0.662705 0.109573
v -0.0149364 -0.00690635 -0.000125132
vn -0.131526 -0.958486 0.252991
v -0.020446 -0.00596023 -0.00244822
vn -0.309779 -0.94573 0.0981359
v -0.00379701 -0.00694378 0.00273855
vn -0.0767056 -0.917137 0.391121
v -0.00495293 -0.00426359 0.00650948
vn -0.184099 -0.58226 0.791884
v -0.0225299 -0.00451633 -0.00357051
vn -0.602625 -0.797472 0.02969
v -0.0256919 0.00384681 -0.00413643
vn -0.903063 0.423232 -0.0731558
v -0.0259146 0.000632829 -0.00533071
vn -0.97719 0.00743634 -0.212234
v -0.0243377 0.0049942 -0.00347742
vn -0.431606 0.897848 0.0870918
v -0.0124452 0.00434362 -0.00741217
vn 0.0176231 0.764627 -0.644232
v -0.018596 0.00382402 -0.00854957
vn 0.0221167 0.685408 -0.727824
v -0.0121792 0.00227333 -0.00922282
vn 0.0981496 0.471906 -0.876169
v -0.0190734 0.00187843 -0.00994311
vn -0.0493723 0.466586 -0.883097
v -0.023202 0.00380697 -0.00824689
vn -0.605628 0.495583 -0.622585
v -0.0230134 0.00499606 -0.00692734
vn -0.250092 0.899148 -0.359147
v -0.000601742 -0.00640498 0.00318017
vn 0.0544227 -0.805934 0.589499
v 0.000327997 -0.00686111 -0.0022031
vn 0.16741 -0.978137 0.12338
v -0.00251831 -0.00740216 -0.00263042
vn 0.0256101 -0.990887 -0.132236
v -0.0136716 -0.00695834 -0.00505986
vn -0.0227616 -0.944763 -0.326962
v -0.00223391 -0.0050491 -0.00669048
vn 0.122624 -0.661187 -0.740132
v -0.00456873 -0.000455636 -0.00877944
vn 0.155741 -0.168033 -0.973401
v -0.0117766 -0.000454457 -0.00984425
vn 0.140971 -0.0521466 -0.988639
v -0.0126334 -0.00415581 -0.00873404
vn 0.0742739 -0.586535 -0.806511
v -0.0187064 -0.000127437 -0.0108861
vn 0.00319793 -0.0123737 -0.999918
v -0.0175329 -0.00300633 -0.00966939
vn -0.00905283 -0.543396 -0.839428
v -0.0190045 -0.0059256 -0.00617655
vn -0.212863 -0.855244 -0.47249
v -0.0231706 -8.87257e-05 -0.0097843
vn -0.523818 -0.116228 -0.843864
v -0.0235298 0.00223404 -0.00910604
vn -0.561266 0.269521 -0.782521
v -0.0248915 -0.00135479 -0.00588515
vn -0.821066 -0.451269 -0.349582
v -0.0213562 -0.00251066 -0.00932462
vn -0.391954 -0.613666 -0.685409
v -0.022723 -0.00380763 -0.00620023
vn -0.608984 -0.71792 -0.337238
f 8//8 9//9 5//5
f 5//5 9//9 1//1
f 11//11 12//12 10//10
f 10//10 12//12 13//13
f 14//14 15//15 11//11
f 11//11 15//15 12//12
f 12//12 15//15 17//17
f 17//17 15//15 16//16
f 18//18 19//19 17//17
f 17//17 19//19 20//20
f 16//16 21//21 17//17
f 17//17 21//21 18//18
f 20//20 13//13 17//17
f 17//17 13//13 12//12
f 13//13 22//22 10//10
f 10//10 22//22 23//23
f 16//16 15//15 24//24
f 24//24 15//15 14//14
f 14//14 3//3 24//24
f 24//24 3//3 2//2
f 14//14 25//25 3//3
f 3//3 25//25 4//4
f 11//11 26//26 14//14
f 14//14 26//26 25//25
f 27//27 26//26 10//10
f 10//10 26//26 11//11
f 24//24 9//9 16//16
f 16//16 9//9 21//21
f 9//9 24//24 1//1
f 1//1 24//24 2//2
f 28//28 27//27 23//23
f 23//23 27//27 10//10
f 26//26 27//27 29//29
f 29//29 27//27 30//30
f 27//27 28//28 30//30
f 30//30 28//28 31//31
f 29//29 30//30 32//32
f 32//32 30//30 33//33
f 32//32 34//34 29//29
f 29//29 34//34 35//35
f 31//31 36//36 30//30
f 30//30 36//36 33//33
f 29//29 35//35 26//26
f 26//26 35//35 25//25
f 25//25 35//35 4//4
f 28//28 23//23 38//38
f 38//38 23//23 37//37
f 23//23 22//22 37//37
f 37//37 22//22 39//39
f 18//18 21//21 40//40
f 40//40 21//21 9//9
f 19//19 18//18 41//41
f 41//41 18//18 40//40
f 9//9 8//8 40//40
f 40//40 8//8 42//42
f 40//40 42//42 41//41
f 41//41 42//42 43//43
f 44//44 45//45 41//41
f 41//41 45//45 19//19
f 39//39 45//45 37//37
f 37//37 45//45 44//44
f 47//47 34//34 48//48
f 34//34 32//32 48//48
f 48//48 32//32 49//49
f 7//7 48//48 50//50
f 34//34 46//46 35//35
f 51//51 6//6 50//50
f 50//50 6//6 7//7
f 51//51 8//8 6//6
f 6//6 8//8 5//5
f 51//51 52//52 8//8
f 8//8 52//52 42//42
f 52//52 51//51 53//53
f 53//53 51//51 50//50
f 54//54 52//52 55//55
f 55//55 52//52 53//53
f 48//48 49//49 50//50
f 50//50 49//49 53//53
f 49//49 56//56 53//53
f 53//53 56//56 55//55
f 52//52 54//54 42//42
f 42//42 54//54 43//43
f 58//58 43//43 57//57
f 57//57 43//43 54//54
f 57//57 60//60 59//59
f 59//59 60//60 61//61
f 57//57 54//54 60//60
f 60//60 54//54 55//55
f 57//57 59//59 58//58
f 58//58 59//59 38//38
f 58//58 38//38 44//44
f 44//44 38//38 37//37
f 44//44 41//41 58//58
f 58//58 41//41 43//43
f 32//32 33//33 49//49
f 49//49 33//33 56//56
f 61//61 56//56 36//36
f 36//36 56//56 33//33
f 61//61 60//60 56//56
f 56//56 60//60 55//55
f 59//59 61//61 31//31
f 31//31 61//61 36//36
f 31//31 28//28 59//59
f 59//59 28//28 38//38
f 13//13 20//20 22//22
f 22//22 20//20 39//39
f 39//39 20//20 45//45
f 45//45 20//20 19//19
