# Created by Open3D 
# object name: middle_pip
# number of vertices: 41
# number of triangles: 55
v -0.00468712 -0.00683951 0.00400206
vn -0.0321333 -0.890832 0.453195
v -0.00403386 -0.00787251 -0.00218728
vn 0.0412955 -0.998874 0.0233504
v 0.00134621 -0.00729505 -0.000367241
vn 0.0483505 -0.984362 0.169394
v 0.000169372 -0.00628658 0.0048009
vn -0.0378869 -0.698982 0.714135
v -0.00480988 0.00680306 0.00625889
vn -0.222816 0.705126 0.673165
v -0.00524198 0.0010443 0.00823902
vn -0.211351 0.10892 0.971322
v -0.000930548 0.00227424 0.00925246
vn -0.30421 0.330083 0.893589
v -0.00375597 0.00951575 0.000381233
vn -0.113256 0.993271 -0.0241968
v -0.00518959 -0.00387898 0.00687311
vn -0.129328 -0.462015 0.877392
v -0.000696275 -0.0028028 0.00798893
vn -0.17212 -0.265051 0.948748
v 0.00149199 -0.00718148 -0.00526514
vn 0.098446 -0.855088 -0.509052
v 0.00173051 -0.00317423 -0.00896451
vn 0.126663 -0.471963 -0.872472
v 0.00158586 0.00757521 -0.00736399
vn -0.0546794 0.959026 -0.277993
v -0.0158948 0.00286927 -0.0104324
vn 0.0376893 0.309252 -0.950233
v -0.00357959 0.00267198 -0.0102268
vn 0.0196468 0.377537 -0.925786
v -0.00392438 -0.00244528 -0.00980218
vn 0.0717427 -0.199159 -0.977337
v -0.0169792 -0.00192837 -0.0112804
vn 0.109079 -0.186203 -0.976438
v 0.00162454 0.00240274 -0.0101068
vn 0.069705 0.114637 -0.990959
v -0.00323157 0.00749037 -0.00670913
vn -0.0446076 0.879574 -0.473666
v -0.0201198 -0.00791552 0.000188824
vn -0.0296342 -0.955512 0.29346
v -0.0196601 -0.00856595 -0.00582774
vn 0.0281408 -0.984521 -0.172995
v -0.020277 -0.00514903 0.00369755
vn -0.118903 -0.628824 0.768402
v -0.0170781 0.00457114 0.00437565
vn -0.219181 0.574084 0.788915
v -0.0190989 -0.00149535 0.00546733
vn -0.177077 -0.0600087 0.982366
v -0.00392826 -0.00667125 -0.00717043
vn 0.0987688 -0.754854 -0.648413
v -0.0187421 -0.00609183 -0.00984657
vn 0.0806234 -0.641222 -0.763108
v -0.0154284 0.0064043 -0.00756849
vn -0.0520965 0.839421 -0.540978
v -0.0147929 0.00815796 -0.000879578
vn -0.151248 0.984566 0.0880525
v -0.0207804 0.00574133 -0.0076663
vn -0.0678975 0.831697 -0.551063
v -0.0207289 0.0071235 -0.00159283
vn -0.170761 0.974938 0.142607
v -0.0229935 0.00367032 0.00388385
vn -0.166606 0.487155 0.857276
v -0.0242871 -0.00182234 0.00458976
vn -0.14514 -0.217626 0.965181
v -0.0245025 -0.0053637 0.00281602
vn -0.107256 -0.700787 0.705261
v -0.0214498 0.00277678 -0.010599
vn 0.0539944 0.370847 -0.927123
v -0.0225424 -0.00167869 -0.0118857
vn 0.0802233 -0.150394 -0.985366
v -0.0222522 -0.0062281 -0.00980284
vn 0.0791009 -0.739079 -0.668959
v -0.0267017 -0.00819588 -0.00120597
vn 0.150578 -0.982542 0.109257
v -0.0278576 -0.0055157 0.00256497
vn -0.0242947 -0.677671 0.734964
v -0.0235064 -0.00765709 -0.00076434
vn -0.0630746 -0.967155 0.246236
v -0.0225767 -0.00811321 -0.00614762
vn 0.03222 -0.971976 -0.23286
v -0.025423 -0.00865426 -0.00657493
vn 0.230475 -0.87302 -0.429787
f 2//2 3//3 1//1
f 6//6 7//7 5//5
f 9//9 10//10 6//6
f 15//15 16//16 14//14
f 14//14 16//16 17//17
f 19//19 8//8 13//13
f 1//1 20//20 2//2
f 2//2 20//20 21//21
f 9//9 22//22 1//1
f 1//1 22//22 20//20
f 1//1 4//4 9//9
f 5//5 23//23 6//6
f 6//6 23//23 24//24
f 2//2 21//21 25//25
f 25//25 21//21 26//26
f 19//19 15//15 27//27
f 27//27 15//15 14//14
f 15//15 18//18 16//16
f 16//16 18//18 12//12
f 16//16 25//25 17//17
f 17//17 25//25 26//26
f 8//8 19//19 28//28
f 28//28 19//19 27//27
f 6//6 24//24 9//9
f 9//9 24//24 22//22
f 23//23 5//5 28//28
f 28//28 5//5 8//8
f 15//15 19//19 18//18
f 16//16 12//12 25//25
f 25//25 12//12 11//11
f 25//25 11//11 2//2
f 28//28 27//27 30//30
f 30//30 27//27 29//29
f 28//28 30//30 23//23
f 23//23 30//30 31//31
f 23//23 31//31 24//24
f 24//24 31//31 32//32
f 24//24 32//32 22//22
f 22//22 32//32 33//33
f 27//27 14//14 29//29
f 29//29 14//14 34//34
f 14//14 17//17 34//34
f 34//34 17//17 35//35
f 17//17 26//26 35//35
f 35//35 26//26 36//36
f 32//32 38//38 33//33
f 22//22 33//33 20//20
f 20//20 33//33 39//39
f 21//21 40//40 26//26
f 26//26 40//40 36//36
f 40//40 21//21 39//39
f 39//39 21//21 20//20
f 39//39 37//37 40//40
f 40//40 41//41 36//36
f 38//38 39//39 33//33
