# Created by Open3D 
# object name: pinky_pip
# number of vertices: 47
# number of triangles: 69
v -0.00867811 -0.00154163 0.00143825
vn -0.504683 -0.419511 0.754523
v -0.00726588 -0.0045703 -0.000865811
vn -0.347934 -0.803114 0.483683
v -0.00355779 -0.00489419 0.000648982
vn -0.322931 -0.85971 0.395745
v -0.00474564 -0.00247439 0.00370641
vn -0.567751 -0.395186 0.72214
v -0.00489701 0.00858865 -0.00169839
vn -0.178343 0.975723 0.127115
v -0.00772752 0.00587381 0.000849943
vn -0.451199 0.653284 0.60798
v -0.00400352 0.00604264 0.00347827
vn -0.460802 0.656942 0.596732
v -0.00120634 0.00879269 0.000910918
vn -0.125274 0.987446 0.0962075
v -0.00197572 0.00812805 -0.00581874
vn 0.219191 0.886458 -0.407611
v 0.0017523 0.00797607 -0.00352887
vn 0.189579 0.921125 -0.339984
v 0.00140235 0.00929526 0.00271061
vn -0.0440072 0.976922 -0.209015
v -0.000966424 0.00614317 0.00569288
vn -0.365783 0.806191 0.465036
v -0.00880606 0.0022179 0.00185557
vn -0.561553 0.130618 0.817066
v -0.00545318 0.00150242 0.0046423
vn -0.606048 0.136979 0.783545
v -0.00133624 -0.00649576 -0.00239712
vn -0.133535 -0.990244 0.0398101
v 0.00116134 -0.00557845 -0.00623748
vn 0.292376 -0.785528 -0.5454
v -0.00260984 0.00172951 0.00676588
vn -0.600535 0.0736549 0.796199
v -2.94112e-06 -0.00577538 0.00248492
vn -0.343697 -0.910913 0.228276
v 0.00355343 0.00367243 -0.00760594
vn 0.441349 0.534923 -0.720464
v -0.00836192 -0.00180169 -0.0148733
vn 0.45683 -0.330412 -0.825914
v -0.000287594 -0.00204521 -0.0102348
vn 0.478303 -0.25606 -0.840036
v -0.00264071 -0.00562111 -0.00793809
vn 0.195684 -0.880338 -0.432102
v -0.00971423 -0.00423432 -0.0134945
vn 0.278226 -0.81094 -0.514748
v 0.00328959 -0.00188446 -0.00813984
vn 0.506772 -0.132427 -0.851848
v -0.000266121 0.00369483 -0.00985208
vn 0.43845 0.440559 -0.783371
v -0.0162953 -0.00142555 -0.00369932
vn -0.427961 -0.583799 0.689948
v -0.0138736 -0.00482521 -0.00678257
vn -0.264392 -0.90596 0.330656
v -0.0163906 0.00178129 -0.00309706
vn -0.539522 0.0521716 0.840354
v -0.0134194 0.00753287 -0.00674738
vn -0.235294 0.954234 0.184593
v -0.0160122 0.00503424 -0.00421218
vn -0.465842 0.586877 0.662244
v -0.00530363 -0.00600803 -0.00414952
vn -0.133362 -0.98595 0.100579
v -0.0115878 -0.00551363 -0.010483
vn -0.00193325 -0.997325 -0.0730724
v -0.00813545 0.00261612 -0.0145822
vn 0.422411 0.361371 -0.831252
v -0.00972035 0.00732297 -0.0110738
vn 0.155662 0.88476 -0.439283
v -0.0122762 0.00256479 -0.0166298
vn 0.420291 0.340101 -0.841241
v -0.0137671 0.00689037 -0.0126248
vn 0.014149 0.930188 -0.366809
v -0.0179398 0.00656907 -0.00810143
vn -0.269218 0.957114 0.107031
v -0.0189413 0.00401265 -0.00555691
vn -0.53161 0.424285 0.733057
v -0.0191711 0.000961293 -0.00458741
vn -0.523752 0.0373777 0.851051
v -0.012176 -0.00189738 -0.0168835
vn 0.449722 -0.331035 -0.829558
v -0.0129789 -0.0044131 -0.015203
vn 0.30892 -0.805302 -0.506022
v -0.0139911 -0.00578945 -0.0117976
vn 0.173988 -0.98448 -0.0229814
v -0.019319 0.00560945 -0.0142222
vn -0.193512 0.974995 -0.109258
v -0.0221708 -0.000676202 -0.00629734
vn -0.587358 0.284929 0.757513
v -0.0185371 -0.00280282 -0.005424
vn -0.199833 -0.647948 0.735003
v -0.0160153 -0.0049998 -0.00792286
vn -0.0334875 -0.893805 0.447203
v -0.0179176 -0.0059213 -0.0093788
vn 0.0718025 -0.882522 0.464757
f 2//2 3//3 1//1
f 1//1 3//3 4//4
f 6//6 7//7 5//5
f 5//5 7//7 8//8
f 5//5 8//8 9//9
f 9//9 8//8 10//10
f 13//13 14//14 6//6
f 6//6 14//14 7//7
f 14//14 17//17 7//7
f 15//15 18//18 3//3
f 4//4 17//17 14//14
f 21//21 22//22 20//20
f 20//20 22//22 23//23
f 25//25 9//9 19//19
f 19//19 9//9 10//10
f 11//11 10//10 8//8
f 1//1 26//26 2//2
f 2//2 26//26 27//27
f 13//13 28//28 1//1
f 1//1 28//28 26//26
f 1//1 4//4 13//13
f 13//13 4//4 14//14
f 5//5 29//29 6//6
f 6//6 29//29 30//30
f 7//7 12//12 8//8
f 2//2 27//27 31//31
f 31//31 27//27 32//32
f 25//25 21//21 33//33
f 33//33 21//21 20//20
f 22//22 21//21 16//16
f 16//16 21//21 24//24
f 31//31 32//32 22//22
f 22//22 32//32 23//23
f 9//9 25//25 34//34
f 34//34 25//25 33//33
f 6//6 30//30 13//13
f 13//13 30//30 28//28
f 29//29 5//5 34//34
f 34//34 5//5 9//9
f 21//21 25//25 24//24
f 24//24 25//25 19//19
f 31//31 22//22 15//15
f 15//15 22//22 16//16
f 2//2 31//31 3//3
f 3//3 31//31 15//15
f 34//34 33//33 36//36
f 36//36 33//33 35//35
f 34//34 36//36 29//29
f 29//29 36//36 37//37
f 29//29 37//37 30//30
f 30//30 37//37 38//38
f 30//30 38//38 28//28
f 28//28 38//38 39//39
f 33//33 20//20 35//35
f 35//35 20//20 40//40
f 20//20 23//23 40//40
f 40//40 23//23 41//41
f 41//41 23//23 42//42
f 42//42 23//23 32//32
f 43//43 37//37 36//36
f 38//38 44//44 39//39
f 28//28 39//39 26//26
f 26//26 39//39 45//45
f 27//27 46//46 32//32
f 32//32 46//46 42//42
f 45//45 46//46 26//26
f 26//26 46//46 27//27
f 45//45 47//47 46//46
f 46//46 47//47 42//42
