solid AssimpScene
 facet normal 0 0 0
  outer loop
  vertex 0.00209978991 0.00758152036 -0.00229290011
  vertex 0.00187580998 -0.00509830052 -0.00146572001
  vertex 0.00369087001 -0.00120622001 -0.00655164011
  endloop
 endfacet

 facet normal 0 0 0
  outer loop
  vertex 0.00209978991 0.00758152036 -0.00229290011
  vertex 0.00369087001 -0.00120622001 -0.00655164011
  vertex 0.00359064993 0.00325595005 -0.00629795017
  endloop
 endfacet

 facet normal 0 0 0
  outer loop
  vertex 0.00187580998 -0.00509830052 -0.00146572001
  vertex -0.00267016003 -0.00211167033 0.00490789022
  vertex -0.00205066008 -0.00523015019 0.000953092007
  endloop
 endfacet

 facet normal 0 0 0
  outer loop
  vertex 0.00359064993 0.00325595005 -0.00629795017
  vertex -0.0140762003 0.00111167016 -0.0118597001
  vertex 0.00209978991 0.00758152036 -0.00229290011
  endloop
 endfacet

 facet normal 0 0 0
  outer loop
  vertex -0.00207294011 0.00726023037 0.00223046006
  vertex -0.00307436008 0.00470380997 0.00477497978
  vertex 0.00209978991 0.00758152036 -0.00229290011
  endloop
 endfacet

 facet normal 0 0 0
  outer loop
  vertex -0.0114468997 -0.00101829995 -0.0126967989
  vertex -0.0120492987 -0.00490667066 -0.0109620988
  vertex -0.0157047007 -0.00245141005 -0.0118255001
  endloop
 endfacet

 facet normal 0 0 0
  outer loop
  vertex -0.0114468997 -0.00101829995 -0.0126967989
  vertex -0.0140762003 0.00111167016 -0.0118597001
  vertex 0.00359064993 0.00325595005 -0.00629795017
  endloop
 endfacet

 facet normal 0 0 0
  outer loop
  vertex -0.00672393991 -0.00654566055 -0.00637851004
  vertex 0.00187580998 -0.00509830052 -0.00146572001
  vertex -0.00205066008 -0.00523015019 0.000953092007
  endloop
 endfacet

 facet normal 0 0 0
  outer loop
  vertex -0.00672393991 -0.00654566055 -0.00637851004
  vertex -0.00205066008 -0.00523015019 0.000953092007
  vertex -0.0133399004 -0.00631663017 -0.00521653006
  endloop
 endfacet

 facet normal 0 0 0
  outer loop
  vertex -0.0181996003 -0.00274434988 -0.0063193799
  vertex -0.0133399004 -0.00631663017 -0.00521653006
  vertex -0.0167306997 -0.00224187993 -0.00304418965
  endloop
 endfacet

 facet normal 0 0 0
  outer loop
  vertex -0.0181996003 -0.00274434988 -0.0063193799
  vertex -0.0167306997 -0.00224187993 -0.00304418965
  vertex -0.0185320992 -0.000437325041 -0.00685016997
  endloop
 endfacet

 facet normal 0 0 0
  outer loop
  vertex -0.0104489997 -0.0042361198 0.000263622991
  vertex -0.0119814994 -0.00124909007 0.000501364004
  vertex -0.0167306997 -0.00224187993 -0.00304418965
  endloop
 endfacet

 facet normal 0 0 0
  outer loop
  vertex -0.0104489997 -0.0042361198 0.000263622991
  vertex -0.0167306997 -0.00224187993 -0.00304418965
  vertex -0.0133399004 -0.00631663017 -0.00521653006
  endloop
 endfacet

 facet normal 0 0 0
  outer loop
  vertex -0.0104489997 -0.0042361198 0.000263622991
  vertex -0.0133399004 -0.00631663017 -0.00521653006
  vertex -0.00205066008 -0.00523015019 0.000953092007
  endloop
 endfacet

 facet normal 0 0 0
  outer loop
  vertex -0.0104489997 -0.0042361198 0.000263622991
  vertex -0.00205066008 -0.00523015019 0.000953092007
  vertex -0.00267016003 -0.00211167033 0.00490789022
  endloop
 endfacet

 facet normal 0 0 0
  outer loop
  vertex -0.0153114991 -0.00500521064 -0.00892234966
  vertex -0.0133399004 -0.00631663017 -0.00521653006
  vertex -0.0181996003 -0.00274434988 -0.0063193799
  endloop
 endfacet

 facet normal 0 0 0
  outer loop
  vertex -0.0153114991 -0.00500521064 -0.00892234966
  vertex -0.0157047007 -0.00245141005 -0.0118255001
  vertex -0.0120492987 -0.00490667066 -0.0109620988
  endloop
 endfacet

 facet normal 0 0 0
  outer loop
  vertex -0.00600353023 -0.00258854032 -0.0109270001
  vertex -0.0120492987 -0.00490667066 -0.0109620988
  vertex -0.0114468997 -0.00101829995 -0.0126967989
  endloop
 endfacet

 facet normal 0 0 0
  outer loop
  vertex -0.00600353023 -0.00258854032 -0.0109270001
  vertex -0.0114468997 -0.00101829995 -0.0126967989
  vertex 0.00359064993 0.00325595005 -0.00629795017
  endloop
 endfacet

 facet normal 0 0 0
  outer loop
  vertex -0.00600353023 -0.00258854032 -0.0109270001
  vertex 0.00359064993 0.00325595005 -0.00629795017
  vertex 0.00369087001 -0.00120622001 -0.00655164011
  endloop
 endfacet

 facet normal 0 0 0
  outer loop
  vertex -0.00600353023 -0.00258854032 -0.0109270001
  vertex -0.00672393991 -0.00654566055 -0.00637851004
  vertex -0.0120492987 -0.00490667066 -0.0109620988
  endloop
 endfacet

 facet normal 0 0 0
  outer loop
  vertex -0.00330422004 0.00165244995 0.00574448006
  vertex -0.0119814994 -0.00124909007 0.000501364004
  vertex -0.0104489997 -0.0042361198 0.000263622991
  endloop
 endfacet

 facet normal 0 0 0
  outer loop
  vertex -0.00330422004 0.00165244995 0.00574448006
  vertex -0.0104489997 -0.0042361198 0.000263622991
  vertex -0.00267016003 -0.00211167033 0.00490789022
  endloop
 endfacet

 facet normal 0 0 0
  outer loop
  vertex -0.00330422004 0.00165244995 0.00574448006
  vertex -0.00267016003 -0.00211167033 0.00490789022
  vertex 0.00187580998 -0.00509830052 -0.00146572001
  endloop
 endfacet

 facet normal 0 0 0
  outer loop
  vertex -0.00330422004 0.00165244995 0.00574448006
  vertex 0.00187580998 -0.00509830052 -0.00146572001
  vertex 0.00209978991 0.00758152036 -0.00229290011
  endloop
 endfacet

 facet normal 0 0 0
  outer loop
  vertex -0.00330422004 0.00165244995 0.00574448006
  vertex 0.00209978991 0.00758152036 -0.00229290011
  vertex -0.00307436008 0.00470380997 0.00477497978
  endloop
 endfacet

 facet normal 0 0 0
  outer loop
  vertex 0.00288797007 -0.00372194033 -0.00487115979
  vertex 0.00187580998 -0.00509830052 -0.00146572001
  vertex -0.00672393991 -0.00654566055 -0.00637851004
  endloop
 endfacet

 facet normal 0 0 0
  outer loop
  vertex 0.00288797007 -0.00372194033 -0.00487115979
  vertex -0.00672393991 -0.00654566055 -0.00637851004
  vertex -0.00600353023 -0.00258854032 -0.0109270001
  endloop
 endfacet

 facet normal 0 0 0
  outer loop
  vertex 0.00288797007 -0.00372194033 -0.00487115979
  vertex -0.00600353023 -0.00258854032 -0.0109270001
  vertex 0.00369087001 -0.00120622001 -0.00655164011
  endloop
 endfacet

 facet normal 0 0 0
  outer loop
  vertex 0.00288797007 -0.00372194033 -0.00487115979
  vertex 0.00369087001 -0.00120622001 -0.00655164011
  vertex 0.00187580998 -0.00509830052 -0.00146572001
  endloop
 endfacet

 facet normal 0 0 0
  outer loop
  vertex -0.0129899988 0.000960429024 -0.000475750014
  vertex -0.0167306997 -0.00224187993 -0.00304418965
  vertex -0.0119814994 -0.00124909007 0.000501364004
  endloop
 endfacet

 facet normal 0 0 0
  outer loop
  vertex -0.0129899988 0.000960429024 -0.000475750014
  vertex -0.0119814994 -0.00124909007 0.000501364004
  vertex -0.00330422004 0.00165244995 0.00574448006
  endloop
 endfacet

 facet normal 0 0 0
  outer loop
  vertex -0.0129899988 0.000960429024 -0.000475750014
  vertex -0.00330422004 0.00165244995 0.00574448006
  vertex -0.00307436008 0.00470380997 0.00477497978
  endloop
 endfacet

 facet normal 0 0 0
  outer loop
  vertex -0.0159003995 0.00255803997 -0.0102781998
  vertex -0.0168880001 0.00248941011 -0.00670239981
  vertex -0.00207294011 0.00726023037 0.00223046006
  endloop
 endfacet

 facet normal 0 0 0
  outer loop
  vertex -0.0159003995 0.00255803997 -0.0102781998
  vertex -0.00207294011 0.00726023037 0.00223046006
  vertex 0.00209978991 0.00758152036 -0.00229290011
  endloop
 endfacet

 facet normal 0 0 0
  outer loop
  vertex -0.0159003995 0.00255803997 -0.0102781998
  vertex 0.00209978991 0.00758152036 -0.00229290011
  vertex -0.0140762003 0.00111167016 -0.0118597001
  endloop
 endfacet

 facet normal 0 0 0
  outer loop
  vertex -0.0176890008 -0.00134307996 -0.0099348193
  vertex -0.0185320992 -0.000437325041 -0.00685016997
  vertex -0.0170935001 0.00154868001 -0.0103157004
  endloop
 endfacet

 facet normal 0 0 0
  outer loop
  vertex -0.0176890008 -0.00134307996 -0.0099348193
  vertex -0.0157047007 -0.00245141005 -0.0118255001
  vertex -0.0153114991 -0.00500521064 -0.00892234966
  endloop
 endfacet

 facet normal 0 0 0
  outer loop
  vertex -0.0176890008 -0.00134307996 -0.0099348193
  vertex -0.0153114991 -0.00500521064 -0.00892234966
  vertex -0.0181996003 -0.00274434988 -0.0063193799
  endloop
 endfacet

 facet normal 0 0 0
  outer loop
  vertex -0.0176890008 -0.00134307996 -0.0099348193
  vertex -0.0181996003 -0.00274434988 -0.0063193799
  vertex -0.0185320992 -0.000437325041 -0.00685016997
  endloop
 endfacet

 facet normal 0 0 0
  outer loop
  vertex -0.0149343004 -0.000377335033 -0.0125778001
  vertex -0.0140762003 0.00111167016 -0.0118597001
  vertex -0.0114468997 -0.00101829995 -0.0126967989
  endloop
 endfacet

 facet normal 0 0 0
  outer loop
  vertex -0.0149343004 -0.000377335033 -0.0125778001
  vertex -0.0114468997 -0.00101829995 -0.0126967989
  vertex -0.0157047007 -0.00245141005 -0.0118255001
  endloop
 endfacet

 facet normal 0 0 0
  outer loop
  vertex -0.0149343004 -0.000377335033 -0.0125778001
  vertex -0.0157047007 -0.00245141005 -0.0118255001
  vertex -0.0176890008 -0.00134307996 -0.0099348193
  endloop
 endfacet

 facet normal 0 0 0
  outer loop
  vertex -0.0149343004 -0.000377335033 -0.0125778001
  vertex -0.0176890008 -0.00134307996 -0.0099348193
  vertex -0.0170935001 0.00154868001 -0.0103157004
  endloop
 endfacet

 facet normal 0 0 0
  outer loop
  vertex -0.0149343004 -0.000377335033 -0.0125778001
  vertex -0.0170935001 0.00154868001 -0.0103157004
  vertex -0.0159003995 0.00255803997 -0.0102781998
  endloop
 endfacet

 facet normal 0 0 0
  outer loop
  vertex -0.0149343004 -0.000377335033 -0.0125778001
  vertex -0.0159003995 0.00255803997 -0.0102781998
  vertex -0.0140762003 0.00111167016 -0.0118597001
  endloop
 endfacet

 facet normal 0 0 0
  outer loop
  vertex -0.0168520994 5.27729026e-05 -0.00353774009
  vertex -0.0167306997 -0.00224187993 -0.00304418965
  vertex -0.0129899988 0.000960429024 -0.000475750014
  endloop
 endfacet

 facet normal 0 0 0
  outer loop
  vertex -0.0168520994 5.27729026e-05 -0.00353774009
  vertex -0.0185320992 -0.000437325041 -0.00685016997
  vertex -0.0167306997 -0.00224187993 -0.00304418965
  endloop
 endfacet

 facet normal 0 0 0
  outer loop
  vertex -0.0122386003 -0.00635981001 -0.00824999996
  vertex -0.0120492987 -0.00490667066 -0.0109620988
  vertex -0.00672393991 -0.00654566055 -0.00637851004
  endloop
 endfacet

 facet normal 0 0 0
  outer loop
  vertex -0.0122386003 -0.00635981001 -0.00824999996
  vertex -0.00672393991 -0.00654566055 -0.00637851004
  vertex -0.0133399004 -0.00631663017 -0.00521653006
  endloop
 endfacet

 facet normal 0 0 0
  outer loop
  vertex -0.0122386003 -0.00635981001 -0.00824999996
  vertex -0.0133399004 -0.00631663017 -0.00521653006
  vertex -0.0153114991 -0.00500521064 -0.00892234966
  endloop
 endfacet

 facet normal 0 0 0
  outer loop
  vertex -0.0122386003 -0.00635981001 -0.00824999996
  vertex -0.0153114991 -0.00500521064 -0.00892234966
  vertex -0.0120492987 -0.00490667066 -0.0109620988
  endloop
 endfacet

 facet normal 0 0 0
  outer loop
  vertex -0.0180609003 0.00176947005 -0.00653142016
  vertex -0.0185320992 -0.000437325041 -0.00685016997
  vertex -0.0168520994 5.27729026e-05 -0.00353774009
  endloop
 endfacet

 facet normal 0 0 0
  outer loop
  vertex -0.0180609003 0.00176947005 -0.00653142016
  vertex -0.0168520994 5.27729026e-05 -0.00353774009
  vertex -0.0129899988 0.000960429024 -0.000475750014
  endloop
 endfacet

 facet normal 0 0 0
  outer loop
  vertex -0.0180609003 0.00176947005 -0.00653142016
  vertex -0.0129899988 0.000960429024 -0.000475750014
  vertex -0.00307436008 0.00470380997 0.00477497978
  endloop
 endfacet

 facet normal 0 0 0
  outer loop
  vertex -0.0180609003 0.00176947005 -0.00653142016
  vertex -0.00307436008 0.00470380997 0.00477497978
  vertex -0.00207294011 0.00726023037 0.00223046006
  endloop
 endfacet

 facet normal 0 0 0
  outer loop
  vertex -0.0180609003 0.00176947005 -0.00653142016
  vertex -0.00207294011 0.00726023037 0.00223046006
  vertex -0.0168880001 0.00248941011 -0.00670239981
  endloop
 endfacet

 facet normal 0 0 0
  outer loop
  vertex -0.0180609003 0.00176947005 -0.00653142016
  vertex -0.0168880001 0.00248941011 -0.00670239981
  vertex -0.0159003995 0.00255803997 -0.0102781998
  endloop
 endfacet

 facet normal 0 0 0
  outer loop
  vertex -0.0180609003 0.00176947005 -0.00653142016
  vertex -0.0159003995 0.00255803997 -0.0102781998
  vertex -0.0170935001 0.00154868001 -0.0103157004
  endloop
 endfacet

 facet normal 0 0 0
  outer loop
  vertex -0.0180609003 0.00176947005 -0.00653142016
  vertex -0.0170935001 0.00154868001 -0.0103157004
  vertex -0.0185320992 -0.000437325041 -0.00685016997
  endloop
 endfacet

endsolid AssimpScene
