solid AssimpScene
 facet normal 0 0 0
  outer loop
  vertex -0.0134610003 0.00373425009 -0.0201047007
  vertex -0.0210178997 0.00610446045 -0.00902052037
  vertex -0.0182208009 0.00885451958 -0.0115878992
  endloop
 endfacet

 facet normal 0 0 0
  outer loop
  vertex -0.0134610003 0.00373425009 -0.0201047007
  vertex -0.0182208009 0.00885451958 -0.0115878992
  vertex -0.015262099 0.00803789031 -0.0160277002
  endloop
 endfacet

 facet normal 0 0 0
  outer loop
  vertex -0.0134610003 0.00373425009 -0.0201047007
  vertex -0.0158530995 -0.00551663013 -0.0187362991
  vertex -0.0210178997 0.00610446045 -0.00902052037
  endloop
 endfacet

 facet normal 0 0 0
  outer loop
  vertex -0.00874129962 -0.000359544996 0.00532271015
  vertex -0.00597513933 -0.00467680022 0.00372968009
  vertex 0.000549475022 -0.00773766031 0.00326102972
  endloop
 endfacet

 facet normal 0 0 0
  outer loop
  vertex -0.00874129962 -0.000359544996 0.00532271015
  vertex 0.000549475022 -0.00773766031 0.00326102972
  vertex -0.0039907 0.00653943047 0.00875043869
  endloop
 endfacet

 facet normal 0 0 0
  outer loop
  vertex -0.0183505993 -0.00643394049 -0.0148958992
  vertex -0.0217601005 -0.00241256994 -0.00879237987
  vertex -0.0210178997 0.00610446045 -0.00902052037
  endloop
 endfacet

 facet normal 0 0 0
  outer loop
  vertex -0.0183505993 -0.00643394049 -0.0148958992
  vertex -0.0210178997 0.00610446045 -0.00902052037
  vertex -0.0158530995 -0.00551663013 -0.0187362991
  endloop
 endfacet

 facet normal 0 0 0
  outer loop
  vertex 0.00492672995 -0.00826328993 -0.000285733986
  vertex -0.0158530995 -0.00551663013 -0.0187362991
  vertex 0.00726660946 -0.00483642006 -0.00460624974
  endloop
 endfacet

 facet normal 0 0 0
  outer loop
  vertex 0.00492672995 -0.00826328993 -0.000285733986
  vertex 0.00726660946 -0.00483642006 -0.00460624974
  vertex 0.0113532003 0.00229472993 -0.00465970999
  endloop
 endfacet

 facet normal 0 0 0
  outer loop
  vertex 0.00492672995 -0.00826328993 -0.000285733986
  vertex 0.0113532003 0.00229472993 -0.00465970999
  vertex 0.00887195952 0.0102362009 0.000514129992
  endloop
 endfacet

 facet normal 0 0 0
  outer loop
  vertex 0.00492672995 -0.00826328993 -0.000285733986
  vertex 0.000549475022 -0.00773766031 0.00326102972
  vertex -0.0183505993 -0.00643394049 -0.0148958992
  endloop
 endfacet

 facet normal 0 0 0
  outer loop
  vertex 0.00492672995 -0.00826328993 -0.000285733986
  vertex -0.0183505993 -0.00643394049 -0.0148958992
  vertex -0.0158530995 -0.00551663013 -0.0187362991
  endloop
 endfacet

 facet normal 0 0 0
  outer loop
  vertex 0.00262722978 0.00996654015 0.00646919012
  vertex 0.00887195952 0.0102362009 0.000514129992
  vertex -0.0156120993 0.00935707986 -0.00978817046
  endloop
 endfacet

 facet normal 0 0 0
  outer loop
  vertex 0.00262722978 0.00996654015 0.00646919012
  vertex -0.0156120993 0.00935707986 -0.00978817046
  vertex -0.0039907 0.00653943047 0.00875043869
  endloop
 endfacet

 facet normal 0 0 0
  outer loop
  vertex 0.00262722978 0.00996654015 0.00646919012
  vertex -0.0039907 0.00653943047 0.00875043869
  vertex 0.000549475022 -0.00773766031 0.00326102972
  endloop
 endfacet

 facet normal 0 0 0
  outer loop
  vertex 0.00262722978 0.00996654015 0.00646919012
  vertex 0.000549475022 -0.00773766031 0.00326102972
  vertex 0.00492672995 -0.00826328993 -0.000285733986
  endloop
 endfacet

 facet normal 0 0 0
  outer loop
  vertex 0.00262722978 0.00996654015 0.00646919012
  vertex 0.00492672995 -0.00826328993 -0.000285733986
  vertex 0.00887195952 0.0102362009 0.000514129992
  endloop
 endfacet

 facet normal 0 0 0
  outer loop
  vertex -0.00971086975 -0.00163914997 -0.0183071997
  vertex 0.0113532003 0.00229472993 -0.00465970999
  vertex 0.00726660946 -0.00483642006 -0.00460624974
  endloop
 endfacet

 facet normal 0 0 0
  outer loop
  vertex 0.00726660946 -0.00483642006 -0.00460624974
  vertex -0.0158530995 -0.00551663013 -0.0187362991
  vertex -0.0137248002 -0.00182263996 -0.0206386
  endloop
 endfacet

 facet normal 0 0 0
  outer loop
  vertex 0.00726660946 -0.00483642006 -0.00460624974
  vertex -0.0137248002 -0.00182263996 -0.0206386
  vertex -0.00971086975 -0.00163914997 -0.0183071997
  endloop
 endfacet

 facet normal 0 0 0
  outer loop
  vertex -0.0137248002 -0.00182263996 -0.0206386
  vertex -0.0158530995 -0.00551663013 -0.0187362991
  vertex -0.0134610003 0.00373425009 -0.0201047007
  endloop
 endfacet

 facet normal 0 0 0
  outer loop
  vertex -0.0210178997 0.00610446045 -0.00902052037
  vertex -0.0039907 0.00653943047 0.00875043869
  vertex -0.0156120993 0.00935707986 -0.00978817046
  endloop
 endfacet

 facet normal 0 0 0
  outer loop
  vertex -0.0210178997 0.00610446045 -0.00902052037
  vertex -0.0156120993 0.00935707986 -0.00978817046
  vertex -0.0182208009 0.00885451958 -0.0115878992
  endloop
 endfacet

 facet normal 0 0 0
  outer loop
  vertex -0.00597513933 -0.00467680022 0.00372968009
  vertex -0.00874129962 -0.000359544996 0.00532271015
  vertex -0.0217601005 -0.00241256994 -0.00879237987
  endloop
 endfacet

 facet normal 0 0 0
  outer loop
  vertex -0.0217601005 -0.00241256994 -0.00879237987
  vertex -0.0183505993 -0.00643394049 -0.0148958992
  vertex 0.000549475022 -0.00773766031 0.00326102972
  endloop
 endfacet

 facet normal 0 0 0
  outer loop
  vertex -0.0217601005 -0.00241256994 -0.00879237987
  vertex 0.000549475022 -0.00773766031 0.00326102972
  vertex -0.00597513933 -0.00467680022 0.00372968009
  endloop
 endfacet

 facet normal 0 0 0
  outer loop
  vertex 0.00475146994 0.00400533015 -0.00912017003
  vertex 0.0113532003 0.00229472993 -0.00465970999
  vertex -0.00971086975 -0.00163914997 -0.0183071997
  endloop
 endfacet

 facet normal 0 0 0
  outer loop
  vertex 0.00475146994 0.00400533015 -0.00912017003
  vertex -0.00971086975 -0.00163914997 -0.0183071997
  vertex -0.0137248002 -0.00182263996 -0.0206386
  endloop
 endfacet

 facet normal 0 0 0
  outer loop
  vertex 0.00475146994 0.00400533015 -0.00912017003
  vertex -0.0137248002 -0.00182263996 -0.0206386
  vertex -0.0134610003 0.00373425009 -0.0201047007
  endloop
 endfacet

 facet normal 0 0 0
  outer loop
  vertex 0.00475146994 0.00400533015 -0.00912017003
  vertex 0.00887195952 0.0102362009 0.000514129992
  vertex 0.0113532003 0.00229472993 -0.00465970999
  endloop
 endfacet

 facet normal 0 0 0
  outer loop
  vertex -0.0121993003 0.00890022982 -0.0146033
  vertex 0.00887195952 0.0102362009 0.000514129992
  vertex 0.00475146994 0.00400533015 -0.00912017003
  endloop
 endfacet

 facet normal 0 0 0
  outer loop
  vertex -0.0121993003 0.00890022982 -0.0146033
  vertex 0.00475146994 0.00400533015 -0.00912017003
  vertex -0.0134610003 0.00373425009 -0.0201047007
  endloop
 endfacet

 facet normal 0 0 0
  outer loop
  vertex -0.0121993003 0.00890022982 -0.0146033
  vertex -0.0134610003 0.00373425009 -0.0201047007
  vertex -0.015262099 0.00803789031 -0.0160277002
  endloop
 endfacet

 facet normal 0 0 0
  outer loop
  vertex -0.0121993003 0.00890022982 -0.0146033
  vertex -0.015262099 0.00803789031 -0.0160277002
  vertex -0.0182208009 0.00885451958 -0.0115878992
  endloop
 endfacet

 facet normal 0 0 0
  outer loop
  vertex -0.0121993003 0.00890022982 -0.0146033
  vertex -0.0182208009 0.00885451958 -0.0115878992
  vertex -0.0156120993 0.00935707986 -0.00978817046
  endloop
 endfacet

 facet normal 0 0 0
  outer loop
  vertex -0.0121993003 0.00890022982 -0.0146033
  vertex -0.0156120993 0.00935707986 -0.00978817046
  vertex 0.00887195952 0.0102362009 0.000514129992
  endloop
 endfacet

 facet normal 0 0 0
  outer loop
  vertex -0.0196243003 0.00179133995 -0.0057329
  vertex -0.0217601005 -0.00241256994 -0.00879237987
  vertex -0.00874129962 -0.000359544996 0.00532271015
  endloop
 endfacet

 facet normal 0 0 0
  outer loop
  vertex -0.0196243003 0.00179133995 -0.0057329
  vertex -0.00874129962 -0.000359544996 0.00532271015
  vertex -0.0039907 0.00653943047 0.00875043869
  endloop
 endfacet

 facet normal 0 0 0
  outer loop
  vertex -0.0196243003 0.00179133995 -0.0057329
  vertex -0.0039907 0.00653943047 0.00875043869
  vertex -0.0210178997 0.00610446045 -0.00902052037
  endloop
 endfacet

 facet normal 0 0 0
  outer loop
  vertex -0.0196243003 0.00179133995 -0.0057329
  vertex -0.0210178997 0.00610446045 -0.00902052037
  vertex -0.0217601005 -0.00241256994 -0.00879237987
  endloop
 endfacet

endsolid AssimpScene
