solid AssimpScene
 facet normal 0 0 0
  outer loop
  vertex 0.00328958989 -0.00188445998 -0.00813984033
  vertex -0.0121759996 -0.00189737987 -0.0168834999
  vertex -0.0122761996 0.00256478996 -0.0166298002
  endloop
 endfacet

 facet normal 0 0 0
  outer loop
  vertex 0.00328958989 -0.00188445998 -0.00813984033
  vertex -0.0122761996 0.00256478996 -0.0166298002
  vertex 0.00355343008 0.00367243006 -0.00760594057
  endloop
 endfacet

 facet normal 0 0 0
  outer loop
  vertex -0.0179175995 -0.00592130003 -0.0093788011
  vertex -0.0221708007 -0.000676202006 -0.00629734062
  vertex -0.0193189997 0.00560944993 -0.0142222
  endloop
 endfacet

 facet normal 0 0 0
  outer loop
  vertex -2.94112033e-06 -0.00577537948 0.00248491997
  vertex 0.00328958989 -0.00188445998 -0.00813984033
  vertex 0.00355343008 0.00367243006 -0.00760594057
  endloop
 endfacet

 facet normal 0 0 0
  outer loop
  vertex -2.94112033e-06 -0.00577537948 0.00248491997
  vertex 0.00355343008 0.00367243006 -0.00760594057
  vertex 0.00140235003 0.0092952596 0.00271060993
  endloop
 endfacet

 facet normal 0 0 0
  outer loop
  vertex -2.94112033e-06 -0.00577537948 0.00248491997
  vertex -0.0179175995 -0.00592130003 -0.0093788011
  vertex -0.00133623998 -0.00649575982 -0.00239712
  endloop
 endfacet

 facet normal 0 0 0
  outer loop
  vertex -0.0122761996 0.00256478996 -0.0166298002
  vertex -0.0121759996 -0.00189737987 -0.0168834999
  vertex -0.0193189997 0.00560944993 -0.0142222
  endloop
 endfacet

 facet normal 0 0 0
  outer loop
  vertex -0.00972034968 0.00732296938 -0.0110738007
  vertex 0.00355343008 0.00367243006 -0.00760594057
  vertex -0.0122761996 0.00256478996 -0.0166298002
  endloop
 endfacet

 facet normal 0 0 0
  outer loop
  vertex -0.00972034968 0.00732296938 -0.0110738007
  vertex -0.0122761996 0.00256478996 -0.0166298002
  vertex -0.0193189997 0.00560944993 -0.0142222
  endloop
 endfacet

 facet normal 0 0 0
  outer loop
  vertex -0.00972034968 0.00732296938 -0.0110738007
  vertex -0.0193189997 0.00560944993 -0.0142222
  vertex -0.0134194009 0.00753286947 -0.0067473799
  endloop
 endfacet

 facet normal 0 0 0
  outer loop
  vertex -0.00972034968 0.00732296938 -0.0110738007
  vertex -0.0134194009 0.00753286947 -0.0067473799
  vertex 0.00140235003 0.0092952596 0.00271060993
  endloop
 endfacet

 facet normal 0 0 0
  outer loop
  vertex -0.0179398004 0.00656906981 -0.00810142979
  vertex -0.0134194009 0.00753286947 -0.0067473799
  vertex -0.0193189997 0.00560944993 -0.0142222
  endloop
 endfacet

 facet normal 0 0 0
  outer loop
  vertex -0.0179398004 0.00656906981 -0.00810142979
  vertex -0.0193189997 0.00560944993 -0.0142222
  vertex -0.0221708007 -0.000676202006 -0.00629734062
  endloop
 endfacet

 facet normal 0 0 0
  outer loop
  vertex -0.0179398004 0.00656906981 -0.00810142979
  vertex 0.00140235003 0.0092952596 0.00271060993
  vertex -0.0134194009 0.00753286947 -0.0067473799
  endloop
 endfacet

 facet normal 0 0 0
  outer loop
  vertex 0.00116134004 -0.00557844993 -0.00623747986
  vertex -0.0129789012 -0.00441309996 -0.015203
  vertex -0.0121759996 -0.00189737987 -0.0168834999
  endloop
 endfacet

 facet normal 0 0 0
  outer loop
  vertex 0.00116134004 -0.00557844993 -0.00623747986
  vertex -0.0121759996 -0.00189737987 -0.0168834999
  vertex 0.00328958989 -0.00188445998 -0.00813984033
  endloop
 endfacet

 facet normal 0 0 0
  outer loop
  vertex 0.00116134004 -0.00557844993 -0.00623747986
  vertex 0.00328958989 -0.00188445998 -0.00813984033
  vertex -2.94112033e-06 -0.00577537948 0.00248491997
  endloop
 endfacet

 facet normal 0 0 0
  outer loop
  vertex 0.00116134004 -0.00557844993 -0.00623747986
  vertex -2.94112033e-06 -0.00577537948 0.00248491997
  vertex -0.00133623998 -0.00649575982 -0.00239712
  endloop
 endfacet

 facet normal 0 0 0
  outer loop
  vertex -0.0129789012 -0.00441309996 -0.015203
  vertex 0.00116134004 -0.00557844993 -0.00623747986
  vertex -0.00133623998 -0.00649575982 -0.00239712
  endloop
 endfacet

 facet normal 0 0 0
  outer loop
  vertex -0.0129789012 -0.00441309996 -0.015203
  vertex -0.00133623998 -0.00649575982 -0.00239712
  vertex -0.0179175995 -0.00592130003 -0.0093788011
  endloop
 endfacet

 facet normal 0 0 0
  outer loop
  vertex -0.0129789012 -0.00441309996 -0.015203
  vertex -0.0179175995 -0.00592130003 -0.0093788011
  vertex -0.0193189997 0.00560944993 -0.0142222
  endloop
 endfacet

 facet normal 0 0 0
  outer loop
  vertex -0.0129789012 -0.00441309996 -0.015203
  vertex -0.0193189997 0.00560944993 -0.0142222
  vertex -0.0121759996 -0.00189737987 -0.0168834999
  endloop
 endfacet

 facet normal 0 0 0
  outer loop
  vertex 0.00175229996 0.00797606912 -0.00352886994
  vertex 0.00355343008 0.00367243006 -0.00760594057
  vertex -0.00972034968 0.00732296938 -0.0110738007
  endloop
 endfacet

 facet normal 0 0 0
  outer loop
  vertex 0.00175229996 0.00797606912 -0.00352886994
  vertex -0.00972034968 0.00732296938 -0.0110738007
  vertex 0.00140235003 0.0092952596 0.00271060993
  endloop
 endfacet

 facet normal 0 0 0
  outer loop
  vertex 0.00175229996 0.00797606912 -0.00352886994
  vertex 0.00140235003 0.0092952596 0.00271060993
  vertex 0.00355343008 0.00367243006 -0.00760594057
  endloop
 endfacet

 facet normal 0 0 0
  outer loop
  vertex -0.000966424064 0.00614316994 0.00569288014
  vertex 0.00140235003 0.0092952596 0.00271060993
  vertex -0.0179398004 0.00656906981 -0.00810142979
  endloop
 endfacet

 facet normal 0 0 0
  outer loop
  vertex -0.000966424064 0.00614316994 0.00569288014
  vertex -0.0026098399 0.00172951003 0.00676588016
  vertex -2.94112033e-06 -0.00577537948 0.00248491997
  endloop
 endfacet

 facet normal 0 0 0
  outer loop
  vertex -0.000966424064 0.00614316994 0.00569288014
  vertex -2.94112033e-06 -0.00577537948 0.00248491997
  vertex 0.00140235003 0.0092952596 0.00271060993
  endloop
 endfacet

 facet normal 0 0 0
  outer loop
  vertex -0.0189413019 0.00401264988 -0.00555690983
  vertex -0.0221708007 -0.000676202006 -0.00629734062
  vertex -0.0026098399 0.00172951003 0.00676588016
  endloop
 endfacet

 facet normal 0 0 0
  outer loop
  vertex -0.0189413019 0.00401264988 -0.00555690983
  vertex -0.0026098399 0.00172951003 0.00676588016
  vertex -0.000966424064 0.00614316994 0.00569288014
  endloop
 endfacet

 facet normal 0 0 0
  outer loop
  vertex -0.0189413019 0.00401264988 -0.00555690983
  vertex -0.000966424064 0.00614316994 0.00569288014
  vertex -0.0179398004 0.00656906981 -0.00810142979
  endloop
 endfacet

 facet normal 0 0 0
  outer loop
  vertex -0.0189413019 0.00401264988 -0.00555690983
  vertex -0.0179398004 0.00656906981 -0.00810142979
  vertex -0.0221708007 -0.000676202006 -0.00629734062
  endloop
 endfacet

 facet normal 0 0 0
  outer loop
  vertex -0.00474563986 -0.00247438997 0.00370641006
  vertex -0.0221708007 -0.000676202006 -0.00629734062
  vertex -0.0179175995 -0.00592130003 -0.0093788011
  endloop
 endfacet

 facet normal 0 0 0
  outer loop
  vertex -0.00474563986 -0.00247438997 0.00370641006
  vertex -0.0179175995 -0.00592130003 -0.0093788011
  vertex -2.94112033e-06 -0.00577537948 0.00248491997
  endloop
 endfacet

 facet normal 0 0 0
  outer loop
  vertex -0.00474563986 -0.00247438997 0.00370641006
  vertex -2.94112033e-06 -0.00577537948 0.00248491997
  vertex -0.0026098399 0.00172951003 0.00676588016
  endloop
 endfacet

 facet normal 0 0 0
  outer loop
  vertex -0.00474563986 -0.00247438997 0.00370641006
  vertex -0.0026098399 0.00172951003 0.00676588016
  vertex -0.0221708007 -0.000676202006 -0.00629734062
  endloop
 endfacet

endsolid AssimpScene
