# Created by Open3D 
# object name: pinky_dip
# number of vertices: 61
# number of triangles: 108
v 0.00359065 0.00325595 -0.00629795
vn 0.223682 0.53558 -0.814322
v 0.00209979 0.00758152 -0.0022929
vn 0.0497207 0.687731 -0.724261
v -0.00207294 0.00726023 0.00223046
vn -0.462065 0.846097 0.265737
v -0.00307436 0.00470381 0.00477498
vn -0.509156 0.475893 0.717137
v -0.00330422 0.00165245 0.00574448
vn -0.377953 -0.283905 0.88122
v 0.00369087 -0.00120622 -0.00655164
vn 0.452509 -0.274696 -0.848397
v 0.00288797 -0.00372194 -0.00487116
vn 0.417286 -0.800116 -0.430913
v 0.00187581 -0.0050983 -0.00146572
vn 0.287774 -0.95769 -0.00398047
v -0.000278036 -0.00143444 -0.00845639
vn 0.404806 -0.126874 -0.905558
v -0.0024462 0.00286914 -0.00845706
vn 0.291106 0.457722 -0.840088
v -0.0151795 0.0016198 -0.00396762
vn -0.52739 0.669109 0.523596
v -0.0119082 0.00273854 -0.00186967
vn -0.516965 0.750805 0.411144
v -0.0114656 0.00324162 -0.00288056
vn -0.34652 0.933732 0.0898216
v -0.0151015 0.00251917 -0.00463628
vn -0.287211 0.938485 0.191716
v -0.00731544 0.00521843 -0.000552696
vn -0.459271 0.869125 0.183553
v -0.0077795 0.00499852 -0.00216263
vn -0.341181 0.939509 -0.0303058
v -0.00503269 0.00528605 -0.00446691
vn -0.201893 0.934115 -0.294395
v -0.00957151 0.00407042 -0.0067004
vn -0.150256 0.950813 -0.270884
v -0.00751058 0.00100359 -0.0105919
vn 0.0790154 0.745681 -0.661601
v -0.0113693 0.000443714 -0.0119357
vn 0.154883 0.668444 -0.727457
v -0.0128146 0.00348117 -0.00855177
vn -0.010112 0.934022 -0.357073
v -0.00440287 0.00348081 -0.00824307
vn -0.0176448 0.78646 -0.61739
v -0.016888 0.00248941 -0.0067024
vn -0.379646 0.92237 0.0714373
v -0.0180609 0.00176947 -0.00653142
vn -0.800191 0.548036 0.243619
v -0.00345207 0.00630061 -0.00389034
vn -0.0586665 0.863363 -0.501162
v -0.0072287 0.00301195 0.00294818
vn -0.550995 0.508446 0.661731
v -0.01299 0.000960429 -0.00047575
vn -0.59935 0.398764 0.694094
v -0.0168521 5.27729e-05 -0.00353774
vn -0.768457 0.292035 0.569376
v -0.0185321 -0.000437325 -0.00685017
vn -0.999624 0.0188172 -0.0199486
v -0.0119815 -0.00124909 0.000501364
vn -0.543825 -0.133363 0.828534
v -0.0167307 -0.00224188 -0.00304419
vn -0.690909 -0.219875 0.688694
v -0.0181996 -0.00274435 -0.00631938
vn -0.916171 -0.346473 0.201462
v -0.010449 -0.00423612 0.000263623
vn -0.388046 -0.6042 0.695961
v -0.0151006 -0.00437091 -0.00332772
vn -0.533754 -0.606101 0.589702
v -0.00445346 -0.00310191 0.00371985
vn -0.248245 -0.640049 0.727125
v -0.00630387 1.49519e-05 0.00403455
vn -0.464525 -0.139393 0.87452
v -0.0168012 -0.00386617 -0.00595804
vn -0.639794 -0.723738 0.258587
v -0.0170935 0.00154868 -0.0103157
vn -0.76498 0.399987 -0.504793
v -0.017689 -0.00134308 -0.00993482
vn -0.852403 -0.0764443 -0.517267
v -0.0159004 0.00255804 -0.0102782
vn -0.249053 0.893194 -0.374403
v -0.00674441 -0.000108628 -0.0110732
vn 0.291193 0.224494 -0.929951
v -0.0114469 -0.0010183 -0.0126968
vn 0.0959913 0.0448363 -0.994372
v -0.00600353 -0.00258854 -0.010927
vn 0.359897 -0.211267 -0.908758
v -0.0115909 -0.00318311 -0.0123028
vn 0.0892742 -0.365485 -0.926526
v -0.0149343 -0.000377335 -0.0125778
vn -0.423159 0.118647 -0.898254
v -0.0140762 0.00111167 -0.0118597
vn 0.00526173 0.652459 -0.757806
v -0.00267016 -0.00211167 0.00490789
vn -0.199793 -0.584076 0.786726
v -0.00205066 -0.00523015 0.000953092
vn 0.0251232 -0.928368 0.370812
v -0.00824009 -0.00644143 -0.00214776
vn -0.0577713 -0.949822 0.307409
v -0.000153082 -0.00570142 -0.00303893
vn 0.207546 -0.975783 -0.0690811
v 0.00029371 -0.00396874 -0.00651762
vn 0.365373 -0.741157 -0.563195
v -0.00599975 -0.00481624 -0.00925748
vn 0.282715 -0.732161 -0.619688
v -0.00672394 -0.00654566 -0.00637851
vn 0.141297 -0.969801 -0.198798
v -0.0120493 -0.00490667 -0.0109621
vn 0.0364454 -0.753385 -0.656569
v -0.0122386 -0.00635981 -0.00825
vn -0.0272657 -0.945366 -0.324868
v -0.0133399 -0.00631663 -0.00521653
vn -0.284568 -0.938914 0.193548
v -0.0156817 -0.00382226 -0.0104854
vn -0.377092 -0.672795 -0.636512
v -0.0157047 -0.00245141 -0.0118255
vn -0.406814 -0.371188 -0.834698
v -0.017245 -0.00318661 -0.00897976
vn -0.808336 -0.497956 -0.314059
v -0.0153115 -0.00500521 -0.00892235
vn -0.417118 -0.855732 -0.306163
v -0.0160537 -0.00470514 -0.00752888
vn -0.617975 -0.78581 -0.0246704
f 10//10 1//1 9//9
f 9//9 1//1 6//6
f 11//11 12//12 14//14
f 14//14 12//12 13//13
f 15//15 16//16 12//12
f 12//12 16//16 13//13
f 13//13 16//16 18//18
f 18//18 16//16 17//17
f 18//18 19//19 21//21
f 21//21 19//19 20//20
f 17//17 22//22 18//18
f 18//18 22//22 19//19
f 21//21 14//14 18//18
f 18//18 14//14 13//13
f 14//14 23//23 11//11
f 11//11 23//23 24//24
f 16//16 15//15 17//17
f 17//17 15//15 25//25
f 15//15 3//3 25//25
f 15//15 26//26 3//3
f 3//3 26//26 4//4
f 27//27 26//26 12//12
f 12//12 26//26 15//15
f 28//28 27//27 11//11
f 11//11 27//27 12//12
f 17//17 25//25 22//22
f 22//22 25//25 10//10
f 10//10 25//25 1//1
f 1//1 25//25 2//2
f 29//29 28//28 24//24
f 24//24 28//28 11//11
f 30//30 27//27 31//31
f 31//31 27//27 28//28
f 29//29 32//32 28//28
f 28//28 32//32 31//31
f 33//33 30//30 34//34
f 34//34 30//30 31//31
f 30//30 33//33 36//36
f 36//36 33//33 35//35
f 32//32 37//37 31//31
f 31//31 37//37 34//34
f 27//27 30//30 26//26
f 26//26 30//30 36//36
f 26//26 36//36 4//4
f 24//24 38//38 29//29
f 29//29 38//38 39//39
f 24//24 23//23 38//38
f 38//38 23//23 40//40
f 19//19 22//22 41//41
f 41//41 22//22 10//10
f 19//19 41//41 20//20
f 20//20 41//41 42//42
f 41//41 10//10 43//43
f 43//43 10//10 9//9
f 42//42 41//41 44//44
f 44//44 41//41 43//43
f 45//45 46//46 42//42
f 42//42 46//46 20//20
f 40//40 46//46 38//38
f 38//38 46//46 45//45
f 35//35 48//48 47//47
f 33//33 49//49 35//35
f 35//35 49//49 48//48
f 8//8 48//48 50//50
f 47//47 5//5 35//35
f 35//35 5//5 36//36
f 51//51 7//7 50//50
f 50//50 7//7 8//8
f 7//7 51//51 6//6
f 6//6 51//51 9//9
f 51//51 52//52 9//9
f 9//9 52//52 43//43
f 52//52 51//51 53//53
f 53//53 51//51 50//50
f 54//54 52//52 55//55
f 55//55 52//52 53//53
f 48//48 49//49 50//50
f 50//50 49//49 53//53
f 49//49 56//56 53//53
f 53//53 56//56 55//55
f 52//52 54//54 43//43
f 43//43 54//54 44//44
f 58//58 44//44 57//57
f 57//57 44//44 54//54
f 57//57 60//60 59//59
f 59//59 60//60 61//61
f 57//57 54//54 60//60
f 60//60 54//54 55//55
f 57//57 59//59 58//58
f 58//58 59//59 39//39
f 58//58 39//39 45//45
f 45//45 39//39 38//38
f 45//45 42//42 58//58
f 58//58 42//42 44//44
f 49//49 33//33 56//56
f 56//56 33//33 34//34
f 61//61 56//56 37//37
f 37//37 56//56 34//34
f 61//61 60//60 56//56
f 56//56 60//60 55//55
f 59//59 61//61 32//32
f 32//32 61//61 37//37
f 32//32 29//29 59//59
f 59//59 29//29 39//39
f 14//14 21//21 23//23
f 23//23 21//21 40//40
f 40//40 21//21 46//46
f 46//46 21//21 20//20
