# Created by Open3D 
# object name: pinky_mcp
# number of vertices: 37
# number of triangles: 47
v -0.0039907 0.00653943 0.00875044
vn -0.749843 0.592193 0.295031
v 0.0113532 0.00229473 -0.00465971
vn 0.528091 0.485607 -0.696639
v 0.00887196 0.0102362 0.00051413
vn 0.464064 0.58075 -0.668861
v 0.00262723 0.00996654 0.00646919
vn -0.0561251 0.998395 0.0075626
v -0.0205722 -0.00483237 -0.0118498
vn -0.431471 -0.784643 0.44516
v -0.0217601 -0.00241257 -0.00879238
vn -0.518351 -0.538965 0.66395
v -0.0210179 0.00610446 -0.00902052
vn -0.551983 0.385309 0.739494
v -0.0182208 0.00885452 -0.0115879
vn -0.45732 0.767956 0.448444
v -0.0152621 0.00803789 -0.0160277
vn -0.0224315 0.875859 -0.482046
v -0.0156121 0.00935708 -0.00978817
vn -0.269829 0.925787 0.264784
v -0.0179808 0.00620499 -0.00680591
vn -0.525031 0.597734 0.605852
v -0.006318 0.00634117 0.00323339
vn -0.571666 0.607123 0.551905
v -0.00260664 0.00971609 0.000690359
vn -0.171798 0.978586 0.11338
v 0.00726661 -0.00483642 -0.00460625
vn 0.319262 -0.661337 -0.678753
v 0.00492673 -0.00826329 -0.000285734
vn 0.150273 -0.850161 -0.504622
v -0.00150966 -0.0065468 -0.0043382
vn 0.101822 -0.972072 -0.211441
v 0.00131012 -0.00465289 -0.00744535
vn 0.364717 -0.727194 -0.581524
v -0.0110593 -0.0051205 -0.0164115
vn 0.339421 -0.817081 -0.466017
v -0.0140883 -0.00677558 -0.0131903
vn 0.0172746 -0.998807 -0.0456839
v -0.0183506 -0.00643394 -0.0148959
vn -0.0673259 -0.997234 -0.0315022
v -0.0158531 -0.00551663 -0.0187363
vn 0.224687 -0.872942 -0.432999
v 0.000549475 -0.00773766 0.00326103
vn -0.194736 -0.975731 -0.100138
v -0.00597514 -0.0046768 0.00372968
vn -0.463328 -0.770702 0.437431
v -0.00477245 -0.00625289 -0.000856859
vn -0.225779 -0.953093 0.201586
v -0.0087413 -0.000359545 0.00532271
vn -0.735937 -0.0184019 0.6768
v -0.00971087 -0.00163915 -0.0183072
vn 0.545094 -0.324278 -0.773121
v -0.00955049 0.00421859 -0.0181434
vn 0.512157 0.243628 -0.823614
v 0.00475147 0.00400533 -0.00912017
vn 0.498812 0.456258 -0.736896
v 0.00424847 -0.000790137 -0.00853517
vn 0.534603 -0.25447 -0.805881
v -0.0196243 0.00179134 -0.0057329
vn -0.661307 0.200082 0.722938
v -0.0170173 -0.00571356 -0.0100139
vn -0.284942 -0.902069 0.32416
v -0.0188254 -0.00305378 -0.0070218
vn -0.524113 -0.669132 0.526847
v -0.0121993 0.00890023 -0.0146033
vn 0.201176 0.890433 -0.408236
v -0.013461 0.00373425 -0.0201047
vn 0.298197 0.513182 -0.804812
v -0.0137248 -0.00182264 -0.0206386
vn 0.469665 -0.256376 -0.8448
v 0.00142933 0.00998508 -0.00486771
vn 0.284676 0.854799 -0.43391
v 0.00687817 -0.00143039 -0.0066105
vn 0.521877 -0.216093 -0.825196
f 11//11 12//12 10//10
f 10//10 12//12 13//13
f 14//14 15//15 17//17
f 17//17 15//15 16//16
f 18//18 19//19 21//21
f 21//21 19//19 20//20
f 26//26 27//27 29//29
f 29//29 27//27 28//28
f 7//7 30//30 11//11
f 16//16 22//22 24//24
f 19//19 31//31 20//20
f 32//32 30//30 6//6
f 27//27 34//34 33//33
f 33//33 34//34 9//9
f 26//26 35//35 27//27
f 27//27 35//35 34//34
f 33//33 9//9 10//10
f 10//10 13//13 33//33
f 33//33 13//13 36//36
f 18//18 26//26 17//17
f 17//17 26//26 29//29
f 31//31 32//32 5//5
f 5//5 32//32 6//6
f 8//8 11//11 10//10
f 26//26 18//18 35//35
f 35//35 18//18 21//21
f 3//3 2//2 36//36
f 36//36 2//2 28//28
f 25//25 12//12 30//30
f 30//30 12//12 11//11
f 12//12 1//1 13//13
f 17//17 16//16 18//18
f 18//18 16//16 19//19
f 31//31 24//24 32//32
f 32//32 24//24 23//23
f 23//23 25//25 32//32
f 32//32 25//25 30//30
f 37//37 14//14 29//29
f 29//29 14//14 17//17
f 16//16 24//24 19//19
f 19//19 24//24 31//31
f 13//13 4//4 36//36
f 36//36 28//28 33//33
f 33//33 28//28 27//27
f 12//12 25//25 1//1
f 29//29 28//28 37//37
f 37//37 28//28 2//2
