solid AssimpScene
 facet normal 0 0 0
  outer loop
  vertex -0.0262545999 -0.00370749994 -0.0121568991
  vertex -0.0270697009 -0.00599811971 -0.00856414996
  vertex -0.0310879014 -0.00291278982 0.000914251956
  endloop
 endfacet

 facet normal 0 0 0
  outer loop
  vertex -0.0262545999 -0.00370749994 -0.0121568991
  vertex -0.0310879014 -0.00291278982 0.000914251956
  vertex -0.0326245017 0.00157767988 0.00201575994
  endloop
 endfacet

 facet normal 0 0 0
  outer loop
  vertex -0.0298532024 0.0104839997 -0.00138232985
  vertex -0.0261854995 0.00769315986 -0.0126921004
  vertex -0.0326245017 0.00157767988 0.00201575994
  endloop
 endfacet

 facet normal 0 0 0
  outer loop
  vertex -0.00882862043 0.0130407 -0.00309718982
  vertex 0.0101832002 0.00632590009 -0.00461051008
  vertex -0.0261854995 0.00769315986 -0.0126921004
  endloop
 endfacet

 facet normal 0 0 0
  outer loop
  vertex 0.00580745004 0.0125885988 0.00102311
  vertex 0.0101832002 0.00632590009 -0.00461051008
  vertex -0.00882862043 0.0130407 -0.00309718982
  endloop
 endfacet

 facet normal 0 0 0
  outer loop
  vertex 0.00580745004 0.0125885988 0.00102311
  vertex -0.000932756986 0.0104564996 0.0104191992
  vertex 0.0101832002 0.00632590009 -0.00461051008
  endloop
 endfacet

 facet normal 0 0 0
  outer loop
  vertex -0.0262545999 -0.00370749994 -0.0121568991
  vertex 0.00532697048 -0.00945227966 -0.00862096995
  vertex -0.0270697009 -0.00599811971 -0.00856414996
  endloop
 endfacet

 facet normal 0 0 0
  outer loop
  vertex -0.0262545999 -0.00370749994 -0.0121568991
  vertex -0.0326245017 0.00157767988 0.00201575994
  vertex -0.0261854995 0.00769315986 -0.0126921004
  endloop
 endfacet

 facet normal 0 0 0
  outer loop
  vertex -0.0117948996 -0.00198394991 0.0129020987
  vertex -0.00708198035 -0.00605192967 0.0109935999
  vertex -0.000932756986 0.0104564996 0.0104191992
  endloop
 endfacet

 facet normal 0 0 0
  outer loop
  vertex -0.0117948996 -0.00198394991 0.0129020987
  vertex -0.000932756986 0.0104564996 0.0104191992
  vertex -0.0101626003 0.00590721937 0.012248599
  endloop
 endfacet

 facet normal 0 0 0
  outer loop
  vertex -0.0117948996 -0.00198394991 0.0129020987
  vertex -0.0101626003 0.00590721937 0.012248599
  vertex -0.0326245017 0.00157767988 0.00201575994
  endloop
 endfacet

 facet normal 0 0 0
  outer loop
  vertex -0.0310879014 -0.00291278982 0.000914251956
  vertex -0.00708198035 -0.00605192967 0.0109935999
  vertex -0.0117948996 -0.00198394991 0.0129020987
  endloop
 endfacet

 facet normal 0 0 0
  outer loop
  vertex -0.0310879014 -0.00291278982 0.000914251956
  vertex -0.0117948996 -0.00198394991 0.0129020987
  vertex -0.0326245017 0.00157767988 0.00201575994
  endloop
 endfacet

 facet normal 0 0 0
  outer loop
  vertex -0.0275126025 0.0112577993 -0.00675262976
  vertex -0.00882862043 0.0130407 -0.00309718982
  vertex -0.0261854995 0.00769315986 -0.0126921004
  endloop
 endfacet

 facet normal 0 0 0
  outer loop
  vertex -0.0275126025 0.0112577993 -0.00675262976
  vertex -0.0261854995 0.00769315986 -0.0126921004
  vertex -0.0298532024 0.0104839997 -0.00138232985
  endloop
 endfacet

 facet normal 0 0 0
  outer loop
  vertex -0.0248344019 -0.00658484967 -0.00131383003
  vertex -0.00708198035 -0.00605192967 0.0109935999
  vertex -0.0310879014 -0.00291278982 0.000914251956
  endloop
 endfacet

 facet normal 0 0 0
  outer loop
  vertex -0.0248344019 -0.00658484967 -0.00131383003
  vertex -0.0287034027 -0.00595575944 -0.0033925497
  vertex -0.0270697009 -0.00599811971 -0.00856414996
  endloop
 endfacet

 facet normal 0 0 0
  outer loop
  vertex -0.0248344019 -0.00658484967 -0.00131383003
  vertex -0.0270697009 -0.00599811971 -0.00856414996
  vertex 0.00532697048 -0.00945227966 -0.00862096995
  endloop
 endfacet

 facet normal 0 0 0
  outer loop
  vertex -0.0212996006 0.000901424966 -0.0132411998
  vertex 0.00532697048 -0.00945227966 -0.00862096995
  vertex -0.0262545999 -0.00370749994 -0.0121568991
  endloop
 endfacet

 facet normal 0 0 0
  outer loop
  vertex -0.0212996006 0.000901424966 -0.0132411998
  vertex -0.0262545999 -0.00370749994 -0.0121568991
  vertex -0.0261854995 0.00769315986 -0.0126921004
  endloop
 endfacet

 facet normal 0 0 0
  outer loop
  vertex -0.0212996006 0.000901424966 -0.0132411998
  vertex -0.0261854995 0.00769315986 -0.0126921004
  vertex 0.0101832002 0.00632590009 -0.00461051008
  endloop
 endfacet

 facet normal 0 0 0
  outer loop
  vertex -0.0212996006 0.000901424966 -0.0132411998
  vertex 0.0101832002 0.00632590009 -0.00461051008
  vertex 0.00532697048 -0.00945227966 -0.00862096995
  endloop
 endfacet

 facet normal 0 0 0
  outer loop
  vertex -0.00122492004 -0.00778341945 0.00384912011
  vertex -0.00708198035 -0.00605192967 0.0109935999
  vertex -0.0248344019 -0.00658484967 -0.00131383003
  endloop
 endfacet

 facet normal 0 0 0
  outer loop
  vertex -0.00122492004 -0.00778341945 0.00384912011
  vertex -0.0248344019 -0.00658484967 -0.00131383003
  vertex 0.00532697048 -0.00945227966 -0.00862096995
  endloop
 endfacet

 facet normal 0 0 0
  outer loop
  vertex -0.00122492004 -0.00778341945 0.00384912011
  vertex 0.00532697048 -0.00945227966 -0.00862096995
  vertex 0.0101832002 0.00632590009 -0.00461051008
  endloop
 endfacet

 facet normal 0 0 0
  outer loop
  vertex 0.0101832002 0.00632590009 -0.00461051008
  vertex -0.000932756986 0.0104564996 0.0104191992
  vertex -0.00708198035 -0.00605192967 0.0109935999
  endloop
 endfacet

 facet normal 0 0 0
  outer loop
  vertex 0.0101832002 0.00632590009 -0.00461051008
  vertex -0.00708198035 -0.00605192967 0.0109935999
  vertex -0.00122492004 -0.00778341945 0.00384912011
  endloop
 endfacet

 facet normal 0 0 0
  outer loop
  vertex -0.0287034027 -0.00595575944 -0.0033925497
  vertex -0.0248344019 -0.00658484967 -0.00131383003
  vertex -0.0310879014 -0.00291278982 0.000914251956
  endloop
 endfacet

 facet normal 0 0 0
  outer loop
  vertex -0.0287034027 -0.00595575944 -0.0033925497
  vertex -0.0310879014 -0.00291278982 0.000914251956
  vertex -0.0270697009 -0.00599811971 -0.00856414996
  endloop
 endfacet

 facet normal 0 0 0
  outer loop
  vertex -0.0118294004 0.0122085996 0.00337851979
  vertex -0.000932756986 0.0104564996 0.0104191992
  vertex 0.00580745004 0.0125885988 0.00102311
  endloop
 endfacet

 facet normal 0 0 0
  outer loop
  vertex -0.0118294004 0.0122085996 0.00337851979
  vertex 0.00580745004 0.0125885988 0.00102311
  vertex -0.00882862043 0.0130407 -0.00309718982
  endloop
 endfacet

 facet normal 0 0 0
  outer loop
  vertex -0.0283039007 0.00706741959 0.0026933297
  vertex -0.0326245017 0.00157767988 0.00201575994
  vertex -0.0101626003 0.00590721937 0.012248599
  endloop
 endfacet

 facet normal 0 0 0
  outer loop
  vertex -0.0283039007 0.00706741959 0.0026933297
  vertex -0.0298532024 0.0104839997 -0.00138232985
  vertex -0.0326245017 0.00157767988 0.00201575994
  endloop
 endfacet

 facet normal 0 0 0
  outer loop
  vertex -0.0250142012 0.0117000993 -7.74664877e-05
  vertex -0.0298532024 0.0104839997 -0.00138232985
  vertex -0.0283039007 0.00706741959 0.0026933297
  endloop
 endfacet

 facet normal 0 0 0
  outer loop
  vertex -0.0250142012 0.0117000993 -7.74664877e-05
  vertex -0.0283039007 0.00706741959 0.0026933297
  vertex -0.0101626003 0.00590721937 0.012248599
  endloop
 endfacet

 facet normal 0 0 0
  outer loop
  vertex -0.0250142012 0.0117000993 -7.74664877e-05
  vertex -0.0101626003 0.00590721937 0.012248599
  vertex -0.000932756986 0.0104564996 0.0104191992
  endloop
 endfacet

 facet normal 0 0 0
  outer loop
  vertex -0.0250142012 0.0117000993 -7.74664877e-05
  vertex -0.000932756986 0.0104564996 0.0104191992
  vertex -0.0118294004 0.0122085996 0.00337851979
  endloop
 endfacet

 facet normal 0 0 0
  outer loop
  vertex -0.0250142012 0.0117000993 -7.74664877e-05
  vertex -0.0118294004 0.0122085996 0.00337851979
  vertex -0.00882862043 0.0130407 -0.00309718982
  endloop
 endfacet

 facet normal 0 0 0
  outer loop
  vertex -0.0250142012 0.0117000993 -7.74664877e-05
  vertex -0.00882862043 0.0130407 -0.00309718982
  vertex -0.0275126025 0.0112577993 -0.00675262976
  endloop
 endfacet

 facet normal 0 0 0
  outer loop
  vertex -0.0250142012 0.0117000993 -7.74664877e-05
  vertex -0.0275126025 0.0112577993 -0.00675262976
  vertex -0.0298532024 0.0104839997 -0.00138232985
  endloop
 endfacet

endsolid AssimpScene
