solid AssimpScene
 facet normal 0 0 0
  outer loop
  vertex -0.0118461 -0.00603138981 -0.00729339011
  vertex 0.00153672998 -0.00578068011 -0.00383896031
  vertex 0.000532154052 -0.00657906989 0.000750582025
  endloop
 endfacet

 facet normal 0 0 0
  outer loop
  vertex -0.0118461 -0.00603138981 -0.00729339011
  vertex 0.000532154052 -0.00657906989 0.000750582025
  vertex -0.0178849008 -0.00657624006 -0.00450769998
  endloop
 endfacet

 facet normal 0 0 0
  outer loop
  vertex -0.0245836005 0.0039546201 -0.00256686029
  vertex -0.00238139997 0.00580317015 0.00451719994
  vertex -0.0198337007 0.00608889991 -0.00644285046
  endloop
 endfacet

 facet normal 0 0 0
  outer loop
  vertex 0.000532154052 -0.00657906989 0.000750582025
  vertex -0.0141331004 -0.00512780994 0.000858540996
  vertex -0.0178849008 -0.00657624006 -0.00450769998
  endloop
 endfacet

 facet normal 0 0 0
  outer loop
  vertex 0.00044423301 0.00126858999 -0.00814136956
  vertex 0.00106123998 0.00509786978 -0.00579932006
  vertex 0.00153672998 -0.00578068011 -0.00383896031
  endloop
 endfacet

 facet normal 0 0 0
  outer loop
  vertex 0.000213082996 0.00742350938 -0.00034564102
  vertex 0.00106123998 0.00509786978 -0.00579932006
  vertex -0.0198337007 0.00608889991 -0.00644285046
  endloop
 endfacet

 facet normal 0 0 0
  outer loop
  vertex 0.000213082996 0.00742350938 -0.00034564102
  vertex -0.0198337007 0.00608889991 -0.00644285046
  vertex -0.00238139997 0.00580317015 0.00451719994
  endloop
 endfacet

 facet normal 0 0 0
  outer loop
  vertex 0.000213082996 0.00742350938 -0.00034564102
  vertex 0.000532154052 -0.00657906989 0.000750582025
  vertex 0.00153672998 -0.00578068011 -0.00383896031
  endloop
 endfacet

 facet normal 0 0 0
  outer loop
  vertex 0.000213082996 0.00742350938 -0.00034564102
  vertex 0.00153672998 -0.00578068011 -0.00383896031
  vertex 0.00106123998 0.00509786978 -0.00579932006
  endloop
 endfacet

 facet normal 0 0 0
  outer loop
  vertex -0.0244357008 0.00385905965 -0.00734077021
  vertex -0.0245836005 0.0039546201 -0.00256686029
  vertex -0.0198337007 0.00608889991 -0.00644285046
  endloop
 endfacet

 facet normal 0 0 0
  outer loop
  vertex -0.0244357008 0.00385905965 -0.00734077021
  vertex -0.0198337007 0.00608889991 -0.00644285046
  vertex -0.0214668997 0.0023141501 -0.0112981014
  endloop
 endfacet

 facet normal 0 0 0
  outer loop
  vertex -0.0244357008 0.00385905965 -0.00734077021
  vertex -0.0214668997 0.0023141501 -0.0112981014
  vertex -0.0245916005 -0.000377941964 -0.00745035056
  endloop
 endfacet

 facet normal 0 0 0
  outer loop
  vertex -0.0244357008 0.00385905965 -0.00734077021
  vertex -0.0245916005 -0.000377941964 -0.00745035056
  vertex -0.0245836005 0.0039546201 -0.00256686029
  endloop
 endfacet

 facet normal 0 0 0
  outer loop
  vertex -0.000154369001 -0.00251100981 -0.00771782035
  vertex -0.0168312993 -0.00127633999 -0.0124054011
  vertex 0.00044423301 0.00126858999 -0.00814136956
  endloop
 endfacet

 facet normal 0 0 0
  outer loop
  vertex -0.000154369001 -0.00251100981 -0.00771782035
  vertex 0.00044423301 0.00126858999 -0.00814136956
  vertex 0.00153672998 -0.00578068011 -0.00383896031
  endloop
 endfacet

 facet normal 0 0 0
  outer loop
  vertex -0.0214536004 -0.00486015016 -0.00577341067
  vertex -0.0178849008 -0.00657624006 -0.00450769998
  vertex -0.0231087022 -0.00254818005 -0.00222735992
  endloop
 endfacet

 facet normal 0 0 0
  outer loop
  vertex -0.0214536004 -0.00486015016 -0.00577341067
  vertex -0.0231087022 -0.00254818005 -0.00222735992
  vertex -0.0245916005 -0.000377941964 -0.00745035056
  endloop
 endfacet

 facet normal 0 0 0
  outer loop
  vertex -0.0214536004 -0.00486015016 -0.00577341067
  vertex -0.0245916005 -0.000377941964 -0.00745035056
  vertex -0.0204345006 -0.00301313004 -0.0100723002
  endloop
 endfacet

 facet normal 0 0 0
  outer loop
  vertex -0.00430609006 -0.00470029004 0.00410952978
  vertex -0.0141331004 -0.00512780994 0.000858540996
  vertex 0.000532154052 -0.00657906989 0.000750582025
  endloop
 endfacet

 facet normal 0 0 0
  outer loop
  vertex -0.00430609006 -0.00470029004 0.00410952978
  vertex 0.000532154052 -0.00657906989 0.000750582025
  vertex -0.00283235009 -0.00127528002 0.00664460054
  endloop
 endfacet

 facet normal 0 0 0
  outer loop
  vertex -0.00833097007 0.00235805009 0.00514332997
  vertex -0.0213099997 0.000704148028 0.00116828003
  vertex -0.00283235009 -0.00127528002 0.00664460054
  endloop
 endfacet

 facet normal 0 0 0
  outer loop
  vertex -0.00833097007 0.00235805009 0.00514332997
  vertex -0.00238139997 0.00580317015 0.00451719994
  vertex -0.0245836005 0.0039546201 -0.00256686029
  endloop
 endfacet

 facet normal 0 0 0
  outer loop
  vertex -0.00833097007 0.00235805009 0.00514332997
  vertex -0.0245836005 0.0039546201 -0.00256686029
  vertex -0.0213099997 0.000704148028 0.00116828003
  endloop
 endfacet

 facet normal 0 0 0
  outer loop
  vertex -0.0165500995 -0.00372746028 -0.0111130001
  vertex -0.0168312993 -0.00127633999 -0.0124054011
  vertex -0.000154369001 -0.00251100981 -0.00771782035
  endloop
 endfacet

 facet normal 0 0 0
  outer loop
  vertex -0.000154369001 -0.00251100981 -0.00771782035
  vertex 0.00153672998 -0.00578068011 -0.00383896031
  vertex -0.0118461 -0.00603138981 -0.00729339011
  endloop
 endfacet

 facet normal 0 0 0
  outer loop
  vertex -0.000154369001 -0.00251100981 -0.00771782035
  vertex -0.0118461 -0.00603138981 -0.00729339011
  vertex -0.0165500995 -0.00372746028 -0.0111130001
  endloop
 endfacet

 facet normal 0 0 0
  outer loop
  vertex -0.0165500995 -0.00372746028 -0.0111130001
  vertex -0.0118461 -0.00603138981 -0.00729339011
  vertex -0.0178849008 -0.00657624006 -0.00450769998
  endloop
 endfacet

 facet normal 0 0 0
  outer loop
  vertex -0.0178849008 -0.00657624006 -0.00450769998
  vertex -0.0214536004 -0.00486015016 -0.00577341067
  vertex -0.0204345006 -0.00301313004 -0.0100723002
  endloop
 endfacet

 facet normal 0 0 0
  outer loop
  vertex -0.0178849008 -0.00657624006 -0.00450769998
  vertex -0.0204345006 -0.00301313004 -0.0100723002
  vertex -0.0165500995 -0.00372746028 -0.0111130001
  endloop
 endfacet

 facet normal 0 0 0
  outer loop
  vertex -0.00288267992 0.00215469999 0.00655956008
  vertex -0.00238139997 0.00580317015 0.00451719994
  vertex -0.00833097007 0.00235805009 0.00514332997
  endloop
 endfacet

 facet normal 0 0 0
  outer loop
  vertex -0.00288267992 0.00215469999 0.00655956008
  vertex -0.00833097007 0.00235805009 0.00514332997
  vertex -0.00283235009 -0.00127528002 0.00664460054
  endloop
 endfacet

 facet normal 0 0 0
  outer loop
  vertex -0.00288267992 0.00215469999 0.00655956008
  vertex -0.00283235009 -0.00127528002 0.00664460054
  vertex 0.000532154052 -0.00657906989 0.000750582025
  endloop
 endfacet

 facet normal 0 0 0
  outer loop
  vertex -0.00288267992 0.00215469999 0.00655956008
  vertex 0.000532154052 -0.00657906989 0.000750582025
  vertex 0.000213082996 0.00742350938 -0.00034564102
  endloop
 endfacet

 facet normal 0 0 0
  outer loop
  vertex -0.00288267992 0.00215469999 0.00655956008
  vertex 0.000213082996 0.00742350938 -0.00034564102
  vertex -0.00238139997 0.00580317015 0.00451719994
  endloop
 endfacet

 facet normal 0 0 0
  outer loop
  vertex -0.0174273998 0.00143842003 -0.0121138999
  vertex -0.0214668997 0.0023141501 -0.0112981014
  vertex -0.0198337007 0.00608889991 -0.00644285046
  endloop
 endfacet

 facet normal 0 0 0
  outer loop
  vertex -0.0174273998 0.00143842003 -0.0121138999
  vertex -0.0198337007 0.00608889991 -0.00644285046
  vertex 0.00106123998 0.00509786978 -0.00579932006
  endloop
 endfacet

 facet normal 0 0 0
  outer loop
  vertex -0.0174273998 0.00143842003 -0.0121138999
  vertex 0.00106123998 0.00509786978 -0.00579932006
  vertex 0.00044423301 0.00126858999 -0.00814136956
  endloop
 endfacet

 facet normal 0 0 0
  outer loop
  vertex -0.0174273998 0.00143842003 -0.0121138999
  vertex 0.00044423301 0.00126858999 -0.00814136956
  vertex -0.0168312993 -0.00127633999 -0.0124054011
  endloop
 endfacet

 facet normal 0 0 0
  outer loop
  vertex -0.0212641004 -0.000501597999 -0.0114707006
  vertex -0.0168312993 -0.00127633999 -0.0124054011
  vertex -0.0165500995 -0.00372746028 -0.0111130001
  endloop
 endfacet

 facet normal 0 0 0
  outer loop
  vertex -0.0212641004 -0.000501597999 -0.0114707006
  vertex -0.0165500995 -0.00372746028 -0.0111130001
  vertex -0.0204345006 -0.00301313004 -0.0100723002
  endloop
 endfacet

 facet normal 0 0 0
  outer loop
  vertex -0.0212641004 -0.000501597999 -0.0114707006
  vertex -0.0204345006 -0.00301313004 -0.0100723002
  vertex -0.0245916005 -0.000377941964 -0.00745035056
  endloop
 endfacet

 facet normal 0 0 0
  outer loop
  vertex -0.0212641004 -0.000501597999 -0.0114707006
  vertex -0.0245916005 -0.000377941964 -0.00745035056
  vertex -0.0214668997 0.0023141501 -0.0112981014
  endloop
 endfacet

 facet normal 0 0 0
  outer loop
  vertex -0.0212641004 -0.000501597999 -0.0114707006
  vertex -0.0214668997 0.0023141501 -0.0112981014
  vertex -0.0174273998 0.00143842003 -0.0121138999
  endloop
 endfacet

 facet normal 0 0 0
  outer loop
  vertex -0.0212641004 -0.000501597999 -0.0114707006
  vertex -0.0174273998 0.00143842003 -0.0121138999
  vertex -0.0168312993 -0.00127633999 -0.0124054011
  endloop
 endfacet

 facet normal 0 0 0
  outer loop
  vertex -0.0243638996 0.00030872901 -0.00194900995
  vertex -0.0245836005 0.0039546201 -0.00256686029
  vertex -0.0245916005 -0.000377941964 -0.00745035056
  endloop
 endfacet

 facet normal 0 0 0
  outer loop
  vertex -0.0243638996 0.00030872901 -0.00194900995
  vertex -0.0245916005 -0.000377941964 -0.00745035056
  vertex -0.0231087022 -0.00254818005 -0.00222735992
  endloop
 endfacet

 facet normal 0 0 0
  outer loop
  vertex -0.0243638996 0.00030872901 -0.00194900995
  vertex -0.0231087022 -0.00254818005 -0.00222735992
  vertex -0.020292202 -0.00228670007 0.00052619999
  endloop
 endfacet

 facet normal 0 0 0
  outer loop
  vertex -0.0243638996 0.00030872901 -0.00194900995
  vertex -0.020292202 -0.00228670007 0.00052619999
  vertex -0.0213099997 0.000704148028 0.00116828003
  endloop
 endfacet

 facet normal 0 0 0
  outer loop
  vertex -0.0243638996 0.00030872901 -0.00194900995
  vertex -0.0213099997 0.000704148028 0.00116828003
  vertex -0.0245836005 0.0039546201 -0.00256686029
  endloop
 endfacet

 facet normal 0 0 0
  outer loop
  vertex -0.020292202 -0.00228670007 0.00052619999
  vertex -0.0231087022 -0.00254818005 -0.00222735992
  vertex -0.0178849008 -0.00657624006 -0.00450769998
  endloop
 endfacet

 facet normal 0 0 0
  outer loop
  vertex -0.020292202 -0.00228670007 0.00052619999
  vertex -0.0178849008 -0.00657624006 -0.00450769998
  vertex -0.0141331004 -0.00512780994 0.000858540996
  endloop
 endfacet

 facet normal 0 0 0
  outer loop
  vertex -0.020292202 -0.00228670007 0.00052619999
  vertex -0.0141331004 -0.00512780994 0.000858540996
  vertex -0.00430609006 -0.00470029004 0.00410952978
  endloop
 endfacet

 facet normal 0 0 0
  outer loop
  vertex -0.020292202 -0.00228670007 0.00052619999
  vertex -0.00430609006 -0.00470029004 0.00410952978
  vertex -0.00283235009 -0.00127528002 0.00664460054
  endloop
 endfacet

 facet normal 0 0 0
  outer loop
  vertex -0.020292202 -0.00228670007 0.00052619999
  vertex -0.00283235009 -0.00127528002 0.00664460054
  vertex -0.0213099997 0.000704148028 0.00116828003
  endloop
 endfacet

endsolid AssimpScene
