# Created by Open3D 
# object name: ring_dip
# number of vertices: 61
# number of triangles: 109
v 0.00106124 0.00509787 -0.00579932
vn 0.114039 0.846357 -0.520265
v 0.000213083 0.00742351 -0.000345641
vn -0.0461385 0.995443 -0.0834505
v -0.0023814 0.00580317 0.0045172
vn -0.187677 0.851094 0.490322
v -0.00288268 0.0021547 0.00655956
vn -0.243241 0.215856 0.945643
v -0.00283235 -0.00127528 0.0066446
vn -0.253492 -0.278463 0.926391
v 0.000444233 0.00126859 -0.00814137
vn 0.236014 0.330294 -0.913895
v -0.000154369 -0.00251101 -0.00771782
vn 0.262674 -0.486227 -0.833418
v 0.00153673 -0.00578068 -0.00383896
vn 0.175292 -0.890078 -0.420754
v -0.00389032 0.000509623 -0.00942917
vn 0.244918 0.149089 -0.958012
v -0.00584307 0.00507627 -0.00757959
vn 0.142528 0.689533 -0.710092
v -0.020887 0.00334255 -0.00066054
vn -0.380485 0.560188 0.735813
v -0.0154456 0.00368777 0.00108499
vn -0.287712 0.670043 0.684298
v -0.0153018 0.00430525 4.9388e-06
vn -0.208278 0.900614 0.381464
v -0.020724 0.00452975 -0.0019366
vn -0.141301 0.919261 0.367414
v -0.00912417 0.00573666 0.00184086
vn -0.244916 0.804026 0.541811
v -0.0105797 0.00587588 0.000396366
vn -0.237776 0.936586 0.257427
v -0.00864074 0.00659735 -0.00283766
vn -0.074021 0.994688 -0.0715269
v -0.0146454 0.00608934 -0.00492807
vn -0.0498365 0.989773 -0.133662
v -0.0122284 0.00315593 -0.00952758
vn 0.0480137 0.801626 -0.595895
v -0.0172519 0.00318265 -0.0104538
vn 0.0880033 0.808554 -0.581804
v -0.0198337 0.0060889 -0.00644285
vn -0.108539 0.971919 -0.208787
v -0.0079581 0.00521435 -0.00694412
vn -0.030117 0.882306 -0.469711
v -0.0232601 0.00439056 -0.00389082
vn -0.328974 0.938496 0.104886
v -0.0245836 0.00395462 -0.00256686
vn -0.890582 0.319467 0.323735
v -0.00631331 0.00695484 -0.00232792
vn -0.0394462 0.994883 -0.0930177
v -0.00833097 0.00235805 0.00514333
vn -0.309606 0.293208 0.904529
v -0.0156206 0.00133329 0.00278204
vn -0.322612 0.241097 0.915311
v -0.02131 0.000704148 0.00116828
vn -0.4882 0.155661 0.858738
v -0.0243639 0.000308729 -0.00194901
vn -0.899142 -0.120129 0.420847
v -0.0150602 -0.00243248 0.00245702
vn -0.314698 -0.312664 0.896218
v -0.0202922 -0.0022867 0.0005262
vn -0.40141 -0.432606 0.807293
v -0.0231087 -0.00254818 -0.00222736
vn -0.726431 -0.511382 0.459115
v -0.0141331 -0.00512781 0.000858541
vn -0.188593 -0.782998 0.592746
v -0.0189019 -0.00474815 -0.00112307
vn -0.318462 -0.78524 0.531018
v -0.00430609 -0.00470029 0.00410953
vn -0.164061 -0.755675 0.634066
v -0.00653476 -0.0013861 0.00559818
vn -0.274406 -0.317916 0.907541
v -0.0215573 -0.00410811 -0.00290097
vn -0.545715 -0.772248 0.325312
v -0.0244357 0.00385906 -0.00734077
vn -0.830274 0.41648 -0.37039
v -0.0245916 -0.000377942 -0.00745035
vn -0.945502 -0.148358 -0.289855
v -0.0229039 0.00453832 -0.00698324
vn -0.372138 0.883098 -0.285747
v -0.0110555 0.0020789 -0.0105078
vn 0.165617 0.4288 -0.888089
v -0.0174274 0.00143842 -0.0121139
vn 0.0360306 0.391182 -0.919608
v -0.0103082 -0.000604273 -0.0109319
vn 0.222698 -0.180324 -0.958065
v -0.0168313 -0.00127634 -0.0124054
vn 0.0368437 -0.152861 -0.987561
v -0.0214669 0.00231415 -0.0112981
vn -0.54566 0.255607 -0.798073
v -0.0210614 0.00317805 -0.0105016
vn -0.173996 0.808915 -0.561589
v 0.000532154 -0.00657907 0.000750582
vn -0.0407179 -0.895872 0.442443
v -0.00257582 -0.00672048 0.000178224
vn -0.0307031 -0.972401 0.231287
v -0.0131284 -0.00701525 -0.0030787
vn -0.0442127 -0.996094 0.0764283
v -0.00151147 -0.0061308 -0.00436824
vn 0.128427 -0.91206 -0.389427
v -0.00443988 -0.00295853 -0.00878862
vn 0.212633 -0.577129 -0.788486
v -0.0106446 -0.00354762 -0.00973094
vn 0.168868 -0.620859 -0.765518
v -0.0118461 -0.00603139 -0.00729339
vn 0.083142 -0.881866 -0.464111
v -0.0165501 -0.00372746 -0.011113
vn 0.0429715 -0.622106 -0.781753
v -0.0160682 -0.005201 -0.00871734
vn -0.0137299 -0.873627 -0.486403
v -0.0178849 -0.00657624 -0.0045077
vn -0.218877 -0.973782 -0.0619756
v -0.0204345 -0.00301313 -0.0100723
vn -0.428089 -0.6018 -0.674223
v -0.0212641 -0.000501598 -0.0114707
vn -0.529385 -0.285229 -0.798997
v -0.0232515 -0.00316374 -0.00658966
vn -0.772763 -0.596034 -0.218129
v -0.0194588 -0.0047655 -0.00849482
vn -0.322736 -0.841513 -0.43324
v -0.0214536 -0.00486015 -0.00577341
vn -0.50917 -0.855902 -0.0904303
f 9//9 10//10 6//6
f 6//6 10//10 1//1
f 12//12 13//13 11//11
f 11//11 13//13 14//14
f 15//15 16//16 12//12
f 12//12 16//16 13//13
f 13//13 16//16 18//18
f 18//18 16//16 17//17
f 19//19 20//20 18//18
f 18//18 20//20 21//21
f 17//17 22//22 18//18
f 18//18 22//22 19//19
f 21//21 14//14 18//18
f 18//18 14//14 13//13
f 23//23 24//24 14//14
f 14//14 24//24 11//11
f 16//16 15//15 17//17
f 17//17 15//15 25//25
f 15//15 3//3 25//25
f 25//25 3//3 2//2
f 15//15 26//26 3//3
f 3//3 26//26 4//4
f 12//12 27//27 15//15
f 15//15 27//27 26//26
f 27//27 12//12 28//28
f 28//28 12//12 11//11
f 17//17 25//25 22//22
f 22//22 25//25 10//10
f 10//10 25//25 1//1
f 1//1 25//25 2//2
f 24//24 29//29 11//11
f 11//11 29//29 28//28
f 30//30 27//27 31//31
f 31//31 27//27 28//28
f 29//29 32//32 28//28
f 28//28 32//32 31//31
f 33//33 30//30 34//34
f 34//34 30//30 31//31
f 30//30 33//33 36//36
f 36//36 33//33 35//35
f 32//32 37//37 31//31
f 31//31 37//37 34//34
f 27//27 30//30 26//26
f 26//26 30//30 36//36
f 26//26 36//36 4//4
f 4//4 36//36 5//5
f 29//29 24//24 39//39
f 39//39 24//24 38//38
f 24//24 23//23 38//38
f 38//38 23//23 40//40
f 19//19 22//22 41//41
f 41//41 22//22 10//10
f 20//20 19//19 42//42
f 42//42 19//19 41//41
f 10//10 9//9 41//41
f 41//41 9//9 43//43
f 42//42 41//41 44//44
f 44//44 41//41 43//43
f 42//42 45//45 20//20
f 20//20 45//45 46//46
f 40//40 46//46 38//38
f 38//38 46//46 45//45
f 47//47 35//35 48//48
f 35//35 33//33 48//48
f 48//48 33//33 49//49
f 8//8 48//48 50//50
f 35//35 5//5 36//36
f 51//51 7//7 50//50
f 50//50 7//7 8//8
f 51//51 9//9 7//7
f 7//7 9//9 6//6
f 52//52 43//43 51//51
f 51//51 43//43 9//9
f 52//52 51//51 53//53
f 53//53 51//51 50//50
f 54//54 52//52 55//55
f 55//55 52//52 53//53
f 48//48 49//49 50//50
f 50//50 49//49 53//53
f 49//49 56//56 53//53
f 53//53 56//56 55//55
f 52//52 54//54 43//43
f 43//43 54//54 44//44
f 58//58 44//44 57//57
f 57//57 44//44 54//54
f 57//57 60//60 59//59
f 59//59 60//60 61//61
f 57//57 54//54 60//60
f 60//60 54//54 55//55
f 57//57 59//59 58//58
f 58//58 59//59 39//39
f 58//58 39//39 45//45
f 45//45 39//39 38//38
f 45//45 42//42 58//58
f 58//58 42//42 44//44
f 33//33 34//34 49//49
f 49//49 34//34 56//56
f 61//61 56//56 37//37
f 37//37 56//56 34//34
f 61//61 60//60 56//56
f 56//56 60//60 55//55
f 61//61 37//37 59//59
f 59//59 37//37 32//32
f 32//32 29//29 59//59
f 59//59 29//29 39//39
f 14//14 21//21 23//23
f 23//23 21//21 40//40
f 40//40 21//21 46//46
f 46//46 21//21 20//20
