# Created by Open3D 
# object name: ring_pip
# number of vertices: 45
# number of triangles: 68
v -0.00697433 -0.00509889 0.00450803
vn -0.248514 -0.577277 0.777812
v -0.00482902 -0.00796231 6.61435e-05
vn -0.0820388 -0.95054 0.299572
v -0.000389081 -0.00802277 0.00170599
vn -0.110851 -0.957906 0.264816
v -0.00277364 -0.0049798 0.00601279
vn -0.222926 -0.738417 0.636431
v -0.0063706 0.00773937 0.00199113
vn -0.256912 0.881428 0.396335
v -0.00791653 0.00406593 0.00499872
vn -0.355146 0.422751 0.833758
v -0.0041174 0.00442265 0.00655406
vn -0.344297 0.49031 0.800659
v -0.00153892 0.00841701 0.00371621
vn -0.23287 0.907611 0.349305
v -0.00588411 0.00842293 -0.00355748
vn -0.0487957 0.97225 -0.228797
v 0.000801668 0.00919076 -0.00165409
vn -0.0394798 0.967067 -0.251442
v 1.0374e-05 0.00500041 0.00779187
vn -0.314092 0.422178 0.85036
v -0.00779919 -0.000692541 0.00559389
vn -0.334736 -0.0599478 0.940403
v -0.00431027 -0.000489324 0.0071143
vn -0.359382 -0.0528572 0.931693
v 0.00630249 -0.0070304 -0.00532449
vn -0.0272558 -0.840077 -0.541781
v 0.00124457 -0.00806513 -0.00346561
vn 0.019795 -0.970146 -0.241711
v 0.00205969 -0.00577451 -0.00705841
vn 0.173212 -0.630366 -0.756727
v 0.00701464 -0.00116558 -0.00814271
vn 0.29702 -0.0465665 -0.953735
v 0.00212875 0.00562615 -0.00759354
vn 0.16536 0.663514 -0.729661
v -0.0182203 0.000288771 -0.0142261
vn 0.225313 0.232426 -0.946156
v -0.00201865 -0.000282479 -0.0106727
vn 0.230299 0.0181823 -0.97295
v -0.00271623 -0.0057117 -0.00848831
vn 0.217996 -0.614235 -0.758415
v -0.0186759 -0.00404131 -0.0139009
vn 0.234939 -0.395981 -0.887695
v 0.00211238 -0.000638447 -0.00969515
vn 0.256478 0.0426566 -0.965608
v -0.0031455 0.00546482 -0.00887917
vn 0.103662 0.705281 -0.701308
v -0.0223959 -0.00622641 -0.00127389
vn -0.195961 -0.766739 0.611318
v -0.0203727 -0.00845516 -0.00576878
vn -0.0361889 -0.994651 0.0967486
v -0.0216792 -0.00237441 0.000637426
vn -0.31181 -0.213496 0.925848
v -0.0212557 0.00461859 -0.00164484
vn -0.311411 0.78152 0.540601
v -0.0217029 0.000972351 0.000526831
vn -0.348261 0.267248 0.898495
v -0.00323013 -0.0079769 -0.00496258
vn 0.076429 -0.96925 -0.233906
v -0.019251 -0.00754626 -0.0110028
vn 0.115825 -0.880715 -0.459266
v -0.0179542 0.00441796 -0.0119116
vn 0.103569 0.664959 -0.739664
v -0.0188789 0.00694321 -0.00653057
vn -0.116215 0.983892 -0.135834
v -0.0224593 0.00340976 -0.0134331
vn 0.0936677 0.692497 -0.715314
v -0.0233074 0.0057354 -0.00797946
vn -0.180496 0.978943 -0.0953555
v -0.0259019 0.00411505 -0.00311661
vn -0.281039 0.735752 0.616186
v -0.0264032 0.000466589 -0.00107426
vn -0.337538 0.210976 0.917364
v -0.0263529 -0.00296339 -0.000989218
vn -0.306765 -0.34656 0.886449
v -0.0230763 -0.000419525 -0.0157752
vn 0.278108 0.0853945 -0.956746
v -0.0236749 -0.00419913 -0.0153516
vn 0.259229 -0.473569 -0.841744
v -0.0219838 -0.00746879 -0.0114728
vn 0.127882 -0.857191 -0.498868
v -0.0278266 -0.0063884 -0.00352428
vn -0.14262 -0.774851 0.615845
v -0.0247888 -0.00630455 -0.00271527
vn -0.21853 -0.818437 0.531418
v -0.0229884 -0.00826718 -0.00688323
vn -0.0436416 -0.997631 0.0531684
v -0.0260963 -0.00840859 -0.00745559
vn 0.0734225 -0.985135 -0.155301
f 1//1 2//2 4//4
f 4//4 2//2 3//3
f 6//6 7//7 5//5
f 5//5 7//7 8//8
f 5//5 8//8 9//9
f 9//9 8//8 10//10
f 12//12 13//13 6//6
f 6//6 13//13 7//7
f 14//14 15//15 16//16
f 13//13 11//11 7//7
f 19//19 20//20 22//22
f 22//22 20//20 21//21
f 18//18 17//17 23//23
f 24//24 9//9 18//18
f 18//18 9//9 10//10
f 1//1 25//25 2//2
f 2//2 25//25 26//26
f 12//12 27//27 1//1
f 1//1 27//27 25//25
f 12//12 1//1 13//13
f 13//13 1//1 4//4
f 5//5 28//28 6//6
f 6//6 28//28 29//29
f 7//7 11//11 8//8
f 2//2 26//26 30//30
f 30//30 26//26 31//31
f 24//24 20//20 32//32
f 32//32 20//20 19//19
f 21//21 20//20 16//16
f 16//16 20//20 23//23
f 30//30 31//31 21//21
f 21//21 31//31 22//22
f 17//17 16//16 23//23
f 9//9 24//24 33//33
f 33//33 24//24 32//32
f 6//6 29//29 12//12
f 12//12 29//29 27//27
f 28//28 5//5 33//33
f 33//33 5//5 9//9
f 20//20 24//24 23//23
f 23//23 24//24 18//18
f 21//21 16//16 30//30
f 30//30 16//16 15//15
f 30//30 15//15 2//2
f 2//2 15//15 3//3
f 33//33 32//32 35//35
f 35//35 32//32 34//34
f 33//33 35//35 28//28
f 28//28 35//35 36//36
f 28//28 36//36 29//29
f 29//29 36//36 37//37
f 29//29 37//37 27//27
f 27//27 37//37 38//38
f 32//32 19//19 34//34
f 34//34 19//19 39//39
f 19//19 22//22 39//39
f 39//39 22//22 40//40
f 40//40 22//22 41//41
f 41//41 22//22 31//31
f 27//27 38//38 25//25
f 25//25 38//38 43//43
f 26//26 44//44 31//31
f 31//31 44//44 41//41
f 44//44 26//26 43//43
f 43//43 26//26 25//25
f 43//43 42//42 44//44
f 44//44 45//45 41//41
f 43//43 38//38 42//42
