solid AssimpScene
 facet normal 0 0 0
  outer loop
  vertex -0.00277364021 -0.00497979997 0.00601278991
  vertex -0.000389080989 -0.00802277029 0.00170599006
  vertex 0.00630249036 -0.00703039998 -0.00532449037
  endloop
 endfacet

 facet normal 0 0 0
  outer loop
  vertex -0.00277364021 -0.00497979997 0.00601278991
  vertex 0.00630249036 -0.00703039998 -0.00532449037
  vertex 1.03739994e-05 0.00500041014 0.00779186981
  endloop
 endfacet

 facet normal 0 0 0
  outer loop
  vertex 0.000801667979 0.00919075962 -0.00165409001
  vertex 1.03739994e-05 0.00500041014 0.00779186981
  vertex 0.00701464061 -0.00116558 -0.00814271066
  endloop
 endfacet

 facet normal 0 0 0
  outer loop
  vertex 0.00630249036 -0.00703039998 -0.00532449037
  vertex -0.0236748997 -0.00419912999 -0.0153516009
  vertex 0.00701464061 -0.00116558 -0.00814271066
  endloop
 endfacet

 facet normal 0 0 0
  outer loop
  vertex 0.00630249036 -0.00703039998 -0.00532449037
  vertex 0.00701464061 -0.00116558 -0.00814271066
  vertex 1.03739994e-05 0.00500041014 0.00779186981
  endloop
 endfacet

 facet normal 0 0 0
  outer loop
  vertex -0.00277364021 -0.00497979997 0.00601278991
  vertex -0.0278265998 -0.00638840022 -0.00352428015
  vertex -0.000389080989 -0.00802277029 0.00170599006
  endloop
 endfacet

 facet normal 0 0 0
  outer loop
  vertex -0.0260963012 -0.00840859022 -0.00745559018
  vertex -0.0192510001 -0.00754626049 -0.0110028004
  vertex 0.00630249036 -0.00703039998 -0.00532449037
  endloop
 endfacet

 facet normal 0 0 0
  outer loop
  vertex -0.0260963012 -0.00840859022 -0.00745559018
  vertex 0.00630249036 -0.00703039998 -0.00532449037
  vertex -0.000389080989 -0.00802277029 0.00170599006
  endloop
 endfacet

 facet normal 0 0 0
  outer loop
  vertex -0.0260963012 -0.00840859022 -0.00745559018
  vertex -0.000389080989 -0.00802277029 0.00170599006
  vertex -0.0278265998 -0.00638840022 -0.00352428015
  endloop
 endfacet

 facet normal 0 0 0
  outer loop
  vertex -0.0260963012 -0.00840859022 -0.00745559018
  vertex -0.0278265998 -0.00638840022 -0.00352428015
  vertex -0.0236748997 -0.00419912999 -0.0153516009
  endloop
 endfacet

 facet normal 0 0 0
  outer loop
  vertex 0.00212875009 0.00562615041 -0.00759354001
  vertex -0.0224593021 0.00340976007 -0.0134330997
  vertex 0.000801667979 0.00919075962 -0.00165409001
  endloop
 endfacet

 facet normal 0 0 0
  outer loop
  vertex 0.00212875009 0.00562615041 -0.00759354001
  vertex 0.000801667979 0.00919075962 -0.00165409001
  vertex 0.00701464061 -0.00116558 -0.00814271066
  endloop
 endfacet

 facet normal 0 0 0
  outer loop
  vertex -0.0264031999 0.00046658903 -0.00107425998
  vertex 1.03739994e-05 0.00500041014 0.00779186981
  vertex -0.0259019006 0.00411505019 -0.00311660999
  endloop
 endfacet

 facet normal 0 0 0
  outer loop
  vertex -0.0264031999 0.00046658903 -0.00107425998
  vertex -0.0259019006 0.00411505019 -0.00311660999
  vertex -0.0278265998 -0.00638840022 -0.00352428015
  endloop
 endfacet

 facet normal 0 0 0
  outer loop
  vertex -0.0188788995 0.00694321049 -0.00653056987
  vertex 0.000801667979 0.00919075962 -0.00165409001
  vertex -0.0224593021 0.00340976007 -0.0134330997
  endloop
 endfacet

 facet normal 0 0 0
  outer loop
  vertex -0.00153891998 0.00841701031 0.00371621014
  vertex 1.03739994e-05 0.00500041014 0.00779186981
  vertex 0.000801667979 0.00919075962 -0.00165409001
  endloop
 endfacet

 facet normal 0 0 0
  outer loop
  vertex -0.00153891998 0.00841701031 0.00371621014
  vertex 0.000801667979 0.00919075962 -0.00165409001
  vertex -0.0188788995 0.00694321049 -0.00653056987
  endloop
 endfacet

 facet normal 0 0 0
  outer loop
  vertex -0.00153891998 0.00841701031 0.00371621014
  vertex -0.0188788995 0.00694321049 -0.00653056987
  vertex -0.0259019006 0.00411505019 -0.00311660999
  endloop
 endfacet

 facet normal 0 0 0
  outer loop
  vertex -0.00153891998 0.00841701031 0.00371621014
  vertex -0.0259019006 0.00411505019 -0.00311660999
  vertex 1.03739994e-05 0.00500041014 0.00779186981
  endloop
 endfacet

 facet normal 0 0 0
  outer loop
  vertex -0.0230762996 -0.000419524993 -0.0157752
  vertex 0.00701464061 -0.00116558 -0.00814271066
  vertex -0.0236748997 -0.00419912999 -0.0153516009
  endloop
 endfacet

 facet normal 0 0 0
  outer loop
  vertex -0.0230762996 -0.000419524993 -0.0157752
  vertex -0.0236748997 -0.00419912999 -0.0153516009
  vertex -0.0278265998 -0.00638840022 -0.00352428015
  endloop
 endfacet

 facet normal 0 0 0
  outer loop
  vertex -0.0230762996 -0.000419524993 -0.0157752
  vertex -0.0278265998 -0.00638840022 -0.00352428015
  vertex -0.0259019006 0.00411505019 -0.00311660999
  endloop
 endfacet

 facet normal 0 0 0
  outer loop
  vertex -0.0230762996 -0.000419524993 -0.0157752
  vertex -0.0259019006 0.00411505019 -0.00311660999
  vertex -0.0224593021 0.00340976007 -0.0134330997
  endloop
 endfacet

 facet normal 0 0 0
  outer loop
  vertex -0.0230762996 -0.000419524993 -0.0157752
  vertex -0.0224593021 0.00340976007 -0.0134330997
  vertex 0.00212875009 0.00562615041 -0.00759354001
  endloop
 endfacet

 facet normal 0 0 0
  outer loop
  vertex -0.0230762996 -0.000419524993 -0.0157752
  vertex 0.00212875009 0.00562615041 -0.00759354001
  vertex 0.00701464061 -0.00116558 -0.00814271066
  endloop
 endfacet

 facet normal 0 0 0
  outer loop
  vertex -0.0192510001 -0.00754626049 -0.0110028004
  vertex -0.0260963012 -0.00840859022 -0.00745559018
  vertex -0.0236748997 -0.00419912999 -0.0153516009
  endloop
 endfacet

 facet normal 0 0 0
  outer loop
  vertex -0.0192510001 -0.00754626049 -0.0110028004
  vertex -0.0236748997 -0.00419912999 -0.0153516009
  vertex 0.00630249036 -0.00703039998 -0.00532449037
  endloop
 endfacet

 facet normal 0 0 0
  outer loop
  vertex -0.0233074017 0.00573540013 -0.00797946006
  vertex -0.0259019006 0.00411505019 -0.00311660999
  vertex -0.0188788995 0.00694321049 -0.00653056987
  endloop
 endfacet

 facet normal 0 0 0
  outer loop
  vertex -0.0233074017 0.00573540013 -0.00797946006
  vertex -0.0188788995 0.00694321049 -0.00653056987
  vertex -0.0224593021 0.00340976007 -0.0134330997
  endloop
 endfacet

 facet normal 0 0 0
  outer loop
  vertex -0.0233074017 0.00573540013 -0.00797946006
  vertex -0.0224593021 0.00340976007 -0.0134330997
  vertex -0.0259019006 0.00411505019 -0.00311660999
  endloop
 endfacet

 facet normal 0 0 0
  outer loop
  vertex -0.00431026984 -0.000489323982 0.0071143005
  vertex 1.03739994e-05 0.00500041014 0.00779186981
  vertex -0.0264031999 0.00046658903 -0.00107425998
  endloop
 endfacet

 facet normal 0 0 0
  outer loop
  vertex -0.00431026984 -0.000489323982 0.0071143005
  vertex -0.00277364021 -0.00497979997 0.00601278991
  vertex 1.03739994e-05 0.00500041014 0.00779186981
  endloop
 endfacet

 facet normal 0 0 0
  outer loop
  vertex -0.0263528991 -0.0029633902 -0.00098921801
  vertex -0.0278265998 -0.00638840022 -0.00352428015
  vertex -0.00277364021 -0.00497979997 0.00601278991
  endloop
 endfacet

 facet normal 0 0 0
  outer loop
  vertex -0.0263528991 -0.0029633902 -0.00098921801
  vertex -0.00277364021 -0.00497979997 0.00601278991
  vertex -0.00431026984 -0.000489323982 0.0071143005
  endloop
 endfacet

 facet normal 0 0 0
  outer loop
  vertex -0.0263528991 -0.0029633902 -0.00098921801
  vertex -0.00431026984 -0.000489323982 0.0071143005
  vertex -0.0264031999 0.00046658903 -0.00107425998
  endloop
 endfacet

 facet normal 0 0 0
  outer loop
  vertex -0.0263528991 -0.0029633902 -0.00098921801
  vertex -0.0264031999 0.00046658903 -0.00107425998
  vertex -0.0278265998 -0.00638840022 -0.00352428015
  endloop
 endfacet

endsolid AssimpScene
