# Created by Open3D 
# object name: ring_mcp
# number of vertices: 44
# number of triangles: 65
v -0.00708198 -0.00605193 0.0109936
vn -0.60124 -0.789224 -0.125046
v -0.00122492 -0.00778342 0.00384912
vn -0.365957 -0.926313 -0.0895557
v 0.0101832 0.0063259 -0.00461051
vn 0.182611 0.119544 -0.975891
v 0.00246151 0.00066044 -0.00674941
vn -0.0868088 -0.123709 -0.988514
v 0.00231002 0.00635813 -0.00607981
vn 0.224008 0.387393 -0.894286
v 0.000478345 -0.00768015 -0.00186598
vn -0.471449 -0.83631 -0.279859
v -8.35676e-06 -0.00572028 -0.0050753
vn -0.518658 -0.411562 -0.749407
v 0.00532697 -0.00945228 -0.00862097
vn -0.654078 -0.260315 -0.710224
v -0.0117949 -0.00198395 0.0129021
vn -0.322173 0.0696858 -0.944113
v -0.00878352 -0.000660297 0.0119722
vn -0.889006 0.148937 0.432996
v -0.000932757 0.0104565 0.0104192
vn -0.285628 0.925013 0.250536
v -0.0101626 0.00590722 0.0122486
vn -0.194614 0.000409464 -0.98088
v 0.00580745 0.0125886 0.00102311
vn 0.0552529 0.971511 -0.230465
v -0.0010719 0.0124884 -0.00104864
vn 0.130424 0.942918 -0.306423
v -0.00563611 0.0117222 0.00484482
vn -0.0920087 0.928026 0.360974
v -0.00981031 0.00654505 0.00893702
vn -0.342545 0.502924 0.793556
v -0.0287034 -0.00595576 -0.00339255
vn -0.289144 -0.919119 0.26761
v -0.0310879 -0.00291279 0.000914252
vn -0.421829 -0.528318 0.736845
v -0.0298532 0.010484 -0.00138233
vn -0.317853 0.876273 0.362099
v -0.0275126 0.0112578 -0.00675263
vn -0.0597733 0.95205 -0.300047
v -0.0250142 0.0117001 -7.74665e-05
vn -0.197189 0.851503 0.485859
v -0.0283039 0.00706742 0.00269333
vn -0.288719 0.444072 0.848199
v -0.0137847 0.00673646 0.00724058
vn -0.271225 0.420191 0.865954
v -0.0118294 0.0122086 0.00337852
vn -0.128887 0.912811 0.38751
v -0.0326245 0.00157768 0.00201576
vn -0.407448 -0.0489 0.911918
v -0.0220118 -0.00496339 -0.010423
vn 0.265961 -0.632609 -0.727373
v -0.0232344 -0.00707328 -0.0062495
vn 0.0740697 -0.986297 -0.147417
v -0.0270697 -0.00599812 -0.00856415
vn -0.141456 -0.978121 -0.152541
v -0.0262546 -0.0037075 -0.0121569
vn 0.223175 -0.444079 -0.867748
v -0.0103206 -0.00385602 0.00806772
vn -0.278368 -0.775843 0.566197
v -0.00647119 -0.0055428 0.00327258
vn -0.104743 -0.986543 0.125545
v -0.0136084 0.000621771 0.00854311
vn -0.361639 -0.0717138 0.929556
v -0.0212996 0.000901425 -0.0132412
vn 0.277864 -0.108811 -0.954438
v -0.0205806 0.00798503 -0.0119242
vn 0.143246 0.637152 -0.75731
v -0.0067114 0.00729064 -0.00838386
vn 0.269448 0.397832 -0.876999
v -0.00576117 0.00116825 -0.00794825
vn 0.274143 -0.303955 -0.912391
v -0.0291005 0.00189712 0.00360742
vn -0.326602 0.025164 0.944827
v -0.0248344 -0.00658485 -0.00131383
vn -0.100368 -0.951164 0.291912
v -0.0277803 -0.00340698 0.00267702
vn -0.30335 -0.556109 0.773771
v -0.0223187 0.0117311 -0.00567505
vn -0.0402738 0.979095 -0.199378
v -0.0261855 0.00769316 -0.0126921
vn 0.0831266 0.564433 -0.821283
v -0.00882862 0.0130407 -0.00309719
vn 0.0757387 0.934726 -0.347206
v -0.00488953 -0.00439066 -0.00383908
vn 0.155022 -0.70589 -0.691149
v -0.00473617 -0.0060236 -0.000720392
vn -0.0822342 -0.979716 -0.18274
f 3//3 4//4 5//5
f 8//8 6//6 7//7
f 1//1 9//9 10//10
f 10//10 12//12 11//11
f 13//13 14//14 11//11
f 11//11 14//14 15//15
f 7//7 4//4 8//8
f 13//13 5//5 14//14
f 15//15 16//16 11//11
f 11//11 16//16 10//10
f 22//22 23//23 21//21
f 21//21 23//23 24//24
f 27//27 28//28 26//26
f 30//30 31//31 1//1
f 1//1 31//31 2//2
f 32//32 30//30 10//10
f 10//10 30//30 1//1
f 34//34 35//35 33//33
f 33//33 35//35 36//36
f 37//37 22//22 25//25
f 27//27 38//38 28//28
f 28//28 38//38 17//17
f 39//39 37//37 18//18
f 18//18 37//37 25//25
f 40//40 34//34 20//20
f 20//20 34//34 41//41
f 34//34 33//33 41//41
f 40//40 20//20 21//21
f 21//21 20//20 19//19
f 21//21 24//24 40//40
f 40//40 24//24 42//42
f 33//33 36//36 26//26
f 26//26 36//36 43//43
f 38//38 39//39 17//17
f 17//17 39//39 18//18
f 19//19 22//22 21//21
f 26//26 29//29 33//33
f 42//42 14//14 35//35
f 35//35 14//14 5//5
f 32//32 23//23 37//37
f 37//37 23//23 22//22
f 23//23 16//16 24//24
f 24//24 16//16 15//15
f 44//44 27//27 43//43
f 43//43 27//27 26//26
f 31//31 30//30 38//38
f 38//38 30//30 39//39
f 30//30 32//32 39//39
f 39//39 32//32 37//37
f 4//4 36//36 5//5
f 5//5 36//36 35//35
f 44//44 31//31 27//27
f 27//27 31//31 38//38
f 24//24 15//15 42//42
f 42//42 15//15 14//14
f 36//36 4//4 43//43
f 43//43 4//4 7//7
f 35//35 34//34 42//42
f 42//42 34//34 40//40
f 23//23 32//32 16//16
f 16//16 32//32 10//10
f 6//6 44//44 7//7
f 7//7 44//44 43//43
f 31//31 44//44 2//2
f 2//2 44//44 6//6
