# Created by Open3D 
# object name: thumb_mcp
# number of vertices: 31
# number of triangles: 38
v -0.0153183 -0.00735128 -0.0096359
vn -0.284776 -0.652723 -0.702036
v -0.0202311 -0.0137493 -0.00127522
vn -0.318227 -0.694996 -0.644757
v -0.0310155 -0.00861649 -0.00138743
vn -0.326912 -0.700734 -0.634114
v 0.00324272 -0.0171245 0.000982332
vn 0.34032 -0.888946 -0.306524
v 0.0112046 -0.0130945 0.00900802
vn 0.63669 -0.736785 0.227537
v 0.000428475 -0.0191636 0.0166254
vn 0.621681 -0.741307 0.252936
v -0.00464169 -0.0223602 0.00849301
vn 0.294832 -0.933911 -0.2022
v -0.0353655 -0.010415 0.0061376
vn -0.5548 -0.785148 -0.27521
v -0.0248051 -0.017595 0.00533266
vn -0.389393 -0.782711 -0.485526
v 0.0175534 -0.00894819 0.00242387
vn 0.605849 -0.794815 0.0348803
v 0.0204946 0.00104114 0.0112705
vn 0.71414 -0.377902 0.589231
v 0.0128699 -0.00420167 0.0166497
vn 0.660613 -0.285914 0.694149
v 0.00182375 -0.0128129 0.0233434
vn 0.681258 -0.349733 0.643097
v 0.00979409 0.00800759 0.0185616
vn 0.439076 0.194273 0.877195
v -0.0015068 -0.00362861 0.0265182
vn 0.465118 0.121241 0.876907
v -0.0185644 0.00485703 0.0249809
vn -0.054549 0.597576 0.799955
v -0.00310309 -0.011086 -0.0106993
vn 0.0256273 -0.811955 -0.583158
v 0.0102943 -0.0110471 -0.00886551
vn 0.23823 -0.88493 -0.400182
v -0.00871915 -0.0182062 -0.00222032
vn -0.073686 -0.80099 -0.594125
v -0.0117006 -0.0251991 0.0135517
vn 0.31885 -0.921293 -0.222605
v -0.0193598 -0.0226211 0.0100441
vn -0.145491 -0.883179 -0.4459
v -0.0122674 0.0168005 0.0155161
vn -0.0683044 0.641506 0.764071
v 0.00390831 0.0186379 0.0158442
vn 0.29536 0.38684 0.873566
v -0.00500581 0.00796267 0.0235855
vn 0.169157 0.456089 0.87371
v -0.0147295 -0.0215034 0.00487309
vn -0.2242 -0.852571 -0.472078
v -0.005979 -0.0239281 0.0202823
vn 0.673837 -0.717718 0.175567
v -0.00455388 -0.0188214 0.0268602
vn 0.707249 -0.416238 0.571441
v -0.00722326 -0.0122319 0.0303418
vn 0.512966 0.00629041 0.858386
v 0.00125374 -0.00531051 -0.0189881
vn 0.0766905 -0.836515 -0.542551
v -0.0267569 -0.0182161 0.0110392
vn -0.477681 -0.808881 -0.342829
v -0.0112294 -0.00186962 0.0295338
vn 0.19596 0.377256 0.90514
f 4//4 5//5 7//7
f 7//7 5//5 6//6
f 9//9 3//3 2//2
f 10//10 11//11 5//5
f 5//5 11//11 12//12
f 5//5 12//12 6//6
f 6//6 12//12 13//13
f 14//14 15//15 12//12
f 12//12 15//15 13//13
f 12//12 11//11 14//14
f 18//18 4//4 17//17
f 17//17 4//4 19//19
f 18//18 10//10 4//4
f 4//4 10//10 5//5
f 4//4 7//7 19//19
f 19//19 7//7 25//25
f 23//23 24//24 14//14
f 14//14 24//24 15//15
f 29//29 18//18 17//17
f 31//31 24//24 16//16
f 16//16 24//24 22//22
f 28//28 15//15 31//31
f 31//31 15//15 24//24
f 27//27 13//13 28//28
f 28//28 13//13 15//15
f 27//27 26//26 13//13
f 13//13 26//26 6//6
f 9//9 2//2 25//25
f 25//25 2//2 19//19
f 2//2 1//1 19//19
f 19//19 1//1 17//17
f 26//26 20//20 6//6
f 6//6 20//20 7//7
f 20//20 21//21 7//7
f 7//7 21//21 25//25
f 21//21 30//30 25//25
f 25//25 30//30 9//9
f 9//9 30//30 8//8
