# Created by Open3D 
# object name: thumb_pip
# number of vertices: 42
# number of triangles: 63
v -0.0205517 0.00843388 -0.00902945
vn -0.939671 -0.303441 0.157931
v -0.0131505 0.00695336 0.0038498
vn -0.733328 0.4384 0.519649
v -0.0103895 0.0185561 0.000296953
vn -0.581625 0.4217 0.695616
v -0.0173434 0.0154955 -0.00358861
vn -0.784773 0.14488 0.602612
v -0.0155168 0.00317129 2.38596e-05
vn -0.976393 0.156408 0.148974
v -0.00810137 0.00770233 0.00952776
vn -0.349383 0.502395 0.790905
v -0.0034206 0.0205354 0.00323731
vn -0.265449 0.500687 0.823923
v 0.00344315 -0.00952071 -0.00819185
vn 0.0470956 -0.921177 -0.386285
v -0.00268888 -0.0123284 -0.00320719
vn 0.247665 -0.82896 -0.501485
v -0.00925315 -0.00900162 -0.00604237
vn -0.306983 -0.57679 -0.757017
v -0.00421604 -0.00694274 -0.0116995
vn -0.408364 -0.749299 -0.521335
v 0.00916477 -0.00824973 -0.00146126
vn 0.514045 -0.854432 0.0755209
v 0.00318893 -0.0115221 0.00179447
vn 0.606941 -0.794736 -0.00411359
v 0.00167307 -0.00294097 0.0117728
vn 0.476056 0.0207525 0.87917
v 0.00419036 -0.00837154 0.00790983
vn 0.697942 -0.481476 0.530149
v 0.0105899 -0.00314299 0.00511666
vn 0.640999 -0.388302 0.662074
v 0.00792051 0.00344647 0.00859821
vn 0.390943 0.0831115 0.916655
v -0.0116132 -0.00253769 -0.0107044
vn -0.657498 -0.625593 -0.419916
v -0.0146262 -0.00326338 -0.0049055
vn -0.820278 -0.281937 -0.497651
v 0.00391436 0.0138087 0.0077902
vn 0.0344504 0.373978 0.926797
v -0.00277893 0.00328421 0.0120965
vn 0.171637 0.299147 0.938644
v -0.0159352 -0.00456518 0.013886
vn -0.478758 0.639435 0.601593
v -0.0196288 -0.00465707 0.00948238
vn -0.754257 0.626763 0.195613
v -0.0151672 -0.0181399 0.00132942
vn -0.11435 -0.548621 -0.828214
v -0.0201877 -0.013343 0.0019296
vn -0.57997 -0.165124 -0.797727
v -0.00990107 -0.0207637 0.00456552
vn 0.382901 -0.734174 -0.560692
v -0.00458811 -0.0164752 0.0130689
vn 0.745441 -0.490372 0.451501
v -0.00569007 -0.0192596 0.00841776
vn 0.643835 -0.756881 -0.112286
v -0.021783 -0.00831795 0.00494795
vn -0.852573 0.354929 -0.383595
v -0.0109359 -0.0062814 0.0170631
vn 0.0789048 0.417768 0.905121
v -0.00582413 -0.011123 0.0169028
vn 0.543634 -0.00259845 0.839319
v -0.0166683 -0.0104524 0.0205012
vn 0.0751522 0.536124 0.840787
v -0.0114143 -0.0157237 0.0203929
vn 0.597572 -0.061978 0.799416
v -0.00986881 -0.0215933 0.0171895
vn 0.782412 -0.477998 0.399185
v -0.0104985 -0.0243818 0.0113359
vn 0.710503 -0.694711 -0.112085
v -0.01308 -0.0251576 0.00715968
vn 0.465221 -0.674809 -0.572889
v -0.0211426 -0.00855583 0.0159148
vn -0.447672 0.769337 0.455753
v -0.0242532 -0.00888075 0.0112022
vn -0.71878 0.693684 -0.0464537
v -0.0247179 -0.0123829 0.00563747
vn -0.683173 0.263128 -0.681203
v -0.0169875 -0.0220649 0.00333736
vn 0.0117211 -0.470252 -0.882455
v -0.0211566 -0.0168476 0.00284354
vn -0.395545 -0.150139 -0.906092
v -0.0239479 -0.0195475 0.00430366
vn -0.389297 -0.0931201 -0.916393
f 3//3 4//4 2//2
f 2//2 4//4 5//5
f 7//7 3//3 6//6
f 6//6 3//3 2//2
f 9//9 10//10 8//8
f 8//8 10//10 11//11
f 13//13 9//9 12//12
f 12//12 9//9 8//8
f 15//15 16//16 14//14
f 14//14 16//16 17//17
f 1//1 18//18 19//19
f 16//16 15//15 12//12
f 12//12 15//15 13//13
f 7//7 6//6 20//20
f 20//20 6//6 21//21
f 20//20 21//21 17//17
f 17//17 21//21 14//14
f 6//6 2//2 22//22
f 22//22 2//2 23//23
f 19//19 10//10 25//25
f 25//25 10//10 24//24
f 10//10 9//9 24//24
f 24//24 9//9 26//26
f 15//15 27//27 13//13
f 13//13 27//27 28//28
f 5//5 19//19 29//29
f 29//29 19//19 25//25
f 21//21 6//6 30//30
f 30//30 6//6 22//22
f 2//2 5//5 23//23
f 23//23 5//5 29//29
f 31//31 14//14 30//30
f 30//30 14//14 21//21
f 13//13 28//28 9//9
f 9//9 28//28 26//26
f 27//27 15//15 31//31
f 31//31 15//15 14//14
f 30//30 32//32 31//31
f 31//31 32//32 33//33
f 31//31 33//33 27//27
f 27//27 33//33 34//34
f 27//27 34//34 28//28
f 28//28 34//34 35//35
f 28//28 35//35 26//26
f 26//26 35//35 36//36
f 30//30 22//22 32//32
f 32//32 22//22 37//37
f 22//22 23//23 37//37
f 37//37 23//23 38//38
f 23//23 29//29 38//38
f 38//38 29//29 39//39
f 24//24 26//26 40//40
f 40//40 26//26 36//36
f 29//29 25//25 39//39
f 39//39 25//25 41//41
f 40//40 41//41 24//24
f 24//24 41//41 25//25
f 40//40 42//42 41//41
f 41//41 42//42 39//39
f 4//4 1//1 5//5
f 5//5 1//1 19//19
f 18//18 11//11 19//19
f 19//19 11//11 10//10
