solid AssimpScene
 facet normal 0 0 0
  outer loop
  vertex -0.0353654996 -0.0104149999 0.00613760017
  vertex -0.00722326059 -0.0122319004 0.0303417984
  vertex -0.0112293996 -0.00186962006 0.0295337979
  endloop
 endfacet

 facet normal 0 0 0
  outer loop
  vertex -0.0353654996 -0.0104149999 0.00613760017
  vertex -0.0112293996 -0.00186962006 0.0295337979
  vertex -0.0185643993 0.00485703023 0.0249809008
  endloop
 endfacet

 facet normal 0 0 0
  outer loop
  vertex -0.0185643993 0.00485703023 0.0249809008
  vertex -0.0122673996 0.0168005005 0.0155161005
  vertex -0.0353654996 -0.0104149999 0.00613760017
  endloop
 endfacet

 facet normal 0 0 0
  outer loop
  vertex 0.00390831009 0.0186379012 0.0158441998
  vertex 0.00125374005 -0.00531050982 -0.0189881008
  vertex -0.0122673996 0.0168005005 0.0155161005
  endloop
 endfacet

 facet normal 0 0 0
  outer loop
  vertex 0.00390831009 0.0186379012 0.0158441998
  vertex -0.0122673996 0.0168005005 0.0155161005
  vertex -0.0185643993 0.00485703023 0.0249809008
  endloop
 endfacet

 facet normal 0 0 0
  outer loop
  vertex 0.00390831009 0.0186379012 0.0158441998
  vertex 0.0204946008 0.00104114006 0.0112704998
  vertex 0.00125374005 -0.00531050982 -0.0189881008
  endloop
 endfacet

 facet normal 0 0 0
  outer loop
  vertex 0.00125374005 -0.00531050982 -0.0189881008
  vertex 0.0204946008 0.00104114006 0.0112704998
  vertex 0.0175534002 -0.00894819014 0.00242386968
  endloop
 endfacet

 facet normal 0 0 0
  outer loop
  vertex 0.00125374005 -0.00531050982 -0.0189881008
  vertex 0.0175534002 -0.00894819014 0.00242386968
  vertex 0.0102942996 -0.0110471006 -0.00886551011
  endloop
 endfacet

 facet normal 0 0 0
  outer loop
  vertex -0.0310155023 -0.00861649029 -0.00138742989
  vertex -0.0353654996 -0.0104149999 0.00613760017
  vertex -0.0122673996 0.0168005005 0.0155161005
  endloop
 endfacet

 facet normal 0 0 0
  outer loop
  vertex -0.0310155023 -0.00861649029 -0.00138742989
  vertex -0.0122673996 0.0168005005 0.0155161005
  vertex 0.00125374005 -0.00531050982 -0.0189881008
  endloop
 endfacet

 facet normal 0 0 0
  outer loop
  vertex -0.00871914998 -0.0182061996 -0.00222032005
  vertex -0.0310155023 -0.00861649029 -0.00138742989
  vertex 0.00125374005 -0.00531050982 -0.0189881008
  endloop
 endfacet

 facet normal 0 0 0
  outer loop
  vertex -0.00871914998 -0.0182061996 -0.00222032005
  vertex 0.00125374005 -0.00531050982 -0.0189881008
  vertex 0.0102942996 -0.0110471006 -0.00886551011
  endloop
 endfacet

 facet normal 0 0 0
  outer loop
  vertex -0.0267568994 -0.0182160996 0.0110392002
  vertex -0.0117006004 -0.0251991022 0.013551699
  vertex -0.00597900013 -0.0239281021 0.0202823002
  endloop
 endfacet

 facet normal 0 0 0
  outer loop
  vertex -0.0267568994 -0.0182160996 0.0110392002
  vertex -0.00722326059 -0.0122319004 0.0303417984
  vertex -0.0353654996 -0.0104149999 0.00613760017
  endloop
 endfacet

 facet normal 0 0 0
  outer loop
  vertex 0.00979408994 0.00800759066 0.0185615998
  vertex 0.0204946008 0.00104114006 0.0112704998
  vertex 0.00390831009 0.0186379012 0.0158441998
  endloop
 endfacet

 facet normal 0 0 0
  outer loop
  vertex 0.00979408994 0.00800759066 0.0185615998
  vertex -0.00722326059 -0.0122319004 0.0303417984
  vertex 0.0204946008 0.00104114006 0.0112704998
  endloop
 endfacet

 facet normal 0 0 0
  outer loop
  vertex -0.0112293996 -0.00186962006 0.0295337979
  vertex -0.00722326059 -0.0122319004 0.0303417984
  vertex 0.00979408994 0.00800759066 0.0185615998
  endloop
 endfacet

 facet normal 0 0 0
  outer loop
  vertex -0.0112293996 -0.00186962006 0.0295337979
  vertex 0.00979408994 0.00800759066 0.0185615998
  vertex 0.00390831009 0.0186379012 0.0158441998
  endloop
 endfacet

 facet normal 0 0 0
  outer loop
  vertex -0.0112293996 -0.00186962006 0.0295337979
  vertex 0.00390831009 0.0186379012 0.0158441998
  vertex -0.0185643993 0.00485703023 0.0249809008
  endloop
 endfacet

 facet normal 0 0 0
  outer loop
  vertex -0.00455388008 -0.0188213997 0.0268601999
  vertex -0.00722326059 -0.0122319004 0.0303417984
  vertex -0.0267568994 -0.0182160996 0.0110392002
  endloop
 endfacet

 facet normal 0 0 0
  outer loop
  vertex -0.00455388008 -0.0188213997 0.0268601999
  vertex -0.0267568994 -0.0182160996 0.0110392002
  vertex -0.00597900013 -0.0239281021 0.0202823002
  endloop
 endfacet

 facet normal 0 0 0
  outer loop
  vertex -0.00455388008 -0.0188213997 0.0268601999
  vertex -0.00597900013 -0.0239281021 0.0202823002
  vertex 0.0175534002 -0.00894819014 0.00242386968
  endloop
 endfacet

 facet normal 0 0 0
  outer loop
  vertex -0.00455388008 -0.0188213997 0.0268601999
  vertex 0.0175534002 -0.00894819014 0.00242386968
  vertex 0.0204946008 0.00104114006 0.0112704998
  endloop
 endfacet

 facet normal 0 0 0
  outer loop
  vertex -0.00455388008 -0.0188213997 0.0268601999
  vertex 0.0204946008 0.00104114006 0.0112704998
  vertex -0.00722326059 -0.0122319004 0.0303417984
  endloop
 endfacet

 facet normal 0 0 0
  outer loop
  vertex -0.0193597991 -0.0226211008 0.0100440988
  vertex -0.0117006004 -0.0251991022 0.013551699
  vertex -0.0267568994 -0.0182160996 0.0110392002
  endloop
 endfacet

 facet normal 0 0 0
  outer loop
  vertex -0.0193597991 -0.0226211008 0.0100440988
  vertex -0.00871914998 -0.0182061996 -0.00222032005
  vertex -0.0117006004 -0.0251991022 0.013551699
  endloop
 endfacet

 facet normal 0 0 0
  outer loop
  vertex -0.00464168983 -0.0223602001 0.00849300995
  vertex -0.0117006004 -0.0251991022 0.013551699
  vertex -0.00871914998 -0.0182061996 -0.00222032005
  endloop
 endfacet

 facet normal 0 0 0
  outer loop
  vertex -0.00464168983 -0.0223602001 0.00849300995
  vertex -0.00871914998 -0.0182061996 -0.00222032005
  vertex 0.0102942996 -0.0110471006 -0.00886551011
  endloop
 endfacet

 facet normal 0 0 0
  outer loop
  vertex -0.00464168983 -0.0223602001 0.00849300995
  vertex 0.0102942996 -0.0110471006 -0.00886551011
  vertex 0.0175534002 -0.00894819014 0.00242386968
  endloop
 endfacet

 facet normal 0 0 0
  outer loop
  vertex -0.00464168983 -0.0223602001 0.00849300995
  vertex 0.0175534002 -0.00894819014 0.00242386968
  vertex -0.00597900013 -0.0239281021 0.0202823002
  endloop
 endfacet

 facet normal 0 0 0
  outer loop
  vertex -0.00464168983 -0.0223602001 0.00849300995
  vertex -0.00597900013 -0.0239281021 0.0202823002
  vertex -0.0117006004 -0.0251991022 0.013551699
  endloop
 endfacet

 facet normal 0 0 0
  outer loop
  vertex -0.0248051006 -0.0175950006 0.00533265993
  vertex -0.0310155023 -0.00861649029 -0.00138742989
  vertex -0.00871914998 -0.0182061996 -0.00222032005
  endloop
 endfacet

 facet normal 0 0 0
  outer loop
  vertex -0.0248051006 -0.0175950006 0.00533265993
  vertex -0.00871914998 -0.0182061996 -0.00222032005
  vertex -0.0193597991 -0.0226211008 0.0100440988
  endloop
 endfacet

 facet normal 0 0 0
  outer loop
  vertex -0.0248051006 -0.0175950006 0.00533265993
  vertex -0.0193597991 -0.0226211008 0.0100440988
  vertex -0.0267568994 -0.0182160996 0.0110392002
  endloop
 endfacet

 facet normal 0 0 0
  outer loop
  vertex -0.0248051006 -0.0175950006 0.00533265993
  vertex -0.0267568994 -0.0182160996 0.0110392002
  vertex -0.0353654996 -0.0104149999 0.00613760017
  endloop
 endfacet

 facet normal 0 0 0
  outer loop
  vertex -0.0248051006 -0.0175950006 0.00533265993
  vertex -0.0353654996 -0.0104149999 0.00613760017
  vertex -0.0310155023 -0.00861649029 -0.00138742989
  endloop
 endfacet

endsolid AssimpScene
