# Created by Open3D 
# object name: thumb_dip
# number of vertices: 61
# number of triangles: 110
v 0.00142003 0.00660051 0.00972597
vn -0.0919146 0.456403 0.885013
v 0.006674 0.00132924 0.00961765
vn 0.387369 -0.0374064 0.921166
v 0.00821949 -0.00454032 0.00641426
vn 0.632505 -0.422059 0.649464
v 0.0075898 -0.00732888 0.000560722
vn 0.712661 -0.701401 -0.0122995
v 0.00500831 -0.00810464 -0.00361554
vn 0.39068 -0.667907 -0.633459
v -0.0030543 0.00849712 0.00513955
vn -0.477432 0.776258 0.411682
v -0.00616495 0.0081722 0.000426962
vn -0.66964 0.725661 -0.15811
v -0.00662956 0.00467002 -0.00513775
vn -0.622452 0.412385 -0.665201
v -0.00984547 0.00384198 0.006464
vn -0.46631 0.730816 0.49846
v -0.0119252 -0.0039074 0.0130007
vn -0.220589 0.542178 0.810792
v -0.011752 -0.0229482 0.0144221
vn 0.531599 -0.803575 0.267711
v -0.00694226 -0.0193754 0.0111853
vn 0.688519 -0.627164 0.364152
v -0.00810972 -0.0177508 0.0134358
vn 0.685355 -0.209956 0.697286
v -0.0119365 -0.0212408 0.0166388
vn 0.684737 -0.211432 0.697447
v -0.00378661 -0.0148809 0.0110908
vn 0.631535 -0.4492 0.631968
v -0.0058867 -0.0143998 0.0124342
vn 0.505478 -0.182456 0.843328
v -0.00776574 -0.00958519 0.0136275
vn 0.278438 0.0602531 0.958562
v -0.0112221 -0.012794 0.0163767
vn 0.464759 0.21308 0.859416
v -0.0120344 -0.00659946 0.0137296
vn 0.0521471 0.319184 0.946257
v -0.0154717 -0.0083372 0.0148408
vn 0.0896894 0.574736 0.813409
v -0.0148452 -0.0158633 0.0191599
vn 0.46822 0.221392 0.855427
v -0.0147424 -0.0217394 0.0195455
vn 0.409947 -0.343501 0.844956
v -0.0181131 -0.0187028 0.0211242
vn 0.179466 0.0390121 0.98299
v -0.0162839 -0.0238757 0.0174016
vn -0.0571727 -0.907113 0.416987
v -0.00634184 -0.00852674 0.0146908
vn 0.301983 -0.0144844 0.953203
v 0.000601504 -0.014271 0.00505169
vn 0.676856 -0.727906 0.109629
v -0.00609436 -0.0197549 0.00729494
vn 0.543123 -0.838519 -0.0436419
v -0.0125028 -0.023458 0.0105579
vn 0.199235 -0.955914 -0.215715
v -0.0177415 -0.0241505 0.0143508
vn -0.346216 -0.927621 -0.140194
v -0.00762945 -0.0190341 0.00284503
vn 0.255401 -0.838639 -0.481098
v -0.0139171 -0.0215694 0.00651724
vn -0.0630613 -0.85948 -0.507265
v -0.0188801 -0.0215239 0.00987171
vn -0.460219 -0.768774 -0.444055
v -0.010611 -0.0163293 -0.000234776
vn -0.149776 -0.569514 -0.808221
v -0.015947 -0.01869 0.00436773
vn -0.341246 -0.649406 -0.679576
v -0.00176867 -0.00806073 -0.00585157
vn -0.0744072 -0.466503 -0.881384
v 0.00117671 -0.0124416 -0.00147636
vn 0.3875 -0.756784 -0.526424
v -0.0188285 -0.0193752 0.00775093
vn -0.567227 -0.578843 -0.585828
v -0.0206638 -0.0202783 0.0203975
vn -0.47637 -0.435115 0.764033
v -0.0223377 -0.0205118 0.0168559
vn -0.815554 -0.555836 0.16099
v -0.0171386 -0.00567494 0.0130683
vn -0.267837 0.669034 0.693294
v -0.0189641 -0.0109711 0.0179832
vn 0.0977143 0.581451 0.807692
v -0.0210564 -0.00973646 0.0156939
vn -0.449332 0.664034 0.597628
v -0.0180003 -0.00357676 0.00950644
vn -0.583956 0.7223 0.37051
v -0.0224363 -0.00921823 0.0130084
vn -0.818655 0.546781 0.175596
v -0.0226859 -0.0144203 0.0188091
vn -0.754093 0.204449 0.624135
v -0.0199297 -0.0143885 0.0202009
vn -0.0600925 0.327351 0.94299
v 0.00110077 -0.00501198 -0.00743786
vn -0.0034635 -0.458997 -0.888431
v -0.00585956 -0.00249454 -0.00647156
vn -0.384781 -0.136852 -0.912806
v -0.0143101 -0.0106701 -0.00130978
vn -0.46873 -0.19968 -0.860477
v -0.010039 0.00157208 -0.00386795
vn -0.667362 0.293053 -0.684651
v -0.0112393 0.00396394 0.00175843
vn -0.716095 0.683637 -0.140882
v -0.0186548 -0.00370712 0.00560679
vn -0.808519 0.569393 -0.148622
v -0.0174537 -0.00595653 0.00132584
vn -0.777778 0.204501 -0.594341
v -0.0224269 -0.0101152 0.00929333
vn -0.919613 0.337481 -0.201044
v -0.0212484 -0.0115132 0.00671082
vn -0.856456 0.0491708 -0.513873
v -0.0189122 -0.015329 0.00447094
vn -0.667549 -0.296489 -0.682988
v -0.0234781 -0.0147318 0.0118334
vn -0.965558 -0.0396485 -0.257149
v -0.0240356 -0.0143074 0.0156101
vn -0.990764 0.0473093 0.127075
v -0.0222763 -0.0190248 0.0120967
vn -0.826414 -0.49855 -0.261701
v -0.0221549 -0.0145223 0.00918322
vn -0.860463 -0.165198 -0.481989
v -0.0209875 -0.017386 0.00874894
vn -0.77298 -0.378209 -0.509373
f 10//10 1//1 9//9
f 9//9 1//1 6//6
f 12//12 13//13 11//11
f 11//11 13//13 14//14
f 15//15 16//16 12//12
f 12//12 16//16 13//13
f 17//17 18//18 16//16
f 16//16 18//18 13//13
f 17//17 19//19 18//18
f 18//18 19//19 20//20
f 21//21 14//14 18//18
f 18//18 14//14 13//13
f 14//14 21//21 22//22
f 22//22 21//21 23//23
f 22//22 24//24 14//14
f 14//14 24//24 11//11
f 17//17 16//16 25//25
f 25//25 16//16 15//15
f 15//15 3//3 25//25
f 25//25 3//3 2//2
f 15//15 26//26 3//3
f 3//3 26//26 4//4
f 12//12 27//27 15//15
f 15//15 27//27 26//26
f 27//27 12//12 28//28
f 28//28 12//12 11//11
f 17//17 25//25 19//19
f 19//19 25//25 10//10
f 10//10 25//25 1//1
f 1//1 25//25 2//2
f 24//24 29//29 11//11
f 11//11 29//29 28//28
f 30//30 27//27 31//31
f 31//31 27//27 28//28
f 29//29 32//32 28//28
f 28//28 32//32 31//31
f 33//33 30//30 34//34
f 34//34 30//30 31//31
f 30//30 33//33 36//36
f 36//36 33//33 35//35
f 32//32 37//37 31//31
f 31//31 37//37 34//34
f 27//27 30//30 26//26
f 26//26 30//30 36//36
f 26//26 36//36 4//4
f 4//4 36//36 5//5
f 29//29 24//24 39//39
f 39//39 24//24 38//38
f 24//24 22//22 38//38
f 38//38 22//22 23//23
f 20//20 19//19 40//40
f 40//40 19//19 10//10
f 41//41 20//20 42//42
f 42//42 20//20 40//40
f 40//40 10//10 43//43
f 43//43 10//10 9//9
f 42//42 40//40 44//44
f 44//44 40//40 43//43
f 42//42 45//45 41//41
f 41//41 45//45 46//46
f 23//23 46//46 38//38
f 38//38 46//46 45//45
f 21//21 18//18 41//41
f 41//41 18//18 20//20
f 23//23 21//21 46//46
f 46//46 21//21 41//41
f 35//35 48//48 47//47
f 33//33 49//49 35//35
f 35//35 49//49 48//48
f 8//8 48//48 50//50
f 47//47 5//5 35//35
f 35//35 5//5 36//36
f 51//51 7//7 50//50
f 50//50 7//7 8//8
f 7//7 51//51 6//6
f 6//6 51//51 9//9
f 51//51 52//52 9//9
f 9//9 52//52 43//43
f 52//52 51//51 53//53
f 53//53 51//51 50//50
f 54//54 52//52 55//55
f 55//55 52//52 53//53
f 48//48 49//49 50//50
f 50//50 49//49 53//53
f 49//49 56//56 53//53
f 53//53 56//56 55//55
f 52//52 54//54 43//43
f 43//43 54//54 44//44
f 58//58 44//44 57//57
f 57//57 44//44 54//54
f 59//59 57//57 61//61
f 61//61 57//57 60//60
f 57//57 54//54 60//60
f 60//60 54//54 55//55
f 57//57 59//59 58//58
f 58//58 59//59 39//39
f 58//58 39//39 45//45
f 45//45 39//39 38//38
f 45//45 42//42 58//58
f 58//58 42//42 44//44
f 49//49 33//33 56//56
f 56//56 33//33 34//34
f 61//61 56//56 37//37
f 37//37 56//56 34//34
f 61//61 60//60 56//56
f 56//56 60//60 55//55
f 59//59 61//61 32//32
f 32//32 61//61 37//37
f 32//32 29//29 59//59
f 59//59 29//29 39//39
