solid AssimpScene
 facet normal 0 0 0
  outer loop
  vertex 0.00110076996 -0.00501197996 -0.00743786059
  vertex -0.00662956014 0.00467002019 -0.00513774995
  vertex -0.00616494939 0.00817220006 0.000426962011
  endloop
 endfacet

 facet normal 0 0 0
  outer loop
  vertex 0.00110076996 -0.00501197996 -0.00743786059
  vertex -0.00616494939 0.00817220006 0.000426962011
  vertex -0.00305430009 0.00849712081 0.00513955019
  endloop
 endfacet

 facet normal 0 0 0
  outer loop
  vertex 0.00110076996 -0.00501197996 -0.00743786059
  vertex -0.00305430009 0.00849712081 0.00513955019
  vertex 0.0066739996 0.00132924004 0.00961764995
  endloop
 endfacet

 facet normal 0 0 0
  outer loop
  vertex 0.00821948983 -0.00454032049 0.00641425978
  vertex 0.0066739996 0.00132924004 0.00961764995
  vertex -0.0147423996 -0.0217394009 0.0195454992
  endloop
 endfacet

 facet normal 0 0 0
  outer loop
  vertex 0.00142003002 0.00660050986 0.00972597022
  vertex 0.0066739996 0.00132924004 0.00961764995
  vertex -0.00305430009 0.00849712081 0.00513955019
  endloop
 endfacet

 facet normal 0 0 0
  outer loop
  vertex -0.00616494939 0.00817220006 0.000426962011
  vertex -0.0180002991 -0.00357675995 0.00950643979
  vertex -0.00305430009 0.00849712081 0.00513955019
  endloop
 endfacet

 facet normal 0 0 0
  outer loop
  vertex -0.0223376974 -0.0205118004 0.0168558992
  vertex -0.0177414976 -0.0241505001 0.0143507998
  vertex -0.0162838995 -0.0238757022 0.0174016003
  endloop
 endfacet

 facet normal 0 0 0
  outer loop
  vertex -0.0223376974 -0.0205118004 0.0168558992
  vertex -0.0162838995 -0.0238757022 0.0174016003
  vertex -0.0206637997 -0.0202782992 0.0203974992
  endloop
 endfacet

 facet normal 0 0 0
  outer loop
  vertex -0.0223376974 -0.0205118004 0.0168558992
  vertex -0.0206637997 -0.0202782992 0.0203974992
  vertex -0.0226858985 -0.0144202998 0.0188091006
  endloop
 endfacet

 facet normal 0 0 0
  outer loop
  vertex -0.00585955987 -0.00249454007 -0.00647155987
  vertex -0.00662956014 0.00467002019 -0.00513774995
  vertex 0.00110076996 -0.00501197996 -0.00743786059
  endloop
 endfacet

 facet normal 0 0 0
  outer loop
  vertex -0.00585955987 -0.00249454007 -0.00647155987
  vertex -0.0143101001 -0.0106701003 -0.00130978005
  vertex -0.0174537003 -0.00595653011 0.00132584001
  endloop
 endfacet

 facet normal 0 0 0
  outer loop
  vertex -0.00585955987 -0.00249454007 -0.00647155987
  vertex -0.0174537003 -0.00595653011 0.00132584001
  vertex -0.00662956014 0.00467002019 -0.00513774995
  endloop
 endfacet

 facet normal 0 0 0
  outer loop
  vertex -0.0199296977 -0.0143884998 0.0202009007
  vertex -0.0226858985 -0.0144202998 0.0188091006
  vertex -0.0206637997 -0.0202782992 0.0203974992
  endloop
 endfacet

 facet normal 0 0 0
  outer loop
  vertex -0.0143101001 -0.0106701003 -0.00130978005
  vertex -0.0189121999 -0.0153289996 0.00447094021
  vertex -0.0174537003 -0.00595653011 0.00132584001
  endloop
 endfacet

 facet normal 0 0 0
  outer loop
  vertex -0.0143101001 -0.0106701003 -0.00130978005
  vertex -0.00585955987 -0.00249454007 -0.00647155987
  vertex 0.00110076996 -0.00501197996 -0.00743786059
  endloop
 endfacet

 facet normal 0 0 0
  outer loop
  vertex -0.0143101001 -0.0106701003 -0.00130978005
  vertex 0.00110076996 -0.00501197996 -0.00743786059
  vertex -0.0106109986 -0.0163292997 -0.000234776002
  endloop
 endfacet

 facet normal 0 0 0
  outer loop
  vertex -0.0143101001 -0.0106701003 -0.00130978005
  vertex -0.0106109986 -0.0163292997 -0.000234776002
  vertex -0.0189121999 -0.0153289996 0.00447094021
  endloop
 endfacet

 facet normal 0 0 0
  outer loop
  vertex -0.0117520001 -0.0229482017 0.0144220991
  vertex -0.00609435979 -0.0197548997 0.00729493937
  vertex 0.00758979935 -0.00732888002 0.000560722023
  endloop
 endfacet

 facet normal 0 0 0
  outer loop
  vertex -0.0117520001 -0.0229482017 0.0144220991
  vertex 0.00758979935 -0.00732888002 0.000560722023
  vertex 0.00821948983 -0.00454032049 0.00641425978
  endloop
 endfacet

 facet normal 0 0 0
  outer loop
  vertex -0.0117520001 -0.0229482017 0.0144220991
  vertex 0.00821948983 -0.00454032049 0.00641425978
  vertex -0.0147423996 -0.0217394009 0.0195454992
  endloop
 endfacet

 facet normal 0 0 0
  outer loop
  vertex -0.0139170997 -0.021569401 0.00651723985
  vertex -0.0188801009 -0.0215239003 0.00987171009
  vertex -0.0189121999 -0.0153289996 0.00447094021
  endloop
 endfacet

 facet normal 0 0 0
  outer loop
  vertex -0.0139170997 -0.021569401 0.00651723985
  vertex -0.0189121999 -0.0153289996 0.00447094021
  vertex -0.0106109986 -0.0163292997 -0.000234776002
  endloop
 endfacet

 facet normal 0 0 0
  outer loop
  vertex 0.00758979935 -0.00732888002 0.000560722023
  vertex 0.00500830961 -0.00810464006 -0.00361553975
  vertex 0.00110076996 -0.00501197996 -0.00743786059
  endloop
 endfacet

 facet normal 0 0 0
  outer loop
  vertex 0.00758979935 -0.00732888002 0.000560722023
  vertex 0.00110076996 -0.00501197996 -0.00743786059
  vertex 0.0066739996 0.00132924004 0.00961764995
  endloop
 endfacet

 facet normal 0 0 0
  outer loop
  vertex 0.00758979935 -0.00732888002 0.000560722023
  vertex 0.0066739996 0.00132924004 0.00961764995
  vertex 0.00821948983 -0.00454032049 0.00641425978
  endloop
 endfacet

 facet normal 0 0 0
  outer loop
  vertex -0.00762944948 -0.0190341026 0.00284503005
  vertex -0.0139170997 -0.021569401 0.00651723985
  vertex -0.0106109986 -0.0163292997 -0.000234776002
  endloop
 endfacet

 facet normal 0 0 0
  outer loop
  vertex -0.0186547991 -0.00370711996 0.00560679007
  vertex -0.0180002991 -0.00357675995 0.00950643979
  vertex -0.00616494939 0.00817220006 0.000426962011
  endloop
 endfacet

 facet normal 0 0 0
  outer loop
  vertex -0.0186547991 -0.00370711996 0.00560679007
  vertex -0.00616494939 0.00817220006 0.000426962011
  vertex -0.00662956014 0.00467002019 -0.00513774995
  endloop
 endfacet

 facet normal 0 0 0
  outer loop
  vertex -0.0186547991 -0.00370711996 0.00560679007
  vertex -0.00662956014 0.00467002019 -0.00513774995
  vertex -0.0174537003 -0.00595653011 0.00132584001
  endloop
 endfacet

 facet normal 0 0 0
  outer loop
  vertex -0.0186547991 -0.00370711996 0.00560679007
  vertex -0.0224363003 -0.00921822991 0.0130083999
  vertex -0.0180002991 -0.00357675995 0.00950643979
  endloop
 endfacet

 facet normal 0 0 0
  outer loop
  vertex -0.0188801009 -0.0215239003 0.00987171009
  vertex -0.0139170997 -0.021569401 0.00651723985
  vertex -0.0177414976 -0.0241505001 0.0143507998
  endloop
 endfacet

 facet normal 0 0 0
  outer loop
  vertex -0.0125027988 -0.0234580003 0.0105579002
  vertex -0.0177414976 -0.0241505001 0.0143507998
  vertex -0.0139170997 -0.021569401 0.00651723985
  endloop
 endfacet

 facet normal 0 0 0
  outer loop
  vertex -0.0125027988 -0.0234580003 0.0105579002
  vertex -0.0139170997 -0.021569401 0.00651723985
  vertex -0.00762944948 -0.0190341026 0.00284503005
  endloop
 endfacet

 facet normal 0 0 0
  outer loop
  vertex -0.0125027988 -0.0234580003 0.0105579002
  vertex -0.00762944948 -0.0190341026 0.00284503005
  vertex -0.00609435979 -0.0197548997 0.00729493937
  endloop
 endfacet

 facet normal 0 0 0
  outer loop
  vertex -0.0125027988 -0.0234580003 0.0105579002
  vertex -0.00609435979 -0.0197548997 0.00729493937
  vertex -0.0117520001 -0.0229482017 0.0144220991
  endloop
 endfacet

 facet normal 0 0 0
  outer loop
  vertex -0.0181131009 -0.0187027995 0.0211242009
  vertex -0.0147423996 -0.0217394009 0.0195454992
  vertex 0.0066739996 0.00132924004 0.00961764995
  endloop
 endfacet

 facet normal 0 0 0
  outer loop
  vertex -0.0181131009 -0.0187027995 0.0211242009
  vertex 0.0066739996 0.00132924004 0.00961764995
  vertex 0.00142003002 0.00660050986 0.00972597022
  endloop
 endfacet

 facet normal 0 0 0
  outer loop
  vertex -0.0181131009 -0.0187027995 0.0211242009
  vertex 0.00142003002 0.00660050986 0.00972597022
  vertex -0.0199296977 -0.0143884998 0.0202009007
  endloop
 endfacet

 facet normal 0 0 0
  outer loop
  vertex -0.0181131009 -0.0187027995 0.0211242009
  vertex -0.0199296977 -0.0143884998 0.0202009007
  vertex -0.0206637997 -0.0202782992 0.0203974992
  endloop
 endfacet

 facet normal 0 0 0
  outer loop
  vertex -0.0181131009 -0.0187027995 0.0211242009
  vertex -0.0206637997 -0.0202782992 0.0203974992
  vertex -0.0147423996 -0.0217394009 0.0195454992
  endloop
 endfacet

 facet normal 0 0 0
  outer loop
  vertex -0.0162838995 -0.0238757022 0.0174016003
  vertex -0.0147423996 -0.0217394009 0.0195454992
  vertex -0.0206637997 -0.0202782992 0.0203974992
  endloop
 endfacet

 facet normal 0 0 0
  outer loop
  vertex -0.0162838995 -0.0238757022 0.0174016003
  vertex -0.0177414976 -0.0241505001 0.0143507998
  vertex -0.0125027988 -0.0234580003 0.0105579002
  endloop
 endfacet

 facet normal 0 0 0
  outer loop
  vertex -0.0162838995 -0.0238757022 0.0174016003
  vertex -0.0125027988 -0.0234580003 0.0105579002
  vertex -0.0117520001 -0.0229482017 0.0144220991
  endloop
 endfacet

 facet normal 0 0 0
  outer loop
  vertex -0.0162838995 -0.0238757022 0.0174016003
  vertex -0.0117520001 -0.0229482017 0.0144220991
  vertex -0.0147423996 -0.0217394009 0.0195454992
  endloop
 endfacet

 facet normal 0 0 0
  outer loop
  vertex -0.0240355991 -0.0143074002 0.0156101007
  vertex -0.0226858985 -0.0144202998 0.0188091006
  vertex -0.0224363003 -0.00921822991 0.0130083999
  endloop
 endfacet

 facet normal 0 0 0
  outer loop
  vertex -0.0240355991 -0.0143074002 0.0156101007
  vertex -0.0223376974 -0.0205118004 0.0168558992
  vertex -0.0226858985 -0.0144202998 0.0188091006
  endloop
 endfacet

 facet normal 0 0 0
  outer loop
  vertex -0.0222762991 -0.0190248005 0.0120967003
  vertex -0.0234780982 -0.0147318011 0.0118334005
  vertex -0.0189121999 -0.0153289996 0.00447094021
  endloop
 endfacet

 facet normal 0 0 0
  outer loop
  vertex -0.0222762991 -0.0190248005 0.0120967003
  vertex -0.0189121999 -0.0153289996 0.00447094021
  vertex -0.0188801009 -0.0215239003 0.00987171009
  endloop
 endfacet

 facet normal 0 0 0
  outer loop
  vertex -0.0222762991 -0.0190248005 0.0120967003
  vertex -0.0188801009 -0.0215239003 0.00987171009
  vertex -0.0177414976 -0.0241505001 0.0143507998
  endloop
 endfacet

 facet normal 0 0 0
  outer loop
  vertex -0.0222762991 -0.0190248005 0.0120967003
  vertex -0.0177414976 -0.0241505001 0.0143507998
  vertex -0.0223376974 -0.0205118004 0.0168558992
  endloop
 endfacet

 facet normal 0 0 0
  outer loop
  vertex -0.0223376974 -0.0205118004 0.0168558992
  vertex -0.0240355991 -0.0143074002 0.0156101007
  vertex -0.0234780982 -0.0147318011 0.0118334005
  endloop
 endfacet

 facet normal 0 0 0
  outer loop
  vertex -0.0223376974 -0.0205118004 0.0168558992
  vertex -0.0234780982 -0.0147318011 0.0118334005
  vertex -0.0222762991 -0.0190248005 0.0120967003
  endloop
 endfacet

 facet normal 0 0 0
  outer loop
  vertex -0.0224268995 -0.0101151997 0.0092933299
  vertex -0.0224363003 -0.00921822991 0.0130083999
  vertex -0.0186547991 -0.00370711996 0.00560679007
  endloop
 endfacet

 facet normal 0 0 0
  outer loop
  vertex -0.0224268995 -0.0101151997 0.0092933299
  vertex -0.0186547991 -0.00370711996 0.00560679007
  vertex -0.0174537003 -0.00595653011 0.00132584001
  endloop
 endfacet

 facet normal 0 0 0
  outer loop
  vertex -0.0174537003 -0.00595653011 0.00132584001
  vertex -0.0189121999 -0.0153289996 0.00447094021
  vertex -0.0234780982 -0.0147318011 0.0118334005
  endloop
 endfacet

 facet normal 0 0 0
  outer loop
  vertex -0.0174537003 -0.00595653011 0.00132584001
  vertex -0.0234780982 -0.0147318011 0.0118334005
  vertex -0.0224268995 -0.0101151997 0.0092933299
  endloop
 endfacet

 facet normal 0 0 0
  outer loop
  vertex -0.0224268995 -0.0101151997 0.0092933299
  vertex -0.0234780982 -0.0147318011 0.0118334005
  vertex -0.0240355991 -0.0143074002 0.0156101007
  endloop
 endfacet

 facet normal 0 0 0
  outer loop
  vertex -0.0224268995 -0.0101151997 0.0092933299
  vertex -0.0240355991 -0.0143074002 0.0156101007
  vertex -0.0224363003 -0.00921822991 0.0130083999
  endloop
 endfacet

 facet normal 0 0 0
  outer loop
  vertex 0.00117671001 -0.0124415997 -0.00147636002
  vertex -0.00609435979 -0.0197548997 0.00729493937
  vertex -0.00762944948 -0.0190341026 0.00284503005
  endloop
 endfacet

 facet normal 0 0 0
  outer loop
  vertex 0.00117671001 -0.0124415997 -0.00147636002
  vertex -0.00762944948 -0.0190341026 0.00284503005
  vertex -0.0106109986 -0.0163292997 -0.000234776002
  endloop
 endfacet

 facet normal 0 0 0
  outer loop
  vertex 0.00117671001 -0.0124415997 -0.00147636002
  vertex -0.0106109986 -0.0163292997 -0.000234776002
  vertex 0.00110076996 -0.00501197996 -0.00743786059
  endloop
 endfacet

 facet normal 0 0 0
  outer loop
  vertex 0.00117671001 -0.0124415997 -0.00147636002
  vertex 0.00110076996 -0.00501197996 -0.00743786059
  vertex 0.00500830961 -0.00810464006 -0.00361553975
  endloop
 endfacet

 facet normal 0 0 0
  outer loop
  vertex 0.00117671001 -0.0124415997 -0.00147636002
  vertex 0.00500830961 -0.00810464006 -0.00361553975
  vertex 0.00758979935 -0.00732888002 0.000560722023
  endloop
 endfacet

 facet normal 0 0 0
  outer loop
  vertex 0.00117671001 -0.0124415997 -0.00147636002
  vertex 0.00758979935 -0.00732888002 0.000560722023
  vertex -0.00609435979 -0.0197548997 0.00729493937
  endloop
 endfacet

 facet normal 0 0 0
  outer loop
  vertex -0.0210564006 -0.0097364597 0.0156938992
  vertex -0.00305430009 0.00849712081 0.00513955019
  vertex -0.0180002991 -0.00357675995 0.00950643979
  endloop
 endfacet

 facet normal 0 0 0
  outer loop
  vertex -0.0210564006 -0.0097364597 0.0156938992
  vertex -0.0180002991 -0.00357675995 0.00950643979
  vertex -0.0224363003 -0.00921822991 0.0130083999
  endloop
 endfacet

 facet normal 0 0 0
  outer loop
  vertex -0.0210564006 -0.0097364597 0.0156938992
  vertex -0.0224363003 -0.00921822991 0.0130083999
  vertex -0.0226858985 -0.0144202998 0.0188091006
  endloop
 endfacet

 facet normal 0 0 0
  outer loop
  vertex -0.0210564006 -0.0097364597 0.0156938992
  vertex -0.0226858985 -0.0144202998 0.0188091006
  vertex -0.0199296977 -0.0143884998 0.0202009007
  endloop
 endfacet

 facet normal 0 0 0
  outer loop
  vertex -0.0210564006 -0.0097364597 0.0156938992
  vertex -0.0199296977 -0.0143884998 0.0202009007
  vertex 0.00142003002 0.00660050986 0.00972597022
  endloop
 endfacet

 facet normal 0 0 0
  outer loop
  vertex -0.0210564006 -0.0097364597 0.0156938992
  vertex 0.00142003002 0.00660050986 0.00972597022
  vertex -0.00305430009 0.00849712081 0.00513955019
  endloop
 endfacet

endsolid AssimpScene
