solid AssimpScene
 facet normal 0 0 0
  outer loop
  vertex -0.0166682992 -0.0104524 0.0205012001
  vertex -0.0211426001 -0.00855583046 0.0159147996
  vertex -0.0242531989 -0.00888075028 0.0112022003
  endloop
 endfacet

 facet normal 0 0 0
  outer loop
  vertex -0.0166682992 -0.0104524 0.0205012001
  vertex -0.0242531989 -0.00888075028 0.0112022003
  vertex -0.0239479002 -0.0195474997 0.00430365978
  endloop
 endfacet

 facet normal 0 0 0
  outer loop
  vertex -0.00421604002 -0.00694274018 -0.0116994996
  vertex -0.0205517001 0.00843388028 -0.00902944896
  vertex -0.00342059997 0.0205354001 0.00323730987
  endloop
 endfacet

 facet normal 0 0 0
  outer loop
  vertex -0.00421604002 -0.00694274018 -0.0116994996
  vertex -0.00342059997 0.0205354001 0.00323730987
  vertex 0.00344315008 -0.00952071045 -0.00819185004
  endloop
 endfacet

 facet normal 0 0 0
  outer loop
  vertex -0.0173434 0.0154954996 -0.0035886101
  vertex -0.0211426001 -0.00855583046 0.0159147996
  vertex -0.00342059997 0.0205354001 0.00323730987
  endloop
 endfacet

 facet normal 0 0 0
  outer loop
  vertex -0.0173434 0.0154954996 -0.0035886101
  vertex -0.00342059997 0.0205354001 0.00323730987
  vertex -0.0205517001 0.00843388028 -0.00902944896
  endloop
 endfacet

 facet normal 0 0 0
  outer loop
  vertex -0.00986880995 -0.0215933006 0.0171895009
  vertex 0.0105898995 -0.00314298994 0.00511666015
  vertex -0.0114142988 -0.0157236997 0.0203929003
  endloop
 endfacet

 facet normal 0 0 0
  outer loop
  vertex -0.00986880995 -0.0215933006 0.0171895009
  vertex -0.0239479002 -0.0195474997 0.00430365978
  vertex -0.0130799999 -0.0251576006 0.00715968013
  endloop
 endfacet

 facet normal 0 0 0
  outer loop
  vertex -0.0166682992 -0.0104524 0.0205012001
  vertex -0.0114142988 -0.0157236997 0.0203929003
  vertex 0.00391435996 0.0138087003 0.00779019995
  endloop
 endfacet

 facet normal 0 0 0
  outer loop
  vertex -0.0166682992 -0.0104524 0.0205012001
  vertex 0.00391435996 0.0138087003 0.00779019995
  vertex -0.00342059997 0.0205354001 0.00323730987
  endloop
 endfacet

 facet normal 0 0 0
  outer loop
  vertex -0.0166682992 -0.0104524 0.0205012001
  vertex -0.00342059997 0.0205354001 0.00323730987
  vertex -0.0211426001 -0.00855583046 0.0159147996
  endloop
 endfacet

 facet normal 0 0 0
  outer loop
  vertex -0.0166682992 -0.0104524 0.0205012001
  vertex -0.0239479002 -0.0195474997 0.00430365978
  vertex -0.00986880995 -0.0215933006 0.0171895009
  endloop
 endfacet

 facet normal 0 0 0
  outer loop
  vertex -0.0166682992 -0.0104524 0.0205012001
  vertex -0.00986880995 -0.0215933006 0.0171895009
  vertex -0.0114142988 -0.0157236997 0.0203929003
  endloop
 endfacet

 facet normal 0 0 0
  outer loop
  vertex 0.0091647692 -0.00824972987 -0.00146126002
  vertex 0.00344315008 -0.00952071045 -0.00819185004
  vertex -0.00342059997 0.0205354001 0.00323730987
  endloop
 endfacet

 facet normal 0 0 0
  outer loop
  vertex 0.0091647692 -0.00824972987 -0.00146126002
  vertex -0.00342059997 0.0205354001 0.00323730987
  vertex 0.00391435996 0.0138087003 0.00779019995
  endloop
 endfacet

 facet normal 0 0 0
  outer loop
  vertex 0.0091647692 -0.00824972987 -0.00146126002
  vertex 0.00391435996 0.0138087003 0.00779019995
  vertex 0.0105898995 -0.00314298994 0.00511666015
  endloop
 endfacet

 facet normal 0 0 0
  outer loop
  vertex 0.0091647692 -0.00824972987 -0.00146126002
  vertex 0.0105898995 -0.00314298994 0.00511666015
  vertex -0.00986880995 -0.0215933006 0.0171895009
  endloop
 endfacet

 facet normal 0 0 0
  outer loop
  vertex 0.0091647692 -0.00824972987 -0.00146126002
  vertex -0.0130799999 -0.0251576006 0.00715968013
  vertex 0.00344315008 -0.00952071045 -0.00819185004
  endloop
 endfacet

 facet normal 0 0 0
  outer loop
  vertex -0.0242531989 -0.00888075028 0.0112022003
  vertex -0.0211426001 -0.00855583046 0.0159147996
  vertex -0.0173434 0.0154954996 -0.0035886101
  endloop
 endfacet

 facet normal 0 0 0
  outer loop
  vertex -0.0242531989 -0.00888075028 0.0112022003
  vertex -0.0173434 0.0154954996 -0.0035886101
  vertex -0.0205517001 0.00843388028 -0.00902944896
  endloop
 endfacet

 facet normal 0 0 0
  outer loop
  vertex 0.00792051014 0.00344647001 0.00859820936
  vertex 0.0105898995 -0.00314298994 0.00511666015
  vertex 0.00391435996 0.0138087003 0.00779019995
  endloop
 endfacet

 facet normal 0 0 0
  outer loop
  vertex 0.00792051014 0.00344647001 0.00859820936
  vertex 0.00391435996 0.0138087003 0.00779019995
  vertex -0.0114142988 -0.0157236997 0.0203929003
  endloop
 endfacet

 facet normal 0 0 0
  outer loop
  vertex 0.00792051014 0.00344647001 0.00859820936
  vertex -0.0114142988 -0.0157236997 0.0203929003
  vertex 0.0105898995 -0.00314298994 0.00511666015
  endloop
 endfacet

 facet normal 0 0 0
  outer loop
  vertex -0.0104985004 -0.0243817978 0.0113359001
  vertex -0.0130799999 -0.0251576006 0.00715968013
  vertex 0.0091647692 -0.00824972987 -0.00146126002
  endloop
 endfacet

 facet normal 0 0 0
  outer loop
  vertex -0.0104985004 -0.0243817978 0.0113359001
  vertex 0.0091647692 -0.00824972987 -0.00146126002
  vertex -0.00986880995 -0.0215933006 0.0171895009
  endloop
 endfacet

 facet normal 0 0 0
  outer loop
  vertex -0.0104985004 -0.0243817978 0.0113359001
  vertex -0.00986880995 -0.0215933006 0.0171895009
  vertex -0.0130799999 -0.0251576006 0.00715968013
  endloop
 endfacet

 facet normal 0 0 0
  outer loop
  vertex -0.0169875007 -0.0220649 0.00333735999
  vertex -0.0239479002 -0.0195474997 0.00430365978
  vertex -0.00421604002 -0.00694274018 -0.0116994996
  endloop
 endfacet

 facet normal 0 0 0
  outer loop
  vertex -0.00421604002 -0.00694274018 -0.0116994996
  vertex 0.00344315008 -0.00952071045 -0.00819185004
  vertex -0.0130799999 -0.0251576006 0.00715968013
  endloop
 endfacet

 facet normal 0 0 0
  outer loop
  vertex -0.00421604002 -0.00694274018 -0.0116994996
  vertex -0.0130799999 -0.0251576006 0.00715968013
  vertex -0.0169875007 -0.0220649 0.00333735999
  endloop
 endfacet

 facet normal 0 0 0
  outer loop
  vertex -0.0169875007 -0.0220649 0.00333735999
  vertex -0.0130799999 -0.0251576006 0.00715968013
  vertex -0.0239479002 -0.0195474997 0.00430365978
  endloop
 endfacet

 facet normal 0 0 0
  outer loop
  vertex -0.0116132004 -0.0025376901 -0.0107044
  vertex -0.0205517001 0.00843388028 -0.00902944896
  vertex -0.00421604002 -0.00694274018 -0.0116994996
  endloop
 endfacet

 facet normal 0 0 0
  outer loop
  vertex -0.0116132004 -0.0025376901 -0.0107044
  vertex -0.00421604002 -0.00694274018 -0.0116994996
  vertex -0.0239479002 -0.0195474997 0.00430365978
  endloop
 endfacet

 facet normal 0 0 0
  outer loop
  vertex -0.0116132004 -0.0025376901 -0.0107044
  vertex -0.0239479002 -0.0195474997 0.00430365978
  vertex -0.0205517001 0.00843388028 -0.00902944896
  endloop
 endfacet

 facet normal 0 0 0
  outer loop
  vertex -0.0247179009 -0.0123829003 0.00563747017
  vertex -0.0239479002 -0.0195474997 0.00430365978
  vertex -0.0242531989 -0.00888075028 0.0112022003
  endloop
 endfacet

 facet normal 0 0 0
  outer loop
  vertex -0.0247179009 -0.0123829003 0.00563747017
  vertex -0.0242531989 -0.00888075028 0.0112022003
  vertex -0.0205517001 0.00843388028 -0.00902944896
  endloop
 endfacet

 facet normal 0 0 0
  outer loop
  vertex -0.0247179009 -0.0123829003 0.00563747017
  vertex -0.0205517001 0.00843388028 -0.00902944896
  vertex -0.0239479002 -0.0195474997 0.00430365978
  endloop
 endfacet

endsolid AssimpScene
